ISO-10303-21;
HEADER;
FILE_DESCRIPTION (( 'STEP AP214' ),
    '1' );
FILE_NAME ('18mm Motor Retainer.STEP',
    '2026-04-15T16:20:26',
    ( '' ),
    ( '' ),
    'SwSTEP 2.0',
    'SolidWorks 2025',
    '' );
FILE_SCHEMA (( 'AUTOMOTIVE_DESIGN' ));
ENDSEC;

DATA;
#1 = DIRECTION ( 'NONE',  ( 0.000000000000000000, 0.000000000000000000, 1.000000000000000000 ) ) ;
#2 = DIRECTION ( 'NONE',  ( 1.000000000000000000, 0.000000000000000000, 0.000000000000000000 ) ) ;
#3 = EDGE_LOOP ( 'NONE', ( #673, #539 ) ) ;
#4 = VECTOR ( 'NONE', #194, 1000.000000000000114 ) ;
#5 = CONICAL_SURFACE ( 'NONE', #21, 8.250000000000001776, 0.7853981633974479459 ) ;
#6 = DIRECTION ( 'NONE',  ( 1.000000000000000000, 0.000000000000000000, 0.000000000000000000 ) ) ;
#7 = AXIS2_PLACEMENT_3D ( 'NONE', #301, #357, #81 ) ;
#8 = FACE_OUTER_BOUND ( 'NONE', #595, .T. ) ;
#9 = EDGE_CURVE ( 'NONE', #170, #405, #215, .T. ) ;
#10 = EDGE_LOOP ( 'NONE', ( #219, #419 ) ) ;
#11 = DIRECTION ( 'NONE',  ( -1.000000000000000000, 0.000000000000000000, 0.000000000000000000 ) ) ;
#12 = CARTESIAN_POINT ( 'NONE',  ( -15.75000000000000000, 0.000000000000000000, 4.999999999999999112 ) ) ;
#13 = AXIS2_PLACEMENT_3D ( 'NONE', #45, #95, #637 ) ;
#14 = ORIENTED_EDGE ( 'NONE', *, *, #145, .F. ) ;
#15 = AXIS2_PLACEMENT_3D ( 'NONE', #103, #218, #424 ) ;
#16 = DIRECTION ( 'NONE',  ( -0.000000000000000000, -0.000000000000000000, -1.000000000000000000 ) ) ;
#17 = CARTESIAN_POINT ( 'NONE',  ( 0.000000000000000000, 0.000000000000000000, 71.50000000000001421 ) ) ;
#18 = ORIENTED_EDGE ( 'NONE', *, *, #561, .F. ) ;
#19 = CARTESIAN_POINT ( 'NONE',  ( 0.000000000000000000, 0.000000000000000000, 72.00000000000001421 ) ) ;
#20 = ADVANCED_FACE ( 'NONE', ( #496, #588 ), #374, .F. ) ;
#21 = AXIS2_PLACEMENT_3D ( 'NONE', #256, #363, #430 ) ;
#22 = ORIENTED_EDGE ( 'NONE', *, *, #352, .F. ) ;
#23 = EDGE_CURVE ( 'NONE', #170, #328, #594, .T. ) ;
#24 = LINE ( 'NONE', #292, #630 ) ;
#25 = EDGE_LOOP ( 'NONE', ( #114, #464 ) ) ;
#26 = CONICAL_SURFACE ( 'NONE', #152, 15.25000000000000000, 0.7853981633974482790 ) ;
#27 = DIRECTION ( 'NONE',  ( -1.000000000000000000, 0.000000000000000000, 0.000000000000000000 ) ) ;
#28 = EDGE_LOOP ( 'NONE', ( #394, #133 ) ) ;
#29 = DIRECTION ( 'NONE',  ( 0.000000000000000000, 0.000000000000000000, -1.000000000000000000 ) ) ;
#30 = CYLINDRICAL_SURFACE ( 'NONE', #635, 11.75000000000000000 ) ;
#31 = AXIS2_PLACEMENT_3D ( 'NONE', #335, #67, #670 ) ;
#32 = AXIS2_PLACEMENT_3D ( 'NONE', #555, #512, #667 ) ;
#33 = CARTESIAN_POINT ( 'NONE',  ( 0.000000000000000000, 0.000000000000000000, 5.500000000000000000 ) ) ;
#34 = ORIENTED_EDGE ( 'NONE', *, *, #421, .T. ) ;
#35 = CARTESIAN_POINT ( 'NONE',  ( -7.250000000000001776, 0.000000000000000000, 71.00000000000001421 ) ) ;
#36 = PRODUCT_DEFINITION_CONTEXT ( 'detailed design', #567, 'design' ) ;
#37 = ADVANCED_FACE ( 'NONE', ( #650 ), #411, .T. ) ;
#38 = DIRECTION ( 'NONE',  ( 1.000000000000000000, 0.000000000000000000, 0.000000000000000000 ) ) ;
#39 = CARTESIAN_POINT ( 'NONE',  ( 0.000000000000000000, 0.000000000000000000, 72.00000000000001421 ) ) ;
#40 =( NAMED_UNIT ( * ) PLANE_ANGLE_UNIT ( ) SI_UNIT ( $, .RADIAN. ) );
#41 = LINE ( 'NONE', #477, #251 ) ;
#42 = EDGE_CURVE ( 'NONE', #330, #669, #522, .T. ) ;
#43 = VECTOR ( 'NONE', #344, 1000.000000000000114 ) ;
#44 = AXIS2_PLACEMENT_3D ( 'NONE', #55, #533, #591 ) ;
#45 = CARTESIAN_POINT ( 'NONE',  ( 0.000000000000000000, 0.000000000000000000, 0.5000000000000004441 ) ) ;
#46 = CARTESIAN_POINT ( 'NONE',  ( -12.75000000000000000, 0.000000000000000000, 0.000000000000000000 ) ) ;
#47 = EDGE_CURVE ( 'NONE', #385, #679, #686, .T. ) ;
#48 = EDGE_LOOP ( 'NONE', ( #545, #450, #636, #589 ) ) ;
#49 = CARTESIAN_POINT ( 'NONE',  ( 0.000000000000000000, 0.000000000000000000, 5.500000000000000000 ) ) ;
#50 = DIRECTION ( 'NONE',  ( 0.000000000000000000, 0.000000000000000000, -1.000000000000000000 ) ) ;
#51 = ORIENTED_EDGE ( 'NONE', *, *, #523, .F. ) ;
#52 = CARTESIAN_POINT ( 'NONE',  ( -9.250000000000000000, 0.000000000000000000, 70.00000000000000000 ) ) ;
#53 = DIRECTION ( 'NONE',  ( 1.000000000000000000, 0.000000000000000000, -0.000000000000000000 ) ) ;
#54 = ORIENTED_EDGE ( 'NONE', *, *, #192, .F. ) ;
#55 = CARTESIAN_POINT ( 'NONE',  ( 0.000000000000000000, 0.000000000000000000, 3.500000000000003109 ) ) ;
#56 = AXIS2_PLACEMENT_3D ( 'NONE', #185, #235, #438 ) ;
#57 = DIRECTION ( 'NONE',  ( -0.000000000000000000, -0.000000000000000000, -1.000000000000000000 ) ) ;
#58 = AXIS2_PLACEMENT_3D ( 'NONE', #600, #57, #383 ) ;
#59 = ORIENTED_EDGE ( 'NONE', *, *, #546, .T. ) ;
#60 = DIRECTION ( 'NONE',  ( 1.000000000000000000, 0.000000000000000000, -0.000000000000000000 ) ) ;
#61 = EDGE_CURVE ( 'NONE', #454, #662, #674, .T. ) ;
#62 = CARTESIAN_POINT ( 'NONE',  ( 0.000000000000000000, 0.000000000000000000, 0.5000000000000004441 ) ) ;
#63 = ORIENTED_EDGE ( 'NONE', *, *, #495, .T. ) ;
#64 = LINE ( 'NONE', #73, #268 ) ;
#65 = DIRECTION ( 'NONE',  ( -1.000000000000000000, 0.000000000000000000, 0.000000000000000000 ) ) ;
#66 = ORIENTED_EDGE ( 'NONE', *, *, #445, .T. ) ;
#67 = DIRECTION ( 'NONE',  ( 0.000000000000000000, 0.000000000000000000, 1.000000000000000000 ) ) ;
#68 = AXIS2_PLACEMENT_3D ( 'NONE', #453, #560, #467 ) ;
#69 = AXIS2_PLACEMENT_3D ( 'NONE', #49, #543, #278 ) ;
#70 = EDGE_CURVE ( 'NONE', #497, #679, #169, .T. ) ;
#71 = EDGE_LOOP ( 'NONE', ( #575, #193, #121, #524 ) ) ;
#72 = CIRCLE ( 'NONE', #460, 7.750000000000001776 ) ;
#73 = CARTESIAN_POINT ( 'NONE',  ( 11.25000000000000000, 1.377727649040772389E-15, 72.00000000000001421 ) ) ;
#74 = EDGE_LOOP ( 'NONE', ( #613, #91, #63, #263 ) ) ;
#75 = LINE ( 'NONE', #604, #304 ) ;
#76 = CARTESIAN_POINT ( 'NONE',  ( 15.75000000000000000, 0.000000000000000000, 0.5000000000000004441 ) ) ;
#77 = ORIENTED_EDGE ( 'NONE', *, *, #501, .T. ) ;
#78 = CARTESIAN_POINT ( 'NONE',  ( 0.000000000000000000, 0.000000000000000000, 71.50000000000001421 ) ) ;
#79 = ORIENTED_EDGE ( 'NONE', *, *, #313, .T. ) ;
#80 = PRODUCT_DEFINITION_FORMATION_WITH_SPECIFIED_SOURCE ( 'ANY', '', #647, .NOT_KNOWN. ) ;
#81 = DIRECTION ( 'NONE',  ( -1.000000000000000000, 0.000000000000000000, 0.000000000000000000 ) ) ;
#82 = ADVANCED_FACE ( 'NONE', ( #161, #439 ), #109, .F. ) ;
#83 = EDGE_LOOP ( 'NONE', ( #493, #146 ) ) ;
#84 = FACE_OUTER_BOUND ( 'NONE', #422, .T. ) ;
#85 = DIRECTION ( 'NONE',  ( 0.7071067811865469066, 0.000000000000000000, 0.7071067811865482389 ) ) ;
#86 = ORIENTED_EDGE ( 'NONE', *, *, #680, .F. ) ;
#87 = ADVANCED_FACE ( 'NONE', ( #643 ), #427, .F. ) ;
#88 = CIRCLE ( 'NONE', #56, 9.250000000000000000 ) ;
#89 = ORIENTED_EDGE ( 'NONE', *, *, #463, .F. ) ;
#90 = DIRECTION ( 'NONE',  ( 0.000000000000000000, 0.000000000000000000, -1.000000000000000000 ) ) ;
#91 = ORIENTED_EDGE ( 'NONE', *, *, #528, .T. ) ;
#92 = CARTESIAN_POINT ( 'NONE',  ( 0.000000000000000000, 0.000000000000000000, 72.00000000000001421 ) ) ;
#93 = DIRECTION ( 'NONE',  ( -0.000000000000000000, -0.000000000000000000, -1.000000000000000000 ) ) ;
#94 = CIRCLE ( 'NONE', #348, 15.75000000000000000 ) ;
#95 = DIRECTION ( 'NONE',  ( -0.000000000000000000, -0.000000000000000000, 1.000000000000000000 ) ) ;
#96 = EDGE_CURVE ( 'NONE', #230, #195, #72, .T. ) ;
#97 = DIRECTION ( 'NONE',  ( -0.7071067811865474617, 0.000000000000000000, -0.7071067811865474617 ) ) ;
#98 = DIRECTION ( 'NONE',  ( -0.000000000000000000, -0.000000000000000000, -1.000000000000000000 ) ) ;
#99 = CIRCLE ( 'NONE', #505, 15.25000000000000000 ) ;
#100 = ORIENTED_EDGE ( 'NONE', *, *, #246, .T. ) ;
#101 = AXIS2_PLACEMENT_3D ( 'NONE', #703, #365, #214 ) ;
#102 = LINE ( 'NONE', #377, #645 ) ;
#103 = CARTESIAN_POINT ( 'NONE',  ( 0.000000000000000000, 0.000000000000000000, 0.000000000000000000 ) ) ;
#104 = VECTOR ( 'NONE', #597, 1000.000000000000114 ) ;
#105 = EDGE_CURVE ( 'NONE', #687, #508, #658, .T. ) ;
#106 =( GEOMETRIC_REPRESENTATION_CONTEXT ( 3 ) GLOBAL_UNCERTAINTY_ASSIGNED_CONTEXT ( ( #415 ) ) GLOBAL_UNIT_ASSIGNED_CONTEXT ( ( #302, #40, #675 ) ) REPRESENTATION_CONTEXT ( 'NONE', 'WORKASPACE' ) );
#107 = VERTEX_POINT ( 'NONE', #311 ) ;
#108 = DIRECTION ( 'NONE',  ( 1.000000000000000000, 0.000000000000000000, 0.000000000000000000 ) ) ;
#109 = PLANE ( 'NONE',  #207 ) ;
#110 = CIRCLE ( 'NONE', #514, 9.250000000000000000 ) ;
#111 = ORIENTED_EDGE ( 'NONE', *, *, #495, .F. ) ;
#112 = DIRECTION ( 'NONE',  ( 0.000000000000000000, 0.000000000000000000, 1.000000000000000000 ) ) ;
#113 = DIRECTION ( 'NONE',  ( -1.000000000000000000, 0.000000000000000000, 0.000000000000000000 ) ) ;
#114 = ORIENTED_EDGE ( 'NONE', *, *, #192, .T. ) ;
#115 = ADVANCED_FACE ( 'NONE', ( #478 ), #26, .T. ) ;
#116 = FACE_OUTER_BOUND ( 'NONE', #515, .T. ) ;
#117 = DIRECTION ( 'NONE',  ( 1.000000000000000000, 0.000000000000000000, 0.000000000000000000 ) ) ;
#118 = AXIS2_PLACEMENT_3D ( 'NONE', #255, #623, #517 ) ;
#119 = CYLINDRICAL_SURFACE ( 'NONE', #698, 7.250000000000001776 ) ;
#120 =( NAMED_UNIT ( * ) PLANE_ANGLE_UNIT ( ) SI_UNIT ( $, .RADIAN. ) );
#121 = ORIENTED_EDGE ( 'NONE', *, *, #663, .F. ) ;
#122 = CARTESIAN_POINT ( 'NONE',  ( 0.000000000000000000, 0.000000000000000000, 70.00000000000000000 ) ) ;
#123 = DIRECTION ( 'NONE',  ( 1.000000000000000000, 0.000000000000000000, 0.000000000000000000 ) ) ;
#124 = EDGE_CURVE ( 'NONE', #662, #184, #209, .T. ) ;
#125 = ORIENTED_EDGE ( 'NONE', *, *, #352, .T. ) ;
#126 = CONICAL_SURFACE ( 'NONE', #13, 15.75000000000000000, 0.7853981633974482790 ) ;
#127 = CARTESIAN_POINT ( 'NONE',  ( -7.250000000000001776, 8.878689293818314018E-16, 71.50000000000001421 ) ) ;
#128 = CONICAL_SURFACE ( 'NONE', #360, 7.250000000000001776, 0.7853981633974473908 ) ;
#129 = VERTEX_POINT ( 'NONE', #158 ) ;
#130 = DIRECTION ( 'NONE',  ( -0.7071067811865469066, 8.659560562354927928E-17, 0.7071067811865482389 ) ) ;
#131 = DIRECTION ( 'NONE',  ( -0.7071067811865472397, 0.000000000000000000, -0.7071067811865479058 ) ) ;
#132 = CIRCLE ( 'NONE', #220, 7.250000000000001776 ) ;
#133 = ORIENTED_EDGE ( 'NONE', *, *, #223, .T. ) ;
#134 = APPLICATION_PROTOCOL_DEFINITION ( 'draft international standard', 'automotive_design', 1998, #567 ) ;
#135 = CARTESIAN_POINT ( 'NONE',  ( 0.000000000000000000, 0.000000000000000000, 70.00000000000000000 ) ) ;
#136 = EDGE_LOOP ( 'NONE', ( #179, #486, #688, #479 ) ) ;
#137 = DIRECTION ( 'NONE',  ( 0.000000000000000000, 0.000000000000000000, 1.000000000000000000 ) ) ;
#138 = CIRCLE ( 'NONE', #672, 15.75000000000000000 ) ;
#139 = ORIENTED_EDGE ( 'NONE', *, *, #23, .F. ) ;
#140 = AXIS2_PLACEMENT_3D ( 'NONE', #378, #537, #491 ) ;
#141 = EDGE_CURVE ( 'NONE', #330, #447, #367, .T. ) ;
#142 = CARTESIAN_POINT ( 'NONE',  ( 7.250000000000001776, 8.878689293818314018E-16, 71.00000000000001421 ) ) ;
#143 = ORIENTED_EDGE ( 'NONE', *, *, #42, .F. ) ;
#144 = CARTESIAN_POINT ( 'NONE',  ( 0.000000000000000000, 0.000000000000000000, 71.00000000000001421 ) ) ;
#145 = EDGE_CURVE ( 'NONE', #705, #558, #697, .T. ) ;
#146 = ORIENTED_EDGE ( 'NONE', *, *, #684, .T. ) ;
#147 = AXIS2_PLACEMENT_3D ( 'NONE', #78, #413, #531 ) ;
#148 = CARTESIAN_POINT ( 'NONE',  ( -7.250000000000001776, 0.000000000000000000, 71.50000000000001421 ) ) ;
#149 = ADVANCED_FACE ( 'NONE', ( #320 ), #638, .T. ) ;
#150 = ORIENTED_EDGE ( 'NONE', *, *, #538, .T. ) ;
#151 = CIRCLE ( 'NONE', #431, 7.750000000000001776 ) ;
#152 = AXIS2_PLACEMENT_3D ( 'NONE', #488, #704, #696 ) ;
#153 = ADVANCED_BREP_SHAPE_REPRESENTATION ( '18mm Motor Retainer', ( #159, #118 ), #106 ) ;
#154 = CARTESIAN_POINT ( 'NONE',  ( 0.000000000000000000, 0.000000000000000000, 71.50000000000001421 ) ) ;
#155 = ORIENTED_EDGE ( 'NONE', *, *, #141, .F. ) ;
#156 = SHAPE_DEFINITION_REPRESENTATION ( #183, #153 ) ;
#157 = FACE_OUTER_BOUND ( 'NONE', #216, .T. ) ;
#158 = CARTESIAN_POINT ( 'NONE',  ( -15.25000000000000000, 1.898202538678397557E-15, 0.000000000000000000 ) ) ;
#159 = MANIFOLD_SOLID_BREP ( 'Chamfer1', #583 ) ;
#160 = FACE_OUTER_BOUND ( 'NONE', #622, .T. ) ;
#161 = FACE_BOUND ( 'NONE', #10, .T. ) ;
#162 = ORIENTED_EDGE ( 'NONE', *, *, #362, .T. ) ;
#163 = VECTOR ( 'NONE', #614, 1000.000000000000000 ) ;
#164 = CYLINDRICAL_SURFACE ( 'NONE', #707, 7.250000000000001776 ) ;
#165 = CARTESIAN_POINT ( 'NONE',  ( 0.000000000000000000, 0.000000000000000000, 6.500000000000005329 ) ) ;
#166 = AXIS2_PLACEMENT_3D ( 'NONE', #708, #548, #113 ) ;
#167 = EDGE_LOOP ( 'NONE', ( #563, #187, #633, #617 ) ) ;
#168 = DIRECTION ( 'NONE',  ( 0.000000000000000000, 0.000000000000000000, 1.000000000000000000 ) ) ;
#169 = LINE ( 'NONE', #436, #104 ) ;
#170 = VERTEX_POINT ( 'NONE', #284 ) ;
#171 = AXIS2_PLACEMENT_3D ( 'NONE', #547, #640, #596 ) ;
#172 = DIRECTION ( 'NONE',  ( 0.7071067811865474617, 8.659560562354932858E-17, -0.7071067811865474617 ) ) ;
#173 = CARTESIAN_POINT ( 'NONE',  ( 15.25000000000000000, 1.867586368699713770E-15, 5.500000000000000000 ) ) ;
#174 = EDGE_LOOP ( 'NONE', ( #631, #54, #125, #322 ) ) ;
#175 = AXIS2_PLACEMENT_3D ( 'NONE', #39, #279, #504 ) ;
#176 = CARTESIAN_POINT ( 'NONE',  ( -11.75000000000000000, 0.000000000000000000, 71.50000000000001421 ) ) ;
#177 = CARTESIAN_POINT ( 'NONE',  ( -15.25000000000000000, 0.000000000000000000, 5.500000000000000000 ) ) ;
#178 = AXIS2_PLACEMENT_3D ( 'NONE', #165, #327, #222 ) ;
#179 = ORIENTED_EDGE ( 'NONE', *, *, #425, .T. ) ;
#180 = PLANE ( 'NONE',  #529 ) ;
#181 = EDGE_CURVE ( 'NONE', #508, #237, #24, .T. ) ;
#182 = FILL_AREA_STYLE ('',( #459 ) ) ;
#183 = PRODUCT_DEFINITION_SHAPE ( 'NONE', 'NONE',  #429 ) ;
#184 = VERTEX_POINT ( 'NONE', #336 ) ;
#185 = CARTESIAN_POINT ( 'NONE',  ( 0.000000000000000000, 0.000000000000000000, 70.00000000000000000 ) ) ;
#186 = LINE ( 'NONE', #553, #661 ) ;
#187 = ORIENTED_EDGE ( 'NONE', *, *, #621, .T. ) ;
#188 = CARTESIAN_POINT ( 'NONE',  ( 0.000000000000000000, 0.000000000000000000, 0.5000000000000004441 ) ) ;
#189 = DIRECTION ( 'NONE',  ( 1.000000000000000000, 0.000000000000000000, 0.000000000000000000 ) ) ;
#190 = VERTEX_POINT ( 'NONE', #449 ) ;
#191 = CARTESIAN_POINT ( 'NONE',  ( 0.000000000000000000, 0.000000000000000000, 0.000000000000000000 ) ) ;
#192 = EDGE_CURVE ( 'NONE', #199, #687, #285, .T. ) ;
#193 = ORIENTED_EDGE ( 'NONE', *, *, #402, .T. ) ;
#194 = DIRECTION ( 'NONE',  ( 0.7071067811865474617, 8.659560562354932858E-17, -0.7071067811865474617 ) ) ;
#195 = VERTEX_POINT ( 'NONE', #668 ) ;
#196 = CARTESIAN_POINT ( 'NONE',  ( 11.75000000000000000, 1.438959988998140160E-15, 71.50000000000001421 ) ) ;
#197 = CONICAL_SURFACE ( 'NONE', #281, 8.250000000000001776, 0.7853981633974479459 ) ;
#198 = CIRCLE ( 'NONE', #400, 15.75000000000000000 ) ;
#199 = VERTEX_POINT ( 'NONE', #177 ) ;
#200 = AXIS2_PLACEMENT_3D ( 'NONE', #541, #50, #510 ) ;
#201 = EDGE_CURVE ( 'NONE', #233, #237, #239, .T. ) ;
#202 = DIRECTION ( 'NONE',  ( -0.000000000000000000, -0.000000000000000000, 1.000000000000000000 ) ) ;
#203 = VERTEX_POINT ( 'NONE', #456 ) ;
#204 = LINE ( 'NONE', #579, #417 ) ;
#205 = CARTESIAN_POINT ( 'NONE',  ( 0.000000000000000000, 0.000000000000000000, 71.00000000000001421 ) ) ;
#206 = VERTEX_POINT ( 'NONE', #612 ) ;
#207 = AXIS2_PLACEMENT_3D ( 'NONE', #259, #324, #53 ) ;
#208 = CARTESIAN_POINT ( 'NONE',  ( -7.250000000000001776, 0.000000000000000000, 72.00000000000001421 ) ) ;
#209 = LINE ( 'NONE', #46, #565 ) ;
#210 = EDGE_CURVE ( 'NONE', #385, #669, #401, .T. ) ;
#211 = DIRECTION ( 'NONE',  ( 0.7071067811865472397, 8.659560562354929160E-17, -0.7071067811865479058 ) ) ;
#212 = CARTESIAN_POINT ( 'NONE',  ( 0.000000000000000000, 0.000000000000000000, 70.00000000000000000 ) ) ;
#213 = ORIENTED_EDGE ( 'NONE', *, *, #124, .T. ) ;
#214 = DIRECTION ( 'NONE',  ( -1.000000000000000000, 0.000000000000000000, 0.000000000000000000 ) ) ;
#215 = LINE ( 'NONE', #266, #372 ) ;
#216 = EDGE_LOOP ( 'NONE', ( #550, #625, #701, #358 ) ) ;
#217 = CARTESIAN_POINT ( 'NONE',  ( 9.250000000000000000, 1.132798289211301698E-15, 3.500000000000003109 ) ) ;
#218 = DIRECTION ( 'NONE',  ( 0.000000000000000000, 0.000000000000000000, 1.000000000000000000 ) ) ;
#219 = ORIENTED_EDGE ( 'NONE', *, *, #145, .T. ) ;
#220 = AXIS2_PLACEMENT_3D ( 'NONE', #154, #168, #258 ) ;
#221 = DIRECTION ( 'NONE',  ( 1.000000000000000000, 0.000000000000000000, 0.000000000000000000 ) ) ;
#222 = DIRECTION ( 'NONE',  ( 1.000000000000000000, 0.000000000000000000, 0.000000000000000000 ) ) ;
#223 = EDGE_CURVE ( 'NONE', #129, #233, #99, .T. ) ;
#224 = AXIS2_PLACEMENT_3D ( 'NONE', #205, #265, #653 ) ;
#225 = ORIENTED_EDGE ( 'NONE', *, *, #474, .T. ) ;
#226 = AXIS2_PLACEMENT_3D ( 'NONE', #135, #349, #353 ) ;
#227 = CARTESIAN_POINT ( 'NONE',  ( 15.25000000000000000, 1.898202538678397557E-15, 5.500000000000000000 ) ) ;
#228 = SURFACE_STYLE_USAGE ( .BOTH. , #671 ) ;
#229 = EDGE_CURVE ( 'NONE', #709, #705, #186, .T. ) ;
#230 = VERTEX_POINT ( 'NONE', #519 ) ;
#231 = FACE_BOUND ( 'NONE', #471, .T. ) ;
#232 =( GEOMETRIC_REPRESENTATION_CONTEXT ( 3 ) GLOBAL_UNCERTAINTY_ASSIGNED_CONTEXT ( ( #306 ) ) GLOBAL_UNIT_ASSIGNED_CONTEXT ( ( #396, #120, #615 ) ) REPRESENTATION_CONTEXT ( 'NONE', 'WORKASPACE' ) );
#233 = VERTEX_POINT ( 'NONE', #340 ) ;
#234 = ADVANCED_FACE ( 'NONE', ( #676 ), #590, .T. ) ;
#235 = DIRECTION ( 'NONE',  ( 0.000000000000000000, 0.000000000000000000, 1.000000000000000000 ) ) ;
#236 = DIRECTION ( 'NONE',  ( 0.000000000000000000, 0.000000000000000000, 1.000000000000000000 ) ) ;
#237 = VERTEX_POINT ( 'NONE', #500 ) ;
#238 = DIRECTION ( 'NONE',  ( -0.000000000000000000, -0.000000000000000000, -1.000000000000000000 ) ) ;
#239 = LINE ( 'NONE', #76, #43 ) ;
#240 = ORIENTED_EDGE ( 'NONE', *, *, #47, .F. ) ;
#241 = DIRECTION ( 'NONE',  ( -0.000000000000000000, -0.000000000000000000, -1.000000000000000000 ) ) ;
#242 = ADVANCED_FACE ( 'NONE', ( #8 ), #197, .F. ) ;
#243 = PRESENTATION_LAYER_ASSIGNMENT (  '', '', ( #318 ) ) ;
#244 = ORIENTED_EDGE ( 'NONE', *, *, #397, .T. ) ;
#245 = FACE_OUTER_BOUND ( 'NONE', #502, .T. ) ;
#246 = EDGE_CURVE ( 'NONE', #497, #398, #476, .T. ) ;
#247 = VERTEX_POINT ( 'NONE', #12 ) ;
#248 = CARTESIAN_POINT ( 'NONE',  ( -15.75000000000000000, 1.928818708657081344E-15, 0.5000000000000004441 ) ) ;
#249 = AXIS2_PLACEMENT_3D ( 'NONE', #611, #1, #343 ) ;
#250 = CYLINDRICAL_SURFACE ( 'NONE', #7, 15.75000000000000000 ) ;
#251 = VECTOR ( 'NONE', #270, 1000.000000000000000 ) ;
#252 = CARTESIAN_POINT ( 'NONE',  ( 0.000000000000000000, 0.000000000000000000, 70.00000000000000000 ) ) ;
#253 = DIRECTION ( 'NONE',  ( -0.7071067811865474617, 0.000000000000000000, -0.7071067811865474617 ) ) ;
#254 = CONICAL_SURFACE ( 'NONE', #276, 11.75000000000000000, 0.7853981633974482790 ) ;
#255 = CARTESIAN_POINT ( 'NONE',  ( 0.000000000000000000, 0.000000000000000000, 0.000000000000000000 ) ) ;
#256 = CARTESIAN_POINT ( 'NONE',  ( 0.000000000000000000, 0.000000000000000000, 70.00000000000000000 ) ) ;
#257 = DIRECTION ( 'NONE',  ( 0.7071067811865474617, 8.659560562354932858E-17, -0.7071067811865474617 ) ) ;
#258 = DIRECTION ( 'NONE',  ( 1.000000000000000000, 0.000000000000000000, 0.000000000000000000 ) ) ;
#259 = CARTESIAN_POINT ( 'NONE',  ( 0.000000000000000000, 0.000000000000000000, 70.00000000000000000 ) ) ;
#260 = ORIENTED_EDGE ( 'NONE', *, *, #47, .T. ) ;
#261 = CARTESIAN_POINT ( 'NONE',  ( 0.000000000000000000, 0.000000000000000000, 71.50000000000001421 ) ) ;
#262 = DIRECTION ( 'NONE',  ( 0.000000000000000000, 0.000000000000000000, 1.000000000000000000 ) ) ;
#263 = ORIENTED_EDGE ( 'NONE', *, *, #341, .T. ) ;
#264 = ADVANCED_FACE ( 'NONE', ( #393 ), #628, .F. ) ;
#265 = DIRECTION ( 'NONE',  ( -0.000000000000000000, -0.000000000000000000, -1.000000000000000000 ) ) ;
#266 = CARTESIAN_POINT ( 'NONE',  ( 7.250000000000001776, 8.878689293818314018E-16, 72.00000000000001421 ) ) ;
#267 = EDGE_LOOP ( 'NONE', ( #277, #86, #511, #334 ) ) ;
#268 = VECTOR ( 'NONE', #172, 1000.000000000000114 ) ;
#269 = EDGE_CURVE ( 'NONE', #184, #472, #370, .T. ) ;
#270 = DIRECTION ( 'NONE',  ( -0.000000000000000000, -0.000000000000000000, -1.000000000000000000 ) ) ;
#271 = AXIS2_PLACEMENT_3D ( 'NONE', #314, #484, #534 ) ;
#272 = CARTESIAN_POINT ( 'NONE',  ( 0.000000000000000000, 0.000000000000000000, 72.00000000000001421 ) ) ;
#273 = ORIENTED_EDGE ( 'NONE', *, *, #576, .F. ) ;
#274 = DIRECTION ( 'NONE',  ( -0.000000000000000000, -0.000000000000000000, -1.000000000000000000 ) ) ;
#275 = DIRECTION ( 'NONE',  ( -0.000000000000000000, -0.000000000000000000, 1.000000000000000000 ) ) ;
#276 = AXIS2_PLACEMENT_3D ( 'NONE', #634, #90, #574 ) ;
#277 = ORIENTED_EDGE ( 'NONE', *, *, #402, .F. ) ;
#278 = DIRECTION ( 'NONE',  ( 1.000000000000000000, 0.000000000000000000, 0.000000000000000000 ) ) ;
#279 = DIRECTION ( 'NONE',  ( 0.000000000000000000, 0.000000000000000000, 1.000000000000000000 ) ) ;
#280 = ORIENTED_EDGE ( 'NONE', *, *, #421, .F. ) ;
#281 = AXIS2_PLACEMENT_3D ( 'NONE', #389, #609, #65 ) ;
#282 = CARTESIAN_POINT ( 'NONE',  ( 11.75000000000000000, 1.438959988998140160E-15, 6.500000000000005329 ) ) ;
#283 = VECTOR ( 'NONE', #312, 1000.000000000000000 ) ;
#284 = CARTESIAN_POINT ( 'NONE',  ( 7.250000000000001776, 8.878689293818314018E-16, 71.50000000000001421 ) ) ;
#285 = CIRCLE ( 'NONE', #408, 15.25000000000000000 ) ;
#286 = ORIENTED_EDGE ( 'NONE', *, *, #480, .T. ) ;
#287 = DIRECTION ( 'NONE',  ( 0.7071067811865472397, 8.659560562354930393E-17, -0.7071067811865479058 ) ) ;
#288 = ORIENTED_EDGE ( 'NONE', *, *, #648, .F. ) ;
#289 = DIRECTION ( 'NONE',  ( -0.000000000000000000, -0.000000000000000000, -1.000000000000000000 ) ) ;
#290 = EDGE_CURVE ( 'NONE', #170, #230, #297, .T. ) ;
#291 = CIRCLE ( 'NONE', #226, 8.250000000000001776 ) ;
#292 = CARTESIAN_POINT ( 'NONE',  ( 15.75000000000000000, 1.928818708657081344E-15, 5.500000000000000000 ) ) ;
#293 = APPLICATION_CONTEXT ( 'automotive_design' ) ;
#294 = CIRCLE ( 'NONE', #147, 11.75000000000000000 ) ;
#295 = ORIENTED_EDGE ( 'NONE', *, *, #391, .F. ) ;
#296 = ADVANCED_FACE ( 'NONE', ( #84 ), #473, .T. ) ;
#297 = LINE ( 'NONE', #470, #384 ) ;
#298 = ORIENTED_EDGE ( 'NONE', *, *, #621, .F. ) ;
#299 = DIRECTION ( 'NONE',  ( -1.000000000000000000, 0.000000000000000000, 0.000000000000000000 ) ) ;
#300 = ADVANCED_FACE ( 'NONE', ( #465 ), #518, .T. ) ;
#301 = CARTESIAN_POINT ( 'NONE',  ( 0.000000000000000000, 0.000000000000000000, 5.500000000000000000 ) ) ;
#302 =( LENGTH_UNIT ( ) NAMED_UNIT ( * ) SI_UNIT ( .MILLI., .METRE. ) );
#303 = DIRECTION ( 'NONE',  ( -0.000000000000000000, -0.000000000000000000, -1.000000000000000000 ) ) ;
#304 = VECTOR ( 'NONE', #287, 999.9999999999998863 ) ;
#305 = ORIENTED_EDGE ( 'NONE', *, *, #463, .T. ) ;
#306 = UNCERTAINTY_MEASURE_WITH_UNIT (LENGTH_MEASURE( 1.000000000000000082E-05 ), #396, 'distance_accuracy_value', 'NONE');
#307 = DIRECTION ( 'NONE',  ( 1.000000000000000000, 0.000000000000000000, 0.000000000000000000 ) ) ;
#308 = ORIENTED_EDGE ( 'NONE', *, *, #557, .F. ) ;
#309 = ADVANCED_FACE ( 'NONE', ( #577 ), #526, .T. ) ;
#310 = CARTESIAN_POINT ( 'NONE',  ( 0.000000000000000000, 0.000000000000000000, 4.999999999999999112 ) ) ;
#311 = CARTESIAN_POINT ( 'NONE',  ( 9.250000000000000000, 1.132798289211301698E-15, 70.00000000000000000 ) ) ;
#312 = DIRECTION ( 'NONE',  ( -0.000000000000000000, -0.000000000000000000, -1.000000000000000000 ) ) ;
#313 = EDGE_CURVE ( 'NONE', #679, #385, #294, .T. ) ;
#314 = CARTESIAN_POINT ( 'NONE',  ( 0.000000000000000000, 0.000000000000000000, 3.500000000000003109 ) ) ;
#315 = VECTOR ( 'NONE', #619, 1000.000000000000000 ) ;
#316 = AXIS2_PLACEMENT_3D ( 'NONE', #399, #448, #664 ) ;
#317 = ORIENTED_EDGE ( 'NONE', *, *, #480, .F. ) ;
#318 = STYLED_ITEM ( 'NONE', ( #443 ), #159 ) ;
#319 = DIRECTION ( 'NONE',  ( 0.000000000000000000, 0.000000000000000000, -1.000000000000000000 ) ) ;
#320 = FACE_OUTER_BOUND ( 'NONE', #652, .T. ) ;
#321 = ADVANCED_FACE ( 'NONE', ( #580 ), #30, .T. ) ;
#322 = ORIENTED_EDGE ( 'NONE', *, *, #528, .F. ) ;
#323 = CARTESIAN_POINT ( 'NONE',  ( 12.75000000000000000, 1.561424668912874914E-15, 0.000000000000000000 ) ) ;
#324 = DIRECTION ( 'NONE',  ( 0.000000000000000000, 0.000000000000000000, 1.000000000000000000 ) ) ;
#325 = ORIENTED_EDGE ( 'NONE', *, *, #229, .T. ) ;
#326 = CARTESIAN_POINT ( 'NONE',  ( -12.75000000000000533, 0.000000000000000000, 5.500000000000000000 ) ) ;
#327 = DIRECTION ( 'NONE',  ( -0.000000000000000000, -0.000000000000000000, 1.000000000000000000 ) ) ;
#328 = VERTEX_POINT ( 'NONE', #148 ) ;
#329 = FACE_OUTER_BOUND ( 'NONE', #167, .T. ) ;
#330 = VERTEX_POINT ( 'NONE', #685 ) ;
#331 = FACE_OUTER_BOUND ( 'NONE', #572, .T. ) ;
#332 = ADVANCED_FACE ( 'NONE', ( #582 ), #250, .T. ) ;
#333 = DIRECTION ( 'NONE',  ( 1.000000000000000000, 0.000000000000000000, 0.000000000000000000 ) ) ;
#334 = ORIENTED_EDGE ( 'NONE', *, *, #341, .F. ) ;
#335 = CARTESIAN_POINT ( 'NONE',  ( 0.000000000000000000, 0.000000000000000000, 5.500000000000000000 ) ) ;
#336 = CARTESIAN_POINT ( 'NONE',  ( -12.75000000000000000, 0.000000000000000000, 0.000000000000000000 ) ) ;
#337 = CONICAL_SURFACE ( 'NONE', #616, 12.75000000000000000, 0.7853981633974479459 ) ;
#338 = EDGE_LOOP ( 'NONE', ( #520, #244, #542, #155 ) ) ;
#339 = FACE_BOUND ( 'NONE', #83, .T. ) ;
#340 = CARTESIAN_POINT ( 'NONE',  ( 15.25000000000000000, 0.000000000000000000, 0.000000000000000000 ) ) ;
#341 = EDGE_CURVE ( 'NONE', #203, #237, #94, .T. ) ;
#342 = ORIENTED_EDGE ( 'NONE', *, *, #362, .F. ) ;
#343 = DIRECTION ( 'NONE',  ( 1.000000000000000000, 0.000000000000000000, 0.000000000000000000 ) ) ;
#344 = DIRECTION ( 'NONE',  ( 0.7071067811865474617, 0.000000000000000000, 0.7071067811865474617 ) ) ;
#345 = ORIENTED_EDGE ( 'NONE', *, *, #684, .F. ) ;
#346 = CIRCLE ( 'NONE', #224, 7.250000000000001776 ) ;
#347 = CARTESIAN_POINT ( 'NONE',  ( -8.250000000000001776, 0.000000000000000000, 70.00000000000000000 ) ) ;
#348 = AXIS2_PLACEMENT_3D ( 'NONE', #521, #202, #632 ) ;
#349 = DIRECTION ( 'NONE',  ( 0.000000000000000000, 0.000000000000000000, 1.000000000000000000 ) ) ;
#350 = ORIENTED_EDGE ( 'NONE', *, *, #576, .T. ) ;
#351 = AXIS2_PLACEMENT_3D ( 'NONE', #17, #236, #123 ) ;
#352 = EDGE_CURVE ( 'NONE', #199, #247, #204, .T. ) ;
#353 = DIRECTION ( 'NONE',  ( 1.000000000000000000, 0.000000000000000000, 0.000000000000000000 ) ) ;
#354 = AXIS2_PLACEMENT_3D ( 'NONE', #432, #262, #654 ) ;
#355 = DIRECTION ( 'NONE',  ( -1.000000000000000000, 0.000000000000000000, 0.000000000000000000 ) ) ;
#356 = PRODUCT_RELATED_PRODUCT_CATEGORY ( 'part', '', ( #647 ) ) ;
#357 = DIRECTION ( 'NONE',  ( -0.000000000000000000, -0.000000000000000000, -1.000000000000000000 ) ) ;
#358 = ORIENTED_EDGE ( 'NONE', *, *, #124, .F. ) ;
#359 = CARTESIAN_POINT ( 'NONE',  ( 0.000000000000000000, 0.000000000000000000, 6.500000000000005329 ) ) ;
#360 = AXIS2_PLACEMENT_3D ( 'NONE', #261, #112, #108 ) ;
#361 = ORIENTED_EDGE ( 'NONE', *, *, #23, .T. ) ;
#362 = EDGE_CURVE ( 'NONE', #709, #405, #516, .T. ) ;
#363 = DIRECTION ( 'NONE',  ( -0.000000000000000000, -0.000000000000000000, -1.000000000000000000 ) ) ;
#364 = EDGE_CURVE ( 'NONE', #558, #705, #291, .T. ) ;
#365 = DIRECTION ( 'NONE',  ( -0.000000000000000000, -0.000000000000000000, -1.000000000000000000 ) ) ;
#366 = AXIS2_PLACEMENT_3D ( 'NONE', #359, #525, #307 ) ;
#367 = LINE ( 'NONE', #700, #551 ) ;
#368 = LINE ( 'NONE', #52, #581 ) ;
#369 = DIRECTION ( 'NONE',  ( 0.000000000000000000, 0.000000000000000000, 1.000000000000000000 ) ) ;
#370 = CIRCLE ( 'NONE', #68, 12.75000000000000000 ) ;
#371 = ORIENTED_EDGE ( 'NONE', *, *, #440, .T. ) ;
#372 = VECTOR ( 'NONE', #544, 1000.000000000000000 ) ;
#373 = FACE_OUTER_BOUND ( 'NONE', #606, .T. ) ;
#374 = PLANE ( 'NONE',  #15 ) ;
#375 = ADVANCED_FACE ( 'NONE', ( #245 ), #254, .T. ) ;
#376 = ORIENTED_EDGE ( 'NONE', *, *, #445, .F. ) ;
#377 = CARTESIAN_POINT ( 'NONE',  ( -15.75000000000000000, 0.000000000000000000, 5.500000000000000000 ) ) ;
#378 = CARTESIAN_POINT ( 'NONE',  ( 0.000000000000000000, 0.000000000000000000, 71.50000000000001421 ) ) ;
#379 = AXIS2_PLACEMENT_3D ( 'NONE', #144, #624, #416 ) ;
#380 = ORIENTED_EDGE ( 'NONE', *, *, #210, .T. ) ;
#381 = AXIS2_PLACEMENT_3D ( 'NONE', #681, #689, #27 ) ;
#382 = LINE ( 'NONE', #127, #592 ) ;
#383 = DIRECTION ( 'NONE',  ( -1.000000000000000000, 0.000000000000000000, 0.000000000000000000 ) ) ;
#384 = VECTOR ( 'NONE', #85, 999.9999999999998863 ) ;
#385 = VERTEX_POINT ( 'NONE', #196 ) ;
#386 = EDGE_CURVE ( 'NONE', #669, #330, #499, .T. ) ;
#387 = FACE_OUTER_BOUND ( 'NONE', #136, .T. ) ;
#388 = AXIS2_PLACEMENT_3D ( 'NONE', #212, #369, #593 ) ;
#389 = CARTESIAN_POINT ( 'NONE',  ( 0.000000000000000000, 0.000000000000000000, 70.00000000000000000 ) ) ;
#390 = ORIENTED_EDGE ( 'NONE', *, *, #70, .T. ) ;
#391 = EDGE_CURVE ( 'NONE', #472, #184, #556, .T. ) ;
#392 = DIRECTION ( 'NONE',  ( 0.000000000000000000, 0.000000000000000000, 1.000000000000000000 ) ) ;
#393 = FACE_OUTER_BOUND ( 'NONE', #48, .T. ) ;
#394 = ORIENTED_EDGE ( 'NONE', *, *, #680, .T. ) ;
#395 = LINE ( 'NONE', #442, #163 ) ;
#396 =( LENGTH_UNIT ( ) NAMED_UNIT ( * ) SI_UNIT ( .MILLI., .METRE. ) );
#397 = EDGE_CURVE ( 'NONE', #669, #190, #678, .T. ) ;
#398 = VERTEX_POINT ( 'NONE', #406 ) ;
#399 = CARTESIAN_POINT ( 'NONE',  ( 0.000000000000000000, 0.000000000000000000, 5.500000000000000000 ) ) ;
#400 = AXIS2_PLACEMENT_3D ( 'NONE', #642, #319, #540 ) ;
#401 = LINE ( 'NONE', #566, #315 ) ;
#402 = EDGE_CURVE ( 'NONE', #129, #203, #627, .T. ) ;
#403 = ORIENTED_EDGE ( 'NONE', *, *, #538, .F. ) ;
#404 = DIRECTION ( 'NONE',  ( -1.000000000000000000, 0.000000000000000000, 0.000000000000000000 ) ) ;
#405 = VERTEX_POINT ( 'NONE', #142 ) ;
#406 = CARTESIAN_POINT ( 'NONE',  ( 11.25000000000000000, 1.408343819019456176E-15, 72.00000000000001421 ) ) ;
#407 = ORIENTED_EDGE ( 'NONE', *, *, #229, .F. ) ;
#408 = AXIS2_PLACEMENT_3D ( 'NONE', #605, #665, #189 ) ;
#409 = EDGE_CURVE ( 'NONE', #405, #709, #346, .T. ) ;
#410 = DIRECTION ( 'NONE',  ( -0.7071067811865474617, 8.659560562354932858E-17, 0.7071067811865474617 ) ) ;
#411 = CONICAL_SURFACE ( 'NONE', #166, 11.25000000000000000, 0.7853981633974482790 ) ;
#412 = EDGE_LOOP ( 'NONE', ( #79, #380, #475, #273 ) ) ;
#413 = DIRECTION ( 'NONE',  ( 0.000000000000000000, 0.000000000000000000, -1.000000000000000000 ) ) ;
#414 = ORIENTED_EDGE ( 'NONE', *, *, #663, .T. ) ;
#415 = UNCERTAINTY_MEASURE_WITH_UNIT (LENGTH_MEASURE( 1.000000000000000082E-05 ), #302, 'distance_accuracy_value', 'NONE');
#416 = DIRECTION ( 'NONE',  ( 1.000000000000000000, 0.000000000000000000, 0.000000000000000000 ) ) ;
#417 = VECTOR ( 'NONE', #253, 1000.000000000000114 ) ;
#418 = ADVANCED_FACE ( 'NONE', ( #160 ), #5, .F. ) ;
#419 = ORIENTED_EDGE ( 'NONE', *, *, #364, .T. ) ;
#420 = DIRECTION ( 'NONE',  ( 0.000000000000000000, 0.000000000000000000, 1.000000000000000000 ) ) ;
#421 = EDGE_CURVE ( 'NONE', #107, #206, #110, .T. ) ;
#422 = EDGE_LOOP ( 'NONE', ( #457, #260, #350, #610 ) ) ;
#423 = DIRECTION ( 'NONE',  ( -0.000000000000000000, -0.000000000000000000, -1.000000000000000000 ) ) ;
#424 = DIRECTION ( 'NONE',  ( 1.000000000000000000, 0.000000000000000000, -0.000000000000000000 ) ) ;
#425 = EDGE_CURVE ( 'NONE', #328, #170, #132, .T. ) ;
#426 = LINE ( 'NONE', #323, #507 ) ;
#427 = CYLINDRICAL_SURFACE ( 'NONE', #58, 9.250000000000000000 ) ;
#428 = ORIENTED_EDGE ( 'NONE', *, *, #181, .T. ) ;
#429 = PRODUCT_DEFINITION ( 'UNKNOWN', '', #80, #36 ) ;
#430 = DIRECTION ( 'NONE',  ( -1.000000000000000000, 0.000000000000000000, 0.000000000000000000 ) ) ;
#431 = AXIS2_PLACEMENT_3D ( 'NONE', #498, #16, #6 ) ;
#432 = CARTESIAN_POINT ( 'NONE',  ( 0.000000000000000000, 0.000000000000000000, 71.50000000000001421 ) ) ;
#433 = AXIS2_PLACEMENT_3D ( 'NONE', #310, #599, #585 ) ;
#434 = ORIENTED_EDGE ( 'NONE', *, *, #9, .F. ) ;
#435 = CARTESIAN_POINT ( 'NONE',  ( 12.75000000000000000, 1.561424668912874914E-15, 0.000000000000000000 ) ) ;
#436 = CARTESIAN_POINT ( 'NONE',  ( -11.25000000000000000, 0.000000000000000000, 72.00000000000001421 ) ) ;
#437 = ORIENTED_EDGE ( 'NONE', *, *, #397, .F. ) ;
#438 = DIRECTION ( 'NONE',  ( 1.000000000000000000, 0.000000000000000000, 0.000000000000000000 ) ) ;
#439 = FACE_OUTER_BOUND ( 'NONE', #644, .T. ) ;
#440 = EDGE_CURVE ( 'NONE', #447, #190, #620, .T. ) ;
#441 = ORIENTED_EDGE ( 'NONE', *, *, #141, .T. ) ;
#442 = CARTESIAN_POINT ( 'NONE',  ( -11.75000000000000000, 0.000000000000000000, 70.00000000000000000 ) ) ;
#443 = PRESENTATION_STYLE_ASSIGNMENT (( #228 ) ) ;
#444 = AXIS2_PLACEMENT_3D ( 'NONE', #62, #275, #333 ) ;
#445 = EDGE_CURVE ( 'NONE', #206, #662, #368, .T. ) ;
#446 = CONICAL_SURFACE ( 'NONE', #32, 11.25000000000000000, 0.7853981633974482790 ) ;
#447 = VERTEX_POINT ( 'NONE', #326 ) ;
#448 = DIRECTION ( 'NONE',  ( 0.000000000000000000, 0.000000000000000000, 1.000000000000000000 ) ) ;
#449 = CARTESIAN_POINT ( 'NONE',  ( 12.75000000000000533, 1.561424668912876097E-15, 5.500000000000000000 ) ) ;
#450 = ORIENTED_EDGE ( 'NONE', *, *, #561, .T. ) ;
#451 = CARTESIAN_POINT ( 'NONE',  ( 0.000000000000000000, 0.000000000000000000, 72.00000000000001421 ) ) ;
#452 = ADVANCED_FACE ( 'NONE', ( #706 ), #126, .T. ) ;
#453 = CARTESIAN_POINT ( 'NONE',  ( 0.000000000000000000, 0.000000000000000000, 0.000000000000000000 ) ) ;
#454 = VERTEX_POINT ( 'NONE', #217 ) ;
#455 = DIRECTION ( 'NONE',  ( -1.000000000000000000, 0.000000000000000000, 0.000000000000000000 ) ) ;
#456 = CARTESIAN_POINT ( 'NONE',  ( -15.75000000000000000, 0.000000000000000000, 0.5000000000000004441 ) ) ;
#457 = ORIENTED_EDGE ( 'NONE', *, *, #210, .F. ) ;
#458 = CIRCLE ( 'NONE', #549, 15.25000000000000000 ) ;
#459 = FILL_AREA_STYLE_COLOUR ( '', #482 ) ;
#460 = AXIS2_PLACEMENT_3D ( 'NONE', #272, #93, #2 ) ;
#461 = EDGE_LOOP ( 'NONE', ( #568, #286, #532, #376 ) ) ;
#462 = CARTESIAN_POINT ( 'NONE',  ( 0.000000000000000000, 0.000000000000000000, 0.000000000000000000 ) ) ;
#463 = EDGE_CURVE ( 'NONE', #247, #508, #536, .T. ) ;
#464 = ORIENTED_EDGE ( 'NONE', *, *, #648, .T. ) ;
#465 = FACE_OUTER_BOUND ( 'NONE', #338, .T. ) ;
#466 = AXIS2_PLACEMENT_3D ( 'NONE', #122, #289, #11 ) ;
#467 = DIRECTION ( 'NONE',  ( 1.000000000000000000, 0.000000000000000000, 0.000000000000000000 ) ) ;
#468 = VECTOR ( 'NONE', #257, 1000.000000000000114 ) ;
#469 = ADVANCED_FACE ( 'NONE', ( #646 ), #164, .F. ) ;
#470 = CARTESIAN_POINT ( 'NONE',  ( 7.250000000000001776, 0.000000000000000000, 71.50000000000001421 ) ) ;
#471 = EDGE_LOOP ( 'NONE', ( #371, #150 ) ) ;
#472 = VERTEX_POINT ( 'NONE', #435 ) ;
#473 = CYLINDRICAL_SURFACE ( 'NONE', #381, 11.75000000000000000 ) ;
#474 = EDGE_CURVE ( 'NONE', #662, #454, #527, .T. ) ;
#475 = ORIENTED_EDGE ( 'NONE', *, *, #386, .T. ) ;
#476 = CIRCLE ( 'NONE', #175, 11.25000000000000000 ) ;
#477 = CARTESIAN_POINT ( 'NONE',  ( 9.250000000000000000, 1.132798289211301698E-15, 70.00000000000000000 ) ) ;
#478 = FACE_OUTER_BOUND ( 'NONE', #174, .T. ) ;
#479 = ORIENTED_EDGE ( 'NONE', *, *, #501, .F. ) ;
#480 = EDGE_CURVE ( 'NONE', #107, #454, #41, .T. ) ;
#481 = APPLICATION_PROTOCOL_DEFINITION ( 'draft international standard', 'automotive_design', 1998, #293 ) ;
#482 = COLOUR_RGB ( '',0.7921568627450980005, 0.8196078431372548767, 0.9333333333333333481 ) ;
#483 = CARTESIAN_POINT ( 'NONE',  ( 15.75000000000000000, 1.928818708657081344E-15, 4.999999999999999112 ) ) ;
#484 = DIRECTION ( 'NONE',  ( -0.000000000000000000, -0.000000000000000000, -1.000000000000000000 ) ) ;
#485 = ADVANCED_FACE ( 'NONE', ( #373 ), #128, .F. ) ;
#486 = ORIENTED_EDGE ( 'NONE', *, *, #9, .T. ) ;
#487 = LINE ( 'NONE', #208, #283 ) ;
#488 = CARTESIAN_POINT ( 'NONE',  ( 0.000000000000000000, 0.000000000000000000, 5.500000000000000000 ) ) ;
#489 = ORIENTED_EDGE ( 'NONE', *, *, #409, .F. ) ;
#490 = DIRECTION ( 'NONE',  ( -0.000000000000000000, -0.000000000000000000, -1.000000000000000000 ) ) ;
#491 = DIRECTION ( 'NONE',  ( 1.000000000000000000, 0.000000000000000000, 0.000000000000000000 ) ) ;
#492 = CIRCLE ( 'NONE', #31, 15.25000000000000000 ) ;
#493 = ORIENTED_EDGE ( 'NONE', *, *, #96, .T. ) ;
#494 = CARTESIAN_POINT ( 'NONE',  ( -11.25000000000000000, 0.000000000000000000, 72.00000000000001421 ) ) ;
#495 = EDGE_CURVE ( 'NONE', #247, #203, #102, .T. ) ;
#496 = FACE_BOUND ( 'NONE', #3, .T. ) ;
#497 = VERTEX_POINT ( 'NONE', #494 ) ;
#498 = CARTESIAN_POINT ( 'NONE',  ( 0.000000000000000000, 0.000000000000000000, 72.00000000000001421 ) ) ;
#499 = CIRCLE ( 'NONE', #366, 11.75000000000000000 ) ;
#500 = CARTESIAN_POINT ( 'NONE',  ( 15.75000000000000000, 1.928818708657081344E-15, 0.5000000000000004441 ) ) ;
#501 = EDGE_CURVE ( 'NONE', #328, #709, #487, .T. ) ;
#502 = EDGE_LOOP ( 'NONE', ( #437, #143, #441, #403 ) ) ;
#503 = FACE_OUTER_BOUND ( 'NONE', #25, .T. ) ;
#504 = DIRECTION ( 'NONE',  ( 1.000000000000000000, 0.000000000000000000, 0.000000000000000000 ) ) ;
#505 = AXIS2_PLACEMENT_3D ( 'NONE', #191, #241, #117 ) ;
#506 = ADVANCED_FACE ( 'NONE', ( #157 ), #683, .F. ) ;
#507 = VECTOR ( 'NONE', #211, 999.9999999999998863 ) ;
#508 = VERTEX_POINT ( 'NONE', #483 ) ;
#509 = DIRECTION ( 'NONE',  ( 1.000000000000000000, 0.000000000000000000, 0.000000000000000000 ) ) ;
#510 = DIRECTION ( 'NONE',  ( -1.000000000000000000, 0.000000000000000000, 0.000000000000000000 ) ) ;
#511 = ORIENTED_EDGE ( 'NONE', *, *, #201, .T. ) ;
#512 = DIRECTION ( 'NONE',  ( 0.000000000000000000, 0.000000000000000000, -1.000000000000000000 ) ) ;
#513 = DIRECTION ( 'NONE',  ( -0.000000000000000000, -0.000000000000000000, -1.000000000000000000 ) ) ;
#514 = AXIS2_PLACEMENT_3D ( 'NONE', #699, #420, #535 ) ;
#515 = EDGE_LOOP ( 'NONE', ( #100, #584 ) ) ;
#516 = CIRCLE ( 'NONE', #379, 7.250000000000001776 ) ;
#517 = DIRECTION ( 'NONE',  ( 1.000000000000000000, 0.000000000000000000, 0.000000000000000000 ) ) ;
#518 = CONICAL_SURFACE ( 'NONE', #602, 11.75000000000000000, 0.7853981633974482790 ) ;
#519 = CARTESIAN_POINT ( 'NONE',  ( 7.750000000000001776, 0.000000000000000000, 72.00000000000001421 ) ) ;
#520 = ORIENTED_EDGE ( 'NONE', *, *, #386, .F. ) ;
#521 = CARTESIAN_POINT ( 'NONE',  ( 0.000000000000000000, 0.000000000000000000, 0.5000000000000004441 ) ) ;
#522 = CIRCLE ( 'NONE', #178, 11.75000000000000000 ) ;
#523 = EDGE_CURVE ( 'NONE', #454, #472, #426, .T. ) ;
#524 = ORIENTED_EDGE ( 'NONE', *, *, #201, .F. ) ;
#525 = DIRECTION ( 'NONE',  ( -0.000000000000000000, -0.000000000000000000, 1.000000000000000000 ) ) ;
#526 = CYLINDRICAL_SURFACE ( 'NONE', #693, 15.75000000000000000 ) ;
#527 = CIRCLE ( 'NONE', #44, 9.250000000000000000 ) ;
#528 = EDGE_CURVE ( 'NONE', #508, #247, #198, .T. ) ;
#529 = AXIS2_PLACEMENT_3D ( 'NONE', #19, #392, #60 ) ;
#530 = DIRECTION ( 'NONE',  ( -0.000000000000000000, -0.000000000000000000, -1.000000000000000000 ) ) ;
#531 = DIRECTION ( 'NONE',  ( 1.000000000000000000, 0.000000000000000000, 0.000000000000000000 ) ) ;
#532 = ORIENTED_EDGE ( 'NONE', *, *, #61, .T. ) ;
#533 = DIRECTION ( 'NONE',  ( -0.000000000000000000, -0.000000000000000000, -1.000000000000000000 ) ) ;
#534 = DIRECTION ( 'NONE',  ( 1.000000000000000000, 0.000000000000000000, 0.000000000000000000 ) ) ;
#535 = DIRECTION ( 'NONE',  ( 1.000000000000000000, 0.000000000000000000, 0.000000000000000000 ) ) ;
#536 = CIRCLE ( 'NONE', #433, 15.75000000000000000 ) ;
#537 = DIRECTION ( 'NONE',  ( 0.000000000000000000, 0.000000000000000000, -1.000000000000000000 ) ) ;
#538 = EDGE_CURVE ( 'NONE', #190, #447, #649, .T. ) ;
#539 = ORIENTED_EDGE ( 'NONE', *, *, #391, .T. ) ;
#540 = DIRECTION ( 'NONE',  ( 1.000000000000000000, 0.000000000000000000, 0.000000000000000000 ) ) ;
#541 = CARTESIAN_POINT ( 'NONE',  ( 0.000000000000000000, 0.000000000000000000, 5.500000000000000000 ) ) ;
#542 = ORIENTED_EDGE ( 'NONE', *, *, #440, .F. ) ;
#543 = DIRECTION ( 'NONE',  ( -0.000000000000000000, -0.000000000000000000, -1.000000000000000000 ) ) ;
#544 = DIRECTION ( 'NONE',  ( -0.000000000000000000, -0.000000000000000000, -1.000000000000000000 ) ) ;
#545 = ORIENTED_EDGE ( 'NONE', *, *, #425, .F. ) ;
#546 = EDGE_CURVE ( 'NONE', #405, #558, #75, .T. ) ;
#547 = CARTESIAN_POINT ( 'NONE',  ( 0.000000000000000000, 0.000000000000000000, 5.500000000000000000 ) ) ;
#548 = DIRECTION ( 'NONE',  ( 0.000000000000000000, 0.000000000000000000, -1.000000000000000000 ) ) ;
#549 = AXIS2_PLACEMENT_3D ( 'NONE', #607, #274, #509 ) ;
#550 = ORIENTED_EDGE ( 'NONE', *, *, #61, .F. ) ;
#551 = VECTOR ( 'NONE', #97, 1000.000000000000114 ) ;
#552 = CARTESIAN_POINT ( 'NONE',  ( 8.250000000000001776, 1.010333609296566747E-15, 70.00000000000000000 ) ) ;
#553 = CARTESIAN_POINT ( 'NONE',  ( -8.250000000000001776, 0.000000000000000000, 70.00000000000000000 ) ) ;
#554 = ORIENTED_EDGE ( 'NONE', *, *, #246, .F. ) ;
#555 = CARTESIAN_POINT ( 'NONE',  ( 0.000000000000000000, 0.000000000000000000, 72.00000000000001421 ) ) ;
#556 = CIRCLE ( 'NONE', #571, 12.75000000000000000 ) ;
#557 = EDGE_CURVE ( 'NONE', #206, #107, #88, .T. ) ;
#558 = VERTEX_POINT ( 'NONE', #552 ) ;
#559 = PLANE ( 'NONE',  #316 ) ;
#560 = DIRECTION ( 'NONE',  ( 0.000000000000000000, 0.000000000000000000, 1.000000000000000000 ) ) ;
#561 = EDGE_CURVE ( 'NONE', #328, #195, #382, .T. ) ;
#562 = CIRCLE ( 'NONE', #249, 11.25000000000000000 ) ;
#563 = ORIENTED_EDGE ( 'NONE', *, *, #608, .F. ) ;
#564 = CARTESIAN_POINT ( 'NONE',  ( 0.000000000000000000, 0.000000000000000000, 0.000000000000000000 ) ) ;
#565 = VECTOR ( 'NONE', #641, 999.9999999999998863 ) ;
#566 = CARTESIAN_POINT ( 'NONE',  ( 11.75000000000000000, 1.438959988998140160E-15, 70.00000000000000000 ) ) ;
#567 = APPLICATION_CONTEXT ( 'automotive_design' ) ;
#568 = ORIENTED_EDGE ( 'NONE', *, *, #557, .T. ) ;
#569 = DIRECTION ( 'NONE',  ( -0.000000000000000000, -0.000000000000000000, 1.000000000000000000 ) ) ;
#570 = SURFACE_STYLE_FILL_AREA ( #182 ) ;
#571 = AXIS2_PLACEMENT_3D ( 'NONE', #462, #137, #38 ) ;
#572 = EDGE_LOOP ( 'NONE', ( #317, #34, #66, #225 ) ) ;
#573 = ADVANCED_FACE ( 'NONE', ( #331 ), #657, .F. ) ;
#574 = DIRECTION ( 'NONE',  ( -1.000000000000000000, 0.000000000000000000, 0.000000000000000000 ) ) ;
#575 = ORIENTED_EDGE ( 'NONE', *, *, #223, .F. ) ;
#576 = EDGE_CURVE ( 'NONE', #679, #330, #395, .T. ) ;
#577 = FACE_OUTER_BOUND ( 'NONE', #578, .T. ) ;
#578 = EDGE_LOOP ( 'NONE', ( #305, #428, #414, #111 ) ) ;
#579 = CARTESIAN_POINT ( 'NONE',  ( -15.25000000000000000, 0.000000000000000000, 5.500000000000000000 ) ) ;
#580 = FACE_OUTER_BOUND ( 'NONE', #412, .T. ) ;
#581 = VECTOR ( 'NONE', #490, 1000.000000000000000 ) ;
#582 = FACE_OUTER_BOUND ( 'NONE', #74, .T. ) ;
#583 = CLOSED_SHELL ( 'NONE', ( #418, #300, #149, #234, #264, #586, #506, #702, #309, #87, #321, #20, #296, #573, #601, #332, #82, #626, #469, #639, #37, #485, #452, #115, #375, #242 ) ) ;
#584 = ORIENTED_EDGE ( 'NONE', *, *, #608, .T. ) ;
#585 = DIRECTION ( 'NONE',  ( 1.000000000000000000, 0.000000000000000000, 0.000000000000000000 ) ) ;
#586 = ADVANCED_FACE ( 'NONE', ( #329 ), #446, .T. ) ;
#587 = DIRECTION ( 'NONE',  ( -1.000000000000000000, 0.000000000000000000, 0.000000000000000000 ) ) ;
#588 = FACE_OUTER_BOUND ( 'NONE', #28, .T. ) ;
#589 = ORIENTED_EDGE ( 'NONE', *, *, #290, .F. ) ;
#590 = CONICAL_SURFACE ( 'NONE', #444, 15.75000000000000000, 0.7853981633974482790 ) ;
#591 = DIRECTION ( 'NONE',  ( 1.000000000000000000, 0.000000000000000000, 0.000000000000000000 ) ) ;
#592 = VECTOR ( 'NONE', #130, 999.9999999999998863 ) ;
#593 = DIRECTION ( 'NONE',  ( 1.000000000000000000, 0.000000000000000000, 0.000000000000000000 ) ) ;
#594 = CIRCLE ( 'NONE', #354, 7.250000000000001776 ) ;
#595 = EDGE_LOOP ( 'NONE', ( #598, #342, #325, #655 ) ) ;
#596 = DIRECTION ( 'NONE',  ( 1.000000000000000000, 0.000000000000000000, 0.000000000000000000 ) ) ;
#597 = DIRECTION ( 'NONE',  ( -0.7071067811865474617, 0.000000000000000000, -0.7071067811865474617 ) ) ;
#598 = ORIENTED_EDGE ( 'NONE', *, *, #546, .F. ) ;
#599 = DIRECTION ( 'NONE',  ( 0.000000000000000000, 0.000000000000000000, -1.000000000000000000 ) ) ;
#600 = CARTESIAN_POINT ( 'NONE',  ( 0.000000000000000000, 0.000000000000000000, 70.00000000000000000 ) ) ;
#601 = ADVANCED_FACE ( 'NONE', ( #503, #231 ), #559, .T. ) ;
#602 = AXIS2_PLACEMENT_3D ( 'NONE', #692, #29, #299 ) ;
#603 = EDGE_LOOP ( 'NONE', ( #298, #554, #390, #240 ) ) ;
#604 = CARTESIAN_POINT ( 'NONE',  ( 8.250000000000001776, 1.010333609296566747E-15, 70.00000000000000000 ) ) ;
#605 = CARTESIAN_POINT ( 'NONE',  ( 0.000000000000000000, 0.000000000000000000, 5.500000000000000000 ) ) ;
#606 = EDGE_LOOP ( 'NONE', ( #18, #139, #682, #345 ) ) ;
#607 = CARTESIAN_POINT ( 'NONE',  ( 0.000000000000000000, 0.000000000000000000, 0.000000000000000000 ) ) ;
#608 = EDGE_CURVE ( 'NONE', #398, #497, #562, .T. ) ;
#609 = DIRECTION ( 'NONE',  ( -0.000000000000000000, -0.000000000000000000, -1.000000000000000000 ) ) ;
#610 = ORIENTED_EDGE ( 'NONE', *, *, #42, .T. ) ;
#611 = CARTESIAN_POINT ( 'NONE',  ( 0.000000000000000000, 0.000000000000000000, 72.00000000000001421 ) ) ;
#612 = CARTESIAN_POINT ( 'NONE',  ( -9.250000000000000000, 0.000000000000000000, 70.00000000000000000 ) ) ;
#613 = ORIENTED_EDGE ( 'NONE', *, *, #181, .F. ) ;
#614 = DIRECTION ( 'NONE',  ( -0.000000000000000000, -0.000000000000000000, -1.000000000000000000 ) ) ;
#615 =( NAMED_UNIT ( * ) SI_UNIT ( $, .STERADIAN. ) SOLID_ANGLE_UNIT ( ) );
#616 = AXIS2_PLACEMENT_3D ( 'NONE', #564, #238, #455 ) ;
#617 = ORIENTED_EDGE ( 'NONE', *, *, #70, .F. ) ;
#618 = CARTESIAN_POINT ( 'NONE',  ( -9.250000000000000000, 0.000000000000000000, 3.500000000000003109 ) ) ;
#619 = DIRECTION ( 'NONE',  ( -0.000000000000000000, -0.000000000000000000, -1.000000000000000000 ) ) ;
#620 = CIRCLE ( 'NONE', #171, 12.75000000000000533 ) ;
#621 = EDGE_CURVE ( 'NONE', #398, #385, #64, .T. ) ;
#622 = EDGE_LOOP ( 'NONE', ( #489, #59, #14, #407 ) ) ;
#623 = DIRECTION ( 'NONE',  ( 0.000000000000000000, 0.000000000000000000, 1.000000000000000000 ) ) ;
#624 = DIRECTION ( 'NONE',  ( -0.000000000000000000, -0.000000000000000000, -1.000000000000000000 ) ) ;
#625 = ORIENTED_EDGE ( 'NONE', *, *, #523, .T. ) ;
#626 = ADVANCED_FACE ( 'NONE', ( #116, #339 ), #180, .T. ) ;
#627 = LINE ( 'NONE', #248, #656 ) ;
#628 = CONICAL_SURFACE ( 'NONE', #351, 7.250000000000001776, 0.7853981633974473908 ) ;
#629 = CARTESIAN_POINT ( 'NONE',  ( 11.75000000000000000, 1.438959988998140160E-15, 6.500000000000005329 ) ) ;
#630 = VECTOR ( 'NONE', #513, 1000.000000000000000 ) ;
#631 = ORIENTED_EDGE ( 'NONE', *, *, #105, .F. ) ;
#632 = DIRECTION ( 'NONE',  ( 1.000000000000000000, 0.000000000000000000, 0.000000000000000000 ) ) ;
#633 = ORIENTED_EDGE ( 'NONE', *, *, #313, .F. ) ;
#634 = CARTESIAN_POINT ( 'NONE',  ( 0.000000000000000000, 0.000000000000000000, 6.500000000000005329 ) ) ;
#635 = AXIS2_PLACEMENT_3D ( 'NONE', #252, #303, #404 ) ;
#636 = ORIENTED_EDGE ( 'NONE', *, *, #96, .F. ) ;
#637 = DIRECTION ( 'NONE',  ( 1.000000000000000000, 0.000000000000000000, 0.000000000000000000 ) ) ;
#638 = CONICAL_SURFACE ( 'NONE', #200, 15.25000000000000000, 0.7853981633974482790 ) ;
#639 = ADVANCED_FACE ( 'NONE', ( #660 ), #337, .F. ) ;
#640 = DIRECTION ( 'NONE',  ( -0.000000000000000000, -0.000000000000000000, -1.000000000000000000 ) ) ;
#641 = DIRECTION ( 'NONE',  ( -0.7071067811865472397, 0.000000000000000000, -0.7071067811865479058 ) ) ;
#642 = CARTESIAN_POINT ( 'NONE',  ( 0.000000000000000000, 0.000000000000000000, 4.999999999999999112 ) ) ;
#643 = FACE_OUTER_BOUND ( 'NONE', #461, .T. ) ;
#644 = EDGE_LOOP ( 'NONE', ( #308, #280 ) ) ;
#645 = VECTOR ( 'NONE', #695, 1000.000000000000000 ) ;
#646 = FACE_OUTER_BOUND ( 'NONE', #690, .T. ) ;
#647 = PRODUCT ( '18mm Motor Retainer', '18mm Motor Retainer', '', ( #694 ) ) ;
#648 = EDGE_CURVE ( 'NONE', #687, #199, #492, .T. ) ;
#649 = CIRCLE ( 'NONE', #69, 12.75000000000000533 ) ;
#650 = FACE_OUTER_BOUND ( 'NONE', #603, .T. ) ;
#651 = MECHANICAL_DESIGN_GEOMETRIC_PRESENTATION_REPRESENTATION (  '', ( #318 ), #232 ) ;
#652 = EDGE_LOOP ( 'NONE', ( #288, #677, #89, #22 ) ) ;
#653 = DIRECTION ( 'NONE',  ( 1.000000000000000000, 0.000000000000000000, 0.000000000000000000 ) ) ;
#654 = DIRECTION ( 'NONE',  ( 1.000000000000000000, 0.000000000000000000, 0.000000000000000000 ) ) ;
#655 = ORIENTED_EDGE ( 'NONE', *, *, #364, .F. ) ;
#656 = VECTOR ( 'NONE', #410, 1000.000000000000114 ) ;
#657 = CYLINDRICAL_SURFACE ( 'NONE', #466, 9.250000000000000000 ) ;
#658 = LINE ( 'NONE', #173, #468 ) ;
#659 = EDGE_LOOP ( 'NONE', ( #51, #666, #213, #295 ) ) ;
#660 = FACE_OUTER_BOUND ( 'NONE', #659, .T. ) ;
#661 = VECTOR ( 'NONE', #131, 999.9999999999998863 ) ;
#662 = VERTEX_POINT ( 'NONE', #618 ) ;
#663 = EDGE_CURVE ( 'NONE', #237, #203, #138, .T. ) ;
#664 = DIRECTION ( 'NONE',  ( 1.000000000000000000, 0.000000000000000000, -0.000000000000000000 ) ) ;
#665 = DIRECTION ( 'NONE',  ( 0.000000000000000000, 0.000000000000000000, 1.000000000000000000 ) ) ;
#666 = ORIENTED_EDGE ( 'NONE', *, *, #474, .F. ) ;
#667 = DIRECTION ( 'NONE',  ( -1.000000000000000000, 0.000000000000000000, 0.000000000000000000 ) ) ;
#668 = CARTESIAN_POINT ( 'NONE',  ( -7.750000000000001776, 9.491012693391989759E-16, 72.00000000000001421 ) ) ;
#669 = VERTEX_POINT ( 'NONE', #282 ) ;
#670 = DIRECTION ( 'NONE',  ( 1.000000000000000000, 0.000000000000000000, 0.000000000000000000 ) ) ;
#671 = SURFACE_SIDE_STYLE ('',( #570 ) ) ;
#672 = AXIS2_PLACEMENT_3D ( 'NONE', #188, #569, #221 ) ;
#673 = ORIENTED_EDGE ( 'NONE', *, *, #269, .T. ) ;
#674 = CIRCLE ( 'NONE', #271, 9.250000000000000000 ) ;
#675 =( NAMED_UNIT ( * ) SI_UNIT ( $, .STERADIAN. ) SOLID_ANGLE_UNIT ( ) );
#676 = FACE_OUTER_BOUND ( 'NONE', #71, .T. ) ;
#677 = ORIENTED_EDGE ( 'NONE', *, *, #105, .T. ) ;
#678 = LINE ( 'NONE', #629, #4 ) ;
#679 = VERTEX_POINT ( 'NONE', #176 ) ;
#680 = EDGE_CURVE ( 'NONE', #233, #129, #458, .T. ) ;
#681 = CARTESIAN_POINT ( 'NONE',  ( 0.000000000000000000, 0.000000000000000000, 70.00000000000000000 ) ) ;
#682 = ORIENTED_EDGE ( 'NONE', *, *, #290, .T. ) ;
#683 = CONICAL_SURFACE ( 'NONE', #101, 12.75000000000000000, 0.7853981633974479459 ) ;
#684 = EDGE_CURVE ( 'NONE', #195, #230, #151, .T. ) ;
#685 = CARTESIAN_POINT ( 'NONE',  ( -11.75000000000000000, 0.000000000000000000, 6.500000000000005329 ) ) ;
#686 = CIRCLE ( 'NONE', #140, 11.75000000000000000 ) ;
#687 = VERTEX_POINT ( 'NONE', #227 ) ;
#688 = ORIENTED_EDGE ( 'NONE', *, *, #409, .T. ) ;
#689 = DIRECTION ( 'NONE',  ( -0.000000000000000000, -0.000000000000000000, -1.000000000000000000 ) ) ;
#690 = EDGE_LOOP ( 'NONE', ( #434, #361, #77, #162 ) ) ;
#691 = DIRECTION ( 'NONE',  ( -1.000000000000000000, 0.000000000000000000, 0.000000000000000000 ) ) ;
#692 = CARTESIAN_POINT ( 'NONE',  ( 0.000000000000000000, 0.000000000000000000, 6.500000000000005329 ) ) ;
#693 = AXIS2_PLACEMENT_3D ( 'NONE', #33, #530, #355 ) ;
#694 = PRODUCT_CONTEXT ( 'NONE', #293, 'mechanical' ) ;
#695 = DIRECTION ( 'NONE',  ( -0.000000000000000000, -0.000000000000000000, -1.000000000000000000 ) ) ;
#696 = DIRECTION ( 'NONE',  ( -1.000000000000000000, 0.000000000000000000, 0.000000000000000000 ) ) ;
#697 = CIRCLE ( 'NONE', #388, 8.250000000000001776 ) ;
#698 = AXIS2_PLACEMENT_3D ( 'NONE', #451, #98, #691 ) ;
#699 = CARTESIAN_POINT ( 'NONE',  ( 0.000000000000000000, 0.000000000000000000, 70.00000000000000000 ) ) ;
#700 = CARTESIAN_POINT ( 'NONE',  ( -11.75000000000000000, 0.000000000000000000, 6.500000000000005329 ) ) ;
#701 = ORIENTED_EDGE ( 'NONE', *, *, #269, .F. ) ;
#702 = ADVANCED_FACE ( 'NONE', ( #387 ), #119, .F. ) ;
#703 = CARTESIAN_POINT ( 'NONE',  ( 0.000000000000000000, 0.000000000000000000, 0.000000000000000000 ) ) ;
#704 = DIRECTION ( 'NONE',  ( 0.000000000000000000, 0.000000000000000000, -1.000000000000000000 ) ) ;
#705 = VERTEX_POINT ( 'NONE', #347 ) ;
#706 = FACE_OUTER_BOUND ( 'NONE', #267, .T. ) ;
#707 = AXIS2_PLACEMENT_3D ( 'NONE', #92, #423, #587 ) ;
#708 = CARTESIAN_POINT ( 'NONE',  ( 0.000000000000000000, 0.000000000000000000, 72.00000000000001421 ) ) ;
#709 = VERTEX_POINT ( 'NONE', #35 ) ;
ENDSEC;
END-ISO-10303-21;
