ISO-10303-21;
HEADER;
FILE_DESCRIPTION (( 'STEP AP214' ),
    '1' );
FILE_NAME ('24mm Motor Retainer.STEP',
    '2026-04-25T22:05:52',
    ( '' ),
    ( '' ),
    'SwSTEP 2.0',
    'SolidWorks 2025',
    '' );
FILE_SCHEMA (( 'AUTOMOTIVE_DESIGN' ));
ENDSEC;

DATA;
#1 = AXIS2_PLACEMENT_3D ( 'NONE', #562, #733, #316 ) ;
#2 = VERTEX_POINT ( 'NONE', #452 ) ;
#3 = EDGE_CURVE ( 'NONE', #553, #611, #695, .T. ) ;
#4 = LINE ( 'NONE', #226, #267 ) ;
#5 = CARTESIAN_POINT ( 'NONE',  ( -14.25000000000001954, 0.000000000000000000, 0.000000000000000000 ) ) ;
#6 = EDGE_CURVE ( 'NONE', #116, #56, #232, .T. ) ;
#7 = PRESENTATION_STYLE_ASSIGNMENT (( #127 ) ) ;
#8 = EDGE_CURVE ( 'NONE', #578, #53, #4, .T. ) ;
#9 = PRODUCT_DEFINITION_CONTEXT ( 'detailed design', #68, 'design' ) ;
#10 = FACE_OUTER_BOUND ( 'NONE', #739, .T. ) ;
#11 = ORIENTED_EDGE ( 'NONE', *, *, #106, .F. ) ;
#12 = CARTESIAN_POINT ( 'NONE',  ( 13.50000000000000000, 1.653273178848926867E-15, 87.00000000000001421 ) ) ;
#13 = SURFACE_STYLE_FILL_AREA ( #182 ) ;
#14 = AXIS2_PLACEMENT_3D ( 'NONE', #180, #279, #334 ) ;
#15 = ORIENTED_EDGE ( 'NONE', *, *, #450, .T. ) ;
#16 = DIRECTION ( 'NONE',  ( -0.000000000000000000, -0.000000000000000000, 1.000000000000000000 ) ) ;
#17 = AXIS2_PLACEMENT_3D ( 'NONE', #160, #441, #502 ) ;
#18 = PLANE ( 'NONE',  #481 ) ;
#19 = CARTESIAN_POINT ( 'NONE',  ( 8.000000000000000000, 9.797174393178825657E-16, 87.00000000000001421 ) ) ;
#20 = VERTEX_POINT ( 'NONE', #748 ) ;
#21 = DIRECTION ( 'NONE',  ( 1.000000000000000000, 0.000000000000000000, 0.000000000000000000 ) ) ;
#22 = VECTOR ( 'NONE', #648, 1000.000000000000000 ) ;
#23 = EDGE_CURVE ( 'NONE', #281, #170, #574, .T. ) ;
#24 = ADVANCED_FACE ( 'NONE', ( #172 ), #302, .T. ) ;
#25 = DIRECTION ( 'NONE',  ( 0.7071067811865474617, 8.659560562354932858E-17, -0.7071067811865474617 ) ) ;
#26 = CARTESIAN_POINT ( 'NONE',  ( 13.50000000000000000, 1.683889348827610851E-15, 87.00000000000001421 ) ) ;
#27 = APPLICATION_CONTEXT ( 'automotive_design' ) ;
#28 = DIRECTION ( 'NONE',  ( 1.000000000000000000, 0.000000000000000000, 0.000000000000000000 ) ) ;
#29 = FACE_OUTER_BOUND ( 'NONE', #460, .T. ) ;
#30 = CIRCLE ( 'NONE', #517, 16.25000000000000000 ) ;
#31 = ADVANCED_FACE ( 'NONE', ( #61, #571 ), #408, .T. ) ;
#32 = CARTESIAN_POINT ( 'NONE',  ( 0.000000000000000000, 0.000000000000000000, 6.000000000000005329 ) ) ;
#33 = CARTESIAN_POINT ( 'NONE',  ( -8.000000000000000000, 0.000000000000000000, 86.50000000000001421 ) ) ;
#34 = LINE ( 'NONE', #260, #494 ) ;
#35 = CARTESIAN_POINT ( 'NONE',  ( 14.25000000000001954, 1.745121688784980594E-15, 0.000000000000000000 ) ) ;
#36 = ORIENTED_EDGE ( 'NONE', *, *, #627, .T. ) ;
#37 = CARTESIAN_POINT ( 'NONE',  ( -16.25000000000000000, 0.000000000000000000, 5.500000000000000000 ) ) ;
#38 = EDGE_CURVE ( 'NONE', #53, #174, #519, .T. ) ;
#39 = AXIS2_PLACEMENT_3D ( 'NONE', #724, #210, #668 ) ;
#40 = CARTESIAN_POINT ( 'NONE',  ( 16.25000000000000000, 1.990051048614449313E-15, 4.999999999999999112 ) ) ;
#41 = ORIENTED_EDGE ( 'NONE', *, *, #405, .F. ) ;
#42 = AXIS2_PLACEMENT_3D ( 'NONE', #319, #539, #185 ) ;
#43 = SHAPE_DEFINITION_REPRESENTATION ( #109, #703 ) ;
#44 = DIRECTION ( 'NONE',  ( 1.000000000000000000, 0.000000000000000000, 0.000000000000000000 ) ) ;
#45 = ORIENTED_EDGE ( 'NONE', *, *, #81, .T. ) ;
#46 = CONICAL_SURFACE ( 'NONE', #423, 12.50000000000000000, 0.7853981633974482790 ) ;
#47 = CARTESIAN_POINT ( 'NONE',  ( 14.00000000000000000, 1.714505518806294638E-15, 6.000000000000005329 ) ) ;
#48 = EDGE_LOOP ( 'NONE', ( #238, #243, #288, #469 ) ) ;
#49 = DIRECTION ( 'NONE',  ( -0.000000000000000000, -0.000000000000000000, -1.000000000000000000 ) ) ;
#50 = VECTOR ( 'NONE', #206, 1000.000000000000114 ) ;
#51 = EDGE_CURVE ( 'NONE', #107, #277, #575, .T. ) ;
#52 = EDGE_CURVE ( 'NONE', #174, #439, #289, .T. ) ;
#53 = VERTEX_POINT ( 'NONE', #285 ) ;
#54 = ORIENTED_EDGE ( 'NONE', *, *, #671, .F. ) ;
#55 = DIRECTION ( 'NONE',  ( -0.000000000000000000, -0.000000000000000000, -1.000000000000000000 ) ) ;
#56 = VERTEX_POINT ( 'NONE', #515 ) ;
#57 = DIRECTION ( 'NONE',  ( 1.000000000000000000, 0.000000000000000000, -0.000000000000000000 ) ) ;
#58 = EDGE_CURVE ( 'NONE', #525, #281, #222, .T. ) ;
#59 = EDGE_LOOP ( 'NONE', ( #459, #387, #725, #669 ) ) ;
#60 = ORIENTED_EDGE ( 'NONE', *, *, #106, .T. ) ;
#61 = FACE_BOUND ( 'NONE', #199, .T. ) ;
#62 = VECTOR ( 'NONE', #407, 1000.000000000000114 ) ;
#63 = AXIS2_PLACEMENT_3D ( 'NONE', #32, #419, #653 ) ;
#64 = EDGE_CURVE ( 'NONE', #278, #188, #643, .T. ) ;
#65 = VERTEX_POINT ( 'NONE', #229 ) ;
#66 = CARTESIAN_POINT ( 'NONE',  ( 0.000000000000000000, 0.000000000000000000, 85.50000000000000000 ) ) ;
#67 = DIRECTION ( 'NONE',  ( -0.5000000000000005551, 0.000000000000000000, -0.8660254037844382635 ) ) ;
#68 = APPLICATION_CONTEXT ( 'automotive_design' ) ;
#69 = DIRECTION ( 'NONE',  ( 1.000000000000000000, 0.000000000000000000, 0.000000000000000000 ) ) ;
#70 = ADVANCED_FACE ( 'NONE', ( #276, #168 ), #458, .T. ) ;
#71 = CARTESIAN_POINT ( 'NONE',  ( 0.000000000000000000, 0.000000000000000000, 4.999999999999999112 ) ) ;
#72 = ORIENTED_EDGE ( 'NONE', *, *, #456, .T. ) ;
#73 = FACE_OUTER_BOUND ( 'NONE', #317, .T. ) ;
#74 =( NAMED_UNIT ( * ) SI_UNIT ( $, .STERADIAN. ) SOLID_ANGLE_UNIT ( ) );
#75 = ORIENTED_EDGE ( 'NONE', *, *, #746, .T. ) ;
#76 = CARTESIAN_POINT ( 'NONE',  ( 0.000000000000000000, 0.000000000000000000, 85.00000000000000000 ) ) ;
#77 = CARTESIAN_POINT ( 'NONE',  ( 8.500000000000000000, 1.040949779275250140E-15, 85.00000000000000000 ) ) ;
#78 = LINE ( 'NONE', #370, #173 ) ;
#79 = ORIENTED_EDGE ( 'NONE', *, *, #696, .T. ) ;
#80 = CARTESIAN_POINT ( 'NONE',  ( 8.500000000000000000, 1.040949779275250140E-15, 85.00000000000000000 ) ) ;
#81 = EDGE_CURVE ( 'NONE', #513, #611, #155, .T. ) ;
#82 = DIRECTION ( 'NONE',  ( -0.000000000000000000, -0.000000000000000000, -1.000000000000000000 ) ) ;
#83 = CARTESIAN_POINT ( 'NONE',  ( 12.50000000000000000, 1.530808498934191521E-15, 3.031088913245563621 ) ) ;
#84 = CARTESIAN_POINT ( 'NONE',  ( 0.000000000000000000, 0.000000000000000000, 3.031088913245563621 ) ) ;
#85 = EDGE_CURVE ( 'NONE', #734, #439, #686, .T. ) ;
#86 = DIRECTION ( 'NONE',  ( -0.000000000000000000, -0.000000000000000000, -1.000000000000000000 ) ) ;
#87 = CARTESIAN_POINT ( 'NONE',  ( -13.50000000000000000, 0.000000000000000000, 87.00000000000001421 ) ) ;
#88 = CYLINDRICAL_SURFACE ( 'NONE', #298, 14.00000000000000000 ) ;
#89 = DIRECTION ( 'NONE',  ( 0.000000000000000000, 0.000000000000000000, 1.000000000000000000 ) ) ;
#90 = ORIENTED_EDGE ( 'NONE', *, *, #213, .F. ) ;
#91 = FACE_OUTER_BOUND ( 'NONE', #573, .T. ) ;
#92 = LINE ( 'NONE', #37, #744 ) ;
#93 = DIRECTION ( 'NONE',  ( -1.000000000000000000, 0.000000000000000000, 0.000000000000000000 ) ) ;
#94 = CARTESIAN_POINT ( 'NONE',  ( 0.000000000000000000, 0.000000000000000000, 3.031088913245563621 ) ) ;
#95 = ORIENTED_EDGE ( 'NONE', *, *, #572, .T. ) ;
#96 = APPLICATION_PROTOCOL_DEFINITION ( 'draft international standard', 'automotive_design', 1998, #27 ) ;
#97 = AXIS2_PLACEMENT_3D ( 'NONE', #605, #377, #102 ) ;
#98 = CARTESIAN_POINT ( 'NONE',  ( 0.000000000000000000, 0.000000000000000000, 5.500000000000000000 ) ) ;
#99 = EDGE_LOOP ( 'NONE', ( #333, #630, #115, #217 ) ) ;
#100 = CIRCLE ( 'NONE', #413, 8.000000000000000000 ) ;
#101 = CIRCLE ( 'NONE', #159, 14.25000000000001954 ) ;
#102 = DIRECTION ( 'NONE',  ( -1.000000000000000000, 0.000000000000000000, 0.000000000000000000 ) ) ;
#103 = ORIENTED_EDGE ( 'NONE', *, *, #612, .F. ) ;
#104 = AXIS2_PLACEMENT_3D ( 'NONE', #729, #89, #203 ) ;
#105 = CIRCLE ( 'NONE', #136, 14.00000000000000000 ) ;
#106 = EDGE_CURVE ( 'NONE', #273, #170, #412, .T. ) ;
#107 = VERTEX_POINT ( 'NONE', #433 ) ;
#108 = DIRECTION ( 'NONE',  ( -0.7071067811865474617, 0.000000000000000000, -0.7071067811865474617 ) ) ;
#109 = PRODUCT_DEFINITION_SHAPE ( 'NONE', 'NONE',  #595 ) ;
#110 = ORIENTED_EDGE ( 'NONE', *, *, #400, .F. ) ;
#111 = CARTESIAN_POINT ( 'NONE',  ( 0.000000000000000000, 0.000000000000000000, 4.999999999999999112 ) ) ;
#112 = EDGE_CURVE ( 'NONE', #743, #53, #383, .T. ) ;
#113 = CIRCLE ( 'NONE', #332, 12.50000000000000000 ) ;
#114 = VERTEX_POINT ( 'NONE', #552 ) ;
#115 = ORIENTED_EDGE ( 'NONE', *, *, #8, .T. ) ;
#116 = VERTEX_POINT ( 'NONE', #40 ) ;
#117 = ADVANCED_FACE ( 'NONE', ( #153 ), #581, .F. ) ;
#118 = ORIENTED_EDGE ( 'NONE', *, *, #52, .F. ) ;
#119 = ORIENTED_EDGE ( 'NONE', *, *, #38, .T. ) ;
#120 = DIRECTION ( 'NONE',  ( 0.7071067811865474617, 0.000000000000000000, 0.7071067811865474617 ) ) ;
#121 = AXIS2_PLACEMENT_3D ( 'NONE', #528, #183, #356 ) ;
#122 = DIRECTION ( 'NONE',  ( 1.000000000000000000, 0.000000000000000000, 0.000000000000000000 ) ) ;
#123 = DIRECTION ( 'NONE',  ( 1.000000000000000000, 0.000000000000000000, 0.000000000000000000 ) ) ;
#124 = CARTESIAN_POINT ( 'NONE',  ( -15.75000000000000000, 1.959434878635765526E-15, 0.000000000000000000 ) ) ;
#125 = CIRCLE ( 'NONE', #104, 14.25000000000001954 ) ;
#126 = ADVANCED_FACE ( 'NONE', ( #265 ), #752, .T. ) ;
#127 = SURFACE_STYLE_USAGE ( .BOTH. , #523 ) ;
#128 = AXIS2_PLACEMENT_3D ( 'NONE', #176, #580, #635 ) ;
#129 = ORIENTED_EDGE ( 'NONE', *, *, #421, .F. ) ;
#130 = PRODUCT ( '24mm Motor Retainer', '24mm Motor Retainer', '', ( #324 ) ) ;
#131 = CARTESIAN_POINT ( 'NONE',  ( 0.000000000000000000, 0.000000000000000000, 86.50000000000001421 ) ) ;
#132 = DIRECTION ( 'NONE',  ( -0.000000000000000000, -0.000000000000000000, -1.000000000000000000 ) ) ;
#133 = ADVANCED_FACE ( 'NONE', ( #329 ), #264, .T. ) ;
#134 = ORIENTED_EDGE ( 'NONE', *, *, #400, .T. ) ;
#135 = LINE ( 'NONE', #190, #250 ) ;
#136 = AXIS2_PLACEMENT_3D ( 'NONE', #530, #16, #371 ) ;
#137 = LINE ( 'NONE', #12, #284 ) ;
#138 = CARTESIAN_POINT ( 'NONE',  ( 0.000000000000000000, 0.000000000000000000, 86.50000000000001421 ) ) ;
#139 = DIRECTION ( 'NONE',  ( 0.000000000000000000, 0.000000000000000000, 1.000000000000000000 ) ) ;
#140 = CIRCLE ( 'NONE', #17, 8.000000000000000000 ) ;
#141 = CARTESIAN_POINT ( 'NONE',  ( 16.25000000000000000, 1.990051048614449313E-15, 0.5000000000000004441 ) ) ;
#142 = CARTESIAN_POINT ( 'NONE',  ( 8.500000000000000000, 0.000000000000000000, 87.00000000000001421 ) ) ;
#143 = DIRECTION ( 'NONE',  ( -0.000000000000000000, -0.000000000000000000, 1.000000000000000000 ) ) ;
#144 = ADVANCED_FACE ( 'NONE', ( #442 ), #545, .F. ) ;
#145 = CYLINDRICAL_SURFACE ( 'NONE', #682, 16.25000000000000000 ) ;
#146 = ORIENTED_EDGE ( 'NONE', *, *, #166, .F. ) ;
#147 = FACE_OUTER_BOUND ( 'NONE', #338, .T. ) ;
#148 = FACE_OUTER_BOUND ( 'NONE', #215, .T. ) ;
#149 = DIRECTION ( 'NONE',  ( -0.000000000000000000, -0.000000000000000000, -1.000000000000000000 ) ) ;
#150 = CARTESIAN_POINT ( 'NONE',  ( 0.000000000000000000, 0.000000000000000000, 5.500000000000000000 ) ) ;
#151 = EDGE_LOOP ( 'NONE', ( #493, #110, #167, #707 ) ) ;
#152 = DIRECTION ( 'NONE',  ( 1.000000000000000000, 0.000000000000000000, 0.000000000000000000 ) ) ;
#153 = FACE_OUTER_BOUND ( 'NONE', #165, .T. ) ;
#154 = ORIENTED_EDGE ( 'NONE', *, *, #112, .T. ) ;
#155 = CIRCLE ( 'NONE', #128, 8.500000000000000000 ) ;
#156 = CARTESIAN_POINT ( 'NONE',  ( -14.00000000000000000, 0.000000000000000000, 6.000000000000005329 ) ) ;
#157 = ORIENTED_EDGE ( 'NONE', *, *, #435, .F. ) ;
#158 = AXIS2_PLACEMENT_3D ( 'NONE', #314, #480, #308 ) ;
#159 = AXIS2_PLACEMENT_3D ( 'NONE', #247, #726, #415 ) ;
#160 = CARTESIAN_POINT ( 'NONE',  ( 0.000000000000000000, 0.000000000000000000, 86.50000000000001421 ) ) ;
#161 = CONICAL_SURFACE ( 'NONE', #587, 12.50000000000000000, 0.7853981633974482790 ) ;
#162 = CARTESIAN_POINT ( 'NONE',  ( 0.000000000000000000, 0.000000000000000000, 0.000000000000000000 ) ) ;
#163 = EDGE_CURVE ( 'NONE', #170, #273, #350, .T. ) ;
#164 = ORIENTED_EDGE ( 'NONE', *, *, #756, .T. ) ;
#165 = EDGE_LOOP ( 'NONE', ( #146, #157, #471, #90 ) ) ;
#166 = EDGE_CURVE ( 'NONE', #633, #20, #268, .T. ) ;
#167 = ORIENTED_EDGE ( 'NONE', *, *, #531, .T. ) ;
#168 = FACE_OUTER_BOUND ( 'NONE', #382, .T. ) ;
#169 = VERTEX_POINT ( 'NONE', #47 ) ;
#170 = VERTEX_POINT ( 'NONE', #660 ) ;
#171 = VECTOR ( 'NONE', #120, 1000.000000000000114 ) ;
#172 = FACE_OUTER_BOUND ( 'NONE', #644, .T. ) ;
#173 = VECTOR ( 'NONE', #132, 1000.000000000000000 ) ;
#174 = VERTEX_POINT ( 'NONE', #156 ) ;
#175 = ORIENTED_EDGE ( 'NONE', *, *, #623, .T. ) ;
#176 = CARTESIAN_POINT ( 'NONE',  ( 0.000000000000000000, 0.000000000000000000, 87.00000000000001421 ) ) ;
#177 = CARTESIAN_POINT ( 'NONE',  ( 0.000000000000000000, 0.000000000000000000, 85.50000000000000000 ) ) ;
#178 = CIRCLE ( 'NONE', #368, 16.25000000000000000 ) ;
#179 = EDGE_LOOP ( 'NONE', ( #397, #396, #362, #624 ) ) ;
#180 = CARTESIAN_POINT ( 'NONE',  ( 0.000000000000000000, 0.000000000000000000, 5.500000000000000000 ) ) ;
#181 = LINE ( 'NONE', #639, #50 ) ;
#182 = FILL_AREA_STYLE ('',( #237 ) ) ;
#183 = DIRECTION ( 'NONE',  ( 0.000000000000000000, 0.000000000000000000, 1.000000000000000000 ) ) ;
#184 = EDGE_LOOP ( 'NONE', ( #392, #45 ) ) ;
#185 = DIRECTION ( 'NONE',  ( -1.000000000000000000, 0.000000000000000000, 0.000000000000000000 ) ) ;
#186 = CARTESIAN_POINT ( 'NONE',  ( 0.000000000000000000, 0.000000000000000000, 85.00000000000000000 ) ) ;
#187 = CIRCLE ( 'NONE', #637, 16.25000000000000000 ) ;
#188 = VERTEX_POINT ( 'NONE', #489 ) ;
#189 = CIRCLE ( 'NONE', #645, 14.00000000000000000 ) ;
#190 = CARTESIAN_POINT ( 'NONE',  ( -12.50000000000000000, 0.000000000000000000, 84.00000000000000000 ) ) ;
#191 = DIRECTION ( 'NONE',  ( -0.000000000000000000, -0.000000000000000000, -1.000000000000000000 ) ) ;
#192 = LINE ( 'NONE', #657, #754 ) ;
#193 = CARTESIAN_POINT ( 'NONE',  ( 0.000000000000000000, 0.000000000000000000, 0.000000000000000000 ) ) ;
#194 = CIRCLE ( 'NONE', #621, 12.50000000000000000 ) ;
#195 = DIRECTION ( 'NONE',  ( 0.000000000000000000, 0.000000000000000000, -1.000000000000000000 ) ) ;
#196 = DIRECTION ( 'NONE',  ( -0.000000000000000000, -0.000000000000000000, -1.000000000000000000 ) ) ;
#197 = DIRECTION ( 'NONE',  ( -0.000000000000000000, -0.000000000000000000, -1.000000000000000000 ) ) ;
#198 = DIRECTION ( 'NONE',  ( 0.000000000000000000, 0.000000000000000000, -1.000000000000000000 ) ) ;
#199 = EDGE_LOOP ( 'NONE', ( #300, #417 ) ) ;
#200 = FACE_BOUND ( 'NONE', #615, .T. ) ;
#201 = CARTESIAN_POINT ( 'NONE',  ( -14.25000000000001954, 0.000000000000000000, 0.000000000000000000 ) ) ;
#202 = DIRECTION ( 'NONE',  ( -0.000000000000000000, -0.000000000000000000, -1.000000000000000000 ) ) ;
#203 = DIRECTION ( 'NONE',  ( 1.000000000000000000, 0.000000000000000000, 0.000000000000000000 ) ) ;
#204 = ORIENTED_EDGE ( 'NONE', *, *, #738, .F. ) ;
#205 = FACE_OUTER_BOUND ( 'NONE', #434, .T. ) ;
#206 = DIRECTION ( 'NONE',  ( 0.7071067811865474617, 8.659560562354932858E-17, -0.7071067811865474617 ) ) ;
#207 = FACE_OUTER_BOUND ( 'NONE', #216, .T. ) ;
#208 = ORIENTED_EDGE ( 'NONE', *, *, #738, .T. ) ;
#209 = CIRCLE ( 'NONE', #398, 11.50000000000000000 ) ;
#210 = DIRECTION ( 'NONE',  ( 0.000000000000000000, 0.000000000000000000, 1.000000000000000000 ) ) ;
#211 = ORIENTED_EDGE ( 'NONE', *, *, #722, .F. ) ;
#212 = AXIS2_PLACEMENT_3D ( 'NONE', #613, #559, #152 ) ;
#213 = EDGE_CURVE ( 'NONE', #20, #570, #125, .T. ) ;
#214 = AXIS2_PLACEMENT_3D ( 'NONE', #353, #241, #122 ) ;
#215 = EDGE_LOOP ( 'NONE', ( #75, #175, #411, #755 ) ) ;
#216 = EDGE_LOOP ( 'NONE', ( #451, #330, #36, #228 ) ) ;
#217 = ORIENTED_EDGE ( 'NONE', *, *, #112, .F. ) ;
#218 = EDGE_LOOP ( 'NONE', ( #283, #591, #327, #402 ) ) ;
#219 = DIRECTION ( 'NONE',  ( -0.000000000000000000, -0.000000000000000000, -1.000000000000000000 ) ) ;
#220 = ADVANCED_FACE ( 'NONE', ( #207 ), #145, .T. ) ;
#221 = EDGE_CURVE ( 'NONE', #65, #275, #30, .T. ) ;
#222 = CIRCLE ( 'NONE', #473, 8.000000000000000000 ) ;
#223 = ORIENTED_EDGE ( 'NONE', *, *, #379, .T. ) ;
#224 = EDGE_LOOP ( 'NONE', ( #569, #597 ) ) ;
#225 = CONICAL_SURFACE ( 'NONE', #386, 8.500000000000000000, 0.7853981633974482790 ) ;
#226 = CARTESIAN_POINT ( 'NONE',  ( -13.50000000000000000, 0.000000000000000000, 87.00000000000001421 ) ) ;
#227 = ORIENTED_EDGE ( 'NONE', *, *, #701, .F. ) ;
#228 = ORIENTED_EDGE ( 'NONE', *, *, #564, .F. ) ;
#229 = CARTESIAN_POINT ( 'NONE',  ( -16.25000000000000000, 0.000000000000000000, 0.5000000000000004441 ) ) ;
#230 = AXIS2_PLACEMENT_3D ( 'NONE', #98, #326, #629 ) ;
#231 = DIRECTION ( 'NONE',  ( -0.000000000000000000, -0.000000000000000000, -1.000000000000000000 ) ) ;
#232 = CIRCLE ( 'NONE', #593, 16.25000000000000000 ) ;
#233 = ORIENTED_EDGE ( 'NONE', *, *, #64, .F. ) ;
#234 = DIRECTION ( 'NONE',  ( -1.000000000000000000, 0.000000000000000000, 0.000000000000000000 ) ) ;
#235 = DIRECTION ( 'NONE',  ( 0.000000000000000000, 0.000000000000000000, -1.000000000000000000 ) ) ;
#236 = VECTOR ( 'NONE', #347, 1000.000000000000114 ) ;
#237 = FILL_AREA_STYLE_COLOUR ( '', #274 ) ;
#238 = ORIENTED_EDGE ( 'NONE', *, *, #58, .F. ) ;
#239 = EDGE_CURVE ( 'NONE', #633, #114, #194, .T. ) ;
#240 = DIRECTION ( 'NONE',  ( 0.000000000000000000, 0.000000000000000000, 1.000000000000000000 ) ) ;
#241 = DIRECTION ( 'NONE',  ( -0.000000000000000000, -0.000000000000000000, -1.000000000000000000 ) ) ;
#242 = CIRCLE ( 'NONE', #212, 13.50000000000000000 ) ;
#243 = ORIENTED_EDGE ( 'NONE', *, *, #421, .T. ) ;
#244 = CYLINDRICAL_SURFACE ( 'NONE', #652, 8.000000000000000000 ) ;
#245 = VECTOR ( 'NONE', #67, 1000.000000000000114 ) ;
#246 = AXIS2_PLACEMENT_3D ( 'NONE', #619, #198, #492 ) ;
#247 = CARTESIAN_POINT ( 'NONE',  ( 0.000000000000000000, 0.000000000000000000, 0.000000000000000000 ) ) ;
#248 = FACE_OUTER_BOUND ( 'NONE', #344, .T. ) ;
#249 = ORIENTED_EDGE ( 'NONE', *, *, #456, .F. ) ;
#250 = VECTOR ( 'NONE', #609, 1000.000000000000114 ) ;
#251 = CARTESIAN_POINT ( 'NONE',  ( 0.000000000000000000, 0.000000000000000000, 85.00000000000000000 ) ) ;
#252 = DIRECTION ( 'NONE',  ( -1.000000000000000000, 0.000000000000000000, 0.000000000000000000 ) ) ;
#253 = DIRECTION ( 'NONE',  ( 1.000000000000000000, 0.000000000000000000, 0.000000000000000000 ) ) ;
#254 = DIRECTION ( 'NONE',  ( 1.000000000000000000, 0.000000000000000000, 0.000000000000000000 ) ) ;
#255 = CARTESIAN_POINT ( 'NONE',  ( 0.000000000000000000, 0.000000000000000000, 5.500000000000000000 ) ) ;
#256 = CIRCLE ( 'NONE', #509, 14.00000000000000000 ) ;
#257 = CARTESIAN_POINT ( 'NONE',  ( 0.000000000000000000, 0.000000000000000000, 0.000000000000000000 ) ) ;
#258 = CARTESIAN_POINT ( 'NONE',  ( -16.25000000000000000, 1.990051048614449313E-15, 0.5000000000000004441 ) ) ;
#259 = ADVANCED_FACE ( 'NONE', ( #29 ), #447, .T. ) ;
#260 = CARTESIAN_POINT ( 'NONE',  ( 16.25000000000000000, 0.000000000000000000, 0.5000000000000004441 ) ) ;
#261 = DIRECTION ( 'NONE',  ( -0.000000000000000000, -0.000000000000000000, -1.000000000000000000 ) ) ;
#262 = ORIENTED_EDGE ( 'NONE', *, *, #38, .F. ) ;
#263 = DIRECTION ( 'NONE',  ( -0.000000000000000000, -0.000000000000000000, 1.000000000000000000 ) ) ;
#264 = CONICAL_SURFACE ( 'NONE', #97, 15.75000000000000000, 0.7853981633974482790 ) ;
#265 = FACE_OUTER_BOUND ( 'NONE', #323, .T. ) ;
#266 = ORIENTED_EDGE ( 'NONE', *, *, #221, .T. ) ;
#267 = VECTOR ( 'NONE', #391, 1000.000000000000114 ) ;
#268 = LINE ( 'NONE', #35, #422 ) ;
#269 = ORIENTED_EDGE ( 'NONE', *, *, #270, .F. ) ;
#270 = EDGE_CURVE ( 'NONE', #277, #107, #560, .T. ) ;
#271 = VECTOR ( 'NONE', #704, 1000.000000000000000 ) ;
#272 = DIRECTION ( 'NONE',  ( -1.000000000000000000, 0.000000000000000000, 0.000000000000000000 ) ) ;
#273 = VERTEX_POINT ( 'NONE', #77 ) ;
#274 = COLOUR_RGB ( '',0.7921568627450980005, 0.8196078431372548767, 0.9333333333333333481 ) ;
#275 = VERTEX_POINT ( 'NONE', #141 ) ;
#276 = FACE_BOUND ( 'NONE', #184, .T. ) ;
#277 = VERTEX_POINT ( 'NONE', #599 ) ;
#278 = VERTEX_POINT ( 'NONE', #662 ) ;
#279 = DIRECTION ( 'NONE',  ( 0.000000000000000000, 0.000000000000000000, 1.000000000000000000 ) ) ;
#280 = AXIS2_PLACEMENT_3D ( 'NONE', #691, #758, #123 ) ;
#281 = VERTEX_POINT ( 'NONE', #710 ) ;
#282 = AXIS2_PLACEMENT_3D ( 'NONE', #304, #420, #487 ) ;
#283 = ORIENTED_EDGE ( 'NONE', *, *, #239, .F. ) ;
#284 = VECTOR ( 'NONE', #25, 1000.000000000000114 ) ;
#285 = CARTESIAN_POINT ( 'NONE',  ( -14.00000000000000000, 0.000000000000000000, 86.50000000000001421 ) ) ;
#286 = CARTESIAN_POINT ( 'NONE',  ( 15.75000000000000000, 1.928818708657081344E-15, 5.500000000000000000 ) ) ;
#287 = EDGE_CURVE ( 'NONE', #675, #529, #651, .T. ) ;
#288 = ORIENTED_EDGE ( 'NONE', *, *, #163, .F. ) ;
#289 = LINE ( 'NONE', #638, #355 ) ;
#290 = AXIS2_PLACEMENT_3D ( 'NONE', #255, #484, #614 ) ;
#291 = ADVANCED_FACE ( 'NONE', ( #147 ), #161, .F. ) ;
#292 = CARTESIAN_POINT ( 'NONE',  ( -15.75000000000000000, 0.000000000000000000, 5.500000000000000000 ) ) ;
#293 = CARTESIAN_POINT ( 'NONE',  ( 16.25000000000000000, 1.990051048614449313E-15, 5.500000000000000000 ) ) ;
#294 = ADVANCED_FACE ( 'NONE', ( #200, #91 ), #18, .F. ) ;
#295 = ORIENTED_EDGE ( 'NONE', *, *, #623, .F. ) ;
#296 = CARTESIAN_POINT ( 'NONE',  ( 0.000000000000000000, 0.000000000000000000, 0.000000000000000000 ) ) ;
#297 = DIRECTION ( 'NONE',  ( 1.000000000000000000, 0.000000000000000000, 0.000000000000000000 ) ) ;
#298 = AXIS2_PLACEMENT_3D ( 'NONE', #251, #197, #427 ) ;
#299 = EDGE_CURVE ( 'NONE', #174, #169, #256, .T. ) ;
#300 = ORIENTED_EDGE ( 'NONE', *, *, #659, .T. ) ;
#301 = LINE ( 'NONE', #664, #461 ) ;
#302 = CONICAL_SURFACE ( 'NONE', #440, 13.50000000000000000, 0.7853981633974482790 ) ;
#303 = FACE_OUTER_BOUND ( 'NONE', #357, .T. ) ;
#304 = CARTESIAN_POINT ( 'NONE',  ( 0.000000000000000000, 0.000000000000000000, 86.50000000000001421 ) ) ;
#305 = ORIENTED_EDGE ( 'NONE', *, *, #287, .T. ) ;
#306 = FACE_OUTER_BOUND ( 'NONE', #401, .T. ) ;
#307 = DIRECTION ( 'NONE',  ( -0.000000000000000000, -0.000000000000000000, 1.000000000000000000 ) ) ;
#308 = DIRECTION ( 'NONE',  ( -1.000000000000000000, 0.000000000000000000, 0.000000000000000000 ) ) ;
#309 = CONICAL_SURFACE ( 'NONE', #282, 8.000000000000000000, 0.7853981633974482790 ) ;
#310 = LINE ( 'NONE', #80, #679 ) ;
#311 = DIRECTION ( 'NONE',  ( 0.5000000000000005551, 6.123233995736773431E-17, -0.8660254037844382635 ) ) ;
#312 = ADVANCED_FACE ( 'NONE', ( #716 ), #414, .T. ) ;
#313 = FACE_OUTER_BOUND ( 'NONE', #59, .T. ) ;
#314 = CARTESIAN_POINT ( 'NONE',  ( 0.000000000000000000, 0.000000000000000000, 85.00000000000000000 ) ) ;
#315 = DIRECTION ( 'NONE',  ( 1.000000000000000000, 0.000000000000000000, 0.000000000000000000 ) ) ;
#316 = DIRECTION ( 'NONE',  ( -1.000000000000000000, 0.000000000000000000, 0.000000000000000000 ) ) ;
#317 = EDGE_LOOP ( 'NONE', ( #129, #661, #730, #11 ) ) ;
#318 = ADVANCED_FACE ( 'NONE', ( #313 ), #512, .F. ) ;
#319 = CARTESIAN_POINT ( 'NONE',  ( 0.000000000000000000, 0.000000000000000000, 87.00000000000001421 ) ) ;
#320 = CYLINDRICAL_SURFACE ( 'NONE', #158, 12.50000000000000000 ) ;
#321 = PLANE ( 'NONE',  #555 ) ;
#322 = DIRECTION ( 'NONE',  ( 1.000000000000000000, 0.000000000000000000, 0.000000000000000000 ) ) ;
#323 = EDGE_LOOP ( 'NONE', ( #211, #518, #693, #445 ) ) ;
#324 = PRODUCT_CONTEXT ( 'NONE', #27, 'mechanical' ) ;
#325 = AXIS2_PLACEMENT_3D ( 'NONE', #186, #544, #608 ) ;
#326 = DIRECTION ( 'NONE',  ( 0.000000000000000000, 0.000000000000000000, 1.000000000000000000 ) ) ;
#327 = ORIENTED_EDGE ( 'NONE', *, *, #343, .F. ) ;
#328 = EDGE_CURVE ( 'NONE', #53, #743, #189, .T. ) ;
#329 = FACE_OUTER_BOUND ( 'NONE', #548, .T. ) ;
#330 = ORIENTED_EDGE ( 'NONE', *, *, #678, .T. ) ;
#331 = AXIS2_PLACEMENT_3D ( 'NONE', #428, #673, #381 ) ;
#332 = AXIS2_PLACEMENT_3D ( 'NONE', #84, #202, #723 ) ;
#333 = ORIENTED_EDGE ( 'NONE', *, *, #389, .F. ) ;
#334 = DIRECTION ( 'NONE',  ( 1.000000000000000000, 0.000000000000000000, 0.000000000000000000 ) ) ;
#335 = ORIENTED_EDGE ( 'NONE', *, *, #8, .F. ) ;
#336 = CARTESIAN_POINT ( 'NONE',  ( 0.000000000000000000, 0.000000000000000000, 5.500000000000000000 ) ) ;
#337 = AXIS2_PLACEMENT_3D ( 'NONE', #336, #395, #57 ) ;
#338 = EDGE_LOOP ( 'NONE', ( #204, #747, #631, #54 ) ) ;
#339 = ORIENTED_EDGE ( 'NONE', *, *, #51, .F. ) ;
#340 = AXIS2_PLACEMENT_3D ( 'NONE', #732, #49, #497 ) ;
#341 = DIRECTION ( 'NONE',  ( 1.000000000000000000, 0.000000000000000000, -0.000000000000000000 ) ) ;
#342 = AXIS2_PLACEMENT_3D ( 'NONE', #702, #231, #463 ) ;
#343 = EDGE_CURVE ( 'NONE', #570, #20, #101, .T. ) ;
#344 = EDGE_LOOP ( 'NONE', ( #503, #681, #223, #620 ) ) ;
#345 = CONICAL_SURFACE ( 'NONE', #63, 14.00000000000000000, 0.7853981633974482790 ) ;
#346 = DIRECTION ( 'NONE',  ( -0.000000000000000000, -0.000000000000000000, -1.000000000000000000 ) ) ;
#347 = DIRECTION ( 'NONE',  ( 0.7071067811865474617, 8.659560562354932858E-17, -0.7071067811865474617 ) ) ;
#348 = ADVANCED_FACE ( 'NONE', ( #73 ), #225, .F. ) ;
#349 = DIRECTION ( 'NONE',  ( 0.000000000000000000, 0.000000000000000000, -1.000000000000000000 ) ) ;
#350 = CIRCLE ( 'NONE', #331, 8.500000000000000000 ) ;
#351 = DIRECTION ( 'NONE',  ( 0.7071067811865474617, 8.659560562354932858E-17, -0.7071067811865474617 ) ) ;
#352 = ADVANCED_FACE ( 'NONE', ( #303 ), #527, .T. ) ;
#353 = CARTESIAN_POINT ( 'NONE',  ( 0.000000000000000000, 0.000000000000000000, 87.00000000000001421 ) ) ;
#354 = ORIENTED_EDGE ( 'NONE', *, *, #389, .T. ) ;
#355 = VECTOR ( 'NONE', #687, 1000.000000000000114 ) ;
#356 = DIRECTION ( 'NONE',  ( 1.000000000000000000, 0.000000000000000000, 0.000000000000000000 ) ) ;
#357 = EDGE_LOOP ( 'NONE', ( #394, #457, #498, #266 ) ) ;
#358 = DIRECTION ( 'NONE',  ( -0.000000000000000000, -0.000000000000000000, -1.000000000000000000 ) ) ;
#359 = CARTESIAN_POINT ( 'NONE',  ( 0.000000000000000000, 0.000000000000000000, 84.00000000000000000 ) ) ;
#360 = CARTESIAN_POINT ( 'NONE',  ( 0.000000000000000000, 0.000000000000000000, 0.5000000000000004441 ) ) ;
#361 = AXIS2_PLACEMENT_3D ( 'NONE', #601, #139, #21 ) ;
#362 = ORIENTED_EDGE ( 'NONE', *, *, #627, .F. ) ;
#363 = DIRECTION ( 'NONE',  ( 1.000000000000000000, 0.000000000000000000, 0.000000000000000000 ) ) ;
#364 = CARTESIAN_POINT ( 'NONE',  ( -12.50000000000000000, 0.000000000000000000, 85.00000000000000000 ) ) ;
#365 = CYLINDRICAL_SURFACE ( 'NONE', #538, 8.000000000000000000 ) ;
#366 = AXIS2_PLACEMENT_3D ( 'NONE', #162, #449, #380 ) ;
#367 = DIRECTION ( 'NONE',  ( -1.000000000000000000, 0.000000000000000000, 0.000000000000000000 ) ) ;
#368 = AXIS2_PLACEMENT_3D ( 'NONE', #71, #235, #516 ) ;
#369 = DIRECTION ( 'NONE',  ( -1.000000000000000000, 0.000000000000000000, 0.000000000000000000 ) ) ;
#370 = CARTESIAN_POINT ( 'NONE',  ( 14.00000000000000000, 1.714505518806294638E-15, 85.00000000000000000 ) ) ;
#371 = DIRECTION ( 'NONE',  ( 1.000000000000000000, 0.000000000000000000, 0.000000000000000000 ) ) ;
#372 = CARTESIAN_POINT ( 'NONE',  ( 0.000000000000000000, 0.000000000000000000, 86.50000000000001421 ) ) ;
#373 = ORIENTED_EDGE ( 'NONE', *, *, #51, .T. ) ;
#374 = CARTESIAN_POINT ( 'NONE',  ( 0.000000000000000000, 0.000000000000000000, 85.00000000000000000 ) ) ;
#375 = DIRECTION ( 'NONE',  ( 1.000000000000000000, 0.000000000000000000, 0.000000000000000000 ) ) ;
#376 = CARTESIAN_POINT ( 'NONE',  ( 11.50000000000000000, 1.469576158976823947E-15, 85.00000000000000000 ) ) ;
#377 = DIRECTION ( 'NONE',  ( 0.000000000000000000, 0.000000000000000000, -1.000000000000000000 ) ) ;
#378 = ORIENTED_EDGE ( 'NONE', *, *, #81, .F. ) ;
#379 = EDGE_CURVE ( 'NONE', #278, #114, #543, .T. ) ;
#380 = DIRECTION ( 'NONE',  ( 1.000000000000000000, 0.000000000000000000, 0.000000000000000000 ) ) ;
#381 = DIRECTION ( 'NONE',  ( 1.000000000000000000, 0.000000000000000000, 0.000000000000000000 ) ) ;
#382 = EDGE_LOOP ( 'NONE', ( #164, #72 ) ) ;
#383 = CIRCLE ( 'NONE', #616, 14.00000000000000000 ) ;
#384 = CONICAL_SURFACE ( 'NONE', #474, 16.25000000000000000, 0.7853981633974482790 ) ;
#385 = DIRECTION ( 'NONE',  ( -0.000000000000000000, -0.000000000000000000, -1.000000000000000000 ) ) ;
#386 = AXIS2_PLACEMENT_3D ( 'NONE', #374, #602, #656 ) ;
#387 = ORIENTED_EDGE ( 'NONE', *, *, #612, .T. ) ;
#388 = ADVANCED_FACE ( 'NONE', ( #647 ), #345, .T. ) ;
#389 = EDGE_CURVE ( 'NONE', #577, #743, #137, .T. ) ;
#390 = EDGE_LOOP ( 'NONE', ( #583, #60 ) ) ;
#391 = DIRECTION ( 'NONE',  ( -0.7071067811865474617, 0.000000000000000000, -0.7071067811865474617 ) ) ;
#392 = ORIENTED_EDGE ( 'NONE', *, *, #684, .T. ) ;
#393 = ADVANCED_FACE ( 'NONE', ( #479, #720 ), #321, .F. ) ;
#394 = ORIENTED_EDGE ( 'NONE', *, *, #678, .F. ) ;
#395 = DIRECTION ( 'NONE',  ( 0.000000000000000000, 0.000000000000000000, 1.000000000000000000 ) ) ;
#396 = ORIENTED_EDGE ( 'NONE', *, *, #646, .T. ) ;
#397 = ORIENTED_EDGE ( 'NONE', *, *, #287, .F. ) ;
#398 = AXIS2_PLACEMENT_3D ( 'NONE', #714, #650, #363 ) ;
#399 = CARTESIAN_POINT ( 'NONE',  ( 0.000000000000000000, 0.000000000000000000, 87.00000000000001421 ) ) ;
#400 = EDGE_CURVE ( 'NONE', #529, #675, #475, .T. ) ;
#401 = EDGE_LOOP ( 'NONE', ( #750, #455, #535, #262 ) ) ;
#402 = ORIENTED_EDGE ( 'NONE', *, *, #735, .F. ) ;
#403 = DIRECTION ( 'NONE',  ( 1.000000000000000000, 0.000000000000000000, 0.000000000000000000 ) ) ;
#404 = UNCERTAINTY_MEASURE_WITH_UNIT (LENGTH_MEASURE( 1.000000000000000082E-05 ), #642, 'distance_accuracy_value', 'NONE');
#405 = EDGE_CURVE ( 'NONE', #2, #278, #135, .T. ) ;
#407 = DIRECTION ( 'NONE',  ( -0.7071067811865474617, 0.000000000000000000, -0.7071067811865474617 ) ) ;
#406 = MECHANICAL_DESIGN_GEOMETRIC_PRESENTATION_REPRESENTATION (  '', ( #742 ), #674 ) ;
#408 = PLANE ( 'NONE',  #337 ) ;
#409 = LINE ( 'NONE', #5, #245 ) ;
#410 = LINE ( 'NONE', #293, #271 ) ;
#411 = ORIENTED_EDGE ( 'NONE', *, *, #58, .T. ) ;
#412 = CIRCLE ( 'NONE', #39, 8.500000000000000000 ) ;
#413 = AXIS2_PLACEMENT_3D ( 'NONE', #138, #491, #375 ) ;
#414 = CONICAL_SURFACE ( 'NONE', #42, 13.50000000000000000, 0.7853981633974482790 ) ;
#415 = DIRECTION ( 'NONE',  ( 1.000000000000000000, 0.000000000000000000, 0.000000000000000000 ) ) ;
#416 = DIRECTION ( 'NONE',  ( -0.000000000000000000, -0.000000000000000000, -1.000000000000000000 ) ) ;
#417 = ORIENTED_EDGE ( 'NONE', *, *, #85, .T. ) ;
#418 = DIRECTION ( 'NONE',  ( 1.000000000000000000, 0.000000000000000000, -0.000000000000000000 ) ) ;
#419 = DIRECTION ( 'NONE',  ( 0.000000000000000000, 0.000000000000000000, -1.000000000000000000 ) ) ;
#420 = DIRECTION ( 'NONE',  ( 0.000000000000000000, 0.000000000000000000, 1.000000000000000000 ) ) ;
#421 = EDGE_CURVE ( 'NONE', #525, #273, #310, .T. ) ;
#422 = VECTOR ( 'NONE', #311, 1000.000000000000114 ) ;
#423 = AXIS2_PLACEMENT_3D ( 'NONE', #541, #655, #367 ) ;
#424 = FACE_OUTER_BOUND ( 'NONE', #698, .T. ) ;
#425 = DIRECTION ( 'NONE',  ( 1.000000000000000000, 0.000000000000000000, 0.000000000000000000 ) ) ;
#426 = FACE_OUTER_BOUND ( 'NONE', #589, .T. ) ;
#427 = DIRECTION ( 'NONE',  ( -1.000000000000000000, 0.000000000000000000, 0.000000000000000000 ) ) ;
#428 = CARTESIAN_POINT ( 'NONE',  ( 0.000000000000000000, 0.000000000000000000, 85.00000000000000000 ) ) ;
#429 = ORIENTED_EDGE ( 'NONE', *, *, #299, .T. ) ;
#430 = DIRECTION ( 'NONE',  ( 0.000000000000000000, 0.000000000000000000, 1.000000000000000000 ) ) ;
#431 = LINE ( 'NONE', #258, #617 ) ;
#432 = CARTESIAN_POINT ( 'NONE',  ( -14.50000000000000533, 0.000000000000000000, 5.500000000000000000 ) ) ;
#433 = CARTESIAN_POINT ( 'NONE',  ( 15.75000000000000000, 1.959434878635765526E-15, 5.500000000000000000 ) ) ;
#434 = EDGE_LOOP ( 'NONE', ( #448, #95, #558, #649 ) ) ;
#435 = EDGE_CURVE ( 'NONE', #114, #633, #113, .T. ) ;
#436 = DIRECTION ( 'NONE',  ( 0.7071067811865474617, 0.000000000000000000, 0.7071067811865474617 ) ) ;
#437 = AXIS2_PLACEMENT_3D ( 'NONE', #472, #149, #254 ) ;
#438 = DIRECTION ( 'NONE',  ( 0.000000000000000000, 0.000000000000000000, -1.000000000000000000 ) ) ;
#439 = VERTEX_POINT ( 'NONE', #432 ) ;
#440 = AXIS2_PLACEMENT_3D ( 'NONE', #465, #349, #234 ) ;
#441 = DIRECTION ( 'NONE',  ( 0.000000000000000000, 0.000000000000000000, 1.000000000000000000 ) ) ;
#442 = FACE_OUTER_BOUND ( 'NONE', #218, .T. ) ;
#443 = VERTEX_POINT ( 'NONE', #376 ) ;
#444 = AXIS2_PLACEMENT_3D ( 'NONE', #663, #706, #297 ) ;
#445 = ORIENTED_EDGE ( 'NONE', *, *, #85, .F. ) ;
#446 =( NAMED_UNIT ( * ) PLANE_ANGLE_UNIT ( ) SI_UNIT ( $, .RADIAN. ) );
#447 = CONICAL_SURFACE ( 'NONE', #290, 15.75000000000000000, 0.7853981633974482790 ) ;
#448 = ORIENTED_EDGE ( 'NONE', *, *, #64, .T. ) ;
#449 = DIRECTION ( 'NONE',  ( 0.000000000000000000, 0.000000000000000000, 1.000000000000000000 ) ) ;
#450 = EDGE_CURVE ( 'NONE', #634, #281, #301, .T. ) ;
#451 = ORIENTED_EDGE ( 'NONE', *, *, #705, .T. ) ;
#452 = CARTESIAN_POINT ( 'NONE',  ( -11.50000000000000000, 0.000000000000000000, 85.00000000000000000 ) ) ;
#453 = AXIS2_PLACEMENT_3D ( 'NONE', #399, #632, #341 ) ;
#454 = AXIS2_PLACEMENT_3D ( 'NONE', #476, #86, #252 ) ;
#455 = ORIENTED_EDGE ( 'NONE', *, *, #537, .T. ) ;
#456 = EDGE_CURVE ( 'NONE', #577, #578, #526, .T. ) ;
#457 = ORIENTED_EDGE ( 'NONE', *, *, #6, .T. ) ;
#458 = PLANE ( 'NONE',  #453 ) ;
#459 = ORIENTED_EDGE ( 'NONE', *, *, #746, .F. ) ;
#460 = EDGE_LOOP ( 'NONE', ( #339, #690, #563, #683 ) ) ;
#461 = VECTOR ( 'NONE', #718, 1000.000000000000000 ) ;
#462 = CARTESIAN_POINT ( 'NONE',  ( 0.000000000000000000, 0.000000000000000000, 5.500000000000000000 ) ) ;
#463 = DIRECTION ( 'NONE',  ( -1.000000000000000000, 0.000000000000000000, 0.000000000000000000 ) ) ;
#464 = ORIENTED_EDGE ( 'NONE', *, *, #566, .T. ) ;
#465 = CARTESIAN_POINT ( 'NONE',  ( 0.000000000000000000, 0.000000000000000000, 87.00000000000001421 ) ) ;
#466 = UNCERTAINTY_MEASURE_WITH_UNIT (LENGTH_MEASURE( 1.000000000000000082E-05 ), #741, 'distance_accuracy_value', 'NONE');
#467 = CIRCLE ( 'NONE', #500, 8.000000000000000000 ) ;
#468 = LINE ( 'NONE', #636, #236 ) ;
#469 = ORIENTED_EDGE ( 'NONE', *, *, #23, .F. ) ;
#470 = DIRECTION ( 'NONE',  ( 1.000000000000000000, 0.000000000000000000, 0.000000000000000000 ) ) ;
#471 = ORIENTED_EDGE ( 'NONE', *, *, #735, .T. ) ;
#472 = CARTESIAN_POINT ( 'NONE',  ( 0.000000000000000000, 0.000000000000000000, 85.00000000000000000 ) ) ;
#473 = AXIS2_PLACEMENT_3D ( 'NONE', #66, #55, #508 ) ;
#474 = AXIS2_PLACEMENT_3D ( 'NONE', #550, #263, #253 ) ;
#475 = CIRCLE ( 'NONE', #582, 15.75000000000000000 ) ;
#476 = CARTESIAN_POINT ( 'NONE',  ( 0.000000000000000000, 0.000000000000000000, 5.500000000000000000 ) ) ;
#477 = CARTESIAN_POINT ( 'NONE',  ( 12.50000000000000000, 1.530808498934191521E-15, 85.00000000000000000 ) ) ;
#478 = FACE_OUTER_BOUND ( 'NONE', #179, .T. ) ;
#479 = FACE_OUTER_BOUND ( 'NONE', #224, .T. ) ;
#480 = DIRECTION ( 'NONE',  ( -0.000000000000000000, -0.000000000000000000, -1.000000000000000000 ) ) ;
#481 = AXIS2_PLACEMENT_3D ( 'NONE', #257, #240, #485 ) ;
#482 = CARTESIAN_POINT ( 'NONE',  ( -8.500000000000000000, 1.040949779275250140E-15, 87.00000000000001421 ) ) ;
#483 = CLOSED_SHELL ( 'NONE', ( #144, #259, #388, #524, #24, #318, #749, #505, #586, #220, #622, #522, #294, #708, #551, #31, #352, #393, #70, #501, #291, #348, #641, #312, #576, #126, #133, #117 ) ) ;
#484 = DIRECTION ( 'NONE',  ( 0.000000000000000000, 0.000000000000000000, -1.000000000000000000 ) ) ;
#485 = DIRECTION ( 'NONE',  ( 1.000000000000000000, 0.000000000000000000, -0.000000000000000000 ) ) ;
#486 = EDGE_CURVE ( 'NONE', #169, #174, #105, .T. ) ;
#487 = DIRECTION ( 'NONE',  ( 1.000000000000000000, 0.000000000000000000, 0.000000000000000000 ) ) ;
#488 = CARTESIAN_POINT ( 'NONE',  ( 0.000000000000000000, 0.000000000000000000, 87.00000000000001421 ) ) ;
#489 = CARTESIAN_POINT ( 'NONE',  ( 12.50000000000000000, 1.530808498934191521E-15, 84.00000000000000000 ) ) ;
#490 = ORIENTED_EDGE ( 'NONE', *, *, #537, .F. ) ;
#491 = DIRECTION ( 'NONE',  ( 0.000000000000000000, 0.000000000000000000, 1.000000000000000000 ) ) ;
#492 = DIRECTION ( 'NONE',  ( -1.000000000000000000, 0.000000000000000000, 0.000000000000000000 ) ) ;
#493 = ORIENTED_EDGE ( 'NONE', *, *, #646, .F. ) ;
#494 = VECTOR ( 'NONE', #436, 1000.000000000000114 ) ;
#495 = CARTESIAN_POINT ( 'NONE',  ( 0.000000000000000000, 0.000000000000000000, 0.5000000000000004441 ) ) ;
#496 = ORIENTED_EDGE ( 'NONE', *, *, #343, .T. ) ;
#497 = DIRECTION ( 'NONE',  ( -1.000000000000000000, 0.000000000000000000, 0.000000000000000000 ) ) ;
#498 = ORIENTED_EDGE ( 'NONE', *, *, #564, .T. ) ;
#499 = PRODUCT_RELATED_PRODUCT_CATEGORY ( 'part', '', ( #130 ) ) ;
#500 = AXIS2_PLACEMENT_3D ( 'NONE', #177, #588, #69 ) ;
#501 = ADVANCED_FACE ( 'NONE', ( #604 ), #244, .F. ) ;
#502 = DIRECTION ( 'NONE',  ( 1.000000000000000000, 0.000000000000000000, 0.000000000000000000 ) ) ;
#503 = ORIENTED_EDGE ( 'NONE', *, *, #572, .F. ) ;
#504 = DIRECTION ( 'NONE',  ( 0.000000000000000000, 0.000000000000000000, -1.000000000000000000 ) ) ;
#505 = ADVANCED_FACE ( 'NONE', ( #424 ), #46, .F. ) ;
#506 = ORIENTED_EDGE ( 'NONE', *, *, #6, .F. ) ;
#507 = ORIENTED_EDGE ( 'NONE', *, *, #676, .T. ) ;
#508 = DIRECTION ( 'NONE',  ( 1.000000000000000000, 0.000000000000000000, 0.000000000000000000 ) ) ;
#509 = AXIS2_PLACEMENT_3D ( 'NONE', #590, #307, #470 ) ;
#510 = EDGE_CURVE ( 'NONE', #443, #2, #736, .T. ) ;
#511 = VECTOR ( 'NONE', #196, 1000.000000000000000 ) ;
#512 = CONICAL_SURFACE ( 'NONE', #688, 8.000000000000000000, 0.7853981633974482790 ) ;
#513 = VERTEX_POINT ( 'NONE', #482 ) ;
#514 = ORIENTED_EDGE ( 'NONE', *, *, #486, .F. ) ;
#515 = CARTESIAN_POINT ( 'NONE',  ( -16.25000000000000000, 0.000000000000000000, 4.999999999999999112 ) ) ;
#516 = DIRECTION ( 'NONE',  ( 1.000000000000000000, 0.000000000000000000, 0.000000000000000000 ) ) ;
#517 = AXIS2_PLACEMENT_3D ( 'NONE', #495, #542, #610 ) ;
#518 = ORIENTED_EDGE ( 'NONE', *, *, #299, .F. ) ;
#519 = LINE ( 'NONE', #700, #740 ) ;
#520 = LINE ( 'NONE', #286, #567 ) ;
#521 = EDGE_CURVE ( 'NONE', #2, #443, #209, .T. ) ;
#522 = ADVANCED_FACE ( 'NONE', ( #306 ), #88, .T. ) ;
#523 = SURFACE_SIDE_STYLE ('',( #13 ) ) ;
#524 = ADVANCED_FACE ( 'NONE', ( #478 ), #561, .T. ) ;
#525 = VERTEX_POINT ( 'NONE', #728 ) ;
#526 = CIRCLE ( 'NONE', #361, 13.50000000000000000 ) ;
#527 = CYLINDRICAL_SURFACE ( 'NONE', #454, 16.25000000000000000 ) ;
#528 = CARTESIAN_POINT ( 'NONE',  ( 0.000000000000000000, 0.000000000000000000, 84.00000000000000000 ) ) ;
#529 = VERTEX_POINT ( 'NONE', #546 ) ;
#530 = CARTESIAN_POINT ( 'NONE',  ( 0.000000000000000000, 0.000000000000000000, 6.000000000000005329 ) ) ;
#531 = EDGE_CURVE ( 'NONE', #529, #275, #34, .T. ) ;
#532 = DIRECTION ( 'NONE',  ( 1.000000000000000000, 0.000000000000000000, 0.000000000000000000 ) ) ;
#533 = LINE ( 'NONE', #477, #511 ) ;
#534 = CONICAL_SURFACE ( 'NONE', #340, 8.500000000000000000, 0.7853981633974482790 ) ;
#535 = ORIENTED_EDGE ( 'NONE', *, *, #486, .T. ) ;
#536 = DIRECTION ( 'NONE',  ( -0.000000000000000000, -0.000000000000000000, -1.000000000000000000 ) ) ;
#537 = EDGE_CURVE ( 'NONE', #743, #169, #78, .T. ) ;
#538 = AXIS2_PLACEMENT_3D ( 'NONE', #717, #721, #711 ) ;
#539 = DIRECTION ( 'NONE',  ( 0.000000000000000000, 0.000000000000000000, -1.000000000000000000 ) ) ;
#540 = CARTESIAN_POINT ( 'NONE',  ( 8.000000000000000000, 9.797174393178825657E-16, 86.50000000000001421 ) ) ;
#541 = CARTESIAN_POINT ( 'NONE',  ( 0.000000000000000000, 0.000000000000000000, 84.00000000000000000 ) ) ;
#542 = DIRECTION ( 'NONE',  ( -0.000000000000000000, -0.000000000000000000, 1.000000000000000000 ) ) ;
#543 = LINE ( 'NONE', #364, #618 ) ;
#544 = DIRECTION ( 'NONE',  ( -0.000000000000000000, -0.000000000000000000, -1.000000000000000000 ) ) ;
#545 = CONICAL_SURFACE ( 'NONE', #1, 14.25000000000001954, 0.5235987755982994818 ) ;
#546 = CARTESIAN_POINT ( 'NONE',  ( 15.75000000000000000, 0.000000000000000000, 0.000000000000000000 ) ) ;
#547 = DIRECTION ( 'NONE',  ( 1.000000000000000000, 0.000000000000000000, 0.000000000000000000 ) ) ;
#548 = EDGE_LOOP ( 'NONE', ( #227, #269, #507, #506 ) ) ;
#549 = DIRECTION ( 'NONE',  ( 1.000000000000000000, 0.000000000000000000, 0.000000000000000000 ) ) ;
#550 = CARTESIAN_POINT ( 'NONE',  ( 0.000000000000000000, 0.000000000000000000, 0.5000000000000004441 ) ) ;
#551 = ADVANCED_FACE ( 'NONE', ( #248 ), #320, .F. ) ;
#552 = CARTESIAN_POINT ( 'NONE',  ( -12.50000000000000000, 0.000000000000000000, 3.031088913245563621 ) ) ;
#553 = VERTEX_POINT ( 'NONE', #540 ) ;
#554 = AXIS2_PLACEMENT_3D ( 'NONE', #462, #346, #547 ) ;
#555 = AXIS2_PLACEMENT_3D ( 'NONE', #76, #598, #418 ) ;
#556 = APPLICATION_PROTOCOL_DEFINITION ( 'draft international standard', 'automotive_design', 1998, #68 ) ;
#557 = DIRECTION ( 'NONE',  ( -0.000000000000000000, -0.000000000000000000, -1.000000000000000000 ) ) ;
#558 = ORIENTED_EDGE ( 'NONE', *, *, #239, .T. ) ;
#559 = DIRECTION ( 'NONE',  ( 0.000000000000000000, 0.000000000000000000, 1.000000000000000000 ) ) ;
#560 = CIRCLE ( 'NONE', #230, 15.75000000000000000 ) ;
#561 = CONICAL_SURFACE ( 'NONE', #692, 16.25000000000000000, 0.7853981633974482790 ) ;
#562 = CARTESIAN_POINT ( 'NONE',  ( 0.000000000000000000, 0.000000000000000000, 0.000000000000000000 ) ) ;
#563 = ORIENTED_EDGE ( 'NONE', *, *, #705, .F. ) ;
#564 = EDGE_CURVE ( 'NONE', #56, #65, #92, .T. ) ;
#565 = CARTESIAN_POINT ( 'NONE',  ( 14.00000000000000000, 1.714505518806294638E-15, 86.50000000000001421 ) ) ;
#566 = EDGE_CURVE ( 'NONE', #553, #634, #100, .T. ) ;
#567 = VECTOR ( 'NONE', #351, 1000.000000000000114 ) ;
#568 =( NAMED_UNIT ( * ) SI_UNIT ( $, .STERADIAN. ) SOLID_ANGLE_UNIT ( ) );
#569 = ORIENTED_EDGE ( 'NONE', *, *, #521, .T. ) ;
#570 = VERTEX_POINT ( 'NONE', #201 ) ;
#571 = FACE_OUTER_BOUND ( 'NONE', #628, .T. ) ;
#572 = EDGE_CURVE ( 'NONE', #188, #633, #533, .T. ) ;
#573 = EDGE_LOOP ( 'NONE', ( #134, #305 ) ) ;
#574 = LINE ( 'NONE', #625, #670 ) ;
#575 = CIRCLE ( 'NONE', #14, 15.75000000000000000 ) ;
#576 = ADVANCED_FACE ( 'NONE', ( #731 ), #384, .T. ) ;
#577 = VERTEX_POINT ( 'NONE', #26 ) ;
#578 = VERTEX_POINT ( 'NONE', #87 ) ;
#579 = PRESENTATION_LAYER_ASSIGNMENT (  '', '', ( #742 ) ) ;
#580 = DIRECTION ( 'NONE',  ( -0.000000000000000000, -0.000000000000000000, -1.000000000000000000 ) ) ;
#581 = CONICAL_SURFACE ( 'NONE', #712, 14.25000000000001954, 0.5235987755982994818 ) ;
#582 = AXIS2_PLACEMENT_3D ( 'NONE', #193, #358, #28 ) ;
#583 = ORIENTED_EDGE ( 'NONE', *, *, #163, .T. ) ;
#584 = CARTESIAN_POINT ( 'NONE',  ( 8.000000000000000000, 0.000000000000000000, 86.50000000000001421 ) ) ;
#585 = CARTESIAN_POINT ( 'NONE',  ( 14.50000000000000533, 1.775737858763662804E-15, 5.500000000000000000 ) ) ;
#586 = ADVANCED_FACE ( 'NONE', ( #148 ), #365, .F. ) ;
#587 = AXIS2_PLACEMENT_3D ( 'NONE', #359, #82, #369 ) ;
#588 = DIRECTION ( 'NONE',  ( -0.000000000000000000, -0.000000000000000000, -1.000000000000000000 ) ) ;
#589 = EDGE_LOOP ( 'NONE', ( #103, #757, #689, #378 ) ) ;
#590 = CARTESIAN_POINT ( 'NONE',  ( 0.000000000000000000, 0.000000000000000000, 6.000000000000005329 ) ) ;
#591 = ORIENTED_EDGE ( 'NONE', *, *, #166, .T. ) ;
#592 = DIRECTION ( 'NONE',  ( 0.7071067811865474617, 8.659560562354932858E-17, -0.7071067811865474617 ) ) ;
#593 = AXIS2_PLACEMENT_3D ( 'NONE', #111, #504, #403 ) ;
#594 = CARTESIAN_POINT ( 'NONE',  ( 0.000000000000000000, 0.000000000000000000, 86.50000000000001421 ) ) ;
#595 = PRODUCT_DEFINITION ( 'UNKNOWN', '', #709, #9 ) ;
#596 = DIRECTION ( 'NONE',  ( 1.000000000000000000, 0.000000000000000000, 0.000000000000000000 ) ) ;
#597 = ORIENTED_EDGE ( 'NONE', *, *, #510, .T. ) ;
#598 = DIRECTION ( 'NONE',  ( 0.000000000000000000, 0.000000000000000000, 1.000000000000000000 ) ) ;
#599 = CARTESIAN_POINT ( 'NONE',  ( -15.75000000000000000, 0.000000000000000000, 5.500000000000000000 ) ) ;
#600 = LINE ( 'NONE', #19, #22 ) ;
#601 = CARTESIAN_POINT ( 'NONE',  ( 0.000000000000000000, 0.000000000000000000, 87.00000000000001421 ) ) ;
#602 = DIRECTION ( 'NONE',  ( -0.000000000000000000, -0.000000000000000000, -1.000000000000000000 ) ) ;
#603 = DIRECTION ( 'NONE',  ( -0.7071067811865474617, 8.659560562354932858E-17, 0.7071067811865474617 ) ) ;
#604 = FACE_OUTER_BOUND ( 'NONE', #685, .T. ) ;
#605 = CARTESIAN_POINT ( 'NONE',  ( 0.000000000000000000, 0.000000000000000000, 5.500000000000000000 ) ) ;
#606 = ORIENTED_EDGE ( 'NONE', *, *, #659, .F. ) ;
#607 = DIRECTION ( 'NONE',  ( -0.000000000000000000, -0.000000000000000000, -1.000000000000000000 ) ) ;
#608 = DIRECTION ( 'NONE',  ( -1.000000000000000000, 0.000000000000000000, 0.000000000000000000 ) ) ;
#609 = DIRECTION ( 'NONE',  ( -0.7071067811865474617, 0.000000000000000000, -0.7071067811865474617 ) ) ;
#610 = DIRECTION ( 'NONE',  ( 1.000000000000000000, 0.000000000000000000, 0.000000000000000000 ) ) ;
#611 = VERTEX_POINT ( 'NONE', #142 ) ;
#612 = EDGE_CURVE ( 'NONE', #634, #513, #192, .T. ) ;
#613 = CARTESIAN_POINT ( 'NONE',  ( 0.000000000000000000, 0.000000000000000000, 87.00000000000001421 ) ) ;
#614 = DIRECTION ( 'NONE',  ( -1.000000000000000000, 0.000000000000000000, 0.000000000000000000 ) ) ;
#615 = EDGE_LOOP ( 'NONE', ( #496, #694 ) ) ;
#616 = AXIS2_PLACEMENT_3D ( 'NONE', #372, #438, #44 ) ;
#617 = VECTOR ( 'NONE', #727, 1000.000000000000114 ) ;
#618 = VECTOR ( 'NONE', #191, 1000.000000000000000 ) ;
#619 = CARTESIAN_POINT ( 'NONE',  ( 0.000000000000000000, 0.000000000000000000, 6.000000000000005329 ) ) ;
#620 = ORIENTED_EDGE ( 'NONE', *, *, #435, .T. ) ;
#621 = AXIS2_PLACEMENT_3D ( 'NONE', #94, #385, #322 ) ;
#622 = ADVANCED_FACE ( 'NONE', ( #205 ), #667, .F. ) ;
#623 = EDGE_CURVE ( 'NONE', #553, #525, #600, .T. ) ;
#624 = ORIENTED_EDGE ( 'NONE', *, *, #531, .F. ) ;
#625 = CARTESIAN_POINT ( 'NONE',  ( -8.500000000000000000, 0.000000000000000000, 85.00000000000000000 ) ) ;
#626 = EDGE_LOOP ( 'NONE', ( #514, #753, #606, #118 ) ) ;
#627 = EDGE_CURVE ( 'NONE', #275, #65, #187, .T. ) ;
#628 = EDGE_LOOP ( 'NONE', ( #751, #373 ) ) ;
#629 = DIRECTION ( 'NONE',  ( 1.000000000000000000, 0.000000000000000000, 0.000000000000000000 ) ) ;
#630 = ORIENTED_EDGE ( 'NONE', *, *, #756, .F. ) ;
#631 = ORIENTED_EDGE ( 'NONE', *, *, #405, .T. ) ;
#632 = DIRECTION ( 'NONE',  ( 0.000000000000000000, 0.000000000000000000, 1.000000000000000000 ) ) ;
#633 = VERTEX_POINT ( 'NONE', #83 ) ;
#634 = VERTEX_POINT ( 'NONE', #33 ) ;
#635 = DIRECTION ( 'NONE',  ( 1.000000000000000000, 0.000000000000000000, 0.000000000000000000 ) ) ;
#636 = CARTESIAN_POINT ( 'NONE',  ( 14.00000000000000000, 1.714505518806294638E-15, 6.000000000000005329 ) ) ;
#637 = AXIS2_PLACEMENT_3D ( 'NONE', #360, #654, #596 ) ;
#638 = CARTESIAN_POINT ( 'NONE',  ( -14.00000000000000000, 0.000000000000000000, 6.000000000000005329 ) ) ;
#639 = CARTESIAN_POINT ( 'NONE',  ( 12.50000000000000000, 1.530808498934191521E-15, 84.00000000000000000 ) ) ;
#640 = LINE ( 'NONE', #292, #62 ) ;
#641 = ADVANCED_FACE ( 'NONE', ( #426 ), #309, .F. ) ;
#642 =( LENGTH_UNIT ( ) NAMED_UNIT ( * ) SI_UNIT ( .MILLI., .METRE. ) );
#643 = CIRCLE ( 'NONE', #280, 12.50000000000000000 ) ;
#644 = EDGE_LOOP ( 'NONE', ( #249, #354, #713, #335 ) ) ;
#645 = AXIS2_PLACEMENT_3D ( 'NONE', #594, #195, #549 ) ;
#646 = EDGE_CURVE ( 'NONE', #675, #65, #431, .T. ) ;
#647 = FACE_OUTER_BOUND ( 'NONE', #626, .T. ) ;
#648 = DIRECTION ( 'NONE',  ( -0.000000000000000000, -0.000000000000000000, -1.000000000000000000 ) ) ;
#649 = ORIENTED_EDGE ( 'NONE', *, *, #379, .F. ) ;
#650 = DIRECTION ( 'NONE',  ( -0.000000000000000000, -0.000000000000000000, -1.000000000000000000 ) ) ;
#651 = CIRCLE ( 'NONE', #719, 15.75000000000000000 ) ;
#652 = AXIS2_PLACEMENT_3D ( 'NONE', #488, #536, #93 ) ;
#653 = DIRECTION ( 'NONE',  ( -1.000000000000000000, 0.000000000000000000, 0.000000000000000000 ) ) ;
#654 = DIRECTION ( 'NONE',  ( -0.000000000000000000, -0.000000000000000000, 1.000000000000000000 ) ) ;
#655 = DIRECTION ( 'NONE',  ( -0.000000000000000000, -0.000000000000000000, -1.000000000000000000 ) ) ;
#656 = DIRECTION ( 'NONE',  ( -1.000000000000000000, 0.000000000000000000, 0.000000000000000000 ) ) ;
#657 = CARTESIAN_POINT ( 'NONE',  ( -8.000000000000000000, 9.797174393178825657E-16, 86.50000000000001421 ) ) ;
#658 = CARTESIAN_POINT ( 'NONE',  ( 0.000000000000000000, 0.000000000000000000, 0.5000000000000004441 ) ) ;
#659 = EDGE_CURVE ( 'NONE', #439, #734, #677, .T. ) ;
#660 = CARTESIAN_POINT ( 'NONE',  ( -8.500000000000000000, 0.000000000000000000, 85.00000000000000000 ) ) ;
#661 = ORIENTED_EDGE ( 'NONE', *, *, #696, .F. ) ;
#662 = CARTESIAN_POINT ( 'NONE',  ( -12.50000000000000000, 0.000000000000000000, 84.00000000000000000 ) ) ;
#663 = CARTESIAN_POINT ( 'NONE',  ( 0.000000000000000000, 0.000000000000000000, 5.500000000000000000 ) ) ;
#664 = CARTESIAN_POINT ( 'NONE',  ( -8.000000000000000000, 0.000000000000000000, 87.00000000000001421 ) ) ;
#665 = CARTESIAN_POINT ( 'NONE',  ( 0.000000000000000000, 0.000000000000000000, 0.000000000000000000 ) ) ;
#666 = ORIENTED_EDGE ( 'NONE', *, *, #510, .F. ) ;
#667 = CYLINDRICAL_SURFACE ( 'NONE', #325, 12.50000000000000000 ) ;
#668 = DIRECTION ( 'NONE',  ( 1.000000000000000000, 0.000000000000000000, 0.000000000000000000 ) ) ;
#669 = ORIENTED_EDGE ( 'NONE', *, *, #3, .F. ) ;
#670 = VECTOR ( 'NONE', #108, 1000.000000000000114 ) ;
#671 = EDGE_CURVE ( 'NONE', #188, #278, #715, .T. ) ;
#672 =( GEOMETRIC_REPRESENTATION_CONTEXT ( 3 ) GLOBAL_UNCERTAINTY_ASSIGNED_CONTEXT ( ( #466 ) ) GLOBAL_UNIT_ASSIGNED_CONTEXT ( ( #741, #446, #568 ) ) REPRESENTATION_CONTEXT ( 'NONE', 'WORKASPACE' ) );
#673 = DIRECTION ( 'NONE',  ( 0.000000000000000000, 0.000000000000000000, 1.000000000000000000 ) ) ;
#674 =( GEOMETRIC_REPRESENTATION_CONTEXT ( 3 ) GLOBAL_UNCERTAINTY_ASSIGNED_CONTEXT ( ( #404 ) ) GLOBAL_UNIT_ASSIGNED_CONTEXT ( ( #642, #697, #74 ) ) REPRESENTATION_CONTEXT ( 'NONE', 'WORKASPACE' ) );
#675 = VERTEX_POINT ( 'NONE', #124 ) ;
#676 = EDGE_CURVE ( 'NONE', #277, #56, #640, .T. ) ;
#677 = CIRCLE ( 'NONE', #444, 14.50000000000000533 ) ;
#678 = EDGE_CURVE ( 'NONE', #116, #275, #410, .T. ) ;
#679 = VECTOR ( 'NONE', #592, 1000.000000000000114 ) ;
#680 = MANIFOLD_SOLID_BREP ( 'Chamfer2', #483 ) ;
#681 = ORIENTED_EDGE ( 'NONE', *, *, #671, .T. ) ;
#682 = AXIS2_PLACEMENT_3D ( 'NONE', #150, #557, #272 ) ;
#683 = ORIENTED_EDGE ( 'NONE', *, *, #676, .F. ) ;
#684 = EDGE_CURVE ( 'NONE', #611, #513, #699, .T. ) ;
#685 = EDGE_LOOP ( 'NONE', ( #295, #464, #15, #79 ) ) ;
#686 = CIRCLE ( 'NONE', #554, 14.50000000000000533 ) ;
#687 = DIRECTION ( 'NONE',  ( -0.7071067811865474617, 0.000000000000000000, -0.7071067811865474617 ) ) ;
#688 = AXIS2_PLACEMENT_3D ( 'NONE', #131, #430, #425 ) ;
#689 = ORIENTED_EDGE ( 'NONE', *, *, #3, .T. ) ;
#690 = ORIENTED_EDGE ( 'NONE', *, *, #701, .T. ) ;
#691 = CARTESIAN_POINT ( 'NONE',  ( 0.000000000000000000, 0.000000000000000000, 84.00000000000000000 ) ) ;
#692 = AXIS2_PLACEMENT_3D ( 'NONE', #658, #143, #315 ) ;
#693 = ORIENTED_EDGE ( 'NONE', *, *, #52, .T. ) ;
#694 = ORIENTED_EDGE ( 'NONE', *, *, #213, .T. ) ;
#695 = LINE ( 'NONE', #584, #171 ) ;
#696 = EDGE_CURVE ( 'NONE', #281, #525, #467, .T. ) ;
#697 =( NAMED_UNIT ( * ) PLANE_ANGLE_UNIT ( ) SI_UNIT ( $, .RADIAN. ) );
#698 = EDGE_LOOP ( 'NONE', ( #666, #208, #233, #41 ) ) ;
#699 = CIRCLE ( 'NONE', #214, 8.500000000000000000 ) ;
#700 = CARTESIAN_POINT ( 'NONE',  ( -14.00000000000000000, 0.000000000000000000, 85.00000000000000000 ) ) ;
#701 = EDGE_CURVE ( 'NONE', #107, #116, #520, .T. ) ;
#702 = CARTESIAN_POINT ( 'NONE',  ( 0.000000000000000000, 0.000000000000000000, 85.00000000000000000 ) ) ;
#703 = ADVANCED_BREP_SHAPE_REPRESENTATION ( '24mm Motor Retainer', ( #680, #366 ), #672 ) ;
#704 = DIRECTION ( 'NONE',  ( -0.000000000000000000, -0.000000000000000000, -1.000000000000000000 ) ) ;
#705 = EDGE_CURVE ( 'NONE', #56, #116, #178, .T. ) ;
#706 = DIRECTION ( 'NONE',  ( -0.000000000000000000, -0.000000000000000000, -1.000000000000000000 ) ) ;
#707 = ORIENTED_EDGE ( 'NONE', *, *, #221, .F. ) ;
#708 = ADVANCED_FACE ( 'NONE', ( #10 ), #759, .T. ) ;
#709 = PRODUCT_DEFINITION_FORMATION_WITH_SPECIFIED_SOURCE ( 'ANY', '', #130, .NOT_KNOWN. ) ;
#710 = CARTESIAN_POINT ( 'NONE',  ( -8.000000000000000000, 0.000000000000000000, 85.50000000000000000 ) ) ;
#711 = DIRECTION ( 'NONE',  ( -1.000000000000000000, 0.000000000000000000, 0.000000000000000000 ) ) ;
#712 = AXIS2_PLACEMENT_3D ( 'NONE', #665, #261, #737 ) ;
#713 = ORIENTED_EDGE ( 'NONE', *, *, #328, .F. ) ;
#714 = CARTESIAN_POINT ( 'NONE',  ( 0.000000000000000000, 0.000000000000000000, 85.00000000000000000 ) ) ;
#715 = CIRCLE ( 'NONE', #121, 12.50000000000000000 ) ;
#716 = FACE_OUTER_BOUND ( 'NONE', #99, .T. ) ;
#717 = CARTESIAN_POINT ( 'NONE',  ( 0.000000000000000000, 0.000000000000000000, 87.00000000000001421 ) ) ;
#718 = DIRECTION ( 'NONE',  ( -0.000000000000000000, -0.000000000000000000, -1.000000000000000000 ) ) ;
#719 = AXIS2_PLACEMENT_3D ( 'NONE', #296, #607, #532 ) ;
#720 = FACE_BOUND ( 'NONE', #390, .T. ) ;
#721 = DIRECTION ( 'NONE',  ( -0.000000000000000000, -0.000000000000000000, -1.000000000000000000 ) ) ;
#722 = EDGE_CURVE ( 'NONE', #169, #734, #468, .T. ) ;
#723 = DIRECTION ( 'NONE',  ( 1.000000000000000000, 0.000000000000000000, 0.000000000000000000 ) ) ;
#724 = CARTESIAN_POINT ( 'NONE',  ( 0.000000000000000000, 0.000000000000000000, 85.00000000000000000 ) ) ;
#725 = ORIENTED_EDGE ( 'NONE', *, *, #684, .F. ) ;
#726 = DIRECTION ( 'NONE',  ( 0.000000000000000000, 0.000000000000000000, 1.000000000000000000 ) ) ;
#727 = DIRECTION ( 'NONE',  ( -0.7071067811865474617, 8.659560562354932858E-17, 0.7071067811865474617 ) ) ;
#728 = CARTESIAN_POINT ( 'NONE',  ( 8.000000000000000000, 9.797174393178825657E-16, 85.50000000000000000 ) ) ;
#729 = CARTESIAN_POINT ( 'NONE',  ( 0.000000000000000000, 0.000000000000000000, 0.000000000000000000 ) ) ;
#730 = ORIENTED_EDGE ( 'NONE', *, *, #23, .T. ) ;
#731 = FACE_OUTER_BOUND ( 'NONE', #151, .T. ) ;
#732 = CARTESIAN_POINT ( 'NONE',  ( 0.000000000000000000, 0.000000000000000000, 85.00000000000000000 ) ) ;
#733 = DIRECTION ( 'NONE',  ( -0.000000000000000000, -0.000000000000000000, -1.000000000000000000 ) ) ;
#734 = VERTEX_POINT ( 'NONE', #585 ) ;
#735 = EDGE_CURVE ( 'NONE', #114, #570, #409, .T. ) ;
#736 = CIRCLE ( 'NONE', #437, 11.50000000000000000 ) ;
#737 = DIRECTION ( 'NONE',  ( -1.000000000000000000, 0.000000000000000000, 0.000000000000000000 ) ) ;
#738 = EDGE_CURVE ( 'NONE', #443, #188, #181, .T. ) ;
#739 = EDGE_LOOP ( 'NONE', ( #490, #154, #119, #429 ) ) ;
#740 = VECTOR ( 'NONE', #219, 1000.000000000000000 ) ;
#741 =( LENGTH_UNIT ( ) NAMED_UNIT ( * ) SI_UNIT ( .MILLI., .METRE. ) );
#742 = STYLED_ITEM ( 'NONE', ( #7 ), #680 ) ;
#743 = VERTEX_POINT ( 'NONE', #565 ) ;
#744 = VECTOR ( 'NONE', #416, 1000.000000000000000 ) ;
#745 = FACE_OUTER_BOUND ( 'NONE', #48, .T. ) ;
#746 = EDGE_CURVE ( 'NONE', #634, #553, #140, .T. ) ;
#747 = ORIENTED_EDGE ( 'NONE', *, *, #521, .F. ) ;
#748 = CARTESIAN_POINT ( 'NONE',  ( 14.25000000000001954, 1.745121688784980594E-15, 0.000000000000000000 ) ) ;
#749 = ADVANCED_FACE ( 'NONE', ( #745 ), #534, .F. ) ;
#750 = ORIENTED_EDGE ( 'NONE', *, *, #328, .T. ) ;
#751 = ORIENTED_EDGE ( 'NONE', *, *, #270, .T. ) ;
#752 = CONICAL_SURFACE ( 'NONE', #246, 14.00000000000000000, 0.7853981633974482790 ) ;
#753 = ORIENTED_EDGE ( 'NONE', *, *, #722, .T. ) ;
#754 = VECTOR ( 'NONE', #603, 1000.000000000000114 ) ;
#755 = ORIENTED_EDGE ( 'NONE', *, *, #450, .F. ) ;
#756 = EDGE_CURVE ( 'NONE', #578, #577, #242, .T. ) ;
#757 = ORIENTED_EDGE ( 'NONE', *, *, #566, .F. ) ;
#758 = DIRECTION ( 'NONE',  ( 0.000000000000000000, 0.000000000000000000, 1.000000000000000000 ) ) ;
#759 = CYLINDRICAL_SURFACE ( 'NONE', #342, 14.00000000000000000 ) ;
ENDSEC;
END-ISO-10303-21;
