#VRML V2.0 utf8

Shape {
  appearance Appearance {
    material Material {
      diffuseColor 0.2235 0.2235 0.2235
      specularColor 0.1137 0.1137 0.1137
      ambientIntensity 0.2
      transparency 0.0000
      shininess 0.5
    }
  }
  geometry IndexedFaceSet {
    ccw TRUE
    solid FALSE
    coord DEF co Coordinate {
      point [
        0.168531 -0.021385 0.000000,
        0.187914 -0.023561 0.000000,
        0.125959 -0.169176 0.000000,
        0.122431 -0.188828 0.000000,
        0.103226 -0.200231 0.000000,
        0.122431 -0.167222 0.000000,
        0.103226 1.889764 0.000000,
        1.299213 0.295276 0.000000,
        1.850394 0.295276 0.000000,
        1.889764 1.889764 0.000000,
        1.889764 0.295276 0.000000,
        0.219934 -0.192348 0.000000,
        0.285673 -0.199030 0.000000,
        0.200854 -0.198915 0.000000,
        0.188172 -0.200231 0.000000,
        0.202648 -0.028879 0.000000,
        0.216273 -0.037994 0.000000,
        0.228160 -0.051117 0.000000,
        0.242462 -0.102706 0.000000,
        0.240469 -0.124016 0.000000,
        0.235121 -0.140948 0.000000,
        0.191317 -0.177766 0.000000,
        0.172957 -0.179825 0.000000,
        0.205661 -0.172485 0.000000,
        0.217742 -0.164343 0.000000,
        0.226980 -0.154597 0.000000,
        0.146827 -0.176925 0.000000,
        0.144604 -0.024493 0.000000,
        0.122431 -0.033988 0.000000,
        0.122431 -0.007581 0.000000,
        0.236276 -0.066316 0.000000,
        0.241523 -0.087389 0.000000,
        0.258480 -0.054028 0.000000,
        0.246942 -0.035623 0.000000,
        0.360092 -0.002180 0.000000,
        0.386499 -0.002180 0.000000,
        0.386499 -0.199030 0.000000,
        1.299213 -0.200231 0.000000,
        0.235768 -0.182237 0.000000,
        0.250554 -0.166670 0.000000,
        0.285673 -0.177425 0.000000,
        0.261041 -0.147953 0.000000,
        0.360092 -0.177425 0.000000,
        0.229170 -0.018531 0.000000,
        0.210472 -0.007769 0.000000,
        0.188527 -0.001393 0.000000,
        0.266965 -0.127116 0.000000,
        0.268869 -0.104319 0.000000,
        0.266037 -0.076332 0.000000,
        0.168756 0.000221 0.000000,
        0.145191 -0.001405 0.000000,
        0.171213 -0.201339 0.000000,
        0.103226 -1.889764 0.000000,
        0.163306 -0.200231 0.000000,
        0.143415 -0.197443 0.000000,
        0.176595 -0.201431 0.000000,
        1.299213 -0.295276 0.000000,
        1.889764 -1.889764 0.000000,
        1.850394 -0.295276 0.000000,
        1.889764 -0.295276 0.000000,
        -0.060015 -0.199030 0.000000,
        -0.021606 -0.177425 0.000000,
        -0.021606 -0.199030 0.000000,
        0.084022 -0.199030 0.000000,
        0.084022 -0.002180 0.000000,
        -1.850394 0.295276 0.000000,
        -1.889764 0.295276 0.000000,
        -1.889764 1.102362 0.000000,
        -0.232859 -0.199030 0.000000,
        -0.208626 -0.145078 0.000000,
        -0.197337 -0.162685 0.000000,
        -0.016804 -0.002180 0.000000,
        -1.102362 1.889764 0.000000,
        -0.307279 -0.002180 0.000000,
        -0.333685 -0.002180 0.000000,
        -1.299213 0.295276 0.000000,
        -1.299213 -0.200231 0.000000,
        0.057615 -0.023785 0.000000,
        0.057615 -0.088602 0.000000,
        -0.016804 -0.023785 0.000000,
        -0.012003 -0.088602 0.000000,
        -0.012003 -0.110207 0.000000,
        0.057615 -0.110207 0.000000,
        0.057615 -0.177425 0.000000,
        -0.181135 -0.178199 0.000000,
        -0.160581 -0.190143 0.000000,
        -0.137898 -0.196904 0.000000,
        -0.060015 -0.002180 0.000000,
        -0.144007 -0.005220 0.000000,
        -0.167038 -0.013307 0.000000,
        -0.188464 -0.027666 0.000000,
        -0.410505 -0.199030 0.000000,
        -0.381698 -0.199030 0.000000,
        -0.188670 -0.027847 0.000000,
        -0.202590 -0.043282 0.000000,
        -0.211738 -0.060212 0.000000,
        -0.217025 -0.079607 0.000000,
        -0.218456 -0.098130 0.000000,
        -0.215694 -0.124474 0.000000,
        -0.115567 -0.002180 0.000000,
        -0.113542 -0.199030 0.000000,
        -0.361780 -0.143816 0.000000,
        -0.280459 -0.143816 0.000000,
        -0.261667 -0.199030 0.000000,
        -1.299213 -0.295276 0.000000,
        -1.850394 -0.295276 0.000000,
        -1.889764 -1.889764 0.000000,
        -1.889764 -0.295276 0.000000,
        1.889764 -0.295276 0.039370,
        1.889764 -1.889764 1.870079,
        1.889764 -0.295276 0.866142,
        1.889764 1.889764 1.870079,
        1.889764 0.295276 0.866142,
        1.889764 0.295276 0.039370,
        -1.102362 1.889764 1.870079,
        -1.889764 1.102362 1.870079,
        -1.889764 0.295276 0.039370,
        -1.889764 0.295276 0.866142,
        -1.889764 -1.889764 1.870079,
        -1.889764 -0.295276 0.866142,
        -1.889764 -0.295276 0.039370,
        0.255716 -0.147638 1.870079,
        0.208791 -0.208791 1.870079,
        -0.208791 -0.208791 1.870079,
        -0.147638 -0.255716 1.870079,
        -0.076423 -0.285214 1.870079,
        0.147638 -0.255716 1.870079,
        0.076423 -0.285214 1.870079,
        -0.000000 -0.295276 1.870079,
        -0.255716 -0.147638 1.870079,
        -0.285214 -0.076423 1.870079,
        -0.295276 0.000000 1.870079,
        -0.285214 0.076423 1.870079,
        -0.255716 0.147638 1.870079,
        -0.208791 0.208791 1.870079,
        -0.147638 0.255716 1.870079,
        0.255716 0.147638 1.870079,
        0.208791 0.208791 1.870079,
        0.147638 0.255716 1.870079,
        0.285214 0.076423 1.870079,
        0.295276 0.000000 1.870079,
        0.285214 -0.076423 1.870079,
        -0.076423 0.285214 1.870079,
        0.000000 0.295276 1.870079,
        0.076423 0.285214 1.870079,
        0.295276 -0.000000 1.476378,
        0.285214 0.076423 1.476378,
        0.255716 0.147638 1.476378,
        0.208791 0.208791 1.476378,
        0.147638 0.255716 1.476378,
        0.076423 0.285214 1.476378,
        0.000000 0.295276 1.476378,
        -0.076423 0.285214 1.476378,
        -0.147638 0.255716 1.476378,
        -0.208791 0.208791 1.476378,
        -0.255716 0.147638 1.476378,
        -0.285214 0.076423 1.476378,
        -0.295276 0.000000 1.476378,
        -0.285214 -0.076423 1.476378,
        -0.255716 -0.147638 1.476378,
        -0.208791 -0.208791 1.476378,
        -0.147638 -0.255716 1.476378,
        -0.076423 -0.285214 1.476378,
        -0.000000 -0.295276 1.476378,
        0.076423 -0.285214 1.476378,
        0.147638 -0.255716 1.476378,
        0.208791 -0.208791 1.476378,
        0.255716 -0.147638 1.476378,
        0.285214 -0.076423 1.476378,
        1.288009 -0.000000 0.688976,
        1.288009 -0.000000 1.476378,
        1.274283 0.187536 0.688976,
        1.274283 0.187536 1.476378,
        1.233398 0.371074 0.688976,
        1.233398 0.371074 1.476378,
        1.166226 0.546704 0.688976,
        1.166226 0.546704 1.476378,
        1.074197 0.710682 0.688976,
        1.074197 0.710682 1.476378,
        0.959274 0.859513 0.688976,
        0.959274 0.859513 1.476378,
        0.823905 0.990025 0.688976,
        0.823905 0.990025 1.476378,
        0.670976 1.099436 0.688976,
        0.670976 1.099436 1.476378,
        0.503746 1.185415 0.688976,
        0.503746 1.185415 1.476378,
        0.325781 1.246128 0.688976,
        0.325781 1.246128 1.476378,
        0.140871 1.280283 0.688976,
        0.140871 1.280283 1.476378,
        -0.047041 1.287150 0.688976,
        -0.047041 1.287150 1.476378,
        -0.233950 1.266584 0.688976,
        -0.233950 1.266584 1.476378,
        -0.415873 1.219023 0.688976,
        -0.415873 1.219023 1.476378,
        -0.588932 1.145481 0.688976,
        -0.588932 1.145481 1.476378,
        -0.749440 1.047525 0.688976,
        -0.749440 1.047525 1.476378,
        -0.893974 0.927243 0.688976,
        -0.893974 0.927243 1.476378,
        -1.019455 0.787198 0.688976,
        -1.019455 0.787198 1.476378,
        -1.123208 0.630375 0.688976,
        -1.123208 0.630375 1.476378,
        -1.203022 0.460117 0.688976,
        -1.203022 0.460117 1.476378,
        -1.257195 0.280052 0.688976,
        -1.257195 0.280052 1.476378,
        -1.284573 0.094019 0.688976,
        -1.284573 0.094019 1.476378,
        -1.284573 -0.094019 0.688976,
        -1.284573 -0.094019 1.476378,
        -1.257195 -0.280052 0.688976,
        -1.257195 -0.280052 1.476378,
        -1.203022 -0.460117 0.688976,
        -1.203022 -0.460117 1.476378,
        -1.123208 -0.630375 0.688976,
        -1.123208 -0.630375 1.476378,
        -1.019455 -0.787198 0.688976,
        -1.019455 -0.787198 1.476378,
        -0.893974 -0.927243 0.688976,
        -0.893974 -0.927243 1.476378,
        -0.749440 -1.047525 0.688976,
        -0.749440 -1.047525 1.476378,
        -0.588932 -1.145481 0.688976,
        -0.588932 -1.145481 1.476378,
        -0.415873 -1.219023 0.688976,
        -0.415873 -1.219023 1.476378,
        -0.233950 -1.266584 0.688976,
        -0.233950 -1.266584 1.476378,
        -0.047041 -1.287150 0.688976,
        -0.047041 -1.287150 1.476378,
        0.140871 -1.280283 0.688976,
        0.140871 -1.280283 1.476378,
        0.325781 -1.246128 0.688976,
        0.325781 -1.246128 1.476378,
        0.503746 -1.185415 0.688976,
        0.503746 -1.185415 1.476378,
        0.670976 -1.099436 0.688976,
        0.670976 -1.099436 1.476378,
        0.823905 -0.990025 0.688976,
        0.823905 -0.990025 1.476378,
        0.959274 -0.859513 0.688976,
        0.959274 -0.859513 1.476378,
        1.074197 -0.710682 0.688976,
        1.074197 -0.710682 1.476378,
        1.166226 -0.546704 0.688976,
        1.166226 -0.546704 1.476378,
        1.233398 -0.371074 0.688976,
        1.233398 -0.371074 1.476378,
        1.274283 -0.187536 0.688976,
        1.274283 -0.187536 1.476378,
        0.112059 -0.779387 0.688976,
        0.257534 -0.744095 0.688976,
        0.393701 -0.681910 0.688976,
        0.515638 -0.595078 0.688976,
        0.618939 -0.486739 0.688976,
        -0.773172 0.149017 0.688976,
        -0.787402 0.000000 0.688976,
        -0.773172 -0.149017 0.688976,
        -0.730998 -0.292648 0.688976,
        -0.662404 -0.425702 0.688976,
        0.257534 0.744095 0.688976,
        0.112059 0.779387 0.688976,
        -0.037466 0.786510 0.688976,
        -0.185637 0.765206 0.688976,
        -0.327098 -0.716246 0.688976,
        -0.185637 -0.765206 0.688976,
        -0.037466 -0.786510 0.688976,
        -0.569869 -0.543369 0.688976,
        -0.456738 -0.641398 0.688976,
        0.699870 0.360808 0.688976,
        0.618939 0.486739 0.688976,
        0.515638 0.595078 0.688976,
        0.393701 0.681910 0.688976,
        0.699870 -0.360808 0.688976,
        0.755506 -0.221837 0.688976,
        0.783836 -0.074847 0.688976,
        0.787402 0.000000 0.688976,
        0.783836 0.074847 0.688976,
        0.755506 0.221837 0.688976,
        -0.569869 0.543369 0.688976,
        -0.662404 0.425702 0.688976,
        -0.730998 0.292648 0.688976,
        -0.327098 0.716246 0.688976,
        -0.456738 0.641398 0.688976,
        0.783836 0.074847 1.279528,
        0.787402 0.000000 1.279528,
        0.783836 -0.074847 1.279528,
        0.755506 -0.221837 1.279528,
        0.699870 -0.360808 1.279528,
        0.618939 -0.486739 1.279528,
        0.515638 -0.595078 1.279528,
        0.393701 -0.681910 1.279528,
        0.257534 -0.744095 1.279528,
        0.112059 -0.779387 1.279528,
        -0.037466 -0.786510 1.279528,
        -0.185637 -0.765206 1.279528,
        -0.327098 -0.716246 1.279528,
        -0.456738 -0.641398 1.279528,
        -0.569869 -0.543369 1.279528,
        -0.662404 -0.425702 1.279528,
        -0.730998 -0.292648 1.279528,
        -0.773172 -0.149017 1.279528,
        -0.787402 0.000000 1.279528,
        -0.773172 0.149017 1.279528,
        -0.730998 0.292648 1.279528,
        -0.662404 0.425702 1.279528,
        -0.569869 0.543369 1.279528,
        -0.456738 0.641398 1.279528,
        -0.327098 0.716246 1.279528,
        -0.185637 0.765206 1.279528,
        -0.037466 0.786510 1.279528,
        0.112059 0.779387 1.279528,
        0.257534 0.744095 1.279528,
        0.393701 0.681910 1.279528,
        0.515638 0.595078 1.279528,
        0.618939 0.486739 1.279528,
        0.699870 0.360808 1.279528,
        0.755506 0.221837 1.279528,
        0.000000 0.000000 1.279528,
      ]
    }
    coordIndex [
      0, 1, 2, -1,
      3, 4, 5, -1,
      5, 4, 6, -1,
      7, 6, 8, -1,
      8, 6, 9, -1,
      8, 9, 10, -1,
      11, 12, 13, -1,
      13, 12, 14, -1,
      1, 15, 2, -1,
      2, 15, 16, -1,
      2, 16, 17, -1,
      18, 19, 2, -1,
      2, 19, 20, -1,
      21, 22, 23, -1,
      23, 22, 24, -1,
      20, 25, 2, -1,
      2, 25, 24, -1,
      2, 24, 26, -1,
      26, 24, 22, -1,
      0, 2, 27, -1,
      27, 2, 5, -1,
      27, 5, 28, -1,
      28, 5, 6, -1,
      28, 6, 29, -1,
      17, 30, 2, -1,
      2, 30, 31, -1,
      2, 31, 18, -1,
      32, 33, 34, -1,
      34, 33, 6, -1,
      34, 6, 35, -1,
      35, 6, 7, -1,
      35, 7, 36, -1,
      36, 7, 37, -1,
      11, 38, 12, -1,
      12, 38, 39, -1,
      12, 39, 40, -1,
      40, 39, 41, -1,
      40, 41, 42, -1,
      33, 43, 6, -1,
      6, 43, 44, -1,
      6, 44, 45, -1,
      41, 46, 42, -1,
      42, 46, 47, -1,
      42, 47, 34, -1,
      34, 47, 48, -1,
      34, 48, 32, -1,
      45, 49, 6, -1,
      6, 49, 50, -1,
      6, 50, 29, -1,
      51, 52, 53, -1,
      53, 52, 4, -1,
      53, 4, 54, -1,
      54, 4, 3, -1,
      12, 36, 14, -1,
      14, 36, 37, -1,
      14, 37, 55, -1,
      55, 37, 56, -1,
      51, 55, 52, -1,
      52, 55, 56, -1,
      52, 56, 57, -1,
      57, 56, 58, -1,
      57, 58, 59, -1,
      60, 61, 62, -1,
      4, 63, 64, -1,
      65, 66, 67, -1,
      68, 69, 70, -1,
      4, 64, 6, -1,
      6, 64, 71, -1,
      6, 71, 72, -1,
      73, 74, 75, -1,
      75, 74, 76, -1,
      72, 71, 67, -1,
      67, 71, 75, -1,
      67, 75, 65, -1,
      77, 78, 79, -1,
      79, 78, 80, -1,
      81, 82, 83, -1,
      70, 84, 68, -1,
      68, 84, 85, -1,
      68, 85, 86, -1,
      83, 61, 81, -1,
      81, 61, 60, -1,
      81, 60, 80, -1,
      80, 60, 87, -1,
      80, 87, 79, -1,
      88, 89, 73, -1,
      73, 89, 90, -1,
      91, 92, 4, -1,
      90, 93, 73, -1,
      73, 93, 94, -1,
      73, 94, 95, -1,
      95, 96, 73, -1,
      73, 96, 97, -1,
      73, 97, 68, -1,
      68, 97, 98, -1,
      68, 98, 69, -1,
      88, 73, 99, -1,
      99, 73, 75, -1,
      99, 75, 87, -1,
      87, 75, 71, -1,
      87, 71, 79, -1,
      100, 60, 4, -1,
      4, 60, 62, -1,
      4, 62, 63, -1,
      101, 102, 92, -1,
      92, 102, 103, -1,
      92, 103, 4, -1,
      4, 103, 68, -1,
      4, 68, 100, -1,
      100, 68, 86, -1,
      74, 91, 76, -1,
      76, 91, 4, -1,
      76, 4, 104, -1,
      104, 4, 52, -1,
      104, 52, 105, -1,
      105, 52, 106, -1,
      105, 106, 107, -1,
      57, 59, 108, -1,
      57, 108, 109, -1,
      109, 108, 110, -1,
      109, 110, 111, -1,
      111, 110, 112, -1,
      111, 112, 9, -1,
      9, 112, 113, -1,
      9, 113, 10, -1,
      111, 9, 114, -1,
      114, 9, 6, -1,
      114, 6, 72, -1,
      115, 114, 67, -1,
      67, 114, 72, -1,
      67, 66, 116, -1,
      67, 116, 115, -1,
      115, 116, 117, -1,
      115, 117, 118, -1,
      118, 117, 119, -1,
      118, 119, 106, -1,
      106, 119, 120, -1,
      106, 120, 107, -1,
      118, 106, 109, -1,
      109, 106, 52, -1,
      109, 52, 57, -1,
      121, 122, 109, -1,
      123, 118, 124, -1,
      124, 118, 125, -1,
      122, 126, 109, -1,
      109, 126, 127, -1,
      109, 127, 118, -1,
      118, 127, 128, -1,
      118, 128, 125, -1,
      123, 129, 118, -1,
      118, 129, 130, -1,
      118, 130, 115, -1,
      115, 130, 131, -1,
      131, 132, 115, -1,
      115, 132, 133, -1,
      115, 133, 114, -1,
      114, 133, 134, -1,
      114, 134, 135, -1,
      136, 111, 137, -1,
      137, 111, 138, -1,
      136, 139, 111, -1,
      111, 139, 140, -1,
      111, 140, 109, -1,
      109, 140, 141, -1,
      109, 141, 121, -1,
      135, 142, 114, -1,
      114, 142, 143, -1,
      114, 143, 111, -1,
      111, 143, 144, -1,
      111, 144, 138, -1,
      145, 140, 146, -1,
      146, 140, 139, -1,
      146, 139, 147, -1,
      147, 139, 136, -1,
      147, 136, 148, -1,
      148, 136, 137, -1,
      148, 137, 149, -1,
      149, 137, 138, -1,
      149, 138, 150, -1,
      150, 138, 144, -1,
      150, 144, 151, -1,
      151, 144, 143, -1,
      151, 143, 152, -1,
      152, 143, 142, -1,
      152, 142, 153, -1,
      153, 142, 135, -1,
      153, 135, 154, -1,
      154, 135, 134, -1,
      154, 134, 155, -1,
      155, 134, 133, -1,
      155, 133, 156, -1,
      156, 133, 132, -1,
      156, 132, 157, -1,
      157, 132, 131, -1,
      157, 131, 158, -1,
      158, 131, 130, -1,
      158, 130, 159, -1,
      159, 130, 129, -1,
      159, 129, 160, -1,
      160, 129, 123, -1,
      160, 123, 161, -1,
      161, 123, 124, -1,
      161, 124, 162, -1,
      162, 124, 125, -1,
      162, 125, 163, -1,
      163, 125, 128, -1,
      163, 128, 164, -1,
      164, 128, 127, -1,
      164, 127, 165, -1,
      165, 127, 126, -1,
      165, 126, 166, -1,
      166, 126, 122, -1,
      166, 122, 167, -1,
      167, 122, 121, -1,
      167, 121, 168, -1,
      168, 121, 141, -1,
      168, 141, 145, -1,
      145, 141, 140, -1,
      169, 170, 171, -1,
      171, 170, 172, -1,
      171, 172, 173, -1,
      173, 172, 174, -1,
      173, 174, 175, -1,
      175, 174, 176, -1,
      175, 176, 177, -1,
      177, 176, 178, -1,
      177, 178, 179, -1,
      179, 178, 180, -1,
      179, 180, 181, -1,
      181, 180, 182, -1,
      181, 182, 183, -1,
      183, 182, 184, -1,
      183, 184, 185, -1,
      185, 184, 186, -1,
      185, 186, 187, -1,
      187, 186, 188, -1,
      187, 188, 189, -1,
      189, 188, 190, -1,
      189, 190, 191, -1,
      191, 190, 192, -1,
      191, 192, 193, -1,
      193, 192, 194, -1,
      193, 194, 195, -1,
      195, 194, 196, -1,
      195, 196, 197, -1,
      197, 196, 198, -1,
      197, 198, 199, -1,
      199, 198, 200, -1,
      199, 200, 201, -1,
      201, 200, 202, -1,
      201, 202, 203, -1,
      203, 202, 204, -1,
      203, 204, 205, -1,
      205, 204, 206, -1,
      205, 206, 207, -1,
      207, 206, 208, -1,
      207, 208, 209, -1,
      209, 208, 210, -1,
      209, 210, 211, -1,
      211, 210, 212, -1,
      211, 212, 213, -1,
      213, 212, 214, -1,
      213, 214, 215, -1,
      215, 214, 216, -1,
      215, 216, 217, -1,
      217, 216, 218, -1,
      217, 218, 219, -1,
      219, 218, 220, -1,
      219, 220, 221, -1,
      221, 220, 222, -1,
      221, 222, 223, -1,
      223, 222, 224, -1,
      223, 224, 225, -1,
      225, 224, 226, -1,
      225, 226, 227, -1,
      227, 226, 228, -1,
      227, 228, 229, -1,
      229, 228, 230, -1,
      229, 230, 231, -1,
      231, 230, 232, -1,
      231, 232, 233, -1,
      233, 232, 234, -1,
      233, 234, 235, -1,
      235, 234, 236, -1,
      235, 236, 237, -1,
      237, 236, 238, -1,
      237, 238, 239, -1,
      239, 238, 240, -1,
      239, 240, 241, -1,
      241, 240, 242, -1,
      241, 242, 243, -1,
      243, 242, 244, -1,
      243, 244, 245, -1,
      245, 244, 246, -1,
      245, 246, 247, -1,
      247, 246, 248, -1,
      247, 248, 249, -1,
      249, 248, 250, -1,
      249, 250, 251, -1,
      251, 250, 252, -1,
      251, 252, 253, -1,
      253, 252, 254, -1,
      253, 254, 169, -1,
      169, 254, 170, -1,
      255, 237, 256, -1,
      256, 237, 239, -1,
      256, 239, 257, -1,
      257, 239, 241, -1,
      257, 241, 258, -1,
      258, 241, 243, -1,
      258, 243, 259, -1,
      260, 211, 261, -1,
      261, 211, 213, -1,
      261, 213, 262, -1,
      262, 213, 215, -1,
      262, 215, 263, -1,
      263, 215, 217, -1,
      263, 217, 264, -1,
      265, 187, 266, -1,
      266, 187, 189, -1,
      266, 189, 267, -1,
      267, 189, 191, -1,
      267, 191, 268, -1,
      269, 229, 270, -1,
      270, 229, 231, -1,
      270, 231, 271, -1,
      271, 231, 233, -1,
      271, 233, 255, -1,
      255, 233, 235, -1,
      255, 235, 237, -1,
      217, 219, 264, -1,
      264, 219, 221, -1,
      264, 221, 272, -1,
      272, 221, 223, -1,
      272, 223, 273, -1,
      273, 223, 225, -1,
      273, 225, 269, -1,
      269, 225, 227, -1,
      269, 227, 229, -1,
      274, 177, 275, -1,
      275, 177, 179, -1,
      275, 179, 276, -1,
      276, 179, 181, -1,
      276, 181, 277, -1,
      277, 181, 183, -1,
      277, 183, 265, -1,
      265, 183, 185, -1,
      265, 185, 187, -1,
      243, 245, 259, -1,
      259, 245, 247, -1,
      259, 247, 278, -1,
      278, 247, 249, -1,
      278, 249, 279, -1,
      279, 249, 251, -1,
      279, 251, 280, -1,
      280, 251, 253, -1,
      280, 253, 281, -1,
      281, 253, 169, -1,
      281, 169, 282, -1,
      282, 169, 171, -1,
      282, 171, 283, -1,
      283, 171, 173, -1,
      283, 173, 274, -1,
      274, 173, 175, -1,
      274, 175, 177, -1,
      284, 203, 285, -1,
      285, 203, 205, -1,
      285, 205, 286, -1,
      286, 205, 207, -1,
      286, 207, 260, -1,
      260, 207, 209, -1,
      260, 209, 211, -1,
      191, 193, 268, -1,
      268, 193, 195, -1,
      268, 195, 287, -1,
      287, 195, 197, -1,
      287, 197, 288, -1,
      288, 197, 199, -1,
      288, 199, 284, -1,
      284, 199, 201, -1,
      284, 201, 203, -1,
      254, 168, 145, -1,
      158, 214, 157, -1,
      157, 214, 212, -1,
      157, 212, 156, -1,
      163, 232, 162, -1,
      162, 232, 230, -1,
      162, 230, 161, -1,
      159, 218, 158, -1,
      158, 218, 216, -1,
      158, 216, 214, -1,
      164, 236, 163, -1,
      163, 236, 234, -1,
      163, 234, 232, -1,
      254, 252, 168, -1,
      168, 252, 250, -1,
      168, 250, 167, -1,
      167, 250, 248, -1,
      167, 248, 166, -1,
      146, 172, 145, -1,
      145, 172, 170, -1,
      145, 170, 254, -1,
      147, 176, 146, -1,
      146, 176, 174, -1,
      146, 174, 172, -1,
      149, 182, 148, -1,
      148, 182, 180, -1,
      148, 180, 147, -1,
      147, 180, 178, -1,
      147, 178, 176, -1,
      160, 222, 159, -1,
      159, 222, 220, -1,
      159, 220, 218, -1,
      150, 186, 149, -1,
      149, 186, 184, -1,
      149, 184, 182, -1,
      230, 228, 161, -1,
      161, 228, 226, -1,
      161, 226, 160, -1,
      160, 226, 224, -1,
      160, 224, 222, -1,
      165, 240, 164, -1,
      164, 240, 238, -1,
      164, 238, 236, -1,
      248, 246, 166, -1,
      166, 246, 244, -1,
      166, 244, 165, -1,
      165, 244, 242, -1,
      165, 242, 240, -1,
      151, 190, 150, -1,
      150, 190, 188, -1,
      150, 188, 186, -1,
      152, 194, 151, -1,
      151, 194, 192, -1,
      151, 192, 190, -1,
      154, 200, 153, -1,
      153, 200, 198, -1,
      153, 198, 152, -1,
      152, 198, 196, -1,
      152, 196, 194, -1,
      155, 204, 154, -1,
      154, 204, 202, -1,
      154, 202, 200, -1,
      212, 210, 156, -1,
      156, 210, 208, -1,
      156, 208, 155, -1,
      155, 208, 206, -1,
      155, 206, 204, -1,
      289, 290, 281, -1,
      281, 290, 280, -1,
      290, 291, 280, -1,
      280, 291, 292, -1,
      280, 292, 279, -1,
      279, 292, 293, -1,
      279, 293, 278, -1,
      278, 293, 294, -1,
      278, 294, 259, -1,
      259, 294, 295, -1,
      259, 295, 258, -1,
      258, 295, 296, -1,
      258, 296, 257, -1,
      257, 296, 297, -1,
      257, 297, 256, -1,
      256, 297, 298, -1,
      256, 298, 255, -1,
      255, 298, 299, -1,
      255, 299, 271, -1,
      271, 299, 300, -1,
      271, 300, 270, -1,
      270, 300, 301, -1,
      270, 301, 269, -1,
      269, 301, 302, -1,
      269, 302, 273, -1,
      273, 302, 303, -1,
      273, 303, 272, -1,
      272, 303, 304, -1,
      272, 304, 264, -1,
      264, 304, 305, -1,
      264, 305, 263, -1,
      263, 305, 306, -1,
      263, 306, 262, -1,
      262, 306, 307, -1,
      262, 307, 261, -1,
      261, 307, 308, -1,
      261, 308, 260, -1,
      260, 308, 309, -1,
      260, 309, 286, -1,
      286, 309, 310, -1,
      286, 310, 285, -1,
      285, 310, 311, -1,
      285, 311, 284, -1,
      284, 311, 312, -1,
      284, 312, 288, -1,
      288, 312, 313, -1,
      288, 313, 287, -1,
      287, 313, 314, -1,
      287, 314, 268, -1,
      268, 314, 315, -1,
      268, 315, 267, -1,
      267, 315, 316, -1,
      267, 316, 266, -1,
      266, 316, 317, -1,
      266, 317, 265, -1,
      265, 317, 318, -1,
      265, 318, 277, -1,
      277, 318, 319, -1,
      277, 319, 276, -1,
      276, 319, 320, -1,
      276, 320, 275, -1,
      275, 320, 321, -1,
      275, 321, 274, -1,
      274, 321, 322, -1,
      274, 322, 283, -1,
      283, 322, 289, -1,
      283, 289, 282, -1,
      282, 289, 281, -1,
      290, 289, 323, -1,
      293, 292, 323, -1,
      323, 292, 291, -1,
      323, 291, 290, -1,
      296, 295, 323, -1,
      323, 295, 294, -1,
      323, 294, 293, -1,
      299, 298, 323, -1,
      323, 298, 297, -1,
      323, 297, 296, -1,
      302, 301, 323, -1,
      323, 301, 300, -1,
      323, 300, 299, -1,
      305, 304, 323, -1,
      323, 304, 303, -1,
      323, 303, 302, -1,
      308, 307, 323, -1,
      323, 307, 306, -1,
      323, 306, 305, -1,
      311, 310, 323, -1,
      323, 310, 309, -1,
      323, 309, 308, -1,
      314, 313, 323, -1,
      323, 313, 312, -1,
      323, 312, 311, -1,
      317, 316, 323, -1,
      323, 316, 315, -1,
      323, 315, 314, -1,
      320, 319, 323, -1,
      323, 319, 318, -1,
      323, 318, 317, -1,
      289, 322, 323, -1,
      323, 322, 321, -1,
      323, 321, 320, -1,
    ]
  }
}

Shape {
  appearance Appearance {
    material Material {
      diffuseColor 0.8510 0.8510 0.8510
      specularColor 0.4235 0.4235 0.4235
      ambientIntensity 0.2
      transparency 0.0000
      shininess 0.5
    }
  }
  geometry IndexedFaceSet {
    ccw TRUE
    solid FALSE
    coord DEF co Coordinate {
      point [
        1.299213 0.295276 0.000000,
        1.850394 0.295276 0.000000,
        1.889764 0.295276 0.000000,
        1.299213 -0.200231 0.000000,
        1.299213 -0.295276 0.000000,
        1.850394 -0.295276 0.000000,
        1.889764 -0.295276 0.000000,
        -1.850394 0.295276 0.000000,
        -1.889764 0.295276 0.000000,
        -1.299213 0.295276 0.000000,
        -1.299213 -0.200231 0.000000,
        -1.299213 -0.295276 0.000000,
        -1.850394 -0.295276 0.000000,
        -1.889764 -0.295276 0.000000,
        1.889764 -0.295276 0.039370,
        1.889764 -0.295276 0.866142,
        1.889764 0.295276 0.866142,
        1.889764 0.295276 0.039370,
        -1.889764 0.295276 0.039370,
        -1.889764 0.295276 0.866142,
        -1.889764 -0.295276 0.866142,
        -1.889764 -0.295276 0.039370,
        1.952680 0.295276 -0.019685,
        1.933910 0.295276 -0.044146,
        1.850394 0.295276 -0.078740,
        1.880963 0.295276 -0.074716,
        1.909449 0.295276 -0.062917,
        1.964480 0.295276 0.008801,
        1.968504 0.295276 0.039370,
        1.909449 -0.295276 -0.062917,
        1.933910 -0.295276 -0.044146,
        1.952680 -0.295276 -0.019685,
        1.964480 -0.295276 0.008801,
        1.968504 -0.295276 0.039370,
        1.880963 -0.295276 -0.074716,
        1.850394 -0.295276 -0.078740,
        1.299213 0.295276 -0.078740,
        1.299213 -0.295276 -0.078740,
        1.968504 -0.295276 0.866142,
        1.968504 0.295276 0.866142,
        -1.909449 0.295276 -0.062917,
        -1.933910 0.295276 -0.044146,
        -1.968504 0.295276 0.039370,
        -1.964480 0.295276 0.008801,
        -1.952680 0.295276 -0.019685,
        -1.880963 0.295276 -0.074716,
        -1.850394 0.295276 -0.078740,
        -1.952680 -0.295276 -0.019685,
        -1.933910 -0.295276 -0.044146,
        -1.850394 -0.295276 -0.078740,
        -1.880963 -0.295276 -0.074716,
        -1.909449 -0.295276 -0.062917,
        -1.964480 -0.295276 0.008801,
        -1.968504 -0.295276 0.039370,
        -1.299213 0.295276 -0.078740,
        -1.299213 -0.295276 -0.078740,
        -1.968504 0.295276 0.866142,
        -1.968504 -0.295276 0.866142,
      ]
    }
    coordIndex [
      22, 23, 2, -1,
      24, 1, 25, -1,
      25, 1, 2, -1,
      25, 2, 26, -1,
      26, 2, 23, -1,
      22, 2, 27, -1,
      27, 2, 17, -1,
      27, 17, 28, -1,
      29, 30, 6, -1,
      6, 30, 31, -1,
      6, 31, 14, -1,
      14, 31, 32, -1,
      14, 32, 33, -1,
      29, 6, 34, -1,
      34, 6, 5, -1,
      34, 5, 35, -1,
      0, 36, 3, -1,
      3, 36, 37, -1,
      3, 37, 4, -1,
      38, 39, 15, -1,
      15, 39, 16, -1,
      35, 37, 24, -1,
      24, 37, 36, -1,
      24, 36, 1, -1,
      1, 36, 0, -1,
      4, 37, 5, -1,
      5, 37, 35, -1,
      28, 33, 32, -1,
      28, 32, 27, -1,
      27, 32, 31, -1,
      27, 31, 22, -1,
      22, 31, 30, -1,
      22, 30, 23, -1,
      23, 30, 29, -1,
      23, 29, 26, -1,
      26, 29, 34, -1,
      26, 34, 25, -1,
      25, 34, 35, -1,
      25, 35, 24, -1,
      38, 33, 39, -1,
      39, 33, 28, -1,
      39, 28, 16, -1,
      16, 28, 17, -1,
      14, 33, 15, -1,
      15, 33, 38, -1,
      40, 41, 8, -1,
      42, 18, 43, -1,
      43, 18, 8, -1,
      43, 8, 44, -1,
      44, 8, 41, -1,
      40, 8, 45, -1,
      45, 8, 7, -1,
      45, 7, 46, -1,
      47, 48, 13, -1,
      49, 12, 50, -1,
      50, 12, 13, -1,
      50, 13, 51, -1,
      51, 13, 48, -1,
      47, 13, 52, -1,
      52, 13, 21, -1,
      52, 21, 53, -1,
      54, 9, 55, -1,
      55, 9, 10, -1,
      55, 10, 11, -1,
      56, 57, 19, -1,
      19, 57, 20, -1,
      7, 9, 46, -1,
      46, 9, 54, -1,
      46, 54, 49, -1,
      49, 54, 55, -1,
      55, 11, 49, -1,
      49, 11, 12, -1,
      53, 42, 43, -1,
      53, 43, 52, -1,
      52, 43, 44, -1,
      52, 44, 47, -1,
      47, 44, 41, -1,
      47, 41, 48, -1,
      48, 41, 40, -1,
      48, 40, 51, -1,
      51, 40, 45, -1,
      51, 45, 50, -1,
      50, 45, 46, -1,
      50, 46, 49, -1,
      19, 18, 56, -1,
      56, 18, 42, -1,
      56, 42, 57, -1,
      57, 42, 53, -1,
      53, 21, 57, -1,
      57, 21, 20, -1,
    ]
  }
}

Shape {
  appearance Appearance {
    material Material {
      diffuseColor 1.0000 1.0000 1.0000
      specularColor 0.8784 0.8784 0.8784
      ambientIntensity 0.2
      transparency 0.0000
      shininess 0.5
    }
  }
  geometry IndexedFaceSet {
    ccw TRUE
    solid FALSE
    coord DEF co Coordinate {
      point [
        0.168531 -0.021385 0.000000,
        0.187914 -0.023561 0.000000,
        0.125959 -0.169176 0.000000,
        0.122431 -0.188828 0.000000,
        0.122431 -0.167222 0.000000,
        0.219934 -0.192348 0.000000,
        0.285673 -0.199030 0.000000,
        0.200854 -0.198915 0.000000,
        0.188172 -0.200231 0.000000,
        0.202648 -0.028879 0.000000,
        0.216273 -0.037994 0.000000,
        0.228160 -0.051117 0.000000,
        0.242462 -0.102706 0.000000,
        0.240469 -0.124016 0.000000,
        0.235121 -0.140948 0.000000,
        0.191317 -0.177766 0.000000,
        0.172957 -0.179825 0.000000,
        0.205661 -0.172485 0.000000,
        0.217742 -0.164343 0.000000,
        0.226980 -0.154597 0.000000,
        0.146827 -0.176925 0.000000,
        0.144604 -0.024493 0.000000,
        0.122431 -0.033988 0.000000,
        0.122431 -0.007581 0.000000,
        0.236276 -0.066316 0.000000,
        0.241523 -0.087389 0.000000,
        0.258480 -0.054028 0.000000,
        0.246942 -0.035623 0.000000,
        0.360092 -0.002180 0.000000,
        0.386499 -0.002180 0.000000,
        0.386499 -0.199030 0.000000,
        0.235768 -0.182237 0.000000,
        0.250554 -0.166670 0.000000,
        0.285673 -0.177425 0.000000,
        0.261041 -0.147953 0.000000,
        0.360092 -0.177425 0.000000,
        0.229170 -0.018531 0.000000,
        0.210472 -0.007769 0.000000,
        0.188527 -0.001393 0.000000,
        0.266965 -0.127116 0.000000,
        0.268869 -0.104319 0.000000,
        0.266037 -0.076332 0.000000,
        0.168756 0.000221 0.000000,
        0.145191 -0.001405 0.000000,
        0.171213 -0.201339 0.000000,
        0.163306 -0.200231 0.000000,
        0.143415 -0.197443 0.000000,
        0.176595 -0.201431 0.000000,
        -0.060015 -0.199030 0.000000,
        -0.021606 -0.177425 0.000000,
        -0.021606 -0.199030 0.000000,
        0.084022 -0.199030 0.000000,
        0.084022 -0.002180 0.000000,
        -0.232859 -0.199030 0.000000,
        -0.208626 -0.145078 0.000000,
        -0.197337 -0.162685 0.000000,
        -0.016804 -0.002180 0.000000,
        -0.307279 -0.002180 0.000000,
        -0.333685 -0.002180 0.000000,
        0.057615 -0.023785 0.000000,
        0.057615 -0.088602 0.000000,
        -0.016804 -0.023785 0.000000,
        -0.012003 -0.088602 0.000000,
        -0.012003 -0.110207 0.000000,
        0.057615 -0.110207 0.000000,
        0.057615 -0.177425 0.000000,
        -0.181135 -0.178199 0.000000,
        -0.160581 -0.190143 0.000000,
        -0.137898 -0.196904 0.000000,
        -0.060015 -0.002180 0.000000,
        -0.144007 -0.005220 0.000000,
        -0.167038 -0.013307 0.000000,
        -0.188464 -0.027666 0.000000,
        -0.410505 -0.199030 0.000000,
        -0.381698 -0.199030 0.000000,
        -0.188670 -0.027847 0.000000,
        -0.202590 -0.043282 0.000000,
        -0.211738 -0.060212 0.000000,
        -0.217025 -0.079607 0.000000,
        -0.218456 -0.098130 0.000000,
        -0.215694 -0.124474 0.000000,
        -0.115567 -0.002180 0.000000,
        -0.113542 -0.199030 0.000000,
        -0.361780 -0.143816 0.000000,
        -0.280459 -0.143816 0.000000,
        -0.261667 -0.199030 0.000000,
        -0.333685 -0.002180 0.003937,
        -0.410505 -0.199030 0.003937,
        -0.381698 -0.199030 0.003937,
        -0.361780 -0.143816 0.003937,
        -0.280459 -0.143816 0.003937,
        -0.261667 -0.199030 0.003937,
        -0.232859 -0.199030 0.003937,
        -0.307279 -0.002180 0.003937,
        -0.287098 -0.122211 0.003937,
        -0.352928 -0.122211 0.003937,
        -0.316469 -0.039989 0.003937,
        -0.318363 -0.033162 0.003937,
        -0.319619 -0.026186 0.003937,
        -0.320257 -0.026186 0.003937,
        -0.321541 -0.033141 0.003937,
        -0.323295 -0.039989 0.003937,
        -0.287098 -0.122211 0.000000,
        -0.352928 -0.122211 0.000000,
        -0.316469 -0.039989 0.000000,
        -0.318363 -0.033162 0.000000,
        -0.319619 -0.026186 0.000000,
        -0.320257 -0.026186 0.000000,
        -0.321541 -0.033141 0.000000,
        -0.323295 -0.039989 0.000000,
        -0.113542 -0.199030 0.003937,
        -0.060015 -0.199030 0.003937,
        -0.060015 -0.002180 0.003937,
        -0.115567 -0.002180 0.003937,
        -0.218456 -0.098130 0.003937,
        -0.217025 -0.079607 0.003937,
        -0.211738 -0.060212 0.003937,
        -0.202590 -0.043282 0.003937,
        -0.188670 -0.027847 0.003937,
        -0.188464 -0.027666 0.003937,
        -0.167038 -0.013307 0.003937,
        -0.144007 -0.005220 0.003937,
        -0.137898 -0.196904 0.003937,
        -0.160581 -0.190143 0.003937,
        -0.181135 -0.178199 0.003937,
        -0.197337 -0.162685 0.003937,
        -0.208626 -0.145078 0.003937,
        -0.215694 -0.124474 0.003937,
        -0.178943 -0.051390 0.003937,
        -0.169381 -0.041237 0.003937,
        -0.155002 -0.031948 0.003937,
        -0.138754 -0.026262 0.003937,
        -0.115455 -0.023785 0.003937,
        -0.086422 -0.023785 0.003937,
        -0.086422 -0.177425 0.003937,
        -0.114367 -0.177425 0.003937,
        -0.135135 -0.175492 0.003937,
        -0.151700 -0.170321 0.003937,
        -0.165125 -0.162349 0.003937,
        -0.176166 -0.151444 0.003937,
        -0.184468 -0.137872 0.003937,
        -0.190242 -0.119368 0.003937,
        -0.192049 -0.098692 0.003937,
        -0.190377 -0.079100 0.003937,
        -0.185781 -0.063531 0.003937,
        -0.115455 -0.023785 0.000000,
        -0.086422 -0.023785 0.000000,
        -0.138754 -0.026262 0.000000,
        -0.155002 -0.031948 0.000000,
        -0.169381 -0.041237 0.000000,
        -0.178943 -0.051390 0.000000,
        -0.185781 -0.063531 0.000000,
        -0.190377 -0.079100 0.000000,
        -0.192049 -0.098692 0.000000,
        -0.190242 -0.119368 0.000000,
        -0.184468 -0.137872 0.000000,
        -0.176166 -0.151444 0.000000,
        -0.165125 -0.162349 0.000000,
        -0.151700 -0.170321 0.000000,
        -0.135135 -0.175492 0.000000,
        -0.114367 -0.177425 0.000000,
        -0.086422 -0.177425 0.000000,
        -0.021606 -0.177425 0.003937,
        -0.021606 -0.199030 0.003937,
        0.084022 -0.199030 0.003937,
        0.084022 -0.002180 0.003937,
        -0.016804 -0.002180 0.003937,
        -0.016804 -0.023785 0.003937,
        0.057615 -0.023785 0.003937,
        0.057615 -0.088602 0.003937,
        -0.012003 -0.088602 0.003937,
        -0.012003 -0.110207 0.003937,
        0.057615 -0.110207 0.003937,
        0.057615 -0.177425 0.003937,
        0.122431 -0.167222 0.003937,
        0.122431 -0.188828 0.003937,
        0.143415 -0.197443 0.003937,
        0.176595 -0.201431 0.003937,
        0.171213 -0.201339 0.003937,
        0.268869 -0.104319 0.003937,
        0.266965 -0.127116 0.003937,
        0.261041 -0.147953 0.003937,
        0.250554 -0.166670 0.003937,
        0.235768 -0.182237 0.003937,
        0.219934 -0.192348 0.003937,
        0.200854 -0.198915 0.003937,
        0.168756 0.000221 0.003937,
        0.188527 -0.001393 0.003937,
        0.210472 -0.007769 0.003937,
        0.229170 -0.018531 0.003937,
        0.246942 -0.035623 0.003937,
        0.258480 -0.054028 0.003937,
        0.266037 -0.076332 0.003937,
        0.122431 -0.007581 0.003937,
        0.145191 -0.001405 0.003937,
        0.122431 -0.033988 0.003937,
        0.168531 -0.021385 0.003937,
        0.144604 -0.024493 0.003937,
        0.242462 -0.102706 0.003937,
        0.241523 -0.087389 0.003937,
        0.236276 -0.066316 0.003937,
        0.228160 -0.051117 0.003937,
        0.216273 -0.037994 0.003937,
        0.202648 -0.028879 0.003937,
        0.187914 -0.023561 0.003937,
        0.172957 -0.179825 0.003937,
        0.191317 -0.177766 0.003937,
        0.205661 -0.172485 0.003937,
        0.217742 -0.164343 0.003937,
        0.226980 -0.154597 0.003937,
        0.235121 -0.140948 0.003937,
        0.240469 -0.124016 0.003937,
        0.125959 -0.169176 0.003937,
        0.146827 -0.176925 0.003937,
        0.285673 -0.177425 0.003937,
        0.285673 -0.199030 0.003937,
        0.386499 -0.199030 0.003937,
        0.386499 -0.002180 0.003937,
        0.360092 -0.002180 0.003937,
        0.360092 -0.177425 0.003937,
      ]
    }
    coordIndex [
      86, 87, 58, -1,
      58, 87, 73, -1,
      87, 88, 73, -1,
      73, 88, 74, -1,
      88, 89, 74, -1,
      74, 89, 83, -1,
      89, 90, 83, -1,
      83, 90, 84, -1,
      90, 91, 84, -1,
      84, 91, 85, -1,
      91, 92, 85, -1,
      85, 92, 53, -1,
      92, 93, 53, -1,
      53, 93, 57, -1,
      93, 86, 57, -1,
      57, 86, 58, -1,
      94, 90, 95, -1,
      95, 90, 89, -1,
      96, 93, 94, -1,
      94, 93, 92, -1,
      94, 92, 90, -1,
      90, 92, 91, -1,
      96, 97, 93, -1,
      93, 97, 98, -1,
      93, 98, 86, -1,
      86, 98, 99, -1,
      86, 99, 100, -1,
      100, 101, 86, -1,
      86, 101, 95, -1,
      86, 95, 87, -1,
      87, 95, 89, -1,
      87, 89, 88, -1,
      94, 95, 102, -1,
      102, 95, 103, -1,
      96, 94, 104, -1,
      104, 94, 102, -1,
      96, 104, 105, -1,
      96, 105, 97, -1,
      97, 105, 106, -1,
      97, 106, 98, -1,
      99, 98, 107, -1,
      107, 98, 106, -1,
      99, 107, 108, -1,
      99, 108, 100, -1,
      100, 108, 109, -1,
      100, 109, 101, -1,
      95, 101, 103, -1,
      103, 101, 109, -1,
      110, 111, 82, -1,
      82, 111, 48, -1,
      111, 112, 48, -1,
      48, 112, 69, -1,
      112, 113, 69, -1,
      69, 113, 81, -1,
      114, 79, 78, -1,
      114, 78, 115, -1,
      115, 78, 77, -1,
      115, 77, 116, -1,
      116, 77, 76, -1,
      116, 76, 117, -1,
      117, 76, 75, -1,
      117, 75, 118, -1,
      118, 75, 72, -1,
      118, 72, 119, -1,
      119, 72, 71, -1,
      119, 71, 120, -1,
      120, 71, 70, -1,
      120, 70, 121, -1,
      121, 70, 81, -1,
      121, 81, 113, -1,
      110, 82, 68, -1,
      110, 68, 122, -1,
      122, 68, 67, -1,
      122, 67, 123, -1,
      123, 67, 66, -1,
      123, 66, 124, -1,
      124, 66, 55, -1,
      124, 55, 125, -1,
      125, 55, 54, -1,
      125, 54, 126, -1,
      126, 54, 80, -1,
      126, 80, 127, -1,
      127, 80, 79, -1,
      127, 79, 114, -1,
      116, 117, 128, -1,
      128, 117, 118, -1,
      128, 118, 129, -1,
      129, 118, 119, -1,
      129, 119, 130, -1,
      130, 119, 120, -1,
      130, 120, 131, -1,
      131, 120, 121, -1,
      131, 121, 132, -1,
      132, 121, 113, -1,
      132, 113, 133, -1,
      133, 113, 112, -1,
      133, 112, 134, -1,
      134, 112, 111, -1,
      134, 111, 135, -1,
      135, 111, 110, -1,
      135, 110, 136, -1,
      136, 110, 122, -1,
      136, 122, 137, -1,
      137, 122, 123, -1,
      137, 123, 138, -1,
      138, 123, 124, -1,
      138, 124, 139, -1,
      139, 124, 125, -1,
      139, 125, 140, -1,
      140, 125, 126, -1,
      140, 126, 141, -1,
      141, 126, 127, -1,
      141, 127, 142, -1,
      142, 127, 114, -1,
      142, 114, 143, -1,
      143, 114, 115, -1,
      143, 115, 144, -1,
      144, 115, 116, -1,
      144, 116, 128, -1,
      132, 133, 145, -1,
      145, 133, 146, -1,
      132, 145, 147, -1,
      132, 147, 131, -1,
      131, 147, 148, -1,
      131, 148, 130, -1,
      130, 148, 149, -1,
      130, 149, 129, -1,
      129, 149, 150, -1,
      129, 150, 128, -1,
      128, 150, 151, -1,
      128, 151, 144, -1,
      144, 151, 152, -1,
      144, 152, 143, -1,
      143, 152, 153, -1,
      143, 153, 142, -1,
      142, 153, 154, -1,
      142, 154, 141, -1,
      141, 154, 155, -1,
      141, 155, 140, -1,
      140, 155, 156, -1,
      140, 156, 139, -1,
      139, 156, 157, -1,
      139, 157, 138, -1,
      138, 157, 158, -1,
      138, 158, 137, -1,
      137, 158, 159, -1,
      137, 159, 136, -1,
      136, 159, 160, -1,
      136, 160, 135, -1,
      134, 135, 161, -1,
      161, 135, 160, -1,
      133, 134, 146, -1,
      146, 134, 161, -1,
      162, 163, 49, -1,
      49, 163, 50, -1,
      163, 164, 50, -1,
      50, 164, 51, -1,
      164, 165, 51, -1,
      51, 165, 52, -1,
      165, 166, 52, -1,
      52, 166, 56, -1,
      166, 167, 56, -1,
      56, 167, 61, -1,
      167, 168, 61, -1,
      61, 168, 59, -1,
      168, 169, 59, -1,
      59, 169, 60, -1,
      169, 170, 60, -1,
      60, 170, 62, -1,
      170, 171, 62, -1,
      62, 171, 63, -1,
      171, 172, 63, -1,
      63, 172, 64, -1,
      172, 173, 64, -1,
      64, 173, 65, -1,
      173, 162, 65, -1,
      65, 162, 49, -1,
      164, 163, 162, -1,
      162, 173, 164, -1,
      164, 173, 172, -1,
      164, 172, 165, -1,
      167, 166, 168, -1,
      168, 166, 165, -1,
      168, 165, 169, -1,
      169, 165, 172, -1,
      169, 172, 170, -1,
      170, 172, 171, -1,
      174, 175, 4, -1,
      4, 175, 3, -1,
      3, 175, 176, -1,
      177, 47, 44, -1,
      177, 44, 178, -1,
      178, 44, 45, -1,
      178, 45, 176, -1,
      176, 45, 46, -1,
      176, 46, 3, -1,
      179, 40, 39, -1,
      179, 39, 180, -1,
      180, 39, 34, -1,
      180, 34, 181, -1,
      181, 34, 32, -1,
      181, 32, 182, -1,
      182, 32, 31, -1,
      182, 31, 183, -1,
      183, 31, 5, -1,
      183, 5, 184, -1,
      184, 5, 7, -1,
      184, 7, 185, -1,
      185, 7, 177, -1,
      177, 7, 8, -1,
      177, 8, 47, -1,
      186, 42, 38, -1,
      186, 38, 187, -1,
      187, 38, 37, -1,
      187, 37, 188, -1,
      188, 37, 36, -1,
      188, 36, 189, -1,
      189, 36, 27, -1,
      189, 27, 190, -1,
      190, 27, 26, -1,
      190, 26, 191, -1,
      191, 26, 41, -1,
      191, 41, 192, -1,
      192, 41, 40, -1,
      192, 40, 179, -1,
      193, 23, 43, -1,
      193, 43, 194, -1,
      194, 43, 42, -1,
      194, 42, 186, -1,
      193, 195, 23, -1,
      23, 195, 22, -1,
      196, 0, 21, -1,
      196, 21, 197, -1,
      197, 21, 22, -1,
      197, 22, 195, -1,
      198, 12, 25, -1,
      198, 25, 199, -1,
      199, 25, 24, -1,
      199, 24, 200, -1,
      200, 24, 11, -1,
      200, 11, 201, -1,
      201, 11, 10, -1,
      201, 10, 202, -1,
      202, 10, 9, -1,
      202, 9, 203, -1,
      203, 9, 1, -1,
      203, 1, 204, -1,
      204, 1, 0, -1,
      204, 0, 196, -1,
      205, 16, 15, -1,
      205, 15, 206, -1,
      206, 15, 17, -1,
      206, 17, 207, -1,
      207, 17, 18, -1,
      207, 18, 208, -1,
      208, 18, 19, -1,
      208, 19, 209, -1,
      209, 19, 14, -1,
      209, 14, 210, -1,
      210, 14, 13, -1,
      210, 13, 211, -1,
      211, 13, 12, -1,
      211, 12, 198, -1,
      174, 4, 2, -1,
      174, 2, 212, -1,
      212, 2, 20, -1,
      212, 20, 213, -1,
      213, 20, 16, -1,
      213, 16, 205, -1,
      206, 177, 205, -1,
      205, 177, 178, -1,
      205, 178, 213, -1,
      213, 178, 176, -1,
      213, 176, 212, -1,
      212, 176, 175, -1,
      212, 175, 174, -1,
      195, 193, 197, -1,
      197, 193, 194, -1,
      197, 194, 196, -1,
      196, 194, 186, -1,
      196, 186, 204, -1,
      204, 186, 187, -1,
      204, 187, 203, -1,
      203, 187, 188, -1,
      203, 188, 202, -1,
      202, 188, 189, -1,
      202, 189, 201, -1,
      201, 189, 190, -1,
      201, 190, 200, -1,
      200, 190, 191, -1,
      200, 191, 199, -1,
      199, 191, 192, -1,
      199, 192, 198, -1,
      198, 192, 179, -1,
      198, 179, 211, -1,
      211, 179, 180, -1,
      211, 180, 210, -1,
      210, 180, 181, -1,
      210, 181, 209, -1,
      209, 181, 182, -1,
      209, 182, 208, -1,
      208, 182, 183, -1,
      208, 183, 207, -1,
      207, 183, 184, -1,
      207, 184, 206, -1,
      206, 184, 185, -1,
      206, 185, 177, -1,
      214, 215, 33, -1,
      33, 215, 6, -1,
      215, 216, 6, -1,
      6, 216, 30, -1,
      216, 217, 30, -1,
      30, 217, 29, -1,
      217, 218, 29, -1,
      29, 218, 28, -1,
      218, 219, 28, -1,
      28, 219, 35, -1,
      219, 214, 35, -1,
      35, 214, 33, -1,
      218, 217, 219, -1,
      219, 217, 216, -1,
      219, 216, 214, -1,
      214, 216, 215, -1,
    ]
  }
}

Shape {
  appearance Appearance {
    material Material {
      diffuseColor 0.2235 0.2235 0.2235
      specularColor 0.1137 0.1137 0.1137
      ambientIntensity 0.2
      transparency 0.0000
      shininess 0.5
    }
  }
  geometry IndexedFaceSet {
    ccw TRUE
    solid FALSE
    coord DEF co Coordinate {
      point [
        -0.287098 -0.122211 0.000000,
        -0.352928 -0.122211 0.000000,
        -0.316469 -0.039989 0.000000,
        -0.318363 -0.033162 0.000000,
        -0.319619 -0.026186 0.000000,
        -0.320257 -0.026186 0.000000,
        -0.321541 -0.033141 0.000000,
        -0.323295 -0.039989 0.000000,
        -0.115455 -0.023785 0.000000,
        -0.086422 -0.023785 0.000000,
        -0.138754 -0.026262 0.000000,
        -0.155002 -0.031948 0.000000,
        -0.169381 -0.041237 0.000000,
        -0.178943 -0.051390 0.000000,
        -0.185781 -0.063531 0.000000,
        -0.190377 -0.079100 0.000000,
        -0.192049 -0.098692 0.000000,
        -0.190242 -0.119368 0.000000,
        -0.184468 -0.137872 0.000000,
        -0.176166 -0.151444 0.000000,
        -0.165125 -0.162349 0.000000,
        -0.151700 -0.170321 0.000000,
        -0.135135 -0.175492 0.000000,
        -0.114367 -0.177425 0.000000,
        -0.086422 -0.177425 0.000000,
      ]
    }
    coordIndex [
      0, 1, 2, -1,
      2, 1, 7, -1,
      2, 7, 3, -1,
      3, 7, 6, -1,
      3, 6, 4, -1,
      4, 6, 5, -1,
      9, 24, 8, -1,
      8, 24, 23, -1,
      8, 23, 22, -1,
      16, 15, 8, -1,
      8, 15, 14, -1,
      8, 14, 10, -1,
      22, 21, 8, -1,
      8, 21, 20, -1,
      8, 20, 19, -1,
      19, 18, 8, -1,
      8, 18, 17, -1,
      8, 17, 16, -1,
      13, 12, 14, -1,
      14, 12, 11, -1,
      14, 11, 10, -1,
    ]
  }
}
