#VRML V2.0 utf8

Shape {
  appearance Appearance {
    material Material {
      diffuseColor 1.0000 1.0000 1.0000
      specularColor 0.5020 0.5020 0.5020
      ambientIntensity 0.2
      transparency 0.0000
      shininess 0.5
    }
  }
  geometry IndexedFaceSet {
    ccw TRUE
    solid FALSE
    coord DEF co Coordinate {
      point [
        -0.850394 0.625984 0.118110,
        -1.232283 0.625984 0.118110,
        -0.850394 -0.625984 0.118110,
        -1.232283 -0.625984 0.118110,
        -0.850394 0.625984 0.000000,
        -0.850394 -0.625984 0.000000,
        -1.232283 0.625984 0.000000,
        -1.232283 -0.625984 0.000000,
        -1.350394 -0.625984 0.118110,
        -1.350394 -0.625984 0.590551,
        -1.350394 0.625984 0.118110,
        -1.350394 0.625984 0.590551,
        -1.232283 -0.625984 0.708661,
        -0.850394 -0.625984 0.708661,
        -1.232283 0.625984 0.708661,
        -0.850394 0.625984 0.708661,
        -0.850394 0.625984 0.590551,
        -0.850394 -0.625984 0.590551,
        -1.232283 0.625984 0.590551,
        -1.232283 -0.625984 0.590551,
        -1.305924 0.625984 0.682893,
        -1.283530 0.625984 0.696965,
        -1.258565 0.625984 0.705700,
        -1.258565 0.625984 0.002961,
        -1.347432 0.625984 0.616833,
        -1.338697 0.625984 0.641797,
        -1.324626 0.625984 0.664192,
        -1.283530 0.625984 0.011696,
        -1.305924 0.625984 0.025768,
        -1.324626 0.625984 0.044470,
        -1.338697 0.625984 0.066864,
        -1.347432 0.625984 0.091828,
        -1.305924 -0.625984 0.025768,
        -1.283530 -0.625984 0.011696,
        -1.258565 -0.625984 0.002961,
        -1.258565 -0.625984 0.705700,
        -1.283530 -0.625984 0.696965,
        -1.305924 -0.625984 0.682893,
        -1.324626 -0.625984 0.664192,
        -1.338697 -0.625984 0.641797,
        -1.347432 -0.625984 0.616833,
        -1.347432 -0.625984 0.091828,
        -1.338697 -0.625984 0.066864,
        -1.324626 -0.625984 0.044470,
        1.232283 -0.625984 -0.000000,
        0.850394 -0.625984 -0.000000,
        1.232283 0.625984 -0.000000,
        0.850394 0.625984 -0.000000,
        0.850394 0.625984 0.118110,
        0.850394 -0.625984 0.118110,
        1.232283 0.625984 0.118110,
        1.232283 -0.625984 0.118110,
        1.232283 0.625984 0.590551,
        1.232283 -0.625984 0.590551,
        0.850394 0.625984 0.590551,
        0.850394 -0.625984 0.590551,
        0.850394 0.625984 0.708661,
        0.850394 -0.625984 0.708661,
        1.232283 0.625984 0.708661,
        1.232283 -0.625984 0.708661,
        1.350394 0.625984 0.118110,
        1.350394 0.625984 0.590551,
        1.350394 -0.625984 0.118110,
        1.350394 -0.625984 0.590551,
        1.258565 0.625984 0.705700,
        1.283530 0.625984 0.696965,
        1.305924 0.625984 0.682893,
        1.324626 0.625984 0.664192,
        1.305924 0.625984 0.025768,
        1.283530 0.625984 0.011696,
        1.347432 0.625984 0.091828,
        1.338697 0.625984 0.066864,
        1.324626 0.625984 0.044470,
        1.258565 0.625984 0.002961,
        1.338697 0.625984 0.641797,
        1.347432 0.625984 0.616833,
        1.305924 -0.625984 0.682893,
        1.283530 -0.625984 0.696965,
        1.258565 -0.625984 0.705700,
        1.305924 -0.625984 0.025768,
        1.324626 -0.625984 0.044470,
        1.338697 -0.625984 0.066864,
        1.347432 -0.625984 0.091828,
        1.347432 -0.625984 0.616833,
        1.258565 -0.625984 0.002961,
        1.283530 -0.625984 0.011696,
        1.338697 -0.625984 0.641797,
        1.324626 -0.625984 0.664192,
      ]
    }
    coordIndex [
      0, 1, 2, -1,
      2, 1, 3, -1,
      4, 0, 5, -1,
      5, 0, 2, -1,
      6, 4, 7, -1,
      7, 4, 5, -1,
      8, 9, 10, -1,
      10, 9, 11, -1,
      12, 13, 14, -1,
      14, 13, 15, -1,
      16, 15, 17, -1,
      17, 15, 13, -1,
      18, 16, 19, -1,
      19, 16, 17, -1,
      1, 18, 3, -1,
      3, 18, 19, -1,
      20, 21, 18, -1,
      15, 16, 14, -1,
      14, 16, 18, -1,
      14, 18, 22, -1,
      22, 18, 21, -1,
      0, 4, 1, -1,
      1, 4, 6, -1,
      1, 6, 23, -1,
      1, 10, 18, -1,
      18, 10, 11, -1,
      18, 11, 24, -1,
      24, 25, 18, -1,
      18, 25, 26, -1,
      18, 26, 20, -1,
      23, 27, 1, -1,
      1, 27, 28, -1,
      1, 28, 29, -1,
      29, 30, 1, -1,
      1, 30, 31, -1,
      1, 31, 10, -1,
      5, 2, 7, -1,
      7, 2, 3, -1,
      19, 17, 13, -1,
      32, 33, 3, -1,
      3, 33, 34, -1,
      3, 34, 7, -1,
      13, 12, 19, -1,
      19, 12, 35, -1,
      19, 35, 36, -1,
      36, 37, 19, -1,
      19, 37, 38, -1,
      19, 38, 39, -1,
      39, 40, 19, -1,
      19, 40, 9, -1,
      19, 9, 3, -1,
      3, 9, 8, -1,
      3, 8, 41, -1,
      41, 42, 3, -1,
      3, 42, 43, -1,
      3, 43, 32, -1,
      6, 7, 34, -1,
      6, 34, 23, -1,
      23, 34, 33, -1,
      23, 33, 27, -1,
      27, 33, 32, -1,
      27, 32, 28, -1,
      28, 32, 43, -1,
      28, 43, 29, -1,
      29, 43, 42, -1,
      29, 42, 30, -1,
      30, 42, 41, -1,
      30, 41, 31, -1,
      31, 41, 8, -1,
      31, 8, 10, -1,
      11, 9, 40, -1,
      11, 40, 24, -1,
      24, 40, 39, -1,
      24, 39, 25, -1,
      25, 39, 38, -1,
      25, 38, 26, -1,
      26, 38, 37, -1,
      26, 37, 20, -1,
      20, 37, 36, -1,
      20, 36, 21, -1,
      21, 36, 35, -1,
      21, 35, 22, -1,
      22, 35, 12, -1,
      22, 12, 14, -1,
      44, 45, 46, -1,
      46, 45, 47, -1,
      48, 47, 49, -1,
      49, 47, 45, -1,
      50, 48, 51, -1,
      51, 48, 49, -1,
      52, 50, 53, -1,
      53, 50, 51, -1,
      54, 52, 55, -1,
      55, 52, 53, -1,
      56, 54, 57, -1,
      57, 54, 55, -1,
      58, 56, 59, -1,
      59, 56, 57, -1,
      60, 61, 62, -1,
      62, 61, 63, -1,
      54, 56, 52, -1,
      52, 56, 58, -1,
      52, 58, 64, -1,
      64, 65, 52, -1,
      52, 65, 66, -1,
      52, 66, 67, -1,
      50, 68, 69, -1,
      52, 61, 50, -1,
      50, 61, 60, -1,
      50, 60, 70, -1,
      70, 71, 50, -1,
      50, 71, 72, -1,
      50, 72, 68, -1,
      47, 48, 46, -1,
      46, 48, 50, -1,
      46, 50, 73, -1,
      73, 50, 69, -1,
      67, 74, 52, -1,
      52, 74, 75, -1,
      52, 75, 61, -1,
      53, 76, 77, -1,
      57, 55, 59, -1,
      59, 55, 53, -1,
      59, 53, 78, -1,
      78, 53, 77, -1,
      49, 45, 51, -1,
      51, 45, 44, -1,
      79, 80, 51, -1,
      51, 80, 81, -1,
      81, 82, 51, -1,
      51, 82, 62, -1,
      51, 62, 53, -1,
      53, 62, 63, -1,
      53, 63, 83, -1,
      44, 84, 51, -1,
      51, 84, 85, -1,
      51, 85, 79, -1,
      83, 86, 53, -1,
      53, 86, 87, -1,
      53, 87, 76, -1,
      60, 62, 82, -1,
      60, 82, 70, -1,
      70, 82, 81, -1,
      70, 81, 71, -1,
      71, 81, 80, -1,
      71, 80, 72, -1,
      72, 80, 79, -1,
      72, 79, 68, -1,
      68, 79, 85, -1,
      68, 85, 69, -1,
      69, 85, 84, -1,
      69, 84, 73, -1,
      73, 84, 44, -1,
      73, 44, 46, -1,
      58, 59, 78, -1,
      58, 78, 64, -1,
      64, 78, 77, -1,
      64, 77, 65, -1,
      65, 77, 76, -1,
      65, 76, 66, -1,
      66, 76, 87, -1,
      66, 87, 67, -1,
      67, 87, 86, -1,
      67, 86, 74, -1,
      74, 86, 83, -1,
      74, 83, 75, -1,
      75, 83, 63, -1,
      75, 63, 61, -1,
    ]
  }
}

Shape {
  appearance Appearance {
    material Material {
      diffuseColor 0.5373 0.4863 0.5098
      specularColor 0.2667 0.2431 0.2549
      ambientIntensity 0.2
      transparency 0.0000
      shininess 0.5
    }
  }
  geometry IndexedFaceSet {
    ccw TRUE
    solid FALSE
    coord DEF co Coordinate {
      point [
        0.791339 -0.132631 0.059055,
        0.791339 -0.685039 0.059055,
        0.021442 -1.273622 0.059055,
        1.273622 -0.685039 0.059055,
        1.273622 -1.103806 0.059055,
        1.267836 -1.147757 0.059055,
        1.250871 -1.188714 0.059055,
        1.223884 -1.223884 0.059055,
        1.188714 -1.250871 0.059055,
        1.147757 -1.267836 0.059055,
        1.103806 -1.273622 0.059055,
        0.287910 0.065419 0.059055,
        0.021442 1.273622 0.059055,
        0.314317 0.065419 0.059055,
        0.391136 -0.131431 0.059055,
        0.021442 -0.132631 0.059055,
        0.213491 -0.131431 0.059055,
        0.242298 -0.131431 0.059055,
        0.192369 0.007387 0.059055,
        0.183221 0.024317 0.059055,
        0.124638 0.062379 0.059055,
        0.096198 0.065419 0.059055,
        0.040646 0.065419 0.059055,
        0.141212 -0.122544 0.059055,
        0.161766 -0.110600 0.059055,
        0.177969 -0.095086 0.059055,
        0.197656 -0.012007 0.059055,
        0.261091 -0.076217 0.059055,
        0.342411 -0.076217 0.059055,
        0.362329 -0.131431 0.059055,
        1.223884 1.223884 0.059055,
        1.250871 1.188714 0.059055,
        1.188714 1.250871 0.059055,
        1.267836 1.147757 0.059055,
        1.273622 1.103806 0.059055,
        0.169301 0.039752 0.059055,
        0.169095 0.039933 0.059055,
        0.147669 0.054292 0.059055,
        0.040646 -0.131431 0.059055,
        0.094173 -0.131431 0.059055,
        0.118530 -0.129305 0.059055,
        0.189257 -0.077479 0.059055,
        0.196325 -0.056874 0.059055,
        0.199087 -0.030530 0.059055,
        -0.182675 -0.132631 0.059055,
        -0.103391 -0.131431 0.059055,
        -0.162783 -0.129844 0.059055,
        -0.141800 -0.121228 0.059055,
        -0.254490 -0.073348 0.059055,
        -0.259838 -0.056417 0.059055,
        -0.145328 -0.101577 0.059055,
        -0.261831 -0.035106 0.059055,
        -0.260892 -0.019791 0.059055,
        -0.141800 0.033611 0.059055,
        -0.141800 -0.099623 0.059055,
        -0.163973 0.043106 0.059055,
        -0.187900 0.046215 0.059055,
        -0.235642 0.029605 0.059055,
        -0.222017 0.038720 0.059055,
        -0.207283 0.044037 0.059055,
        -0.248539 0.049068 0.059055,
        -0.266311 0.031976 0.059055,
        -0.379461 0.065419 0.059055,
        -0.076983 -0.109826 0.059055,
        -0.076983 -0.042608 0.059055,
        0.002237 -0.109826 0.059055,
        -0.007366 -0.042608 0.059055,
        -0.007366 -0.021003 0.059055,
        -0.076983 -0.021003 0.059055,
        -0.076983 0.043814 0.059055,
        -0.002565 0.043814 0.059055,
        -0.002565 0.065419 0.059055,
        -0.305042 -0.109826 0.059055,
        -0.280410 -0.080354 0.059055,
        -0.305042 -0.131431 0.059055,
        -0.269923 -0.099071 0.059055,
        -0.255137 -0.114638 0.059055,
        -0.229841 0.059830 0.059055,
        -1.188714 1.250871 0.059055,
        -0.103391 0.065419 0.059055,
        -1.223884 1.223884 0.059055,
        -1.250871 1.188714 0.059055,
        0.002237 -0.131431 0.059055,
        -1.103806 1.273622 0.059055,
        -1.147757 1.267836 0.059055,
        -0.210686 -0.110167 0.059055,
        -0.225030 -0.104886 0.059055,
        -0.192326 -0.112226 0.059055,
        -0.237111 -0.096743 0.059055,
        -0.166196 -0.109326 0.059055,
        -0.246348 -0.086998 0.059055,
        -0.285406 -0.008733 0.059055,
        -0.288238 -0.036719 0.059055,
        -0.286334 -0.059517 0.059055,
        -0.239303 -0.124749 0.059055,
        -0.220223 -0.131317 0.059055,
        -0.207541 -0.132631 0.059055,
        -0.255645 0.001283 0.059055,
        -0.247530 0.016482 0.059055,
        -0.379461 -0.109826 0.059055,
        -0.277849 0.013572 0.059055,
        -0.405868 -0.131431 0.059055,
        -0.791339 -0.132631 0.059055,
        -0.405868 0.065419 0.059055,
        -0.791339 0.685039 0.059055,
        -1.273622 0.685039 0.059055,
        -1.273622 1.103806 0.059055,
        -1.267836 1.147757 0.059055,
        -0.141800 0.060018 0.059055,
        -0.164559 0.066194 0.059055,
        -0.188124 0.067820 0.059055,
        -0.207896 0.066206 0.059055,
        -0.195964 -0.133832 0.059055,
        -0.190581 -0.133739 0.059055,
        -1.267836 -1.147757 0.059055,
        -1.273622 -1.103806 0.059055,
        -1.103806 -1.273622 0.059055,
        -1.273622 -0.685039 0.059055,
        0.791339 0.685039 0.059055,
        1.273622 0.685039 0.059055,
        1.103806 1.273622 0.059055,
        1.147757 1.267836 0.059055,
        -1.147757 -1.267836 0.059055,
        -1.188714 -1.250871 0.059055,
        -1.223884 -1.223884 0.059055,
        -0.791339 -0.685039 0.059055,
        -1.250871 -1.188714 0.059055,
        1.273622 0.685039 0.720472,
        1.273622 1.103806 1.102362,
        1.273622 -0.685039 0.720472,
        1.273622 -1.103806 1.102362,
        -1.103806 1.273622 1.102362,
        1.103806 1.273622 1.102362,
        -1.273622 -0.685039 0.720472,
        -1.273622 -1.103806 1.102362,
        -1.273622 0.685039 0.720472,
        -1.273622 1.103806 1.102362,
        -1.103806 -1.273622 1.102362,
        1.103806 -1.273622 1.102362,
        1.194882 -1.103806 1.181102,
        1.194882 1.103806 1.181102,
        1.103806 -1.194882 1.181102,
        -1.103806 -1.194882 1.181102,
        -1.124072 -1.192598 1.181102,
        -1.192598 -1.124072 1.181102,
        -1.103806 1.194882 1.181102,
        -1.194882 1.103806 1.181102,
        1.103806 1.194882 1.181102,
        -1.194882 -1.103806 1.181102,
        -1.175012 1.160591 1.181102,
        -1.185863 1.143322 1.181102,
        -1.160591 1.175012 1.181102,
        -1.143322 1.185863 1.181102,
        -1.124072 1.192598 1.181102,
        -1.192598 1.124072 1.181102,
        1.175012 -1.160591 1.181102,
        1.185863 -1.143322 1.181102,
        1.160591 -1.175012 1.181102,
        1.143322 -1.185863 1.181102,
        1.124072 -1.192598 1.181102,
        1.192598 -1.124072 1.181102,
        1.160591 1.175012 1.181102,
        1.143322 1.185863 1.181102,
        1.175012 1.160591 1.181102,
        1.185863 1.143322 1.181102,
        1.192598 1.124072 1.181102,
        1.124072 1.192598 1.181102,
        -1.185863 -1.143322 1.181102,
        -1.175012 -1.160591 1.181102,
        -1.160591 -1.175012 1.181102,
        -1.143322 -1.185863 1.181102,
        1.141593 -1.269365 1.102362,
        1.147562 -1.267276 1.102362,
        1.177486 -1.256805 1.102362,
        1.188209 -1.250067 1.102362,
        1.209685 -1.236574 1.102362,
        1.223129 -1.223129 1.102362,
        1.236574 -1.209685 1.102362,
        1.250067 -1.188209 1.102362,
        1.256805 -1.177486 1.102362,
        1.267276 -1.147562 1.102362,
        1.269365 -1.141593 1.102362,
        -1.269365 -1.141593 1.102362,
        -1.267276 -1.147562 1.102362,
        -1.256805 -1.177486 1.102362,
        -1.250067 -1.188209 1.102362,
        -1.236574 -1.209685 1.102362,
        -1.223129 -1.223129 1.102362,
        -1.209685 -1.236574 1.102362,
        -1.188209 -1.250067 1.102362,
        -1.177486 -1.256805 1.102362,
        -1.147562 -1.267276 1.102362,
        -1.141593 -1.269365 1.102362,
        1.269365 1.141593 1.102362,
        1.267276 1.147562 1.102362,
        1.256805 1.177486 1.102362,
        1.250067 1.188209 1.102362,
        1.236574 1.209685 1.102362,
        1.223129 1.223129 1.102362,
        1.209685 1.236574 1.102362,
        1.188209 1.250067 1.102362,
        1.177486 1.256805 1.102362,
        1.147562 1.267276 1.102362,
        1.141593 1.269365 1.102362,
        -1.141593 1.269365 1.102362,
        -1.147562 1.267276 1.102362,
        -1.177486 1.256805 1.102362,
        -1.188209 1.250067 1.102362,
        -1.209685 1.236574 1.102362,
        -1.223129 1.223129 1.102362,
        -1.236574 1.209685 1.102362,
        -1.250067 1.188209 1.102362,
        -1.256805 1.177486 1.102362,
        -1.267276 1.147562 1.102362,
        -1.269365 1.141593 1.102362,
        -1.215261 -1.103806 1.178419,
        -1.212467 -1.128607 1.178419,
        -1.234252 -1.103806 1.170553,
        -1.230981 -1.132833 1.170553,
        -1.250559 -1.103806 1.158040,
        -1.246880 -1.136461 1.158040,
        -1.263073 -1.103806 1.141732,
        -1.259080 -1.139246 1.141732,
        -1.270939 -1.103806 1.122742,
        -1.266749 -1.140996 1.122742,
        -1.254388 -1.176322 1.122742,
        -1.234476 -1.208012 1.122742,
        -1.208012 -1.234476 1.122742,
        -1.176322 -1.254388 1.122742,
        -1.140996 -1.266749 1.122742,
        -1.103806 -1.270939 1.122742,
        -1.247300 -1.172909 1.141732,
        -1.228326 -1.203107 1.141732,
        -1.203107 -1.228326 1.141732,
        -1.172909 -1.247300 1.141732,
        -1.139246 -1.259080 1.141732,
        -1.103806 -1.263073 1.141732,
        -1.236026 -1.167480 1.158040,
        -1.218543 -1.195306 1.158040,
        -1.195306 -1.218543 1.158040,
        -1.167480 -1.236026 1.158040,
        -1.136461 -1.246880 1.158040,
        -1.103806 -1.250559 1.158040,
        -1.221334 -1.160404 1.170553,
        -1.205793 -1.185138 1.170553,
        -1.185138 -1.205793 1.170553,
        -1.160404 -1.221334 1.170553,
        -1.132833 -1.230981 1.170553,
        -1.103806 -1.234252 1.170553,
        -1.204224 -1.152165 1.178419,
        -1.190945 -1.173297 1.178419,
        -1.173297 -1.190945 1.178419,
        -1.152165 -1.204224 1.178419,
        -1.128607 -1.212467 1.178419,
        -1.103806 -1.215261 1.178419,
        1.103806 -1.270939 1.122742,
        1.103806 -1.263073 1.141732,
        1.103806 -1.250559 1.158040,
        1.103806 -1.234252 1.170553,
        1.103806 -1.215261 1.178419,
        -1.270939 1.103806 1.122742,
        -1.263073 1.103806 1.141732,
        -1.250559 1.103806 1.158040,
        -1.234252 1.103806 1.170553,
        -1.215261 1.103806 1.178419,
        1.128607 -1.212467 1.178419,
        1.132833 -1.230981 1.170553,
        1.136461 -1.246880 1.158040,
        1.139246 -1.259080 1.141732,
        1.140996 -1.266749 1.122742,
        1.176322 -1.254388 1.122742,
        1.208012 -1.234476 1.122742,
        1.234476 -1.208012 1.122742,
        1.254388 -1.176322 1.122742,
        1.266749 -1.140996 1.122742,
        1.270939 -1.103806 1.122742,
        1.172909 -1.247300 1.141732,
        1.203107 -1.228326 1.141732,
        1.228326 -1.203107 1.141732,
        1.247300 -1.172909 1.141732,
        1.259080 -1.139246 1.141732,
        1.263073 -1.103806 1.141732,
        1.167480 -1.236026 1.158040,
        1.195306 -1.218543 1.158040,
        1.218543 -1.195306 1.158040,
        1.236026 -1.167480 1.158040,
        1.246880 -1.136461 1.158040,
        1.250559 -1.103806 1.158040,
        1.160404 -1.221334 1.170553,
        1.185138 -1.205793 1.170553,
        1.205793 -1.185138 1.170553,
        1.221334 -1.160404 1.170553,
        1.230981 -1.132833 1.170553,
        1.234252 -1.103806 1.170553,
        1.152165 -1.204224 1.178419,
        1.173297 -1.190945 1.178419,
        1.190945 -1.173297 1.178419,
        1.204224 -1.152165 1.178419,
        1.212467 -1.128607 1.178419,
        1.215261 -1.103806 1.178419,
        -1.103806 1.215261 1.178419,
        -1.128607 1.212467 1.178419,
        -1.103806 1.234252 1.170553,
        -1.132833 1.230981 1.170553,
        -1.103806 1.250559 1.158040,
        -1.136461 1.246880 1.158040,
        -1.103806 1.263073 1.141732,
        -1.139246 1.259080 1.141732,
        -1.103806 1.270939 1.122742,
        -1.140996 1.266749 1.122742,
        -1.176322 1.254388 1.122742,
        -1.208012 1.234476 1.122742,
        -1.234476 1.208012 1.122742,
        -1.254388 1.176322 1.122742,
        -1.266749 1.140996 1.122742,
        -1.172909 1.247300 1.141732,
        -1.203107 1.228326 1.141732,
        -1.228326 1.203107 1.141732,
        -1.247300 1.172909 1.141732,
        -1.259080 1.139246 1.141732,
        -1.167480 1.236026 1.158040,
        -1.195306 1.218543 1.158040,
        -1.218543 1.195306 1.158040,
        -1.236026 1.167480 1.158040,
        -1.246880 1.136461 1.158040,
        -1.160404 1.221334 1.170553,
        -1.185138 1.205793 1.170553,
        -1.205793 1.185138 1.170553,
        -1.221334 1.160404 1.170553,
        -1.230981 1.132833 1.170553,
        -1.152165 1.204224 1.178419,
        -1.173297 1.190945 1.178419,
        -1.190945 1.173297 1.178419,
        -1.204224 1.152165 1.178419,
        -1.212467 1.128607 1.178419,
        1.270939 1.103806 1.122742,
        1.263073 1.103806 1.141732,
        1.250559 1.103806 1.158040,
        1.234252 1.103806 1.170553,
        1.215261 1.103806 1.178419,
        1.103806 1.270939 1.122742,
        1.103806 1.263073 1.141732,
        1.103806 1.250559 1.158040,
        1.103806 1.234252 1.170553,
        1.103806 1.215261 1.178419,
        1.212467 1.128607 1.178419,
        1.230981 1.132833 1.170553,
        1.246880 1.136461 1.158040,
        1.259080 1.139246 1.141732,
        1.266749 1.140996 1.122742,
        1.254388 1.176322 1.122742,
        1.234476 1.208012 1.122742,
        1.208012 1.234476 1.122742,
        1.176322 1.254388 1.122742,
        1.140996 1.266749 1.122742,
        1.247300 1.172909 1.141732,
        1.228326 1.203107 1.141732,
        1.203107 1.228326 1.141732,
        1.172909 1.247300 1.141732,
        1.139246 1.259080 1.141732,
        1.236026 1.167480 1.158040,
        1.218543 1.195306 1.158040,
        1.195306 1.218543 1.158040,
        1.167480 1.236026 1.158040,
        1.136461 1.246880 1.158040,
        1.221334 1.160404 1.170553,
        1.205793 1.185138 1.170553,
        1.185138 1.205793 1.170553,
        1.160404 1.221334 1.170553,
        1.132833 1.230981 1.170553,
        1.204224 1.152165 1.178419,
        1.190945 1.173297 1.178419,
        1.173297 1.190945 1.178419,
        1.152165 1.204224 1.178419,
        1.128607 1.212467 1.178419,
        -0.791339 -0.685039 0.141732,
        -1.208661 -0.685039 0.141732,
        -1.208661 -0.685039 0.566929,
        -0.791339 -0.685039 0.566929,
        -0.791339 -0.685039 0.720472,
        -0.791339 0.685039 0.566929,
        -0.791339 0.685039 0.720472,
        -1.208661 0.685039 0.566929,
        -1.208661 0.685039 0.141732,
        -0.791339 0.685039 0.141732,
        0.791339 -0.685039 0.566929,
        0.791339 -0.685039 0.720472,
        1.208661 -0.685039 0.566929,
        1.208661 -0.685039 0.141732,
        0.791339 -0.685039 0.141732,
        0.791339 0.685039 0.141732,
        1.208661 0.685039 0.141732,
        1.208661 0.685039 0.566929,
        0.791339 0.685039 0.566929,
        0.791339 0.685039 0.720472,
      ]
    }
    coordIndex [
      0, 1, 2, -1,
      2, 1, 3, -1,
      2, 3, 4, -1,
      5, 6, 4, -1,
      4, 6, 7, -1,
      4, 7, 8, -1,
      8, 9, 4, -1,
      4, 9, 10, -1,
      4, 10, 2, -1,
      11, 12, 13, -1,
      13, 12, 14, -1,
      15, 16, 17, -1,
      18, 19, 11, -1,
      20, 21, 12, -1,
      12, 21, 22, -1,
      12, 22, 15, -1,
      23, 24, 16, -1,
      16, 24, 25, -1,
      18, 11, 26, -1,
      27, 28, 17, -1,
      17, 28, 29, -1,
      17, 29, 15, -1,
      15, 29, 14, -1,
      30, 31, 32, -1,
      32, 31, 33, -1,
      32, 33, 34, -1,
      19, 35, 11, -1,
      11, 35, 36, -1,
      11, 36, 12, -1,
      12, 36, 37, -1,
      12, 37, 20, -1,
      22, 38, 15, -1,
      15, 38, 39, -1,
      15, 39, 16, -1,
      16, 39, 40, -1,
      16, 40, 23, -1,
      25, 41, 16, -1,
      16, 41, 42, -1,
      16, 42, 11, -1,
      11, 42, 43, -1,
      11, 43, 26, -1,
      15, 44, 45, -1,
      45, 44, 46, -1,
      45, 46, 47, -1,
      48, 49, 50, -1,
      50, 49, 51, -1,
      50, 51, 52, -1,
      53, 54, 55, -1,
      55, 54, 50, -1,
      55, 50, 56, -1,
      57, 58, 50, -1,
      50, 58, 59, -1,
      50, 59, 56, -1,
      60, 61, 62, -1,
      63, 64, 65, -1,
      65, 64, 66, -1,
      65, 66, 67, -1,
      68, 69, 67, -1,
      67, 69, 70, -1,
      67, 70, 65, -1,
      65, 70, 71, -1,
      72, 73, 74, -1,
      74, 73, 75, -1,
      74, 75, 76, -1,
      60, 62, 77, -1,
      78, 79, 80, -1,
      80, 79, 81, -1,
      45, 82, 15, -1,
      15, 82, 65, -1,
      15, 65, 12, -1,
      12, 65, 71, -1,
      12, 71, 83, -1,
      83, 71, 79, -1,
      83, 79, 84, -1,
      84, 79, 78, -1,
      85, 86, 87, -1,
      87, 86, 88, -1,
      87, 88, 89, -1,
      89, 88, 50, -1,
      50, 88, 90, -1,
      50, 90, 48, -1,
      91, 92, 72, -1,
      72, 92, 93, -1,
      72, 93, 73, -1,
      76, 94, 74, -1,
      74, 94, 95, -1,
      74, 95, 96, -1,
      52, 97, 50, -1,
      50, 97, 98, -1,
      50, 98, 57, -1,
      72, 99, 91, -1,
      91, 99, 62, -1,
      91, 62, 100, -1,
      100, 62, 61, -1,
      101, 102, 103, -1,
      103, 102, 104, -1,
      103, 104, 62, -1,
      105, 106, 104, -1,
      104, 106, 107, -1,
      104, 107, 81, -1,
      47, 54, 45, -1,
      45, 54, 53, -1,
      45, 53, 79, -1,
      79, 53, 108, -1,
      79, 108, 81, -1,
      81, 108, 109, -1,
      81, 109, 104, -1,
      104, 109, 110, -1,
      104, 110, 62, -1,
      62, 110, 111, -1,
      62, 111, 77, -1,
      112, 113, 2, -1,
      114, 115, 116, -1,
      116, 115, 117, -1,
      116, 117, 2, -1,
      112, 2, 96, -1,
      113, 44, 2, -1,
      2, 44, 15, -1,
      2, 15, 0, -1,
      0, 15, 14, -1,
      0, 14, 118, -1,
      118, 14, 12, -1,
      118, 12, 119, -1,
      119, 12, 120, -1,
      119, 120, 34, -1,
      34, 120, 121, -1,
      34, 121, 32, -1,
      122, 123, 124, -1,
      117, 125, 2, -1,
      2, 125, 102, -1,
      2, 102, 96, -1,
      96, 102, 101, -1,
      96, 101, 74, -1,
      122, 124, 116, -1,
      116, 124, 126, -1,
      116, 126, 114, -1,
      119, 34, 127, -1,
      127, 34, 128, -1,
      127, 128, 129, -1,
      129, 128, 130, -1,
      129, 130, 3, -1,
      3, 130, 4, -1,
      83, 131, 12, -1,
      12, 131, 132, -1,
      12, 132, 120, -1,
      117, 115, 133, -1,
      133, 115, 134, -1,
      133, 134, 135, -1,
      135, 134, 136, -1,
      135, 136, 105, -1,
      105, 136, 106, -1,
      137, 116, 138, -1,
      138, 116, 2, -1,
      138, 2, 10, -1,
      139, 140, 141, -1,
      141, 140, 142, -1,
      143, 142, 144, -1,
      145, 146, 147, -1,
      147, 146, 140, -1,
      140, 146, 142, -1,
      142, 146, 148, -1,
      142, 148, 144, -1,
      149, 150, 151, -1,
      151, 150, 152, -1,
      145, 153, 146, -1,
      146, 153, 152, -1,
      146, 152, 154, -1,
      154, 152, 150, -1,
      155, 156, 157, -1,
      157, 156, 158, -1,
      141, 159, 139, -1,
      139, 159, 158, -1,
      139, 158, 160, -1,
      160, 158, 156, -1,
      161, 162, 163, -1,
      163, 162, 164, -1,
      140, 165, 147, -1,
      147, 165, 164, -1,
      147, 164, 166, -1,
      166, 164, 162, -1,
      144, 167, 168, -1,
      168, 169, 144, -1,
      144, 169, 170, -1,
      144, 170, 143, -1,
      138, 10, 171, -1,
      171, 10, 9, -1,
      171, 9, 172, -1,
      172, 9, 173, -1,
      173, 9, 8, -1,
      173, 8, 174, -1,
      174, 8, 175, -1,
      175, 8, 7, -1,
      175, 7, 176, -1,
      176, 7, 177, -1,
      177, 7, 6, -1,
      177, 6, 178, -1,
      178, 6, 179, -1,
      179, 6, 5, -1,
      179, 5, 180, -1,
      180, 5, 181, -1,
      181, 5, 4, -1,
      181, 4, 130, -1,
      134, 115, 182, -1,
      182, 115, 114, -1,
      182, 114, 183, -1,
      183, 114, 184, -1,
      184, 114, 126, -1,
      184, 126, 185, -1,
      185, 126, 186, -1,
      186, 126, 124, -1,
      186, 124, 187, -1,
      187, 124, 188, -1,
      188, 124, 123, -1,
      188, 123, 189, -1,
      189, 123, 190, -1,
      190, 123, 122, -1,
      190, 122, 191, -1,
      191, 122, 192, -1,
      192, 122, 116, -1,
      192, 116, 137, -1,
      128, 34, 193, -1,
      193, 34, 33, -1,
      193, 33, 194, -1,
      194, 33, 195, -1,
      195, 33, 31, -1,
      195, 31, 196, -1,
      196, 31, 197, -1,
      197, 31, 30, -1,
      197, 30, 198, -1,
      198, 30, 199, -1,
      199, 30, 32, -1,
      199, 32, 200, -1,
      200, 32, 201, -1,
      201, 32, 121, -1,
      201, 121, 202, -1,
      202, 121, 203, -1,
      203, 121, 120, -1,
      203, 120, 132, -1,
      131, 83, 204, -1,
      204, 83, 84, -1,
      204, 84, 205, -1,
      205, 84, 206, -1,
      206, 84, 78, -1,
      206, 78, 207, -1,
      207, 78, 208, -1,
      208, 78, 80, -1,
      208, 80, 209, -1,
      209, 80, 210, -1,
      210, 80, 81, -1,
      210, 81, 211, -1,
      211, 81, 212, -1,
      212, 81, 107, -1,
      212, 107, 213, -1,
      213, 107, 214, -1,
      214, 107, 106, -1,
      214, 106, 136, -1,
      148, 215, 216, -1,
      215, 217, 218, -1,
      217, 219, 220, -1,
      219, 221, 222, -1,
      221, 223, 224, -1,
      223, 134, 182, -1,
      223, 182, 224, -1,
      224, 182, 183, -1,
      224, 183, 225, -1,
      183, 184, 225, -1,
      225, 184, 185, -1,
      225, 185, 226, -1,
      226, 185, 186, -1,
      226, 186, 227, -1,
      186, 187, 227, -1,
      227, 187, 188, -1,
      227, 188, 228, -1,
      228, 188, 189, -1,
      189, 190, 228, -1,
      228, 190, 191, -1,
      228, 191, 229, -1,
      191, 192, 229, -1,
      229, 192, 137, -1,
      229, 137, 230, -1,
      221, 224, 222, -1,
      222, 224, 225, -1,
      222, 225, 231, -1,
      231, 225, 226, -1,
      231, 226, 232, -1,
      232, 226, 227, -1,
      232, 227, 233, -1,
      233, 227, 228, -1,
      233, 228, 234, -1,
      234, 228, 229, -1,
      234, 229, 235, -1,
      235, 229, 230, -1,
      235, 230, 236, -1,
      219, 222, 220, -1,
      220, 222, 231, -1,
      220, 231, 237, -1,
      237, 231, 232, -1,
      237, 232, 238, -1,
      238, 232, 233, -1,
      238, 233, 239, -1,
      239, 233, 234, -1,
      239, 234, 240, -1,
      240, 234, 235, -1,
      240, 235, 241, -1,
      241, 235, 236, -1,
      241, 236, 242, -1,
      217, 220, 218, -1,
      218, 220, 237, -1,
      218, 237, 243, -1,
      243, 237, 238, -1,
      243, 238, 244, -1,
      244, 238, 239, -1,
      244, 239, 245, -1,
      245, 239, 240, -1,
      245, 240, 246, -1,
      246, 240, 241, -1,
      246, 241, 247, -1,
      247, 241, 242, -1,
      247, 242, 248, -1,
      215, 218, 216, -1,
      216, 218, 243, -1,
      216, 243, 249, -1,
      249, 243, 244, -1,
      249, 244, 250, -1,
      250, 244, 245, -1,
      250, 245, 251, -1,
      251, 245, 246, -1,
      251, 246, 252, -1,
      252, 246, 247, -1,
      252, 247, 253, -1,
      253, 247, 248, -1,
      253, 248, 254, -1,
      148, 216, 144, -1,
      144, 216, 249, -1,
      144, 249, 167, -1,
      167, 249, 250, -1,
      167, 250, 168, -1,
      168, 250, 251, -1,
      168, 251, 169, -1,
      169, 251, 252, -1,
      169, 252, 170, -1,
      170, 252, 253, -1,
      170, 253, 143, -1,
      143, 253, 254, -1,
      143, 254, 142, -1,
      137, 138, 255, -1,
      137, 255, 230, -1,
      230, 255, 256, -1,
      230, 256, 236, -1,
      236, 256, 257, -1,
      236, 257, 242, -1,
      242, 257, 258, -1,
      242, 258, 248, -1,
      248, 258, 259, -1,
      248, 259, 254, -1,
      254, 259, 141, -1,
      254, 141, 142, -1,
      136, 134, 223, -1,
      136, 223, 260, -1,
      260, 223, 221, -1,
      260, 221, 261, -1,
      261, 221, 219, -1,
      261, 219, 262, -1,
      262, 219, 217, -1,
      262, 217, 263, -1,
      263, 217, 215, -1,
      263, 215, 264, -1,
      264, 215, 148, -1,
      264, 148, 146, -1,
      141, 259, 265, -1,
      259, 258, 266, -1,
      258, 257, 267, -1,
      257, 256, 268, -1,
      256, 255, 269, -1,
      255, 138, 171, -1,
      255, 171, 269, -1,
      269, 171, 172, -1,
      269, 172, 270, -1,
      172, 173, 270, -1,
      270, 173, 174, -1,
      270, 174, 271, -1,
      271, 174, 175, -1,
      271, 175, 272, -1,
      175, 176, 272, -1,
      272, 176, 177, -1,
      272, 177, 273, -1,
      273, 177, 178, -1,
      178, 179, 273, -1,
      273, 179, 180, -1,
      273, 180, 274, -1,
      180, 181, 274, -1,
      274, 181, 130, -1,
      274, 130, 275, -1,
      256, 269, 268, -1,
      268, 269, 270, -1,
      268, 270, 276, -1,
      276, 270, 271, -1,
      276, 271, 277, -1,
      277, 271, 272, -1,
      277, 272, 278, -1,
      278, 272, 273, -1,
      278, 273, 279, -1,
      279, 273, 274, -1,
      279, 274, 280, -1,
      280, 274, 275, -1,
      280, 275, 281, -1,
      257, 268, 267, -1,
      267, 268, 276, -1,
      267, 276, 282, -1,
      282, 276, 277, -1,
      282, 277, 283, -1,
      283, 277, 278, -1,
      283, 278, 284, -1,
      284, 278, 279, -1,
      284, 279, 285, -1,
      285, 279, 280, -1,
      285, 280, 286, -1,
      286, 280, 281, -1,
      286, 281, 287, -1,
      258, 267, 266, -1,
      266, 267, 282, -1,
      266, 282, 288, -1,
      288, 282, 283, -1,
      288, 283, 289, -1,
      289, 283, 284, -1,
      289, 284, 290, -1,
      290, 284, 285, -1,
      290, 285, 291, -1,
      291, 285, 286, -1,
      291, 286, 292, -1,
      292, 286, 287, -1,
      292, 287, 293, -1,
      259, 266, 265, -1,
      265, 266, 288, -1,
      265, 288, 294, -1,
      294, 288, 289, -1,
      294, 289, 295, -1,
      295, 289, 290, -1,
      295, 290, 296, -1,
      296, 290, 291, -1,
      296, 291, 297, -1,
      297, 291, 292, -1,
      297, 292, 298, -1,
      298, 292, 293, -1,
      298, 293, 299, -1,
      141, 265, 159, -1,
      159, 265, 294, -1,
      159, 294, 158, -1,
      158, 294, 295, -1,
      158, 295, 157, -1,
      157, 295, 296, -1,
      157, 296, 155, -1,
      155, 296, 297, -1,
      155, 297, 156, -1,
      156, 297, 298, -1,
      156, 298, 160, -1,
      160, 298, 299, -1,
      160, 299, 139, -1,
      145, 300, 301, -1,
      300, 302, 303, -1,
      302, 304, 305, -1,
      304, 306, 307, -1,
      306, 308, 309, -1,
      308, 131, 204, -1,
      308, 204, 309, -1,
      309, 204, 205, -1,
      309, 205, 310, -1,
      205, 206, 310, -1,
      310, 206, 207, -1,
      310, 207, 311, -1,
      207, 208, 311, -1,
      311, 208, 209, -1,
      311, 209, 312, -1,
      312, 209, 210, -1,
      312, 210, 313, -1,
      313, 210, 211, -1,
      211, 212, 313, -1,
      313, 212, 213, -1,
      313, 213, 314, -1,
      213, 214, 314, -1,
      314, 214, 136, -1,
      314, 136, 260, -1,
      306, 309, 307, -1,
      307, 309, 310, -1,
      307, 310, 315, -1,
      315, 310, 311, -1,
      315, 311, 316, -1,
      316, 311, 312, -1,
      316, 312, 317, -1,
      317, 312, 313, -1,
      317, 313, 318, -1,
      318, 313, 314, -1,
      318, 314, 319, -1,
      319, 314, 260, -1,
      319, 260, 261, -1,
      304, 307, 305, -1,
      305, 307, 315, -1,
      305, 315, 320, -1,
      320, 315, 316, -1,
      320, 316, 321, -1,
      321, 316, 317, -1,
      321, 317, 322, -1,
      322, 317, 318, -1,
      322, 318, 323, -1,
      323, 318, 319, -1,
      323, 319, 324, -1,
      324, 319, 261, -1,
      324, 261, 262, -1,
      302, 305, 303, -1,
      303, 305, 320, -1,
      303, 320, 325, -1,
      325, 320, 321, -1,
      325, 321, 326, -1,
      326, 321, 322, -1,
      326, 322, 327, -1,
      327, 322, 323, -1,
      327, 323, 328, -1,
      328, 323, 324, -1,
      328, 324, 329, -1,
      329, 324, 262, -1,
      329, 262, 263, -1,
      300, 303, 301, -1,
      301, 303, 325, -1,
      301, 325, 330, -1,
      330, 325, 326, -1,
      330, 326, 331, -1,
      331, 326, 327, -1,
      331, 327, 332, -1,
      332, 327, 328, -1,
      332, 328, 333, -1,
      333, 328, 329, -1,
      333, 329, 334, -1,
      334, 329, 263, -1,
      334, 263, 264, -1,
      145, 301, 153, -1,
      153, 301, 330, -1,
      153, 330, 152, -1,
      152, 330, 331, -1,
      152, 331, 151, -1,
      151, 331, 332, -1,
      151, 332, 149, -1,
      149, 332, 333, -1,
      149, 333, 150, -1,
      150, 333, 334, -1,
      150, 334, 154, -1,
      154, 334, 264, -1,
      154, 264, 146, -1,
      130, 128, 335, -1,
      130, 335, 275, -1,
      275, 335, 336, -1,
      275, 336, 281, -1,
      281, 336, 337, -1,
      281, 337, 287, -1,
      287, 337, 338, -1,
      287, 338, 293, -1,
      293, 338, 339, -1,
      293, 339, 299, -1,
      299, 339, 140, -1,
      299, 140, 139, -1,
      132, 131, 308, -1,
      132, 308, 340, -1,
      340, 308, 306, -1,
      340, 306, 341, -1,
      341, 306, 304, -1,
      341, 304, 342, -1,
      342, 304, 302, -1,
      342, 302, 343, -1,
      343, 302, 300, -1,
      343, 300, 344, -1,
      344, 300, 145, -1,
      344, 145, 147, -1,
      140, 339, 345, -1,
      339, 338, 346, -1,
      338, 337, 347, -1,
      337, 336, 348, -1,
      336, 335, 349, -1,
      335, 128, 193, -1,
      335, 193, 349, -1,
      349, 193, 194, -1,
      349, 194, 350, -1,
      194, 195, 350, -1,
      350, 195, 196, -1,
      350, 196, 351, -1,
      196, 197, 351, -1,
      351, 197, 198, -1,
      351, 198, 352, -1,
      352, 198, 199, -1,
      352, 199, 353, -1,
      353, 199, 200, -1,
      200, 201, 353, -1,
      353, 201, 202, -1,
      353, 202, 354, -1,
      202, 203, 354, -1,
      354, 203, 132, -1,
      354, 132, 340, -1,
      336, 349, 348, -1,
      348, 349, 350, -1,
      348, 350, 355, -1,
      355, 350, 351, -1,
      355, 351, 356, -1,
      356, 351, 352, -1,
      356, 352, 357, -1,
      357, 352, 353, -1,
      357, 353, 358, -1,
      358, 353, 354, -1,
      358, 354, 359, -1,
      359, 354, 340, -1,
      359, 340, 341, -1,
      337, 348, 347, -1,
      347, 348, 355, -1,
      347, 355, 360, -1,
      360, 355, 356, -1,
      360, 356, 361, -1,
      361, 356, 357, -1,
      361, 357, 362, -1,
      362, 357, 358, -1,
      362, 358, 363, -1,
      363, 358, 359, -1,
      363, 359, 364, -1,
      364, 359, 341, -1,
      364, 341, 342, -1,
      338, 347, 346, -1,
      346, 347, 360, -1,
      346, 360, 365, -1,
      365, 360, 361, -1,
      365, 361, 366, -1,
      366, 361, 362, -1,
      366, 362, 367, -1,
      367, 362, 363, -1,
      367, 363, 368, -1,
      368, 363, 364, -1,
      368, 364, 369, -1,
      369, 364, 342, -1,
      369, 342, 343, -1,
      339, 346, 345, -1,
      345, 346, 365, -1,
      345, 365, 370, -1,
      370, 365, 366, -1,
      370, 366, 371, -1,
      371, 366, 367, -1,
      371, 367, 372, -1,
      372, 367, 368, -1,
      372, 368, 373, -1,
      373, 368, 369, -1,
      373, 369, 374, -1,
      374, 369, 343, -1,
      374, 343, 344, -1,
      140, 345, 165, -1,
      165, 345, 370, -1,
      165, 370, 164, -1,
      164, 370, 371, -1,
      164, 371, 163, -1,
      163, 371, 372, -1,
      163, 372, 161, -1,
      161, 372, 373, -1,
      161, 373, 162, -1,
      162, 373, 374, -1,
      162, 374, 166, -1,
      166, 374, 344, -1,
      166, 344, 147, -1,
      375, 125, 376, -1,
      376, 125, 117, -1,
      376, 117, 377, -1,
      377, 117, 133, -1,
      377, 133, 378, -1,
      378, 133, 379, -1,
      380, 381, 382, -1,
      382, 381, 135, -1,
      382, 135, 383, -1,
      383, 135, 105, -1,
      383, 105, 384, -1,
      384, 105, 104, -1,
      375, 376, 384, -1,
      384, 376, 383, -1,
      376, 377, 383, -1,
      383, 377, 382, -1,
      377, 378, 382, -1,
      382, 378, 380, -1,
      378, 379, 380, -1,
      380, 379, 381, -1,
      125, 375, 102, -1,
      102, 375, 384, -1,
      102, 384, 104, -1,
      381, 379, 135, -1,
      135, 379, 133, -1,
      385, 386, 387, -1,
      387, 386, 129, -1,
      387, 129, 388, -1,
      388, 129, 3, -1,
      388, 3, 389, -1,
      389, 3, 1, -1,
      390, 118, 391, -1,
      391, 118, 119, -1,
      391, 119, 392, -1,
      392, 119, 127, -1,
      392, 127, 393, -1,
      393, 127, 394, -1,
      388, 389, 391, -1,
      391, 389, 390, -1,
      118, 390, 0, -1,
      0, 390, 389, -1,
      0, 389, 1, -1,
      386, 385, 394, -1,
      394, 385, 393, -1,
      385, 387, 393, -1,
      393, 387, 392, -1,
      387, 388, 392, -1,
      392, 388, 391, -1,
      394, 127, 386, -1,
      386, 127, 129, -1,
    ]
  }
}

Shape {
  appearance Appearance {
    material Material {
      diffuseColor 1.0000 1.0000 1.0000
      specularColor 0.8784 0.8784 0.8784
      ambientIntensity 0.2
      transparency 0.0000
      shininess 0.5
    }
  }
  geometry IndexedFaceSet {
    ccw TRUE
    solid FALSE
    coord DEF co Coordinate {
      point [
        0.287910 0.065419 0.059055,
        0.314317 0.065419 0.059055,
        0.391136 -0.131431 0.059055,
        0.213491 -0.131431 0.059055,
        0.242298 -0.131431 0.059055,
        0.192369 0.007387 0.059055,
        0.183221 0.024317 0.059055,
        0.124638 0.062379 0.059055,
        0.096198 0.065419 0.059055,
        0.040646 0.065419 0.059055,
        0.141212 -0.122544 0.059055,
        0.161766 -0.110600 0.059055,
        0.177969 -0.095086 0.059055,
        0.197656 -0.012007 0.059055,
        0.261091 -0.076217 0.059055,
        0.342411 -0.076217 0.059055,
        0.362329 -0.131431 0.059055,
        0.169301 0.039752 0.059055,
        0.169095 0.039933 0.059055,
        0.147669 0.054292 0.059055,
        0.040646 -0.131431 0.059055,
        0.094173 -0.131431 0.059055,
        0.118530 -0.129305 0.059055,
        0.189257 -0.077479 0.059055,
        0.196325 -0.056874 0.059055,
        0.199087 -0.030530 0.059055,
        -0.182675 -0.132631 0.059055,
        -0.103391 -0.131431 0.059055,
        -0.162783 -0.129844 0.059055,
        -0.141800 -0.121228 0.059055,
        -0.254490 -0.073348 0.059055,
        -0.259838 -0.056417 0.059055,
        -0.145328 -0.101577 0.059055,
        -0.261831 -0.035106 0.059055,
        -0.260892 -0.019791 0.059055,
        -0.141800 0.033611 0.059055,
        -0.141800 -0.099623 0.059055,
        -0.163973 0.043106 0.059055,
        -0.187900 0.046215 0.059055,
        -0.235642 0.029605 0.059055,
        -0.222017 0.038720 0.059055,
        -0.207283 0.044037 0.059055,
        -0.248539 0.049068 0.059055,
        -0.266311 0.031976 0.059055,
        -0.379461 0.065419 0.059055,
        -0.076983 -0.109826 0.059055,
        -0.076983 -0.042608 0.059055,
        0.002237 -0.109826 0.059055,
        -0.007366 -0.042608 0.059055,
        -0.007366 -0.021003 0.059055,
        -0.076983 -0.021003 0.059055,
        -0.076983 0.043814 0.059055,
        -0.002565 0.043814 0.059055,
        -0.002565 0.065419 0.059055,
        -0.305042 -0.109826 0.059055,
        -0.280410 -0.080354 0.059055,
        -0.305042 -0.131431 0.059055,
        -0.269923 -0.099071 0.059055,
        -0.255137 -0.114638 0.059055,
        -0.229841 0.059830 0.059055,
        -0.103391 0.065419 0.059055,
        0.002237 -0.131431 0.059055,
        -0.210686 -0.110167 0.059055,
        -0.225030 -0.104886 0.059055,
        -0.192326 -0.112226 0.059055,
        -0.237111 -0.096743 0.059055,
        -0.166196 -0.109326 0.059055,
        -0.246348 -0.086998 0.059055,
        -0.285406 -0.008733 0.059055,
        -0.288238 -0.036719 0.059055,
        -0.286334 -0.059517 0.059055,
        -0.239303 -0.124749 0.059055,
        -0.220223 -0.131317 0.059055,
        -0.207541 -0.132631 0.059055,
        -0.255645 0.001283 0.059055,
        -0.247530 0.016482 0.059055,
        -0.379461 -0.109826 0.059055,
        -0.277849 0.013572 0.059055,
        -0.405868 -0.131431 0.059055,
        -0.405868 0.065419 0.059055,
        -0.141800 0.060018 0.059055,
        -0.164559 0.066194 0.059055,
        -0.188124 0.067820 0.059055,
        -0.207896 0.066206 0.059055,
        -0.195964 -0.133832 0.059055,
        -0.190581 -0.133739 0.059055,
        0.391136 -0.131431 0.177165,
        0.362329 -0.131431 0.177165,
        0.342411 -0.076217 0.177165,
        0.314317 0.065419 0.177165,
        0.300888 0.041413 0.177165,
        0.287910 0.065419 0.177165,
        0.300250 0.041413 0.177165,
        0.298994 0.034437 0.177165,
        0.297100 0.027609 0.177165,
        0.267730 -0.054611 0.177165,
        0.213491 -0.131431 0.177165,
        0.333559 -0.054611 0.177165,
        0.303926 0.027609 0.177165,
        0.302172 0.034458 0.177165,
        0.242298 -0.131431 0.177165,
        0.261091 -0.076217 0.177165,
        0.333559 -0.054611 0.059055,
        0.267730 -0.054611 0.059055,
        0.303926 0.027609 0.059055,
        0.302172 0.034458 0.059055,
        0.300888 0.041413 0.059055,
        0.300250 0.041413 0.059055,
        0.298994 0.034437 0.059055,
        0.297100 0.027609 0.059055,
        0.147669 0.054292 0.177165,
        0.169095 0.039933 0.177165,
        0.150012 0.026362 0.177165,
        0.169301 0.039752 0.177165,
        0.159574 0.016209 0.177165,
        0.183221 0.024317 0.177165,
        0.166413 0.004068 0.177165,
        0.192369 0.007387 0.177165,
        0.171008 -0.011502 0.177165,
        0.197656 -0.012007 0.177165,
        0.172680 -0.031093 0.177165,
        0.199087 -0.030530 0.177165,
        0.170873 -0.051769 0.177165,
        0.196325 -0.056874 0.177165,
        0.165099 -0.070272 0.177165,
        0.189257 -0.077479 0.177165,
        0.156796 -0.083845 0.177165,
        0.177969 -0.095086 0.177165,
        0.145756 -0.094750 0.177165,
        0.161766 -0.110600 0.177165,
        0.132331 -0.102722 0.177165,
        0.141212 -0.122544 0.177165,
        0.115766 -0.107893 0.177165,
        0.118530 -0.129305 0.177165,
        0.094998 -0.109826 0.177165,
        0.094173 -0.131431 0.177165,
        0.067053 -0.109826 0.177165,
        0.040646 -0.131431 0.177165,
        0.067053 0.043814 0.177165,
        0.040646 0.065419 0.177165,
        0.096086 0.043814 0.177165,
        0.096198 0.065419 0.177165,
        0.119385 0.041337 0.177165,
        0.124638 0.062379 0.177165,
        0.135633 0.035651 0.177165,
        0.067053 0.043814 0.059055,
        0.096086 0.043814 0.059055,
        0.067053 -0.109826 0.059055,
        0.094998 -0.109826 0.059055,
        0.115766 -0.107893 0.059055,
        0.132331 -0.102722 0.059055,
        0.145756 -0.094750 0.059055,
        0.156796 -0.083845 0.059055,
        0.165099 -0.070272 0.059055,
        0.170873 -0.051769 0.059055,
        0.172680 -0.031093 0.059055,
        0.171008 -0.011502 0.059055,
        0.166413 0.004068 0.059055,
        0.159574 0.016209 0.059055,
        0.150012 0.026362 0.059055,
        0.135633 0.035651 0.059055,
        0.119385 0.041337 0.059055,
        0.002237 -0.131431 0.177165,
        0.002237 -0.109826 0.177165,
        -0.076983 -0.109826 0.177165,
        -0.076983 -0.042608 0.177165,
        -0.007366 -0.042608 0.177165,
        -0.007366 -0.021003 0.177165,
        -0.076983 -0.021003 0.177165,
        -0.076983 0.043814 0.177165,
        -0.002565 0.043814 0.177165,
        -0.002565 0.065419 0.177165,
        -0.103391 0.065419 0.177165,
        -0.103391 -0.131431 0.177165,
        -0.141800 -0.121228 0.177165,
        -0.141800 -0.099623 0.177165,
        -0.192326 -0.112226 0.177165,
        -0.166196 -0.109326 0.177165,
        -0.145328 -0.101577 0.177165,
        -0.261831 -0.035106 0.177165,
        -0.259838 -0.056417 0.177165,
        -0.254490 -0.073348 0.177165,
        -0.246348 -0.086998 0.177165,
        -0.237111 -0.096743 0.177165,
        -0.225030 -0.104886 0.177165,
        -0.210686 -0.110167 0.177165,
        -0.187900 0.046215 0.177165,
        -0.207283 0.044037 0.177165,
        -0.222017 0.038720 0.177165,
        -0.235642 0.029605 0.177165,
        -0.247530 0.016482 0.177165,
        -0.255645 0.001283 0.177165,
        -0.260892 -0.019791 0.177165,
        -0.141800 0.033611 0.177165,
        -0.163973 0.043106 0.177165,
        -0.141800 0.060018 0.177165,
        -0.188124 0.067820 0.177165,
        -0.164559 0.066194 0.177165,
        -0.288238 -0.036719 0.177165,
        -0.285406 -0.008733 0.177165,
        -0.277849 0.013572 0.177165,
        -0.266311 0.031976 0.177165,
        -0.248539 0.049068 0.177165,
        -0.229841 0.059830 0.177165,
        -0.207896 0.066206 0.177165,
        -0.195964 -0.133832 0.177165,
        -0.220223 -0.131317 0.177165,
        -0.239303 -0.124749 0.177165,
        -0.255137 -0.114638 0.177165,
        -0.269923 -0.099071 0.177165,
        -0.280410 -0.080354 0.177165,
        -0.286334 -0.059517 0.177165,
        -0.190581 -0.133739 0.177165,
        -0.162783 -0.129844 0.177165,
        -0.305042 -0.131431 0.177165,
        -0.305042 -0.109826 0.177165,
        -0.379461 -0.109826 0.177165,
        -0.379461 0.065419 0.177165,
        -0.405868 0.065419 0.177165,
        -0.405868 -0.131431 0.177165,
      ]
    }
    coordIndex [
      86, 87, 88, -1,
      89, 90, 91, -1,
      91, 90, 92, -1,
      91, 92, 93, -1,
      93, 94, 91, -1,
      91, 94, 95, -1,
      91, 95, 96, -1,
      97, 98, 89, -1,
      89, 98, 99, -1,
      89, 99, 90, -1,
      100, 96, 101, -1,
      101, 96, 95, -1,
      101, 95, 88, -1,
      88, 95, 97, -1,
      88, 97, 86, -1,
      86, 97, 89, -1,
      86, 89, 2, -1,
      2, 89, 1, -1,
      89, 91, 1, -1,
      1, 91, 0, -1,
      91, 96, 0, -1,
      0, 96, 3, -1,
      96, 100, 3, -1,
      3, 100, 4, -1,
      100, 101, 4, -1,
      4, 101, 14, -1,
      101, 88, 14, -1,
      14, 88, 15, -1,
      88, 87, 15, -1,
      15, 87, 16, -1,
      87, 86, 16, -1,
      16, 86, 2, -1,
      97, 95, 102, -1,
      102, 95, 103, -1,
      98, 97, 104, -1,
      104, 97, 102, -1,
      98, 104, 105, -1,
      98, 105, 99, -1,
      99, 105, 106, -1,
      99, 106, 90, -1,
      92, 90, 107, -1,
      107, 90, 106, -1,
      92, 107, 108, -1,
      92, 108, 93, -1,
      93, 108, 109, -1,
      93, 109, 94, -1,
      95, 94, 103, -1,
      103, 94, 109, -1,
      110, 111, 112, -1,
      112, 111, 113, -1,
      112, 113, 114, -1,
      114, 113, 115, -1,
      114, 115, 116, -1,
      116, 115, 117, -1,
      116, 117, 118, -1,
      118, 117, 119, -1,
      118, 119, 120, -1,
      120, 119, 121, -1,
      120, 121, 122, -1,
      122, 121, 123, -1,
      122, 123, 124, -1,
      124, 123, 125, -1,
      124, 125, 126, -1,
      126, 125, 127, -1,
      126, 127, 128, -1,
      128, 127, 129, -1,
      128, 129, 130, -1,
      130, 129, 131, -1,
      130, 131, 132, -1,
      132, 131, 133, -1,
      132, 133, 134, -1,
      134, 133, 135, -1,
      134, 135, 136, -1,
      136, 135, 137, -1,
      136, 137, 138, -1,
      138, 137, 139, -1,
      138, 139, 140, -1,
      140, 139, 141, -1,
      140, 141, 142, -1,
      142, 141, 143, -1,
      142, 143, 144, -1,
      144, 143, 110, -1,
      144, 110, 112, -1,
      137, 135, 20, -1,
      20, 135, 21, -1,
      121, 25, 24, -1,
      121, 24, 123, -1,
      123, 24, 23, -1,
      123, 23, 125, -1,
      125, 23, 12, -1,
      125, 12, 127, -1,
      127, 12, 11, -1,
      127, 11, 129, -1,
      129, 11, 10, -1,
      129, 10, 131, -1,
      131, 10, 22, -1,
      131, 22, 133, -1,
      133, 22, 21, -1,
      133, 21, 135, -1,
      141, 8, 7, -1,
      141, 7, 143, -1,
      143, 7, 19, -1,
      143, 19, 110, -1,
      110, 19, 18, -1,
      110, 18, 111, -1,
      111, 18, 17, -1,
      111, 17, 113, -1,
      113, 17, 6, -1,
      113, 6, 115, -1,
      115, 6, 5, -1,
      115, 5, 117, -1,
      117, 5, 13, -1,
      117, 13, 119, -1,
      119, 13, 25, -1,
      119, 25, 121, -1,
      141, 139, 8, -1,
      8, 139, 9, -1,
      139, 137, 9, -1,
      9, 137, 20, -1,
      138, 140, 145, -1,
      145, 140, 146, -1,
      136, 138, 147, -1,
      147, 138, 145, -1,
      134, 136, 148, -1,
      148, 136, 147, -1,
      134, 148, 149, -1,
      134, 149, 132, -1,
      132, 149, 150, -1,
      132, 150, 130, -1,
      130, 150, 151, -1,
      130, 151, 128, -1,
      128, 151, 152, -1,
      128, 152, 126, -1,
      126, 152, 153, -1,
      126, 153, 124, -1,
      124, 153, 154, -1,
      124, 154, 122, -1,
      122, 154, 155, -1,
      122, 155, 120, -1,
      120, 155, 156, -1,
      120, 156, 118, -1,
      118, 156, 157, -1,
      118, 157, 116, -1,
      116, 157, 158, -1,
      116, 158, 114, -1,
      114, 158, 159, -1,
      114, 159, 112, -1,
      112, 159, 160, -1,
      112, 160, 144, -1,
      144, 160, 161, -1,
      144, 161, 142, -1,
      142, 161, 146, -1,
      142, 146, 140, -1,
      162, 163, 61, -1,
      61, 163, 47, -1,
      163, 164, 47, -1,
      47, 164, 45, -1,
      164, 165, 45, -1,
      45, 165, 46, -1,
      165, 166, 46, -1,
      46, 166, 48, -1,
      166, 167, 48, -1,
      48, 167, 49, -1,
      167, 168, 49, -1,
      49, 168, 50, -1,
      168, 169, 50, -1,
      50, 169, 51, -1,
      169, 170, 51, -1,
      51, 170, 52, -1,
      170, 171, 52, -1,
      52, 171, 53, -1,
      171, 172, 53, -1,
      53, 172, 60, -1,
      172, 173, 60, -1,
      60, 173, 27, -1,
      173, 162, 27, -1,
      27, 162, 61, -1,
      172, 171, 170, -1,
      170, 169, 172, -1,
      172, 169, 168, -1,
      172, 168, 173, -1,
      163, 162, 164, -1,
      164, 162, 173, -1,
      164, 173, 165, -1,
      165, 173, 168, -1,
      165, 168, 166, -1,
      166, 168, 167, -1,
      174, 175, 29, -1,
      29, 175, 36, -1,
      176, 64, 66, -1,
      176, 66, 177, -1,
      177, 66, 32, -1,
      177, 32, 178, -1,
      178, 32, 36, -1,
      178, 36, 175, -1,
      179, 33, 31, -1,
      179, 31, 180, -1,
      180, 31, 30, -1,
      180, 30, 181, -1,
      181, 30, 67, -1,
      181, 67, 182, -1,
      182, 67, 65, -1,
      182, 65, 183, -1,
      183, 65, 63, -1,
      183, 63, 184, -1,
      184, 63, 62, -1,
      184, 62, 185, -1,
      185, 62, 64, -1,
      185, 64, 176, -1,
      186, 38, 41, -1,
      186, 41, 187, -1,
      187, 41, 40, -1,
      187, 40, 188, -1,
      188, 40, 39, -1,
      188, 39, 189, -1,
      189, 39, 75, -1,
      189, 75, 190, -1,
      190, 75, 74, -1,
      190, 74, 191, -1,
      191, 74, 34, -1,
      191, 34, 192, -1,
      192, 34, 33, -1,
      192, 33, 179, -1,
      193, 35, 37, -1,
      193, 37, 194, -1,
      194, 37, 38, -1,
      194, 38, 186, -1,
      193, 195, 35, -1,
      35, 195, 80, -1,
      196, 82, 81, -1,
      196, 81, 197, -1,
      197, 81, 80, -1,
      197, 80, 195, -1,
      198, 69, 68, -1,
      198, 68, 199, -1,
      199, 68, 77, -1,
      199, 77, 200, -1,
      200, 77, 43, -1,
      200, 43, 201, -1,
      201, 43, 42, -1,
      201, 42, 202, -1,
      202, 42, 59, -1,
      202, 59, 203, -1,
      203, 59, 83, -1,
      203, 83, 204, -1,
      204, 83, 82, -1,
      204, 82, 196, -1,
      205, 84, 73, -1,
      205, 73, 206, -1,
      73, 72, 206, -1,
      206, 72, 71, -1,
      206, 71, 207, -1,
      207, 71, 58, -1,
      207, 58, 208, -1,
      208, 58, 57, -1,
      208, 57, 209, -1,
      209, 57, 55, -1,
      209, 55, 210, -1,
      210, 55, 70, -1,
      210, 70, 211, -1,
      211, 70, 69, -1,
      211, 69, 198, -1,
      84, 205, 212, -1,
      174, 29, 28, -1,
      174, 28, 213, -1,
      213, 28, 26, -1,
      213, 26, 212, -1,
      212, 26, 85, -1,
      212, 85, 84, -1,
      176, 177, 213, -1,
      213, 177, 174, -1,
      174, 177, 178, -1,
      174, 178, 175, -1,
      213, 212, 176, -1,
      176, 212, 205, -1,
      176, 205, 185, -1,
      185, 205, 206, -1,
      185, 206, 184, -1,
      184, 206, 207, -1,
      184, 207, 183, -1,
      183, 207, 208, -1,
      183, 208, 182, -1,
      182, 208, 209, -1,
      182, 209, 181, -1,
      181, 209, 210, -1,
      181, 210, 180, -1,
      180, 210, 211, -1,
      180, 211, 179, -1,
      179, 211, 198, -1,
      179, 198, 192, -1,
      192, 198, 199, -1,
      192, 199, 191, -1,
      191, 199, 200, -1,
      191, 200, 190, -1,
      190, 200, 201, -1,
      190, 201, 189, -1,
      189, 201, 202, -1,
      189, 202, 188, -1,
      188, 202, 203, -1,
      188, 203, 187, -1,
      187, 203, 204, -1,
      187, 204, 186, -1,
      186, 204, 196, -1,
      186, 196, 194, -1,
      194, 196, 197, -1,
      194, 197, 193, -1,
      193, 197, 195, -1,
      214, 215, 56, -1,
      56, 215, 54, -1,
      215, 216, 54, -1,
      54, 216, 76, -1,
      216, 217, 76, -1,
      76, 217, 44, -1,
      217, 218, 44, -1,
      44, 218, 79, -1,
      218, 219, 79, -1,
      79, 219, 78, -1,
      219, 214, 78, -1,
      78, 214, 56, -1,
      215, 214, 216, -1,
      216, 214, 219, -1,
      216, 219, 217, -1,
      217, 219, 218, -1,
    ]
  }
}

Shape {
  appearance Appearance {
    material Material {
      diffuseColor 0.5373 0.4863 0.5098
      specularColor 0.2667 0.2431 0.2549
      ambientIntensity 0.2
      transparency 0.0000
      shininess 0.5
    }
  }
  geometry IndexedFaceSet {
    ccw TRUE
    solid FALSE
    coord DEF co Coordinate {
      point [
        0.333559 -0.054611 0.059055,
        0.267730 -0.054611 0.059055,
        0.303926 0.027609 0.059055,
        0.302172 0.034458 0.059055,
        0.300888 0.041413 0.059055,
        0.300250 0.041413 0.059055,
        0.298994 0.034437 0.059055,
        0.297100 0.027609 0.059055,
        0.067053 0.043814 0.059055,
        0.096086 0.043814 0.059055,
        0.067053 -0.109826 0.059055,
        0.094998 -0.109826 0.059055,
        0.115766 -0.107893 0.059055,
        0.132331 -0.102722 0.059055,
        0.145756 -0.094750 0.059055,
        0.156796 -0.083845 0.059055,
        0.165099 -0.070272 0.059055,
        0.170873 -0.051769 0.059055,
        0.172680 -0.031093 0.059055,
        0.171008 -0.011502 0.059055,
        0.166413 0.004068 0.059055,
        0.159574 0.016209 0.059055,
        0.150012 0.026362 0.059055,
        0.135633 0.035651 0.059055,
        0.119385 0.041337 0.059055,
      ]
    }
    coordIndex [
      5, 4, 6, -1,
      6, 4, 3, -1,
      6, 3, 7, -1,
      7, 3, 2, -1,
      7, 2, 1, -1,
      1, 2, 0, -1,
      10, 8, 11, -1,
      11, 8, 9, -1,
      11, 9, 12, -1,
      24, 20, 9, -1,
      9, 20, 19, -1,
      9, 19, 18, -1,
      24, 23, 20, -1,
      20, 23, 22, -1,
      20, 22, 21, -1,
      18, 17, 9, -1,
      9, 17, 16, -1,
      9, 16, 15, -1,
      15, 14, 9, -1,
      9, 14, 13, -1,
      9, 13, 12, -1,
    ]
  }
}
