#VRML V2.0 utf8

Shape {
  appearance Appearance {
    material Material {
      diffuseColor 0.5020 0.5020 0.5020
      specularColor 0.2510 0.2510 0.2510
      ambientIntensity 0.2
      transparency 0.0000
      shininess 0.5
    }
  }
  geometry IndexedFaceSet {
    ccw TRUE
    solid FALSE
    coord DEF co Coordinate {
      point [
        0.192543 -0.158214 0.118110,
        0.159576 -0.158214 0.118110,
        0.192543 -0.053067 0.118110,
        0.159576 -0.040577 0.118110,
        0.208387 -0.053067 0.118110,
        0.268564 -0.040577 0.118110,
        0.208387 -0.171178 0.118110,
        0.077606 -0.064590 0.118110,
        0.089237 -0.065896 0.118110,
        0.052064 -0.153265 0.118110,
        0.147892 -0.171178 0.118110,
        0.159576 -0.171178 0.118110,
        0.159576 -0.171898 0.118110,
        0.268564 -0.171898 0.118110,
        0.038424 -0.171898 0.118110,
        0.038424 -0.040577 0.118110,
        0.049947 -0.152093 0.118110,
        0.049947 -0.165056 0.118110,
        0.062537 -0.170225 0.118110,
        0.074472 -0.171898 0.118110,
        0.063251 -0.066455 0.118110,
        0.049947 -0.072152 0.118110,
        0.049947 -0.056308 0.118110,
        0.131576 -0.084176 0.118110,
        0.124653 -0.073133 0.118110,
        0.113990 -0.062878 0.118110,
        0.102772 -0.056420 0.118110,
        0.097001 -0.171109 0.118110,
        0.108448 -0.167168 0.118110,
        0.117949 -0.161101 0.118110,
        0.126820 -0.151761 0.118110,
        0.147892 -0.158214 0.118110,
        0.133113 -0.140531 0.118110,
        0.098077 -0.069087 0.118110,
        0.106252 -0.074556 0.118110,
        0.113384 -0.082430 0.118110,
        0.121965 -0.113383 0.118110,
        0.120769 -0.126169 0.118110,
        0.117561 -0.136328 0.118110,
        0.091279 -0.158419 0.118110,
        0.080262 -0.159654 0.118110,
        0.099885 -0.155250 0.118110,
        0.107133 -0.150365 0.118110,
        0.112676 -0.144518 0.118110,
        0.064584 -0.157914 0.118110,
        0.118254 -0.091549 0.118110,
        0.121402 -0.104193 0.118110,
        0.136667 -0.128029 0.118110,
        0.137809 -0.114350 0.118110,
        0.136110 -0.097559 0.118110,
        0.089604 -0.052595 0.118110,
        0.077741 -0.051627 0.118110,
        0.063602 -0.052602 0.118110,
        0.079216 -0.172562 0.118110,
        0.038424 -0.196850 0.118110,
        0.082445 -0.172618 0.118110,
        0.089391 -0.171898 0.118110,
        0.159576 -0.196850 0.118110,
        0.268564 -0.029528 0.118110,
        0.328740 -0.029528 0.118110,
        0.171260 0.029528 0.118110,
        0.159576 0.196850 0.118110,
        0.268564 0.029528 0.118110,
        0.268564 0.196850 0.118110,
        0.328740 0.029528 0.118110,
        0.500000 0.196850 0.118110,
        0.500000 -0.040577 0.118110,
        0.171260 -0.029528 0.118110,
        -0.252531 -0.171178 0.118110,
        -0.240580 -0.138049 0.118110,
        -0.191787 -0.138049 0.118110,
        -0.167244 -0.160554 0.118110,
        -0.207879 -0.053067 0.118110,
        -0.167244 -0.040577 0.118110,
        -0.223723 -0.053067 0.118110,
        -0.500000 -0.040577 0.118110,
        -0.180512 -0.171178 0.118110,
        -0.167244 -0.171898 0.118110,
        -0.269815 -0.171178 0.118110,
        -0.500000 -0.171898 0.118110,
        -0.158907 -0.040577 0.118110,
        -0.158907 -0.171898 0.118110,
        -0.163228 -0.171178 0.118110,
        -0.167244 -0.171178 0.118110,
        -2.171260 0.029528 0.118110,
        -2.000000 0.196850 0.118110,
        -2.171260 -0.029528 0.118110,
        -2.000000 -0.040577 0.118110,
        -2.328740 -0.029528 0.118110,
        -2.545276 -0.040577 0.118110,
        -2.328740 0.029528 0.118110,
        -2.545276 0.196850 0.118110,
        -1.671260 0.029528 0.118110,
        -1.500000 0.196850 0.118110,
        -1.671260 -0.029528 0.118110,
        -1.500000 -0.040577 0.118110,
        -1.828740 -0.029528 0.118110,
        -1.828740 0.029528 0.118110,
        -1.171260 -0.029528 0.118110,
        -1.000000 -0.040577 0.118110,
        -1.328740 -0.029528 0.118110,
        -1.328740 0.029528 0.118110,
        -1.171260 0.029528 0.118110,
        -1.000000 0.196850 0.118110,
        -0.828740 -0.029528 0.118110,
        -0.671260 -0.029528 0.118110,
        -0.828740 0.029528 0.118110,
        -0.671260 0.029528 0.118110,
        -0.500000 0.196850 0.118110,
        -0.171260 -0.029528 0.118110,
        -0.171260 0.029528 0.118110,
        -0.328740 -0.029528 0.118110,
        -0.328740 0.029528 0.118110,
        -0.167244 0.196850 0.118110,
        -0.158907 0.196850 0.118110,
        0.038424 0.196850 0.118110,
        -0.047998 -0.040577 0.118110,
        -0.047998 0.196850 0.118110,
        0.671260 -0.029528 0.118110,
        0.828740 -0.029528 0.118110,
        0.671260 0.029528 0.118110,
        0.828740 0.029528 0.118110,
        1.000000 0.196850 0.118110,
        1.000000 -0.040577 0.118110,
        1.328740 -0.029528 0.118110,
        1.500000 -0.040577 0.118110,
        1.171260 -0.029528 0.118110,
        1.171260 0.029528 0.118110,
        1.328740 0.029528 0.118110,
        1.500000 0.196850 0.118110,
        1.828740 -0.029528 0.118110,
        2.000000 -0.040577 0.118110,
        1.671260 -0.029528 0.118110,
        1.671260 0.029528 0.118110,
        1.828740 0.029528 0.118110,
        2.000000 0.196850 0.118110,
        2.328740 -0.029528 0.118110,
        2.437008 -0.040577 0.118110,
        2.171260 -0.029528 0.118110,
        2.171260 0.029528 0.118110,
        2.328740 0.029528 0.118110,
        2.437008 0.196850 0.118110,
        2.545276 0.196850 0.118110,
        2.545276 -0.040577 0.118110,
        -1.000000 -0.171898 0.118110,
        -1.500000 -0.171898 0.118110,
        -2.000000 -0.171898 0.118110,
        -2.545276 -0.171898 0.118110,
        -0.092852 -0.053067 0.118110,
        -0.109916 -0.054891 0.118110,
        -0.123735 -0.059744 0.118110,
        -0.136590 -0.068359 0.118110,
        -0.148688 -0.138806 0.118110,
        -0.141915 -0.149370 0.118110,
        -0.132193 -0.158678 0.118110,
        -0.119860 -0.165845 0.118110,
        -0.136714 -0.068467 0.118110,
        -0.145066 -0.077729 0.118110,
        -0.150555 -0.087886 0.118110,
        -0.153727 -0.099523 0.118110,
        -0.154585 -0.110637 0.118110,
        -0.152928 -0.126443 0.118110,
        -0.106251 -0.169902 0.118110,
        -0.091637 -0.171178 0.118110,
        -0.047998 -0.171898 0.118110,
        -0.059521 -0.171178 0.118110,
        -0.059521 -0.053067 0.118110,
        -0.033594 -0.053067 0.118110,
        0.026901 -0.053067 0.118110,
        0.026901 -0.171178 0.118110,
        -0.036475 -0.171178 0.118110,
        -0.036475 -0.158214 0.118110,
        -0.033594 -0.066030 0.118110,
        0.011057 -0.117884 0.118110,
        0.011057 -0.158214 0.118110,
        -0.030714 -0.117884 0.118110,
        -0.030714 -0.104920 0.118110,
        0.011057 -0.104920 0.118110,
        0.011057 -0.066030 0.118110,
        0.500000 -0.171898 0.118110,
        1.000000 -0.171898 0.118110,
        1.500000 -0.171898 0.118110,
        2.000000 -0.171898 0.118110,
        2.437008 -0.171898 0.118110,
        2.545276 -0.171898 0.118110,
        -0.047998 -0.196850 0.118110,
        -0.158907 -0.196850 0.118110,
        -0.167244 -0.196850 0.118110,
        -0.500000 -0.196850 0.118110,
        -1.000000 -0.196850 0.118110,
        -1.500000 -0.196850 0.118110,
        -2.000000 -0.196850 0.118110,
        -2.545276 -0.196850 0.118110,
        0.268564 -0.196850 0.118110,
        0.500000 -0.196850 0.118110,
        1.000000 -0.196850 0.118110,
        1.500000 -0.196850 0.118110,
        2.000000 -0.196850 0.118110,
        2.437008 -0.196850 0.118110,
        2.545276 -0.196850 0.118110,
      ]
    }
    coordIndex [
      0, 1, 2, -1,
      2, 1, 3, -1,
      2, 3, 4, -1,
      4, 3, 5, -1,
      4, 5, 6, -1,
      7, 8, 9, -1,
      10, 11, 12, -1,
      12, 11, 6, -1,
      12, 6, 13, -1,
      14, 15, 16, -1,
      16, 17, 14, -1,
      14, 17, 18, -1,
      14, 18, 19, -1,
      7, 9, 20, -1,
      20, 9, 16, -1,
      20, 16, 21, -1,
      21, 16, 15, -1,
      21, 15, 22, -1,
      23, 24, 3, -1,
      3, 24, 25, -1,
      3, 25, 26, -1,
      27, 28, 10, -1,
      28, 29, 10, -1,
      10, 29, 30, -1,
      10, 30, 31, -1,
      31, 30, 32, -1,
      31, 32, 1, -1,
      8, 33, 9, -1,
      9, 33, 34, -1,
      9, 34, 35, -1,
      36, 37, 9, -1,
      9, 37, 38, -1,
      39, 40, 41, -1,
      41, 40, 42, -1,
      38, 43, 9, -1,
      9, 43, 42, -1,
      9, 42, 44, -1,
      44, 42, 40, -1,
      35, 45, 9, -1,
      9, 45, 46, -1,
      9, 46, 36, -1,
      32, 47, 1, -1,
      1, 47, 48, -1,
      1, 48, 3, -1,
      3, 48, 49, -1,
      3, 49, 23, -1,
      26, 50, 3, -1,
      3, 50, 51, -1,
      3, 51, 15, -1,
      15, 51, 52, -1,
      15, 52, 22, -1,
      19, 53, 54, -1,
      53, 55, 54, -1,
      54, 55, 56, -1,
      54, 56, 57, -1,
      5, 58, 59, -1,
      60, 61, 62, -1,
      62, 61, 63, -1,
      62, 63, 64, -1,
      64, 63, 65, -1,
      64, 65, 59, -1,
      59, 65, 66, -1,
      59, 66, 5, -1,
      58, 5, 67, -1,
      67, 5, 3, -1,
      67, 3, 60, -1,
      68, 69, 70, -1,
      71, 72, 73, -1,
      73, 72, 74, -1,
      73, 74, 75, -1,
      70, 76, 68, -1,
      68, 76, 77, -1,
      68, 77, 78, -1,
      78, 77, 79, -1,
      78, 79, 74, -1,
      73, 80, 71, -1,
      71, 80, 81, -1,
      71, 81, 82, -1,
      82, 81, 77, -1,
      82, 77, 83, -1,
      83, 77, 76, -1,
      84, 85, 86, -1,
      86, 85, 87, -1,
      86, 87, 88, -1,
      88, 87, 89, -1,
      88, 89, 90, -1,
      90, 89, 91, -1,
      90, 91, 84, -1,
      84, 91, 85, -1,
      92, 93, 94, -1,
      94, 93, 95, -1,
      94, 95, 96, -1,
      96, 95, 87, -1,
      96, 87, 97, -1,
      97, 87, 85, -1,
      97, 85, 92, -1,
      92, 85, 93, -1,
      98, 99, 100, -1,
      100, 99, 95, -1,
      100, 95, 101, -1,
      101, 95, 93, -1,
      101, 93, 102, -1,
      102, 93, 103, -1,
      102, 103, 98, -1,
      98, 103, 99, -1,
      99, 104, 105, -1,
      104, 99, 106, -1,
      106, 99, 103, -1,
      106, 103, 107, -1,
      107, 103, 108, -1,
      107, 108, 105, -1,
      105, 108, 75, -1,
      105, 75, 99, -1,
      73, 109, 110, -1,
      109, 73, 111, -1,
      111, 73, 75, -1,
      111, 75, 112, -1,
      112, 75, 108, -1,
      112, 108, 110, -1,
      110, 108, 113, -1,
      110, 113, 73, -1,
      73, 113, 114, -1,
      73, 114, 80, -1,
      60, 3, 61, -1,
      61, 3, 15, -1,
      61, 15, 115, -1,
      115, 15, 116, -1,
      115, 116, 117, -1,
      66, 118, 119, -1,
      118, 66, 120, -1,
      120, 66, 65, -1,
      120, 65, 121, -1,
      121, 65, 122, -1,
      121, 122, 119, -1,
      119, 122, 123, -1,
      119, 123, 66, -1,
      124, 125, 126, -1,
      126, 125, 123, -1,
      126, 123, 127, -1,
      127, 123, 122, -1,
      127, 122, 128, -1,
      128, 122, 129, -1,
      128, 129, 124, -1,
      124, 129, 125, -1,
      130, 131, 132, -1,
      132, 131, 125, -1,
      132, 125, 133, -1,
      133, 125, 129, -1,
      133, 129, 134, -1,
      134, 129, 135, -1,
      134, 135, 130, -1,
      130, 135, 131, -1,
      136, 137, 138, -1,
      138, 137, 131, -1,
      138, 131, 139, -1,
      139, 131, 135, -1,
      139, 135, 140, -1,
      140, 135, 141, -1,
      140, 141, 136, -1,
      136, 141, 137, -1,
      137, 141, 142, -1,
      137, 142, 143, -1,
      74, 79, 75, -1,
      75, 79, 144, -1,
      75, 144, 99, -1,
      99, 144, 145, -1,
      99, 145, 95, -1,
      95, 145, 146, -1,
      95, 146, 87, -1,
      87, 146, 147, -1,
      87, 147, 89, -1,
      114, 117, 80, -1,
      80, 117, 116, -1,
      80, 116, 148, -1,
      148, 149, 80, -1,
      80, 149, 150, -1,
      80, 150, 151, -1,
      152, 153, 81, -1,
      81, 153, 154, -1,
      81, 154, 155, -1,
      151, 156, 80, -1,
      80, 156, 157, -1,
      80, 157, 158, -1,
      158, 159, 80, -1,
      80, 159, 160, -1,
      80, 160, 81, -1,
      81, 160, 161, -1,
      81, 161, 152, -1,
      155, 162, 81, -1,
      81, 162, 163, -1,
      81, 163, 164, -1,
      164, 163, 165, -1,
      164, 165, 116, -1,
      116, 165, 166, -1,
      116, 166, 148, -1,
      167, 116, 168, -1,
      168, 116, 15, -1,
      168, 15, 169, -1,
      169, 15, 14, -1,
      169, 14, 170, -1,
      170, 14, 164, -1,
      170, 164, 171, -1,
      171, 164, 116, -1,
      171, 116, 172, -1,
      172, 116, 167, -1,
      173, 174, 175, -1,
      175, 174, 171, -1,
      175, 171, 176, -1,
      176, 171, 172, -1,
      176, 172, 177, -1,
      177, 172, 178, -1,
      6, 5, 13, -1,
      13, 5, 66, -1,
      13, 66, 179, -1,
      179, 66, 123, -1,
      179, 123, 180, -1,
      180, 123, 125, -1,
      180, 125, 181, -1,
      181, 125, 131, -1,
      181, 131, 182, -1,
      182, 131, 137, -1,
      182, 137, 183, -1,
      183, 137, 143, -1,
      183, 143, 184, -1,
      19, 54, 14, -1,
      14, 54, 185, -1,
      14, 185, 164, -1,
      164, 185, 186, -1,
      164, 186, 81, -1,
      81, 186, 187, -1,
      81, 187, 77, -1,
      77, 187, 188, -1,
      77, 188, 79, -1,
      79, 188, 189, -1,
      79, 189, 144, -1,
      144, 189, 190, -1,
      144, 190, 145, -1,
      145, 190, 191, -1,
      145, 191, 146, -1,
      146, 191, 192, -1,
      146, 192, 147, -1,
      27, 10, 56, -1,
      56, 10, 12, -1,
      56, 12, 57, -1,
      57, 12, 13, -1,
      57, 13, 193, -1,
      193, 13, 179, -1,
      193, 179, 194, -1,
      194, 179, 180, -1,
      194, 180, 195, -1,
      195, 180, 181, -1,
      195, 181, 196, -1,
      196, 181, 182, -1,
      196, 182, 197, -1,
      197, 182, 183, -1,
      197, 183, 198, -1,
      198, 183, 184, -1,
      198, 184, 199, -1,
    ]
  }
}

Shape {
  appearance Appearance {
    material Material {
      diffuseColor 1.0000 1.0000 1.0000
      specularColor 0.5020 0.5020 0.5020
      ambientIntensity 0.2
      transparency 0.0000
      shininess 0.5
    }
  }
  geometry IndexedFaceSet {
    ccw TRUE
    solid FALSE
    coord DEF co Coordinate {
      point [
        0.328740 -0.029528 0.118110,
        0.171260 0.029528 0.118110,
        0.328740 0.029528 0.118110,
        0.171260 -0.029528 0.118110,
        -1.171260 -0.029528 0.118110,
        -1.328740 -0.029528 0.118110,
        -1.328740 0.029528 0.118110,
        -1.171260 0.029528 0.118110,
        -0.828740 -0.029528 0.118110,
        -0.671260 -0.029528 0.118110,
        -0.828740 0.029528 0.118110,
        -0.671260 0.029528 0.118110,
        -0.171260 -0.029528 0.118110,
        -0.171260 0.029528 0.118110,
        -0.328740 -0.029528 0.118110,
        -0.328740 0.029528 0.118110,
        0.671260 -0.029528 0.118110,
        0.828740 -0.029528 0.118110,
        0.671260 0.029528 0.118110,
        0.828740 0.029528 0.118110,
        1.328740 -0.029528 0.118110,
        1.171260 -0.029528 0.118110,
        1.171260 0.029528 0.118110,
        1.328740 0.029528 0.118110,
        1.828740 -0.029528 0.118110,
        1.671260 -0.029528 0.118110,
        1.671260 0.029528 0.118110,
        1.828740 0.029528 0.118110,
        2.328740 -0.029528 0.118110,
        2.171260 -0.029528 0.118110,
        2.171260 0.029528 0.118110,
        2.328740 0.029528 0.118110,
        2.250000 0.029528 -0.944882,
        2.250000 -0.029528 -0.944882,
        2.232479 -0.029528 -0.942908,
        2.232479 0.029528 -0.942908,
        2.215836 -0.029528 -0.937084,
        2.215836 0.029528 -0.937084,
        2.200906 -0.029528 -0.927703,
        2.200906 0.029528 -0.927703,
        2.188439 -0.029528 -0.915235,
        2.188439 0.029528 -0.915235,
        2.179057 -0.029528 -0.900306,
        2.179057 0.029528 -0.900306,
        2.173234 -0.029528 -0.883663,
        2.173234 0.029528 -0.883663,
        2.171260 -0.029528 -0.866142,
        2.171260 0.029528 -0.866142,
        2.270380 0.029528 -0.942199,
        2.270380 -0.029528 -0.942199,
        2.289370 0.029528 -0.934333,
        2.289370 -0.029528 -0.934333,
        2.305678 0.029528 -0.921819,
        2.305678 -0.029528 -0.921819,
        2.318191 0.029528 -0.905512,
        2.318191 -0.029528 -0.905512,
        2.326057 0.029528 -0.886521,
        2.326057 -0.029528 -0.886521,
        2.328740 0.029528 -0.866142,
        2.328740 -0.029528 -0.866142,
        1.750000 0.029528 -0.944882,
        1.750000 -0.029528 -0.944882,
        1.732479 -0.029528 -0.942908,
        1.732479 0.029528 -0.942908,
        1.715836 -0.029528 -0.937084,
        1.715836 0.029528 -0.937084,
        1.700906 -0.029528 -0.927703,
        1.700906 0.029528 -0.927703,
        1.688439 -0.029528 -0.915235,
        1.688439 0.029528 -0.915235,
        1.679057 -0.029528 -0.900306,
        1.679057 0.029528 -0.900306,
        1.673234 -0.029528 -0.883663,
        1.673234 0.029528 -0.883663,
        1.671260 -0.029528 -0.866142,
        1.671260 0.029528 -0.866142,
        1.770380 0.029528 -0.942199,
        1.770380 -0.029528 -0.942199,
        1.789370 0.029528 -0.934333,
        1.789370 -0.029528 -0.934333,
        1.805678 0.029528 -0.921819,
        1.805678 -0.029528 -0.921819,
        1.818191 0.029528 -0.905512,
        1.818191 -0.029528 -0.905512,
        1.826057 0.029528 -0.886521,
        1.826057 -0.029528 -0.886521,
        1.828740 0.029528 -0.866142,
        1.828740 -0.029528 -0.866142,
        1.250000 0.029528 -0.944882,
        1.250000 -0.029528 -0.944882,
        1.232479 -0.029528 -0.942908,
        1.232479 0.029528 -0.942908,
        1.215836 -0.029528 -0.937084,
        1.215836 0.029528 -0.937084,
        1.200906 -0.029528 -0.927703,
        1.200906 0.029528 -0.927703,
        1.188439 -0.029528 -0.915235,
        1.188439 0.029528 -0.915235,
        1.179057 -0.029528 -0.900306,
        1.179057 0.029528 -0.900306,
        1.173234 -0.029528 -0.883663,
        1.173234 0.029528 -0.883663,
        1.171260 -0.029528 -0.866142,
        1.171260 0.029528 -0.866142,
        1.270380 0.029528 -0.942199,
        1.270380 -0.029528 -0.942199,
        1.289370 0.029528 -0.934333,
        1.289370 -0.029528 -0.934333,
        1.305678 0.029528 -0.921819,
        1.305678 -0.029528 -0.921819,
        1.318191 0.029528 -0.905512,
        1.318191 -0.029528 -0.905512,
        1.326057 0.029528 -0.886521,
        1.326057 -0.029528 -0.886521,
        1.328740 0.029528 -0.866142,
        1.328740 -0.029528 -0.866142,
        0.750000 0.029528 -0.944882,
        0.750000 -0.029528 -0.944882,
        0.732479 -0.029528 -0.942908,
        0.732479 0.029528 -0.942908,
        0.715836 -0.029528 -0.937084,
        0.715836 0.029528 -0.937084,
        0.700906 -0.029528 -0.927703,
        0.700906 0.029528 -0.927703,
        0.688439 -0.029528 -0.915235,
        0.688439 0.029528 -0.915235,
        0.679057 -0.029528 -0.900306,
        0.679057 0.029528 -0.900306,
        0.673234 -0.029528 -0.883663,
        0.673234 0.029528 -0.883663,
        0.671260 -0.029528 -0.866142,
        0.671260 0.029528 -0.866142,
        0.770380 0.029528 -0.942199,
        0.770380 -0.029528 -0.942199,
        0.789370 0.029528 -0.934333,
        0.789370 -0.029528 -0.934333,
        0.805678 0.029528 -0.921819,
        0.805678 -0.029528 -0.921819,
        0.818191 0.029528 -0.905512,
        0.818191 -0.029528 -0.905512,
        0.826057 0.029528 -0.886521,
        0.826057 -0.029528 -0.886521,
        0.828740 0.029528 -0.866142,
        0.828740 -0.029528 -0.866142,
        0.250000 0.029528 -0.944882,
        0.250000 -0.029528 -0.944882,
        0.232479 -0.029528 -0.942908,
        0.232479 0.029528 -0.942908,
        0.215836 -0.029528 -0.937084,
        0.215836 0.029528 -0.937084,
        0.200906 -0.029528 -0.927703,
        0.200906 0.029528 -0.927703,
        0.188439 -0.029528 -0.915235,
        0.188439 0.029528 -0.915235,
        0.179057 -0.029528 -0.900306,
        0.179057 0.029528 -0.900306,
        0.173234 -0.029528 -0.883663,
        0.173234 0.029528 -0.883663,
        0.171260 -0.029528 -0.866142,
        0.171260 0.029528 -0.866142,
        0.270380 0.029528 -0.942199,
        0.270380 -0.029528 -0.942199,
        0.289370 0.029528 -0.934333,
        0.289370 -0.029528 -0.934333,
        0.305678 0.029528 -0.921819,
        0.305678 -0.029528 -0.921819,
        0.318191 0.029528 -0.905512,
        0.318191 -0.029528 -0.905512,
        0.326057 0.029528 -0.886521,
        0.326057 -0.029528 -0.886521,
        0.328740 0.029528 -0.866142,
        0.328740 -0.029528 -0.866142,
        -0.250000 0.029528 -0.944882,
        -0.250000 -0.029528 -0.944882,
        -0.267521 -0.029528 -0.942908,
        -0.267521 0.029528 -0.942908,
        -0.284164 -0.029528 -0.937084,
        -0.284164 0.029528 -0.937084,
        -0.299094 -0.029528 -0.927703,
        -0.299094 0.029528 -0.927703,
        -0.311561 -0.029528 -0.915235,
        -0.311561 0.029528 -0.915235,
        -0.320943 -0.029528 -0.900306,
        -0.320943 0.029528 -0.900306,
        -0.326766 -0.029528 -0.883663,
        -0.326766 0.029528 -0.883663,
        -0.328740 -0.029528 -0.866142,
        -0.328740 0.029528 -0.866142,
        -0.229620 0.029528 -0.942199,
        -0.229620 -0.029528 -0.942199,
        -0.210630 0.029528 -0.934333,
        -0.210630 -0.029528 -0.934333,
        -0.194322 0.029528 -0.921819,
        -0.194322 -0.029528 -0.921819,
        -0.181809 0.029528 -0.905512,
        -0.181809 -0.029528 -0.905512,
        -0.173943 0.029528 -0.886521,
        -0.173943 -0.029528 -0.886521,
        -0.171260 0.029528 -0.866142,
        -0.171260 -0.029528 -0.866142,
        -0.750000 0.029528 -0.944882,
        -0.750000 -0.029528 -0.944882,
        -0.767521 -0.029528 -0.942908,
        -0.767521 0.029528 -0.942908,
        -0.784164 -0.029528 -0.937084,
        -0.784164 0.029528 -0.937084,
        -0.799094 -0.029528 -0.927703,
        -0.799094 0.029528 -0.927703,
        -0.811561 -0.029528 -0.915235,
        -0.811561 0.029528 -0.915235,
        -0.820943 -0.029528 -0.900306,
        -0.820943 0.029528 -0.900306,
        -0.826766 -0.029528 -0.883663,
        -0.826766 0.029528 -0.883663,
        -0.828740 -0.029528 -0.866142,
        -0.828740 0.029528 -0.866142,
        -0.729620 0.029528 -0.942199,
        -0.729620 -0.029528 -0.942199,
        -0.710630 0.029528 -0.934333,
        -0.710630 -0.029528 -0.934333,
        -0.694322 0.029528 -0.921819,
        -0.694322 -0.029528 -0.921819,
        -0.681809 0.029528 -0.905512,
        -0.681809 -0.029528 -0.905512,
        -0.673943 0.029528 -0.886521,
        -0.673943 -0.029528 -0.886521,
        -0.671260 0.029528 -0.866142,
        -0.671260 -0.029528 -0.866142,
        -1.250000 0.029528 -0.944882,
        -1.250000 -0.029528 -0.944882,
        -1.267521 -0.029528 -0.942908,
        -1.267521 0.029528 -0.942908,
        -1.284164 -0.029528 -0.937084,
        -1.284164 0.029528 -0.937084,
        -1.299094 -0.029528 -0.927703,
        -1.299094 0.029528 -0.927703,
        -1.311561 -0.029528 -0.915235,
        -1.311561 0.029528 -0.915235,
        -1.320943 -0.029528 -0.900306,
        -1.320943 0.029528 -0.900306,
        -1.326766 -0.029528 -0.883663,
        -1.326766 0.029528 -0.883663,
        -1.328740 -0.029528 -0.866142,
        -1.328740 0.029528 -0.866142,
        -1.229620 0.029528 -0.942199,
        -1.229620 -0.029528 -0.942199,
        -1.210630 0.029528 -0.934333,
        -1.210630 -0.029528 -0.934333,
        -1.194322 0.029528 -0.921819,
        -1.194322 -0.029528 -0.921819,
        -1.181809 0.029528 -0.905512,
        -1.181809 -0.029528 -0.905512,
        -1.173943 0.029528 -0.886521,
        -1.173943 -0.029528 -0.886521,
        -1.171260 0.029528 -0.866142,
        -1.171260 -0.029528 -0.866142,
      ]
    }
    coordIndex [
      32, 33, 34, -1,
      32, 34, 35, -1,
      35, 34, 36, -1,
      35, 36, 37, -1,
      37, 36, 38, -1,
      37, 38, 39, -1,
      39, 38, 40, -1,
      39, 40, 41, -1,
      41, 40, 42, -1,
      41, 42, 43, -1,
      43, 42, 44, -1,
      43, 44, 45, -1,
      45, 44, 46, -1,
      45, 46, 47, -1,
      33, 32, 48, -1,
      33, 48, 49, -1,
      49, 48, 50, -1,
      49, 50, 51, -1,
      51, 50, 52, -1,
      51, 52, 53, -1,
      53, 52, 54, -1,
      53, 54, 55, -1,
      55, 54, 56, -1,
      55, 56, 57, -1,
      57, 56, 58, -1,
      57, 58, 59, -1,
      58, 31, 59, -1,
      59, 31, 28, -1,
      28, 29, 59, -1,
      59, 29, 46, -1,
      46, 44, 59, -1,
      59, 44, 42, -1,
      59, 42, 40, -1,
      57, 59, 33, -1,
      33, 59, 34, -1,
      40, 38, 59, -1,
      59, 38, 36, -1,
      59, 36, 34, -1,
      51, 53, 55, -1,
      57, 33, 55, -1,
      55, 33, 49, -1,
      55, 49, 51, -1,
      46, 29, 47, -1,
      47, 29, 30, -1,
      30, 31, 47, -1,
      47, 31, 58, -1,
      47, 58, 45, -1,
      45, 58, 43, -1,
      58, 35, 37, -1,
      37, 39, 58, -1,
      58, 39, 41, -1,
      58, 41, 43, -1,
      35, 58, 32, -1,
      32, 58, 56, -1,
      32, 56, 54, -1,
      52, 50, 54, -1,
      54, 50, 48, -1,
      54, 48, 32, -1,
      60, 61, 62, -1,
      60, 62, 63, -1,
      63, 62, 64, -1,
      63, 64, 65, -1,
      65, 64, 66, -1,
      65, 66, 67, -1,
      67, 66, 68, -1,
      67, 68, 69, -1,
      69, 68, 70, -1,
      69, 70, 71, -1,
      71, 70, 72, -1,
      71, 72, 73, -1,
      73, 72, 74, -1,
      73, 74, 75, -1,
      61, 60, 76, -1,
      61, 76, 77, -1,
      77, 76, 78, -1,
      77, 78, 79, -1,
      79, 78, 80, -1,
      79, 80, 81, -1,
      81, 80, 82, -1,
      81, 82, 83, -1,
      83, 82, 84, -1,
      83, 84, 85, -1,
      85, 84, 86, -1,
      85, 86, 87, -1,
      86, 27, 87, -1,
      87, 27, 24, -1,
      24, 25, 87, -1,
      87, 25, 74, -1,
      74, 72, 87, -1,
      87, 72, 70, -1,
      87, 70, 68, -1,
      85, 87, 61, -1,
      61, 87, 62, -1,
      68, 66, 87, -1,
      87, 66, 64, -1,
      87, 64, 62, -1,
      79, 81, 83, -1,
      85, 61, 83, -1,
      83, 61, 77, -1,
      83, 77, 79, -1,
      74, 25, 75, -1,
      75, 25, 26, -1,
      26, 27, 75, -1,
      75, 27, 86, -1,
      75, 86, 73, -1,
      73, 86, 71, -1,
      86, 63, 65, -1,
      65, 67, 86, -1,
      86, 67, 69, -1,
      86, 69, 71, -1,
      63, 86, 60, -1,
      60, 86, 84, -1,
      60, 84, 82, -1,
      80, 78, 82, -1,
      82, 78, 76, -1,
      82, 76, 60, -1,
      88, 89, 90, -1,
      88, 90, 91, -1,
      91, 90, 92, -1,
      91, 92, 93, -1,
      93, 92, 94, -1,
      93, 94, 95, -1,
      95, 94, 96, -1,
      95, 96, 97, -1,
      97, 96, 98, -1,
      97, 98, 99, -1,
      99, 98, 100, -1,
      99, 100, 101, -1,
      101, 100, 102, -1,
      101, 102, 103, -1,
      89, 88, 104, -1,
      89, 104, 105, -1,
      105, 104, 106, -1,
      105, 106, 107, -1,
      107, 106, 108, -1,
      107, 108, 109, -1,
      109, 108, 110, -1,
      109, 110, 111, -1,
      111, 110, 112, -1,
      111, 112, 113, -1,
      113, 112, 114, -1,
      113, 114, 115, -1,
      114, 23, 115, -1,
      115, 23, 20, -1,
      20, 21, 115, -1,
      115, 21, 102, -1,
      113, 115, 89, -1,
      89, 115, 90, -1,
      107, 109, 111, -1,
      102, 100, 115, -1,
      115, 100, 98, -1,
      115, 98, 96, -1,
      113, 89, 111, -1,
      111, 89, 105, -1,
      111, 105, 107, -1,
      96, 94, 115, -1,
      115, 94, 92, -1,
      115, 92, 90, -1,
      102, 21, 103, -1,
      103, 21, 22, -1,
      114, 91, 93, -1,
      91, 114, 88, -1,
      88, 114, 112, -1,
      88, 112, 110, -1,
      22, 23, 103, -1,
      103, 23, 114, -1,
      103, 114, 101, -1,
      101, 114, 99, -1,
      108, 106, 110, -1,
      110, 106, 104, -1,
      110, 104, 88, -1,
      93, 95, 114, -1,
      114, 95, 97, -1,
      114, 97, 99, -1,
      116, 117, 118, -1,
      116, 118, 119, -1,
      119, 118, 120, -1,
      119, 120, 121, -1,
      121, 120, 122, -1,
      121, 122, 123, -1,
      123, 122, 124, -1,
      123, 124, 125, -1,
      125, 124, 126, -1,
      125, 126, 127, -1,
      127, 126, 128, -1,
      127, 128, 129, -1,
      129, 128, 130, -1,
      129, 130, 131, -1,
      117, 116, 132, -1,
      117, 132, 133, -1,
      133, 132, 134, -1,
      133, 134, 135, -1,
      135, 134, 136, -1,
      135, 136, 137, -1,
      137, 136, 138, -1,
      137, 138, 139, -1,
      139, 138, 140, -1,
      139, 140, 141, -1,
      141, 140, 142, -1,
      141, 142, 143, -1,
      142, 19, 143, -1,
      143, 19, 17, -1,
      141, 143, 117, -1,
      17, 16, 143, -1,
      143, 16, 130, -1,
      143, 130, 128, -1,
      135, 137, 139, -1,
      128, 126, 143, -1,
      143, 126, 124, -1,
      143, 124, 122, -1,
      122, 120, 143, -1,
      143, 120, 118, -1,
      143, 118, 117, -1,
      141, 117, 139, -1,
      139, 117, 133, -1,
      139, 133, 135, -1,
      130, 16, 131, -1,
      131, 16, 18, -1,
      140, 138, 116, -1,
      121, 123, 142, -1,
      142, 123, 125, -1,
      142, 125, 127, -1,
      140, 116, 142, -1,
      142, 116, 119, -1,
      142, 119, 121, -1,
      18, 19, 131, -1,
      131, 19, 142, -1,
      131, 142, 129, -1,
      129, 142, 127, -1,
      136, 134, 138, -1,
      138, 134, 132, -1,
      138, 132, 116, -1,
      144, 145, 146, -1,
      144, 146, 147, -1,
      147, 146, 148, -1,
      147, 148, 149, -1,
      149, 148, 150, -1,
      149, 150, 151, -1,
      151, 150, 152, -1,
      151, 152, 153, -1,
      153, 152, 154, -1,
      153, 154, 155, -1,
      155, 154, 156, -1,
      155, 156, 157, -1,
      157, 156, 158, -1,
      157, 158, 159, -1,
      145, 144, 160, -1,
      145, 160, 161, -1,
      161, 160, 162, -1,
      161, 162, 163, -1,
      163, 162, 164, -1,
      163, 164, 165, -1,
      165, 164, 166, -1,
      165, 166, 167, -1,
      167, 166, 168, -1,
      167, 168, 169, -1,
      169, 168, 170, -1,
      169, 170, 171, -1,
      170, 2, 171, -1,
      171, 2, 0, -1,
      169, 171, 145, -1,
      0, 3, 171, -1,
      171, 3, 158, -1,
      171, 158, 156, -1,
      163, 165, 167, -1,
      156, 154, 171, -1,
      171, 154, 152, -1,
      171, 152, 150, -1,
      150, 148, 171, -1,
      171, 148, 146, -1,
      171, 146, 145, -1,
      169, 145, 167, -1,
      167, 145, 161, -1,
      167, 161, 163, -1,
      158, 3, 159, -1,
      159, 3, 1, -1,
      144, 147, 170, -1,
      170, 153, 155, -1,
      166, 164, 162, -1,
      147, 149, 170, -1,
      170, 149, 151, -1,
      170, 151, 153, -1,
      1, 2, 159, -1,
      159, 2, 170, -1,
      159, 170, 157, -1,
      157, 170, 155, -1,
      170, 168, 144, -1,
      144, 168, 166, -1,
      144, 166, 160, -1,
      160, 166, 162, -1,
      172, 173, 174, -1,
      172, 174, 175, -1,
      175, 174, 176, -1,
      175, 176, 177, -1,
      177, 176, 178, -1,
      177, 178, 179, -1,
      179, 178, 180, -1,
      179, 180, 181, -1,
      181, 180, 182, -1,
      181, 182, 183, -1,
      183, 182, 184, -1,
      183, 184, 185, -1,
      185, 184, 186, -1,
      185, 186, 187, -1,
      173, 172, 188, -1,
      173, 188, 189, -1,
      189, 188, 190, -1,
      189, 190, 191, -1,
      191, 190, 192, -1,
      191, 192, 193, -1,
      193, 192, 194, -1,
      193, 194, 195, -1,
      195, 194, 196, -1,
      195, 196, 197, -1,
      197, 196, 198, -1,
      197, 198, 199, -1,
      198, 13, 199, -1,
      199, 13, 12, -1,
      197, 199, 173, -1,
      12, 14, 199, -1,
      199, 14, 186, -1,
      199, 186, 184, -1,
      191, 193, 195, -1,
      184, 182, 199, -1,
      199, 182, 180, -1,
      199, 180, 178, -1,
      178, 176, 199, -1,
      199, 176, 174, -1,
      199, 174, 173, -1,
      197, 173, 195, -1,
      195, 173, 189, -1,
      195, 189, 191, -1,
      186, 14, 187, -1,
      187, 14, 15, -1,
      172, 175, 198, -1,
      198, 181, 183, -1,
      194, 192, 190, -1,
      175, 177, 198, -1,
      198, 177, 179, -1,
      198, 179, 181, -1,
      15, 13, 187, -1,
      187, 13, 198, -1,
      187, 198, 185, -1,
      185, 198, 183, -1,
      198, 196, 172, -1,
      172, 196, 194, -1,
      172, 194, 188, -1,
      188, 194, 190, -1,
      200, 201, 202, -1,
      200, 202, 203, -1,
      203, 202, 204, -1,
      203, 204, 205, -1,
      205, 204, 206, -1,
      205, 206, 207, -1,
      207, 206, 208, -1,
      207, 208, 209, -1,
      209, 208, 210, -1,
      209, 210, 211, -1,
      211, 210, 212, -1,
      211, 212, 213, -1,
      213, 212, 214, -1,
      213, 214, 215, -1,
      201, 200, 216, -1,
      201, 216, 217, -1,
      217, 216, 218, -1,
      217, 218, 219, -1,
      219, 218, 220, -1,
      219, 220, 221, -1,
      221, 220, 222, -1,
      221, 222, 223, -1,
      223, 222, 224, -1,
      223, 224, 225, -1,
      225, 224, 226, -1,
      225, 226, 227, -1,
      226, 11, 227, -1,
      227, 11, 9, -1,
      9, 8, 227, -1,
      227, 8, 214, -1,
      225, 227, 201, -1,
      201, 227, 202, -1,
      214, 212, 227, -1,
      227, 212, 210, -1,
      227, 210, 208, -1,
      219, 221, 223, -1,
      208, 206, 227, -1,
      227, 206, 204, -1,
      227, 204, 202, -1,
      225, 201, 223, -1,
      223, 201, 217, -1,
      223, 217, 219, -1,
      214, 8, 215, -1,
      215, 8, 10, -1,
      203, 205, 226, -1,
      203, 226, 200, -1,
      10, 11, 215, -1,
      215, 11, 226, -1,
      215, 226, 213, -1,
      213, 226, 211, -1,
      205, 207, 226, -1,
      226, 207, 209, -1,
      226, 209, 211, -1,
      222, 220, 218, -1,
      226, 224, 200, -1,
      200, 224, 222, -1,
      200, 222, 216, -1,
      216, 222, 218, -1,
      228, 229, 230, -1,
      228, 230, 231, -1,
      231, 230, 232, -1,
      231, 232, 233, -1,
      233, 232, 234, -1,
      233, 234, 235, -1,
      235, 234, 236, -1,
      235, 236, 237, -1,
      237, 236, 238, -1,
      237, 238, 239, -1,
      239, 238, 240, -1,
      239, 240, 241, -1,
      241, 240, 242, -1,
      241, 242, 243, -1,
      229, 228, 244, -1,
      229, 244, 245, -1,
      245, 244, 246, -1,
      245, 246, 247, -1,
      247, 246, 248, -1,
      247, 248, 249, -1,
      249, 248, 250, -1,
      249, 250, 251, -1,
      251, 250, 252, -1,
      251, 252, 253, -1,
      253, 252, 254, -1,
      253, 254, 255, -1,
      254, 7, 255, -1,
      255, 7, 4, -1,
      4, 5, 255, -1,
      255, 5, 242, -1,
      253, 255, 229, -1,
      229, 255, 230, -1,
      247, 249, 251, -1,
      242, 240, 255, -1,
      255, 240, 238, -1,
      255, 238, 236, -1,
      253, 229, 251, -1,
      251, 229, 245, -1,
      251, 245, 247, -1,
      236, 234, 255, -1,
      255, 234, 232, -1,
      255, 232, 230, -1,
      242, 5, 243, -1,
      243, 5, 6, -1,
      254, 231, 233, -1,
      231, 254, 228, -1,
      228, 254, 252, -1,
      228, 252, 250, -1,
      6, 7, 243, -1,
      243, 7, 254, -1,
      243, 254, 241, -1,
      241, 254, 239, -1,
      248, 246, 250, -1,
      250, 246, 244, -1,
      250, 244, 228, -1,
      233, 235, 254, -1,
      254, 235, 237, -1,
      254, 237, 239, -1,
    ]
  }
}

Shape {
  appearance Appearance {
    material Material {
      diffuseColor 0.5020 0.5020 0.5020
      specularColor 0.2510 0.2510 0.2510
      ambientIntensity 0.2
      transparency 0.0000
      shininess 0.5
    }
  }
  geometry IndexedFaceSet {
    ccw TRUE
    solid FALSE
    coord DEF co Coordinate {
      point [
        -2.000000 0.196850 0.118110,
        -2.545276 0.196850 0.118110,
        -1.500000 0.196850 0.118110,
        -1.000000 0.196850 0.118110,
        -0.500000 0.196850 0.118110,
        1.000000 0.196850 0.118110,
        1.500000 0.196850 0.118110,
        2.000000 0.196850 0.118110,
        2.437008 0.196850 0.118110,
        2.545276 0.196850 0.118110,
        -0.500000 -0.196850 0.118110,
        -1.000000 -0.196850 0.118110,
        -1.500000 -0.196850 0.118110,
        -2.000000 -0.196850 0.118110,
        -2.545276 -0.196850 0.118110,
        1.000000 -0.196850 0.118110,
        1.500000 -0.196850 0.118110,
        2.000000 -0.196850 0.118110,
        2.437008 -0.196850 0.118110,
        2.545276 -0.196850 0.118110,
        2.053150 -0.196850 1.692913,
        2.092520 -0.157480 1.653543,
        2.053150 0.196850 1.692913,
        2.092520 0.157480 1.653543,
        2.407480 -0.157480 1.653543,
        2.446850 -0.196850 1.692913,
        2.446850 0.196850 1.692913,
        2.407480 0.157480 1.653543,
        2.092520 0.157480 0.511811,
        2.407480 0.157480 0.511811,
        2.092520 -0.157480 0.511811,
        2.407480 -0.157480 0.511811,
        1.553150 -0.196850 1.692913,
        1.592520 -0.157480 1.653543,
        1.553150 0.196850 1.692913,
        1.592520 0.157480 1.653543,
        1.907480 -0.157480 1.653543,
        1.946850 -0.196850 1.692913,
        1.946850 0.196850 1.692913,
        1.907480 0.157480 1.653543,
        1.592520 0.157480 0.511811,
        1.907480 0.157480 0.511811,
        1.592520 -0.157480 0.511811,
        1.907480 -0.157480 0.511811,
        1.053150 -0.196850 1.692913,
        1.092520 -0.157480 1.653543,
        1.053150 0.196850 1.692913,
        1.092520 0.157480 1.653543,
        1.407480 -0.157480 1.653543,
        1.446850 -0.196850 1.692913,
        1.446850 0.196850 1.692913,
        1.407480 0.157480 1.653543,
        1.092520 0.157480 0.511811,
        1.407480 0.157480 0.511811,
        1.092520 -0.157480 0.511811,
        1.407480 -0.157480 0.511811,
        0.553150 -0.196850 1.692913,
        0.592520 -0.157480 1.653543,
        0.553150 0.196850 1.692913,
        0.592520 0.157480 1.653543,
        0.907480 -0.157480 1.653543,
        0.946850 -0.196850 1.692913,
        0.946850 0.196850 1.692913,
        0.907480 0.157480 1.653543,
        0.592520 0.157480 0.511811,
        0.907480 0.157480 0.511811,
        0.592520 -0.157480 0.511811,
        0.907480 -0.157480 0.511811,
        0.053150 -0.196850 1.692913,
        0.092520 -0.157480 1.653543,
        0.053150 0.196850 1.692913,
        0.092520 0.157480 1.653543,
        0.407480 -0.157480 1.653543,
        0.446850 -0.196850 1.692913,
        0.446850 0.196850 1.692913,
        0.407480 0.157480 1.653543,
        0.092520 0.157480 0.511811,
        0.407480 0.157480 0.511811,
        0.092520 -0.157480 0.511811,
        0.407480 -0.157480 0.511811,
        -0.446850 -0.196850 1.692913,
        -0.407480 -0.157480 1.653543,
        -0.446850 0.196850 1.692913,
        -0.407480 0.157480 1.653543,
        -0.092520 -0.157480 1.653543,
        -0.053150 -0.196850 1.692913,
        -0.053150 0.196850 1.692913,
        -0.092520 0.157480 1.653543,
        -0.407480 0.157480 0.511811,
        -0.092520 0.157480 0.511811,
        -0.407480 -0.157480 0.511811,
        -0.092520 -0.157480 0.511811,
        -0.946850 -0.196850 1.692913,
        -0.907480 -0.157480 1.653543,
        -0.946850 0.196850 1.692913,
        -0.907480 0.157480 1.653543,
        -0.592520 -0.157480 1.653543,
        -0.553150 -0.196850 1.692913,
        -0.553150 0.196850 1.692913,
        -0.592520 0.157480 1.653543,
        -0.907480 0.157480 0.511811,
        -0.592520 0.157480 0.511811,
        -0.907480 -0.157480 0.511811,
        -0.592520 -0.157480 0.511811,
        -1.446850 -0.196850 1.692913,
        -1.407480 -0.157480 1.653543,
        -1.446850 0.196850 1.692913,
        -1.407480 0.157480 1.653543,
        -1.092520 -0.157480 1.653543,
        -1.053150 -0.196850 1.692913,
        -1.053150 0.196850 1.692913,
        -1.092520 0.157480 1.653543,
        -1.407480 0.157480 0.511811,
        -1.092520 0.157480 0.511811,
        -1.407480 -0.157480 0.511811,
        -1.092520 -0.157480 0.511811,
        2.545276 -0.354331 1.692913,
        2.545276 -0.275591 1.692913,
        2.000000 -0.275591 1.692913,
        2.545276 0.354331 1.692913,
        2.000000 0.354331 1.692913,
        1.500000 -0.275591 1.692913,
        1.500000 0.354331 1.692913,
        1.000000 -0.275591 1.692913,
        1.000000 0.354331 1.692913,
        0.500000 -0.275591 1.692913,
        0.500000 0.354331 1.692913,
        -0.000000 -0.275591 1.692913,
        -0.000000 0.354331 1.692913,
        -1.000000 0.354331 1.692913,
        -1.000000 -0.275591 1.692913,
        -1.500000 -0.275591 1.692913,
        -1.500000 0.354331 1.692913,
        -1.946850 -0.196850 1.692913,
        -2.000000 -0.275591 1.692913,
        -1.553150 -0.196850 1.692913,
        -1.553150 0.196850 1.692913,
        -1.946850 0.196850 1.692913,
        -2.000000 0.354331 1.692913,
        -2.496063 -0.275591 1.692913,
        -2.446850 -0.196850 1.692913,
        -2.446850 0.196850 1.692913,
        -2.053150 -0.196850 1.692913,
        -2.053150 0.196850 1.692913,
        -2.496063 0.354331 1.692913,
        -2.545276 0.354331 1.692913,
        -2.545276 -0.275591 1.692913,
        2.000000 -0.354331 1.692913,
        1.500000 -0.354331 1.692913,
        1.000000 -0.354331 1.692913,
        0.500000 -0.354331 1.692913,
        -0.000000 -0.354331 1.692913,
        -1.000000 -0.354331 1.692913,
        -1.500000 -0.354331 1.692913,
        -2.000000 -0.354331 1.692913,
        -2.496063 -0.354331 1.692913,
        -2.545276 -0.354331 1.692913,
        -2.545276 0.196850 0.000000,
        -2.545276 0.354331 0.000000,
        2.545276 0.196850 0.000000,
        2.545276 0.354331 0.000000,
        2.545276 -0.354331 0.000000,
        2.545276 -0.196850 0.000000,
        2.545276 -0.113189 0.118110,
        -2.545276 -0.196850 0.000000,
        -2.545276 -0.354331 0.000000,
        -2.545276 -0.113189 0.118110,
        0.000000 0.196850 0.118110,
        0.000000 -0.196850 0.118110,
        -2.092520 0.157480 1.653543,
        -2.092520 0.157480 0.511811,
        -2.092520 -0.157480 1.653543,
        -2.092520 -0.157480 0.511811,
        -2.407480 -0.157480 1.653543,
        -2.407480 -0.157480 0.511811,
        -2.407480 0.157480 1.653543,
        -2.407480 0.157480 0.511811,
        -1.592520 0.157480 1.653543,
        -1.592520 0.157480 0.511811,
        -1.592520 -0.157480 1.653543,
        -1.592520 -0.157480 0.511811,
        -1.907480 -0.157480 1.653543,
        -1.907480 -0.157480 0.511811,
        -1.907480 0.157480 1.653543,
        -1.907480 0.157480 0.511811,
      ]
    }
    coordIndex [
      20, 21, 22, -1,
      22, 21, 23, -1,
      21, 20, 24, -1,
      24, 20, 25, -1,
      26, 27, 25, -1,
      25, 27, 24, -1,
      22, 23, 26, -1,
      26, 23, 27, -1,
      23, 28, 27, -1,
      27, 28, 29, -1,
      28, 30, 29, -1,
      29, 30, 31, -1,
      21, 30, 23, -1,
      23, 30, 28, -1,
      24, 31, 21, -1,
      21, 31, 30, -1,
      27, 29, 24, -1,
      24, 29, 31, -1,
      32, 33, 34, -1,
      34, 33, 35, -1,
      33, 32, 36, -1,
      36, 32, 37, -1,
      38, 39, 37, -1,
      37, 39, 36, -1,
      34, 35, 38, -1,
      38, 35, 39, -1,
      35, 40, 39, -1,
      39, 40, 41, -1,
      40, 42, 41, -1,
      41, 42, 43, -1,
      33, 42, 35, -1,
      35, 42, 40, -1,
      36, 43, 33, -1,
      33, 43, 42, -1,
      39, 41, 36, -1,
      36, 41, 43, -1,
      44, 45, 46, -1,
      46, 45, 47, -1,
      45, 44, 48, -1,
      48, 44, 49, -1,
      50, 51, 49, -1,
      49, 51, 48, -1,
      46, 47, 50, -1,
      50, 47, 51, -1,
      47, 52, 51, -1,
      51, 52, 53, -1,
      52, 54, 53, -1,
      53, 54, 55, -1,
      45, 54, 47, -1,
      47, 54, 52, -1,
      48, 55, 45, -1,
      45, 55, 54, -1,
      51, 53, 48, -1,
      48, 53, 55, -1,
      56, 57, 58, -1,
      58, 57, 59, -1,
      57, 56, 60, -1,
      60, 56, 61, -1,
      62, 63, 61, -1,
      61, 63, 60, -1,
      58, 59, 62, -1,
      62, 59, 63, -1,
      59, 64, 63, -1,
      63, 64, 65, -1,
      64, 66, 65, -1,
      65, 66, 67, -1,
      57, 66, 59, -1,
      59, 66, 64, -1,
      60, 67, 57, -1,
      57, 67, 66, -1,
      63, 65, 60, -1,
      60, 65, 67, -1,
      68, 69, 70, -1,
      70, 69, 71, -1,
      69, 68, 72, -1,
      72, 68, 73, -1,
      74, 75, 73, -1,
      73, 75, 72, -1,
      70, 71, 74, -1,
      74, 71, 75, -1,
      71, 76, 75, -1,
      75, 76, 77, -1,
      76, 78, 77, -1,
      77, 78, 79, -1,
      69, 78, 71, -1,
      71, 78, 76, -1,
      72, 79, 69, -1,
      69, 79, 78, -1,
      75, 77, 72, -1,
      72, 77, 79, -1,
      80, 81, 82, -1,
      82, 81, 83, -1,
      81, 80, 84, -1,
      84, 80, 85, -1,
      86, 87, 85, -1,
      85, 87, 84, -1,
      82, 83, 86, -1,
      86, 83, 87, -1,
      83, 88, 87, -1,
      87, 88, 89, -1,
      88, 90, 89, -1,
      89, 90, 91, -1,
      81, 90, 83, -1,
      83, 90, 88, -1,
      84, 91, 81, -1,
      81, 91, 90, -1,
      87, 89, 84, -1,
      84, 89, 91, -1,
      92, 93, 94, -1,
      94, 93, 95, -1,
      93, 92, 96, -1,
      96, 92, 97, -1,
      98, 99, 97, -1,
      97, 99, 96, -1,
      94, 95, 98, -1,
      98, 95, 99, -1,
      95, 100, 99, -1,
      99, 100, 101, -1,
      100, 102, 101, -1,
      101, 102, 103, -1,
      93, 102, 95, -1,
      95, 102, 100, -1,
      96, 103, 93, -1,
      93, 103, 102, -1,
      99, 101, 96, -1,
      96, 101, 103, -1,
      104, 105, 106, -1,
      106, 105, 107, -1,
      105, 104, 108, -1,
      108, 104, 109, -1,
      110, 111, 109, -1,
      109, 111, 108, -1,
      106, 107, 110, -1,
      110, 107, 111, -1,
      107, 112, 111, -1,
      111, 112, 113, -1,
      112, 114, 113, -1,
      113, 114, 115, -1,
      105, 114, 107, -1,
      107, 114, 112, -1,
      108, 115, 105, -1,
      105, 115, 114, -1,
      111, 113, 108, -1,
      108, 113, 115, -1,
      116, 117, 118, -1,
      20, 118, 25, -1,
      25, 118, 117, -1,
      25, 117, 26, -1,
      26, 117, 119, -1,
      26, 119, 22, -1,
      22, 119, 120, -1,
      22, 120, 20, -1,
      20, 120, 118, -1,
      32, 121, 37, -1,
      37, 121, 118, -1,
      37, 118, 38, -1,
      38, 118, 120, -1,
      38, 120, 34, -1,
      34, 120, 122, -1,
      34, 122, 32, -1,
      32, 122, 121, -1,
      44, 123, 49, -1,
      49, 123, 121, -1,
      49, 121, 50, -1,
      50, 121, 122, -1,
      50, 122, 46, -1,
      46, 122, 124, -1,
      46, 124, 44, -1,
      44, 124, 123, -1,
      56, 125, 61, -1,
      61, 125, 123, -1,
      61, 123, 62, -1,
      62, 123, 124, -1,
      62, 124, 58, -1,
      58, 124, 126, -1,
      58, 126, 56, -1,
      56, 126, 125, -1,
      68, 127, 73, -1,
      73, 127, 125, -1,
      73, 125, 74, -1,
      74, 125, 126, -1,
      74, 126, 70, -1,
      70, 126, 128, -1,
      70, 128, 68, -1,
      68, 128, 127, -1,
      82, 98, 80, -1,
      80, 98, 97, -1,
      94, 129, 92, -1,
      92, 129, 130, -1,
      92, 130, 97, -1,
      97, 130, 127, -1,
      97, 127, 80, -1,
      94, 98, 129, -1,
      129, 98, 82, -1,
      129, 82, 128, -1,
      128, 82, 86, -1,
      128, 86, 127, -1,
      127, 86, 85, -1,
      127, 85, 80, -1,
      104, 131, 109, -1,
      109, 131, 130, -1,
      109, 130, 110, -1,
      110, 130, 129, -1,
      110, 129, 106, -1,
      106, 129, 132, -1,
      106, 132, 104, -1,
      104, 132, 131, -1,
      133, 134, 135, -1,
      135, 134, 131, -1,
      135, 131, 136, -1,
      136, 131, 132, -1,
      136, 132, 137, -1,
      137, 132, 138, -1,
      137, 138, 133, -1,
      133, 138, 134, -1,
      139, 140, 141, -1,
      140, 139, 142, -1,
      142, 139, 134, -1,
      142, 134, 143, -1,
      143, 134, 138, -1,
      143, 138, 141, -1,
      141, 138, 144, -1,
      141, 144, 139, -1,
      139, 144, 145, -1,
      139, 145, 146, -1,
      116, 118, 147, -1,
      147, 118, 121, -1,
      147, 121, 148, -1,
      148, 121, 123, -1,
      148, 123, 149, -1,
      149, 123, 125, -1,
      149, 125, 150, -1,
      150, 125, 127, -1,
      150, 127, 151, -1,
      151, 127, 130, -1,
      151, 130, 152, -1,
      152, 130, 131, -1,
      152, 131, 153, -1,
      153, 131, 134, -1,
      153, 134, 154, -1,
      154, 134, 139, -1,
      154, 139, 155, -1,
      155, 139, 146, -1,
      155, 146, 156, -1,
      157, 158, 159, -1,
      159, 158, 160, -1,
      161, 162, 19, -1,
      159, 160, 9, -1,
      9, 160, 119, -1,
      9, 119, 163, -1,
      163, 119, 117, -1,
      163, 117, 19, -1,
      19, 117, 116, -1,
      19, 116, 161, -1,
      145, 144, 158, -1,
      158, 144, 138, -1,
      158, 138, 132, -1,
      132, 129, 158, -1,
      158, 129, 128, -1,
      158, 128, 160, -1,
      160, 128, 126, -1,
      160, 126, 124, -1,
      124, 122, 160, -1,
      160, 122, 120, -1,
      160, 120, 119, -1,
      14, 164, 165, -1,
      165, 156, 14, -1,
      14, 156, 146, -1,
      14, 146, 166, -1,
      166, 146, 145, -1,
      166, 145, 1, -1,
      1, 145, 158, -1,
      1, 158, 157, -1,
      116, 147, 161, -1,
      161, 147, 148, -1,
      161, 148, 149, -1,
      149, 150, 161, -1,
      161, 150, 151, -1,
      161, 151, 165, -1,
      165, 151, 152, -1,
      165, 152, 153, -1,
      153, 154, 165, -1,
      165, 154, 155, -1,
      165, 155, 156, -1,
      162, 161, 164, -1,
      164, 161, 165, -1,
      9, 8, 159, -1,
      159, 8, 7, -1,
      159, 7, 6, -1,
      6, 5, 159, -1,
      159, 5, 167, -1,
      159, 167, 157, -1,
      157, 167, 4, -1,
      157, 4, 3, -1,
      3, 2, 157, -1,
      157, 2, 0, -1,
      157, 0, 1, -1,
      14, 13, 164, -1,
      164, 13, 12, -1,
      164, 12, 11, -1,
      11, 10, 164, -1,
      164, 10, 168, -1,
      164, 168, 162, -1,
      162, 168, 15, -1,
      162, 15, 16, -1,
      16, 17, 162, -1,
      162, 17, 18, -1,
      162, 18, 19, -1,
      169, 170, 171, -1,
      171, 170, 172, -1,
      171, 172, 173, -1,
      173, 172, 174, -1,
      173, 174, 175, -1,
      175, 174, 176, -1,
      175, 176, 169, -1,
      169, 176, 170, -1,
      176, 174, 170, -1,
      170, 174, 172, -1,
      143, 169, 142, -1,
      142, 169, 171, -1,
      141, 175, 143, -1,
      143, 175, 169, -1,
      173, 140, 171, -1,
      171, 140, 142, -1,
      140, 173, 141, -1,
      141, 173, 175, -1,
      177, 178, 179, -1,
      179, 178, 180, -1,
      179, 180, 181, -1,
      181, 180, 182, -1,
      181, 182, 183, -1,
      183, 182, 184, -1,
      184, 182, 178, -1,
      178, 182, 180, -1,
      183, 184, 177, -1,
      177, 184, 178, -1,
      137, 183, 136, -1,
      136, 183, 177, -1,
      136, 177, 135, -1,
      135, 177, 179, -1,
      181, 133, 179, -1,
      179, 133, 135, -1,
      133, 181, 137, -1,
      137, 181, 183, -1,
    ]
  }
}

Shape {
  appearance Appearance {
    material Material {
      diffuseColor 1.0000 1.0000 1.0000
      specularColor 0.5020 0.5020 0.5020
      ambientIntensity 0.2
      transparency 0.0000
      shininess 0.5
    }
  }
  geometry IndexedFaceSet {
    ccw TRUE
    solid FALSE
    coord DEF co Coordinate {
      point [
        0.192543 -0.158214 0.118110,
        0.159576 -0.158214 0.118110,
        0.192543 -0.053067 0.118110,
        0.208387 -0.053067 0.118110,
        0.208387 -0.171178 0.118110,
        0.077606 -0.064590 0.118110,
        0.089237 -0.065896 0.118110,
        0.052064 -0.153265 0.118110,
        0.147892 -0.171178 0.118110,
        0.159576 -0.171178 0.118110,
        0.049947 -0.152093 0.118110,
        0.049947 -0.165056 0.118110,
        0.062537 -0.170225 0.118110,
        0.074472 -0.171898 0.118110,
        0.063251 -0.066455 0.118110,
        0.049947 -0.072152 0.118110,
        0.049947 -0.056308 0.118110,
        0.131576 -0.084176 0.118110,
        0.124653 -0.073133 0.118110,
        0.113990 -0.062878 0.118110,
        0.102772 -0.056420 0.118110,
        0.097001 -0.171109 0.118110,
        0.108448 -0.167168 0.118110,
        0.117949 -0.161101 0.118110,
        0.126820 -0.151761 0.118110,
        0.147892 -0.158214 0.118110,
        0.133113 -0.140531 0.118110,
        0.098077 -0.069087 0.118110,
        0.106252 -0.074556 0.118110,
        0.113384 -0.082430 0.118110,
        0.121965 -0.113383 0.118110,
        0.120769 -0.126169 0.118110,
        0.117561 -0.136328 0.118110,
        0.091279 -0.158419 0.118110,
        0.080262 -0.159654 0.118110,
        0.099885 -0.155250 0.118110,
        0.107133 -0.150365 0.118110,
        0.112676 -0.144518 0.118110,
        0.064584 -0.157914 0.118110,
        0.118254 -0.091549 0.118110,
        0.121402 -0.104193 0.118110,
        0.136667 -0.128029 0.118110,
        0.137809 -0.114350 0.118110,
        0.136110 -0.097559 0.118110,
        0.089604 -0.052595 0.118110,
        0.077741 -0.051627 0.118110,
        0.063602 -0.052602 0.118110,
        0.079216 -0.172562 0.118110,
        0.082445 -0.172618 0.118110,
        0.089391 -0.171898 0.118110,
        -0.252531 -0.171178 0.118110,
        -0.240580 -0.138049 0.118110,
        -0.191787 -0.138049 0.118110,
        -0.167244 -0.160554 0.118110,
        -0.207879 -0.053067 0.118110,
        -0.223723 -0.053067 0.118110,
        -0.180512 -0.171178 0.118110,
        -0.269815 -0.171178 0.118110,
        -0.163228 -0.171178 0.118110,
        -0.167244 -0.171178 0.118110,
        -2.171260 0.029528 0.118110,
        -2.171260 -0.029528 0.118110,
        -2.328740 -0.029528 0.118110,
        -2.328740 0.029528 0.118110,
        -1.671260 0.029528 0.118110,
        -1.671260 -0.029528 0.118110,
        -1.828740 -0.029528 0.118110,
        -1.828740 0.029528 0.118110,
        -0.092852 -0.053067 0.118110,
        -0.109916 -0.054891 0.118110,
        -0.123735 -0.059744 0.118110,
        -0.136590 -0.068359 0.118110,
        -0.148688 -0.138806 0.118110,
        -0.141915 -0.149370 0.118110,
        -0.132193 -0.158678 0.118110,
        -0.119860 -0.165845 0.118110,
        -0.136714 -0.068467 0.118110,
        -0.145066 -0.077729 0.118110,
        -0.150555 -0.087886 0.118110,
        -0.153727 -0.099523 0.118110,
        -0.154585 -0.110637 0.118110,
        -0.152928 -0.126443 0.118110,
        -0.106251 -0.169902 0.118110,
        -0.091637 -0.171178 0.118110,
        -0.059521 -0.171178 0.118110,
        -0.059521 -0.053067 0.118110,
        -0.033594 -0.053067 0.118110,
        0.026901 -0.053067 0.118110,
        0.026901 -0.171178 0.118110,
        -0.036475 -0.171178 0.118110,
        -0.036475 -0.158214 0.118110,
        -0.033594 -0.066030 0.118110,
        0.011057 -0.117884 0.118110,
        0.011057 -0.158214 0.118110,
        -0.030714 -0.117884 0.118110,
        -0.030714 -0.104920 0.118110,
        0.011057 -0.104920 0.118110,
        0.011057 -0.066030 0.118110,
        -2.328740 0.029528 -0.866142,
        -2.171260 0.029528 -0.866142,
        -2.326766 0.029528 -0.883663,
        -2.320943 0.029528 -0.900306,
        -2.267521 0.029528 -0.942908,
        -2.284164 0.029528 -0.937084,
        -2.299094 0.029528 -0.927703,
        -2.311561 0.029528 -0.915235,
        -2.250000 0.029528 -0.944882,
        -2.173943 0.029528 -0.886521,
        -2.181809 0.029528 -0.905512,
        -2.194322 0.029528 -0.921819,
        -2.210630 0.029528 -0.934333,
        -2.229620 0.029528 -0.942199,
        -2.328740 -0.029528 -0.866142,
        -2.171260 -0.029528 -0.866142,
        -2.326766 -0.029528 -0.883663,
        -2.320943 -0.029528 -0.900306,
        -2.311561 -0.029528 -0.915235,
        -2.173943 -0.029528 -0.886521,
        -2.250000 -0.029528 -0.944882,
        -2.267521 -0.029528 -0.942908,
        -2.299094 -0.029528 -0.927703,
        -2.284164 -0.029528 -0.937084,
        -2.210630 -0.029528 -0.934333,
        -2.194322 -0.029528 -0.921819,
        -2.181809 -0.029528 -0.905512,
        -2.229620 -0.029528 -0.942199,
        -1.828740 0.029528 -0.866142,
        -1.671260 0.029528 -0.866142,
        -1.826766 0.029528 -0.883663,
        -1.820943 0.029528 -0.900306,
        -1.767521 0.029528 -0.942908,
        -1.784164 0.029528 -0.937084,
        -1.799094 0.029528 -0.927703,
        -1.811562 0.029528 -0.915235,
        -1.750000 0.029528 -0.944882,
        -1.673943 0.029528 -0.886521,
        -1.681809 0.029528 -0.905512,
        -1.694322 0.029528 -0.921819,
        -1.710630 0.029528 -0.934333,
        -1.729620 0.029528 -0.942199,
        -1.828740 -0.029528 -0.866142,
        -1.671260 -0.029528 -0.866142,
        -1.826766 -0.029528 -0.883663,
        -1.820943 -0.029528 -0.900306,
        -1.811562 -0.029528 -0.915235,
        -1.673943 -0.029528 -0.886521,
        -1.750000 -0.029528 -0.944882,
        -1.767521 -0.029528 -0.942908,
        -1.799094 -0.029528 -0.927703,
        -1.784164 -0.029528 -0.937084,
        -1.710630 -0.029528 -0.934333,
        -1.694322 -0.029528 -0.921819,
        -1.681809 -0.029528 -0.905512,
        -1.729620 -0.029528 -0.942199,
        -0.223723 -0.053067 0.118504,
        -0.269815 -0.171178 0.118504,
        -0.252531 -0.171178 0.118504,
        -0.240580 -0.138049 0.118504,
        -0.191787 -0.138049 0.118504,
        -0.180512 -0.171178 0.118504,
        -0.163228 -0.171178 0.118504,
        -0.207879 -0.053067 0.118504,
        -0.195771 -0.125085 0.118504,
        -0.235269 -0.125085 0.118504,
        -0.213393 -0.075753 0.118504,
        -0.214530 -0.071657 0.118504,
        -0.215283 -0.067471 0.118504,
        -0.215666 -0.067471 0.118504,
        -0.216437 -0.071644 0.118504,
        -0.217489 -0.075753 0.118504,
        -0.195771 -0.125085 0.118110,
        -0.235269 -0.125085 0.118110,
        -0.213393 -0.075753 0.118110,
        -0.214530 -0.071657 0.118110,
        -0.215283 -0.067471 0.118110,
        -0.215666 -0.067471 0.118110,
        -0.216437 -0.071644 0.118110,
        -0.217489 -0.075753 0.118110,
        -0.091637 -0.171178 0.118504,
        -0.059521 -0.171178 0.118504,
        -0.059521 -0.053067 0.118504,
        -0.092852 -0.053067 0.118504,
        -0.154585 -0.110637 0.118504,
        -0.153727 -0.099523 0.118504,
        -0.150555 -0.087886 0.118504,
        -0.145066 -0.077729 0.118504,
        -0.136714 -0.068467 0.118504,
        -0.136590 -0.068359 0.118504,
        -0.123735 -0.059744 0.118504,
        -0.109916 -0.054891 0.118504,
        -0.106251 -0.169902 0.118504,
        -0.119860 -0.165845 0.118504,
        -0.132193 -0.158678 0.118504,
        -0.141915 -0.149370 0.118504,
        -0.148688 -0.138806 0.118504,
        -0.152928 -0.126443 0.118504,
        -0.130878 -0.082593 0.118504,
        -0.125141 -0.076502 0.118504,
        -0.116513 -0.070928 0.118504,
        -0.106764 -0.067517 0.118504,
        -0.092785 -0.066030 0.118504,
        -0.075365 -0.066030 0.118504,
        -0.075365 -0.158214 0.118504,
        -0.092132 -0.158214 0.118504,
        -0.104593 -0.157054 0.118504,
        -0.114532 -0.153952 0.118504,
        -0.122587 -0.149169 0.118504,
        -0.129211 -0.142626 0.118504,
        -0.134193 -0.134482 0.118504,
        -0.137657 -0.123380 0.118504,
        -0.138741 -0.110974 0.118504,
        -0.137738 -0.099220 0.118504,
        -0.134981 -0.089878 0.118504,
        -0.092785 -0.066030 0.118110,
        -0.075365 -0.066030 0.118110,
        -0.106764 -0.067517 0.118110,
        -0.116513 -0.070928 0.118110,
        -0.125141 -0.076502 0.118110,
        -0.130878 -0.082593 0.118110,
        -0.134981 -0.089878 0.118110,
        -0.137738 -0.099220 0.118110,
        -0.138741 -0.110974 0.118110,
        -0.137657 -0.123380 0.118110,
        -0.134193 -0.134482 0.118110,
        -0.129211 -0.142626 0.118110,
        -0.122587 -0.149169 0.118110,
        -0.114532 -0.153952 0.118110,
        -0.104593 -0.157054 0.118110,
        -0.092132 -0.158214 0.118110,
        -0.075365 -0.158214 0.118110,
        -0.036475 -0.158214 0.118504,
        -0.036475 -0.171178 0.118504,
        0.026901 -0.171178 0.118504,
        0.026901 -0.053067 0.118504,
        -0.033594 -0.053067 0.118504,
        -0.033594 -0.066030 0.118504,
        0.011057 -0.066030 0.118504,
        0.011057 -0.104920 0.118504,
        -0.030714 -0.104920 0.118504,
        -0.030714 -0.117884 0.118504,
        0.011057 -0.117884 0.118504,
        0.011057 -0.158214 0.118504,
        0.049947 -0.152093 0.118504,
        0.049947 -0.165056 0.118504,
        0.062537 -0.170225 0.118504,
        0.082445 -0.172618 0.118504,
        0.079216 -0.172562 0.118504,
        0.097001 -0.171109 0.118504,
        0.108448 -0.167168 0.118504,
        0.117949 -0.161101 0.118504,
        0.126820 -0.151761 0.118504,
        0.133113 -0.140531 0.118504,
        0.136667 -0.128029 0.118504,
        0.137809 -0.114350 0.118504,
        0.077741 -0.051627 0.118504,
        0.089604 -0.052595 0.118504,
        0.102772 -0.056420 0.118504,
        0.113990 -0.062878 0.118504,
        0.124653 -0.073133 0.118504,
        0.131576 -0.084176 0.118504,
        0.136110 -0.097559 0.118504,
        0.049947 -0.056308 0.118504,
        0.063602 -0.052602 0.118504,
        0.049947 -0.072152 0.118504,
        0.077606 -0.064590 0.118504,
        0.063251 -0.066455 0.118504,
        0.121965 -0.113383 0.118504,
        0.121402 -0.104193 0.118504,
        0.118254 -0.091549 0.118504,
        0.113384 -0.082430 0.118504,
        0.106252 -0.074556 0.118504,
        0.098077 -0.069087 0.118504,
        0.089237 -0.065896 0.118504,
        0.080262 -0.159654 0.118504,
        0.091279 -0.158419 0.118504,
        0.099885 -0.155250 0.118504,
        0.107133 -0.150365 0.118504,
        0.112676 -0.144518 0.118504,
        0.117561 -0.136328 0.118504,
        0.120769 -0.126169 0.118504,
        0.052064 -0.153265 0.118504,
        0.064584 -0.157914 0.118504,
        0.147892 -0.158214 0.118504,
        0.147892 -0.171178 0.118504,
        0.208387 -0.171178 0.118504,
        0.208387 -0.053067 0.118504,
        0.192543 -0.053067 0.118504,
        0.192543 -0.158214 0.118504,
      ]
    }
    coordIndex [
      63, 60, 98, -1,
      98, 60, 99, -1,
      98, 99, 100, -1,
      100, 99, 101, -1,
      99, 102, 103, -1,
      103, 104, 99, -1,
      99, 104, 105, -1,
      99, 105, 101, -1,
      102, 99, 106, -1,
      106, 99, 107, -1,
      106, 107, 108, -1,
      109, 110, 108, -1,
      108, 110, 111, -1,
      108, 111, 106, -1,
      112, 62, 98, -1,
      98, 62, 63, -1,
      61, 62, 113, -1,
      113, 62, 112, -1,
      112, 114, 113, -1,
      113, 114, 115, -1,
      113, 115, 116, -1,
      117, 113, 118, -1,
      118, 113, 119, -1,
      116, 120, 113, -1,
      113, 120, 121, -1,
      113, 121, 119, -1,
      122, 123, 124, -1,
      117, 118, 124, -1,
      124, 118, 125, -1,
      124, 125, 122, -1,
      99, 60, 113, -1,
      113, 60, 61, -1,
      118, 106, 111, -1,
      118, 111, 125, -1,
      125, 111, 110, -1,
      125, 110, 122, -1,
      122, 110, 109, -1,
      122, 109, 123, -1,
      123, 109, 108, -1,
      123, 108, 124, -1,
      124, 108, 107, -1,
      124, 107, 117, -1,
      117, 107, 99, -1,
      117, 99, 113, -1,
      106, 118, 119, -1,
      106, 119, 102, -1,
      102, 119, 121, -1,
      102, 121, 103, -1,
      103, 121, 120, -1,
      103, 120, 104, -1,
      104, 120, 116, -1,
      104, 116, 105, -1,
      105, 116, 115, -1,
      105, 115, 101, -1,
      101, 115, 114, -1,
      101, 114, 100, -1,
      100, 114, 112, -1,
      100, 112, 98, -1,
      67, 64, 126, -1,
      126, 64, 127, -1,
      126, 127, 128, -1,
      128, 127, 129, -1,
      127, 130, 131, -1,
      131, 132, 127, -1,
      127, 132, 133, -1,
      127, 133, 129, -1,
      130, 127, 134, -1,
      134, 127, 135, -1,
      134, 135, 136, -1,
      137, 138, 136, -1,
      136, 138, 139, -1,
      136, 139, 134, -1,
      140, 66, 126, -1,
      126, 66, 67, -1,
      65, 66, 141, -1,
      141, 66, 140, -1,
      140, 142, 141, -1,
      141, 142, 143, -1,
      141, 143, 144, -1,
      145, 141, 146, -1,
      146, 141, 147, -1,
      144, 148, 141, -1,
      141, 148, 149, -1,
      141, 149, 147, -1,
      150, 151, 152, -1,
      145, 146, 152, -1,
      152, 146, 153, -1,
      152, 153, 150, -1,
      127, 64, 141, -1,
      141, 64, 65, -1,
      146, 134, 139, -1,
      146, 139, 153, -1,
      153, 139, 138, -1,
      153, 138, 150, -1,
      150, 138, 137, -1,
      150, 137, 151, -1,
      151, 137, 136, -1,
      151, 136, 152, -1,
      152, 136, 135, -1,
      152, 135, 145, -1,
      145, 135, 127, -1,
      145, 127, 141, -1,
      134, 146, 147, -1,
      134, 147, 130, -1,
      130, 147, 149, -1,
      130, 149, 131, -1,
      131, 149, 148, -1,
      131, 148, 132, -1,
      132, 148, 144, -1,
      132, 144, 133, -1,
      133, 144, 143, -1,
      133, 143, 129, -1,
      129, 143, 142, -1,
      129, 142, 128, -1,
      128, 142, 140, -1,
      128, 140, 126, -1,
      154, 155, 55, -1,
      55, 155, 57, -1,
      155, 156, 57, -1,
      57, 156, 50, -1,
      156, 157, 50, -1,
      50, 157, 51, -1,
      157, 158, 51, -1,
      51, 158, 52, -1,
      158, 159, 52, -1,
      52, 159, 56, -1,
      56, 159, 59, -1,
      59, 159, 160, -1,
      59, 160, 58, -1,
      58, 160, 53, -1,
      53, 160, 161, -1,
      53, 161, 54, -1,
      161, 154, 54, -1,
      54, 154, 55, -1,
      162, 158, 163, -1,
      163, 158, 157, -1,
      164, 161, 162, -1,
      162, 161, 160, -1,
      162, 160, 158, -1,
      158, 160, 159, -1,
      164, 165, 161, -1,
      161, 165, 166, -1,
      161, 166, 154, -1,
      154, 166, 167, -1,
      154, 167, 168, -1,
      168, 169, 154, -1,
      154, 169, 163, -1,
      154, 163, 155, -1,
      155, 163, 157, -1,
      155, 157, 156, -1,
      162, 163, 170, -1,
      170, 163, 171, -1,
      164, 162, 172, -1,
      172, 162, 170, -1,
      164, 172, 173, -1,
      164, 173, 165, -1,
      165, 173, 174, -1,
      165, 174, 166, -1,
      167, 166, 175, -1,
      175, 166, 174, -1,
      167, 175, 176, -1,
      167, 176, 168, -1,
      168, 176, 177, -1,
      168, 177, 169, -1,
      163, 169, 171, -1,
      171, 169, 177, -1,
      178, 179, 83, -1,
      83, 179, 84, -1,
      179, 180, 84, -1,
      84, 180, 85, -1,
      180, 181, 85, -1,
      85, 181, 68, -1,
      182, 80, 79, -1,
      182, 79, 183, -1,
      183, 79, 78, -1,
      183, 78, 184, -1,
      184, 78, 77, -1,
      184, 77, 185, -1,
      185, 77, 76, -1,
      185, 76, 186, -1,
      186, 76, 71, -1,
      186, 71, 187, -1,
      187, 71, 70, -1,
      187, 70, 188, -1,
      188, 70, 69, -1,
      188, 69, 189, -1,
      189, 69, 68, -1,
      189, 68, 181, -1,
      178, 83, 82, -1,
      178, 82, 190, -1,
      190, 82, 75, -1,
      190, 75, 191, -1,
      191, 75, 74, -1,
      191, 74, 192, -1,
      192, 74, 73, -1,
      192, 73, 193, -1,
      193, 73, 72, -1,
      193, 72, 194, -1,
      194, 72, 81, -1,
      194, 81, 195, -1,
      195, 81, 80, -1,
      195, 80, 182, -1,
      184, 185, 196, -1,
      196, 185, 186, -1,
      196, 186, 197, -1,
      197, 186, 187, -1,
      197, 187, 198, -1,
      198, 187, 188, -1,
      198, 188, 199, -1,
      199, 188, 189, -1,
      199, 189, 200, -1,
      200, 189, 181, -1,
      200, 181, 201, -1,
      201, 181, 180, -1,
      201, 180, 202, -1,
      202, 180, 179, -1,
      202, 179, 203, -1,
      203, 179, 178, -1,
      203, 178, 204, -1,
      204, 178, 190, -1,
      204, 190, 205, -1,
      205, 190, 191, -1,
      205, 191, 206, -1,
      206, 191, 192, -1,
      206, 192, 207, -1,
      207, 192, 193, -1,
      207, 193, 208, -1,
      208, 193, 194, -1,
      208, 194, 209, -1,
      209, 194, 195, -1,
      209, 195, 210, -1,
      210, 195, 182, -1,
      210, 182, 211, -1,
      211, 182, 183, -1,
      211, 183, 212, -1,
      212, 183, 184, -1,
      212, 184, 196, -1,
      200, 201, 213, -1,
      213, 201, 214, -1,
      200, 213, 215, -1,
      200, 215, 199, -1,
      199, 215, 216, -1,
      199, 216, 198, -1,
      198, 216, 217, -1,
      198, 217, 197, -1,
      197, 217, 218, -1,
      197, 218, 196, -1,
      196, 218, 219, -1,
      196, 219, 212, -1,
      212, 219, 220, -1,
      212, 220, 211, -1,
      211, 220, 221, -1,
      211, 221, 210, -1,
      210, 221, 222, -1,
      210, 222, 209, -1,
      209, 222, 223, -1,
      209, 223, 208, -1,
      208, 223, 224, -1,
      208, 224, 207, -1,
      207, 224, 225, -1,
      207, 225, 206, -1,
      206, 225, 226, -1,
      206, 226, 205, -1,
      205, 226, 227, -1,
      205, 227, 204, -1,
      204, 227, 228, -1,
      204, 228, 203, -1,
      202, 203, 229, -1,
      229, 203, 228, -1,
      201, 202, 214, -1,
      214, 202, 229, -1,
      230, 231, 90, -1,
      90, 231, 89, -1,
      231, 232, 89, -1,
      89, 232, 88, -1,
      232, 233, 88, -1,
      88, 233, 87, -1,
      233, 234, 87, -1,
      87, 234, 86, -1,
      234, 235, 86, -1,
      86, 235, 91, -1,
      235, 236, 91, -1,
      91, 236, 97, -1,
      236, 237, 97, -1,
      97, 237, 96, -1,
      237, 238, 96, -1,
      96, 238, 95, -1,
      238, 239, 95, -1,
      95, 239, 94, -1,
      239, 240, 94, -1,
      94, 240, 92, -1,
      240, 241, 92, -1,
      92, 241, 93, -1,
      241, 230, 93, -1,
      93, 230, 90, -1,
      232, 231, 230, -1,
      230, 241, 232, -1,
      232, 241, 240, -1,
      232, 240, 233, -1,
      235, 234, 236, -1,
      236, 234, 233, -1,
      236, 233, 237, -1,
      237, 233, 240, -1,
      237, 240, 238, -1,
      238, 240, 239, -1,
      242, 243, 10, -1,
      10, 243, 11, -1,
      11, 243, 244, -1,
      245, 48, 47, -1,
      245, 47, 246, -1,
      246, 47, 13, -1,
      246, 13, 244, -1,
      244, 13, 12, -1,
      244, 12, 11, -1,
      48, 245, 49, -1,
      49, 245, 247, -1,
      49, 247, 21, -1,
      21, 247, 248, -1,
      21, 248, 22, -1,
      22, 248, 249, -1,
      22, 249, 23, -1,
      23, 249, 250, -1,
      23, 250, 24, -1,
      24, 250, 251, -1,
      24, 251, 26, -1,
      26, 251, 252, -1,
      26, 252, 41, -1,
      41, 252, 253, -1,
      41, 253, 42, -1,
      254, 45, 44, -1,
      254, 44, 255, -1,
      255, 44, 20, -1,
      255, 20, 256, -1,
      256, 20, 19, -1,
      256, 19, 257, -1,
      257, 19, 18, -1,
      257, 18, 258, -1,
      258, 18, 17, -1,
      258, 17, 259, -1,
      259, 17, 43, -1,
      259, 43, 260, -1,
      260, 43, 42, -1,
      260, 42, 253, -1,
      261, 16, 46, -1,
      261, 46, 262, -1,
      262, 46, 45, -1,
      262, 45, 254, -1,
      261, 263, 16, -1,
      16, 263, 15, -1,
      264, 5, 14, -1,
      264, 14, 265, -1,
      265, 14, 15, -1,
      265, 15, 263, -1,
      266, 30, 40, -1,
      266, 40, 267, -1,
      267, 40, 39, -1,
      267, 39, 268, -1,
      268, 39, 29, -1,
      268, 29, 269, -1,
      269, 29, 28, -1,
      269, 28, 270, -1,
      270, 28, 27, -1,
      270, 27, 271, -1,
      271, 27, 6, -1,
      271, 6, 272, -1,
      272, 6, 5, -1,
      272, 5, 264, -1,
      273, 34, 33, -1,
      273, 33, 274, -1,
      274, 33, 35, -1,
      274, 35, 275, -1,
      275, 35, 36, -1,
      275, 36, 276, -1,
      276, 36, 37, -1,
      276, 37, 277, -1,
      277, 37, 32, -1,
      277, 32, 278, -1,
      278, 32, 31, -1,
      278, 31, 279, -1,
      279, 31, 30, -1,
      279, 30, 266, -1,
      242, 10, 7, -1,
      242, 7, 280, -1,
      280, 7, 38, -1,
      280, 38, 281, -1,
      281, 38, 34, -1,
      281, 34, 273, -1,
      274, 245, 273, -1,
      273, 245, 246, -1,
      273, 246, 281, -1,
      281, 246, 244, -1,
      281, 244, 280, -1,
      280, 244, 243, -1,
      280, 243, 242, -1,
      263, 261, 265, -1,
      265, 261, 262, -1,
      265, 262, 264, -1,
      264, 262, 254, -1,
      264, 254, 272, -1,
      272, 254, 255, -1,
      272, 255, 271, -1,
      271, 255, 256, -1,
      271, 256, 270, -1,
      270, 256, 257, -1,
      270, 257, 269, -1,
      269, 257, 258, -1,
      269, 258, 268, -1,
      268, 258, 259, -1,
      268, 259, 267, -1,
      267, 259, 260, -1,
      267, 260, 266, -1,
      266, 260, 253, -1,
      266, 253, 279, -1,
      279, 253, 252, -1,
      279, 252, 278, -1,
      278, 252, 251, -1,
      278, 251, 277, -1,
      277, 251, 250, -1,
      277, 250, 276, -1,
      276, 250, 249, -1,
      276, 249, 275, -1,
      275, 249, 248, -1,
      275, 248, 274, -1,
      274, 248, 247, -1,
      274, 247, 245, -1,
      282, 283, 25, -1,
      25, 283, 8, -1,
      8, 283, 9, -1,
      9, 283, 284, -1,
      9, 284, 4, -1,
      284, 285, 4, -1,
      4, 285, 3, -1,
      285, 286, 3, -1,
      3, 286, 2, -1,
      286, 287, 2, -1,
      2, 287, 0, -1,
      0, 287, 1, -1,
      1, 287, 282, -1,
      1, 282, 25, -1,
      286, 285, 287, -1,
      287, 285, 284, -1,
      287, 284, 282, -1,
      282, 284, 283, -1,
    ]
  }
}

Shape {
  appearance Appearance {
    material Material {
      diffuseColor 0.5020 0.5020 0.5020
      specularColor 0.2510 0.2510 0.2510
      ambientIntensity 0.2
      transparency 0.0000
      shininess 0.5
    }
  }
  geometry IndexedFaceSet {
    ccw TRUE
    solid FALSE
    coord DEF co Coordinate {
      point [
        -0.195771 -0.125085 0.118110,
        -0.235269 -0.125085 0.118110,
        -0.213393 -0.075753 0.118110,
        -0.214530 -0.071657 0.118110,
        -0.215283 -0.067471 0.118110,
        -0.215666 -0.067471 0.118110,
        -0.216437 -0.071644 0.118110,
        -0.217489 -0.075753 0.118110,
        -0.092785 -0.066030 0.118110,
        -0.075365 -0.066030 0.118110,
        -0.106764 -0.067517 0.118110,
        -0.116513 -0.070928 0.118110,
        -0.125141 -0.076502 0.118110,
        -0.130878 -0.082593 0.118110,
        -0.134981 -0.089878 0.118110,
        -0.137738 -0.099220 0.118110,
        -0.138741 -0.110974 0.118110,
        -0.137657 -0.123380 0.118110,
        -0.134193 -0.134482 0.118110,
        -0.129211 -0.142626 0.118110,
        -0.122587 -0.149169 0.118110,
        -0.114532 -0.153952 0.118110,
        -0.104593 -0.157054 0.118110,
        -0.092132 -0.158214 0.118110,
        -0.075365 -0.158214 0.118110,
      ]
    }
    coordIndex [
      0, 1, 2, -1,
      2, 1, 7, -1,
      2, 7, 3, -1,
      3, 7, 6, -1,
      3, 6, 4, -1,
      4, 6, 5, -1,
      9, 24, 8, -1,
      8, 24, 23, -1,
      8, 23, 22, -1,
      16, 15, 8, -1,
      8, 15, 14, -1,
      8, 14, 10, -1,
      22, 21, 8, -1,
      8, 21, 20, -1,
      8, 20, 19, -1,
      19, 18, 8, -1,
      8, 18, 17, -1,
      8, 17, 16, -1,
      13, 12, 14, -1,
      14, 12, 11, -1,
      14, 11, 10, -1,
    ]
  }
}
