#VRML V2.0 utf8

Shape {
  appearance Appearance {
    material Material {
      diffuseColor 0.2510 0.2510 0.2510
      specularColor 0.1255 0.1255 0.1255
      ambientIntensity 0.2
      transparency 0.0000
      shininess 0.5
    }
  }
  geometry IndexedFaceSet {
    ccw TRUE
    solid FALSE
    coord DEF co Coordinate {
      point [
        0.064925 0.015454 0.007874,
        0.072679 0.014583 0.007874,
        0.047897 -0.043663 0.007874,
        0.085487 -0.052931 0.007874,
        0.111782 -0.055604 0.007874,
        0.077855 -0.055558 0.007874,
        0.072782 -0.056084 0.007874,
        0.055355 0.014211 0.007874,
        0.046485 -0.042881 0.007874,
        0.046485 0.010413 0.007874,
        0.038804 0.492126 0.007874,
        0.046485 0.020976 0.007874,
        0.078572 0.012456 0.007874,
        0.084022 0.008810 0.007874,
        0.088777 0.003561 0.007874,
        0.094498 -0.017074 0.007874,
        0.093701 -0.025598 0.007874,
        0.091561 -0.032371 0.007874,
        0.074040 -0.047098 0.007874,
        0.066696 -0.047922 0.007874,
        0.079778 -0.044986 0.007874,
        0.084610 -0.041729 0.007874,
        0.088305 -0.037831 0.007874,
        0.056244 -0.046762 0.007874,
        0.100905 0.002397 0.007874,
        0.096290 0.009759 0.007874,
        0.141550 0.023136 0.007874,
        0.152113 0.023136 0.007874,
        0.590551 0.492126 0.007874,
        0.152113 -0.055604 0.007874,
        0.590551 -0.056084 0.007874,
        0.092024 -0.002519 0.007874,
        0.094122 -0.010948 0.007874,
        0.091820 -0.048887 0.007874,
        0.097735 -0.042660 0.007874,
        0.111782 -0.046962 0.007874,
        0.101930 -0.035173 0.007874,
        0.141550 -0.046962 0.007874,
        0.089181 0.016595 0.007874,
        0.081702 0.020900 0.007874,
        0.072924 0.023450 0.007874,
        0.104299 -0.026839 0.007874,
        0.105061 -0.017720 0.007874,
        0.103928 -0.006525 0.007874,
        0.065015 0.024096 0.007874,
        0.055589 0.023446 0.007874,
        0.046485 -0.051523 0.007874,
        0.054879 -0.054969 0.007874,
        0.038804 -0.056084 0.007874,
        0.062835 -0.056084 0.007874,
        0.038804 -0.492126 0.007874,
        0.065998 -0.056528 0.007874,
        0.590551 -0.492126 0.007874,
        0.068151 -0.056565 0.007874,
        -0.095631 -0.055604 0.007874,
        -0.085937 -0.034023 0.007874,
        -0.081422 -0.041066 0.007874,
        -0.011129 -0.055604 0.007874,
        0.031122 -0.055604 0.007874,
        0.031122 0.023136 0.007874,
        -0.009209 0.023136 0.007874,
        -0.590551 0.492126 0.007874,
        -0.125398 0.023136 0.007874,
        -0.135961 0.023136 0.007874,
        -0.074941 -0.047272 0.007874,
        -0.066719 -0.052050 0.007874,
        -0.057646 -0.054754 0.007874,
        -0.590551 -0.056084 0.007874,
        0.020559 0.014494 0.007874,
        0.020559 -0.011433 0.007874,
        -0.009209 0.014494 0.007874,
        -0.007288 -0.011433 0.007874,
        -0.026493 0.023136 0.007874,
        -0.007288 -0.020075 0.007874,
        0.020559 -0.020075 0.007874,
        0.020559 -0.046962 0.007874,
        -0.011129 -0.046962 0.007874,
        -0.026493 -0.055604 0.007874,
        -0.047904 -0.055604 0.007874,
        -0.166689 -0.055604 0.007874,
        -0.155166 -0.055604 0.007874,
        -0.060089 0.021920 0.007874,
        -0.069302 0.018685 0.007874,
        -0.077872 0.012941 0.007874,
        -0.048714 0.023136 0.007874,
        -0.077955 0.012869 0.007874,
        -0.083523 0.006695 0.007874,
        -0.087182 -0.000077 0.007874,
        -0.089297 -0.007835 0.007874,
        -0.089869 -0.015244 0.007874,
        -0.088764 -0.025781 0.007874,
        -0.147199 -0.033519 0.007874,
        -0.114670 -0.033519 0.007874,
        -0.107154 -0.055604 0.007874,
        -0.590551 -0.492126 0.007874,
        -0.590551 -0.492126 0.362205,
        -0.315383 -0.492126 0.362205,
        -0.315383 -0.044659 0.362205,
        0.100222 0.055566 0.362205,
        0.100222 0.054966 0.362205,
        0.114626 0.054966 0.362205,
        -0.070446 0.054966 0.362205,
        -0.064170 0.054460 0.362205,
        -0.043215 0.054966 0.362205,
        -0.051017 0.050465 0.362205,
        -0.051017 0.037261 0.362205,
        -0.061820 -0.030106 0.362205,
        -0.061820 -0.003249 0.362205,
        -0.063009 -0.030720 0.362205,
        -0.083425 -0.003249 0.362205,
        -0.070985 -0.033492 0.362205,
        -0.097258 -0.030961 0.362205,
        -0.090419 -0.033400 0.362205,
        -0.080724 -0.034457 0.362205,
        -0.113130 0.021300 0.362205,
        -0.115305 0.012431 0.362205,
        -0.083425 0.007554 0.362205,
        -0.115833 0.004703 0.362205,
        -0.114872 -0.006241 0.362205,
        -0.112335 -0.014799 0.362205,
        -0.048616 0.007554 0.362205,
        -0.048616 -0.036989 0.362205,
        -0.043215 -0.044659 0.362205,
        -0.064646 -0.043297 0.362205,
        -0.076538 -0.044659 0.362205,
        -0.108494 -0.021552 0.362205,
        -0.103127 -0.027206 0.362205,
        -0.079055 0.044763 0.362205,
        -0.088678 0.043637 0.362205,
        -0.096131 0.040848 0.362205,
        -0.102945 0.036180 0.362205,
        -0.108998 0.029346 0.362205,
        -0.077893 0.055566 0.362205,
        -0.043215 0.200027 0.362205,
        -0.086204 0.054966 0.362205,
        -0.133238 0.200027 0.362205,
        -0.094230 -0.043955 0.362205,
        -0.104050 -0.040566 0.362205,
        -0.133238 -0.044659 0.362205,
        -0.133238 0.054966 0.362205,
        -0.123617 0.028599 0.362205,
        -0.116757 0.038790 0.362205,
        -0.113194 -0.034570 0.362205,
        -0.120451 -0.026550 0.362205,
        -0.125526 -0.016955 0.362205,
        -0.108105 0.046630 0.362205,
        -0.098404 0.051885 0.362205,
        -0.087255 0.054890 0.362205,
        -0.128302 -0.006302 0.362205,
        -0.129037 0.003859 0.362205,
        -0.127530 0.017633 0.362205,
        -0.043215 -0.492126 0.362205,
        -0.081775 -0.045260 0.362205,
        -0.087502 -0.044659 0.362205,
        -0.133238 -0.492126 0.362205,
        0.114626 -0.044659 0.362205,
        0.065413 0.027959 0.362205,
        0.065413 0.039962 0.362205,
        0.058211 0.054966 0.362205,
        0.081220 0.046345 0.362205,
        0.088219 0.039550 0.362205,
        0.079127 0.033444 0.362205,
        0.088219 -0.044059 0.362205,
        0.067256 0.028462 0.362205,
        0.100222 -0.044059 0.362205,
        0.058211 -0.044659 0.362205,
        0.094619 0.054966 0.362205,
        0.095552 0.055566 0.362205,
        0.058211 0.200027 0.362205,
        0.114626 0.200027 0.362205,
        0.590551 -0.492126 0.362205,
        0.590551 -0.044659 0.362205,
        0.395799 -0.492126 0.362205,
        0.395799 -0.044659 0.362205,
        0.114626 -0.492126 0.362205,
        0.058211 -0.492126 0.362205,
        -0.137439 -0.033257 0.362205,
        -0.137439 -0.044059 0.362205,
        -0.187852 -0.044059 0.362205,
        -0.174648 -0.033257 0.362205,
        -0.174648 0.054366 0.362205,
        -0.187852 0.054366 0.362205,
        -0.315383 0.054966 0.362205,
        -0.023410 -0.044059 0.362205,
        -0.037813 -0.044059 0.362205,
        -0.061713 0.042244 0.362205,
        -0.073765 0.044561 0.362205,
        0.012599 0.054366 0.362205,
        0.051009 -0.044059 0.362205,
        0.036606 -0.044059 0.362205,
        0.026647 -0.016452 0.362205,
        -0.014014 -0.016452 0.362205,
        -0.000604 0.054366 0.362205,
        0.201048 -0.021254 0.362205,
        0.186644 -0.021254 0.362205,
        0.186644 -0.044059 0.362205,
        0.201048 -0.010451 0.362205,
        0.174641 -0.044059 0.362205,
        0.174641 -0.021254 0.362205,
        0.173816 0.054366 0.362205,
        0.186644 0.054366 0.362205,
        0.395799 0.054966 0.362205,
        0.129029 -0.021254 0.362205,
        0.129029 -0.011013 0.362205,
        0.155985 0.024331 0.362205,
        0.590551 0.054966 0.362205,
        0.186644 -0.010451 0.362205,
        -0.315383 0.200027 0.362205,
        0.590551 0.200027 0.362205,
        0.395799 0.200027 0.362205,
        -0.539662 0.406438 0.362205,
        -0.534745 0.418307 0.362205,
        -0.590551 0.492126 0.362205,
        -0.526924 0.428499 0.362205,
        -0.492126 0.442913 0.362205,
        -0.315383 0.492126 0.362205,
        -0.479389 0.441237 0.362205,
        -0.467520 0.436320 0.362205,
        -0.457328 0.428499 0.362205,
        -0.449507 0.418307 0.362205,
        -0.444590 0.406438 0.362205,
        -0.442913 0.393701 0.362205,
        -0.444590 0.380964 0.362205,
        -0.449507 0.369094 0.362205,
        -0.492126 0.344488 0.362205,
        -0.504863 0.346165 0.362205,
        -0.590551 0.200027 0.362205,
        -0.516732 0.351081 0.362205,
        -0.526924 0.358902 0.362205,
        -0.534745 0.369094 0.362205,
        -0.539662 0.380964 0.362205,
        -0.541339 0.393701 0.362205,
        -0.516732 0.436320 0.362205,
        -0.504863 0.441237 0.362205,
        -0.457328 0.358902 0.362205,
        -0.467520 0.351081 0.362205,
        -0.479389 0.346165 0.362205,
        -0.590551 -0.044659 0.362205,
        -0.590551 0.054966 0.362205,
        0.590551 0.492126 0.362205,
        0.395799 0.492126 0.362205,
        0.114626 0.492126 0.362205,
        0.058211 0.492126 0.362205,
        -0.043215 0.492126 0.362205,
        -0.133238 0.492126 0.362205,
      ]
    }
    coordIndex [
      0, 1, 2, -1,
      3, 4, 5, -1,
      5, 4, 6, -1,
      0, 2, 7, -1,
      7, 2, 8, -1,
      7, 8, 9, -1,
      9, 8, 10, -1,
      9, 10, 11, -1,
      1, 12, 2, -1,
      2, 12, 13, -1,
      2, 13, 14, -1,
      15, 16, 2, -1,
      2, 16, 17, -1,
      18, 19, 20, -1,
      20, 19, 21, -1,
      17, 22, 2, -1,
      2, 22, 21, -1,
      2, 21, 23, -1,
      23, 21, 19, -1,
      24, 25, 26, -1,
      26, 25, 10, -1,
      26, 10, 27, -1,
      27, 10, 28, -1,
      27, 28, 29, -1,
      29, 28, 30, -1,
      14, 31, 2, -1,
      2, 31, 32, -1,
      2, 32, 15, -1,
      3, 33, 4, -1,
      4, 33, 34, -1,
      4, 34, 35, -1,
      35, 34, 36, -1,
      35, 36, 37, -1,
      25, 38, 10, -1,
      10, 38, 39, -1,
      10, 39, 40, -1,
      36, 41, 37, -1,
      37, 41, 42, -1,
      37, 42, 26, -1,
      26, 42, 43, -1,
      26, 43, 24, -1,
      40, 44, 10, -1,
      10, 44, 45, -1,
      10, 45, 11, -1,
      46, 47, 48, -1,
      48, 47, 49, -1,
      48, 49, 50, -1,
      50, 49, 51, -1,
      50, 51, 52, -1,
      52, 51, 53, -1,
      52, 53, 30, -1,
      30, 53, 6, -1,
      30, 6, 29, -1,
      29, 6, 4, -1,
      54, 55, 56, -1,
      57, 58, 48, -1,
      48, 58, 59, -1,
      60, 61, 59, -1,
      59, 61, 10, -1,
      59, 10, 48, -1,
      48, 10, 8, -1,
      48, 8, 46, -1,
      62, 63, 61, -1,
      56, 64, 54, -1,
      54, 64, 65, -1,
      54, 65, 66, -1,
      61, 63, 67, -1,
      68, 69, 70, -1,
      70, 69, 71, -1,
      70, 71, 72, -1,
      72, 71, 73, -1,
      74, 75, 73, -1,
      73, 75, 76, -1,
      73, 76, 72, -1,
      72, 76, 57, -1,
      72, 57, 77, -1,
      77, 57, 48, -1,
      77, 48, 78, -1,
      79, 80, 48, -1,
      81, 82, 62, -1,
      62, 82, 83, -1,
      81, 62, 84, -1,
      84, 62, 61, -1,
      84, 61, 72, -1,
      72, 61, 60, -1,
      72, 60, 70, -1,
      83, 85, 62, -1,
      62, 85, 86, -1,
      62, 86, 87, -1,
      87, 88, 62, -1,
      62, 88, 89, -1,
      62, 89, 54, -1,
      54, 89, 90, -1,
      54, 90, 55, -1,
      91, 92, 80, -1,
      80, 92, 93, -1,
      80, 93, 48, -1,
      48, 93, 54, -1,
      48, 54, 78, -1,
      78, 54, 66, -1,
      63, 79, 67, -1,
      67, 79, 48, -1,
      67, 48, 94, -1,
      94, 48, 50, -1,
      95, 96, 97, -1,
      98, 99, 100, -1,
      101, 102, 103, -1,
      103, 102, 104, -1,
      103, 104, 105, -1,
      106, 107, 108, -1,
      108, 107, 109, -1,
      108, 109, 110, -1,
      111, 112, 109, -1,
      109, 112, 113, -1,
      109, 113, 110, -1,
      114, 115, 116, -1,
      116, 115, 117, -1,
      116, 117, 109, -1,
      109, 117, 118, -1,
      109, 118, 119, -1,
      120, 121, 122, -1,
      122, 121, 123, -1,
      122, 123, 124, -1,
      119, 125, 109, -1,
      109, 125, 126, -1,
      109, 126, 111, -1,
      127, 128, 116, -1,
      116, 128, 129, -1,
      129, 130, 116, -1,
      116, 130, 131, -1,
      116, 131, 114, -1,
      132, 133, 134, -1,
      134, 133, 135, -1,
      136, 137, 138, -1,
      139, 140, 141, -1,
      137, 142, 138, -1,
      138, 142, 143, -1,
      138, 143, 144, -1,
      141, 145, 139, -1,
      139, 145, 146, -1,
      139, 146, 147, -1,
      144, 148, 138, -1,
      138, 148, 149, -1,
      138, 149, 139, -1,
      139, 149, 150, -1,
      139, 150, 140, -1,
      151, 152, 153, -1,
      136, 138, 153, -1,
      153, 138, 154, -1,
      153, 154, 151, -1,
      100, 99, 155, -1,
      156, 157, 158, -1,
      158, 157, 159, -1,
      160, 161, 162, -1,
      162, 161, 163, -1,
      99, 164, 155, -1,
      155, 164, 162, -1,
      155, 162, 165, -1,
      165, 162, 163, -1,
      166, 167, 168, -1,
      168, 167, 169, -1,
      170, 171, 172, -1,
      172, 171, 173, -1,
      172, 173, 174, -1,
      174, 173, 155, -1,
      174, 155, 175, -1,
      175, 155, 165, -1,
      175, 165, 151, -1,
      139, 176, 138, -1,
      138, 176, 177, -1,
      138, 177, 178, -1,
      179, 176, 180, -1,
      180, 176, 139, -1,
      180, 139, 181, -1,
      181, 139, 182, -1,
      181, 182, 178, -1,
      178, 182, 97, -1,
      178, 97, 138, -1,
      138, 97, 96, -1,
      138, 96, 154, -1,
      183, 184, 122, -1,
      184, 103, 122, -1,
      122, 103, 105, -1,
      122, 105, 120, -1,
      120, 105, 185, -1,
      120, 185, 116, -1,
      116, 185, 186, -1,
      116, 186, 127, -1,
      187, 188, 165, -1,
      165, 188, 189, -1,
      190, 191, 189, -1,
      189, 191, 183, -1,
      189, 183, 165, -1,
      165, 183, 122, -1,
      165, 122, 151, -1,
      151, 122, 124, -1,
      151, 124, 152, -1,
      184, 192, 103, -1,
      103, 192, 187, -1,
      103, 187, 158, -1,
      158, 187, 165, -1,
      158, 165, 156, -1,
      156, 165, 163, -1,
      193, 194, 195, -1,
      196, 193, 173, -1,
      173, 193, 195, -1,
      173, 195, 155, -1,
      155, 195, 197, -1,
      155, 197, 198, -1,
      199, 200, 100, -1,
      100, 200, 201, -1,
      198, 202, 155, -1,
      155, 202, 203, -1,
      155, 203, 100, -1,
      100, 203, 204, -1,
      100, 204, 199, -1,
      171, 205, 173, -1,
      173, 205, 201, -1,
      173, 201, 196, -1,
      196, 201, 200, -1,
      196, 200, 206, -1,
      147, 134, 139, -1,
      139, 134, 135, -1,
      139, 135, 182, -1,
      182, 135, 207, -1,
      159, 166, 158, -1,
      158, 166, 168, -1,
      158, 168, 103, -1,
      103, 168, 133, -1,
      103, 133, 101, -1,
      101, 133, 132, -1,
      205, 208, 201, -1,
      201, 208, 209, -1,
      201, 209, 100, -1,
      100, 209, 169, -1,
      100, 169, 98, -1,
      98, 169, 167, -1,
      210, 211, 212, -1,
      212, 211, 213, -1,
      212, 214, 215, -1,
      215, 214, 216, -1,
      215, 216, 217, -1,
      217, 218, 215, -1,
      215, 218, 219, -1,
      215, 219, 220, -1,
      221, 222, 207, -1,
      207, 222, 223, -1,
      224, 225, 226, -1,
      226, 225, 227, -1,
      226, 227, 228, -1,
      228, 229, 226, -1,
      226, 229, 230, -1,
      226, 230, 212, -1,
      212, 230, 231, -1,
      212, 231, 210, -1,
      213, 232, 212, -1,
      212, 232, 233, -1,
      212, 233, 214, -1,
      223, 234, 207, -1,
      207, 234, 235, -1,
      207, 235, 236, -1,
      95, 97, 237, -1,
      237, 97, 182, -1,
      237, 182, 238, -1,
      238, 182, 207, -1,
      238, 207, 226, -1,
      226, 207, 236, -1,
      226, 236, 224, -1,
      208, 239, 209, -1,
      209, 239, 240, -1,
      209, 240, 169, -1,
      169, 240, 241, -1,
      169, 241, 168, -1,
      168, 241, 242, -1,
      168, 242, 133, -1,
      133, 242, 243, -1,
      133, 243, 135, -1,
      135, 243, 244, -1,
      135, 244, 207, -1,
      207, 244, 215, -1,
      207, 215, 221, -1,
      221, 215, 220, -1,
      28, 239, 30, -1,
      30, 239, 208, -1,
      170, 52, 171, -1,
      171, 52, 30, -1,
      171, 30, 205, -1,
      205, 30, 208, -1,
      243, 242, 10, -1,
      61, 212, 215, -1,
      239, 28, 240, -1,
      240, 28, 10, -1,
      240, 10, 241, -1,
      241, 10, 242, -1,
      61, 215, 10, -1,
      10, 215, 244, -1,
      10, 244, 243, -1,
      94, 95, 67, -1,
      67, 95, 237, -1,
      212, 61, 226, -1,
      226, 61, 67, -1,
      226, 67, 238, -1,
      238, 67, 237, -1,
      175, 50, 174, -1,
      174, 50, 52, -1,
      174, 52, 172, -1,
      172, 52, 170, -1,
      175, 151, 50, -1,
      50, 151, 154, -1,
      50, 154, 94, -1,
      94, 154, 96, -1,
      94, 96, 95, -1,
    ]
  }
}

Shape {
  appearance Appearance {
    material Material {
      diffuseColor 0.6667 0.6667 0.6667
      specularColor 0.3333 0.3333 0.3333
      ambientIntensity 0.2
      transparency 0.0000
      shininess 0.5
    }
  }
  geometry IndexedFaceSet {
    ccw TRUE
    solid FALSE
    coord DEF co Coordinate {
      point [
        0.100222 0.055566 0.362205,
        0.100222 0.054966 0.362205,
        -0.070446 0.054966 0.362205,
        -0.064170 0.054460 0.362205,
        -0.051017 0.050465 0.362205,
        -0.051017 0.037261 0.362205,
        -0.061820 -0.030106 0.362205,
        -0.061820 -0.003249 0.362205,
        -0.063009 -0.030720 0.362205,
        -0.083425 -0.003249 0.362205,
        -0.070985 -0.033492 0.362205,
        -0.097258 -0.030961 0.362205,
        -0.090419 -0.033400 0.362205,
        -0.080724 -0.034457 0.362205,
        -0.113130 0.021300 0.362205,
        -0.115305 0.012431 0.362205,
        -0.083425 0.007554 0.362205,
        -0.115833 0.004703 0.362205,
        -0.114872 -0.006241 0.362205,
        -0.112335 -0.014799 0.362205,
        -0.048616 0.007554 0.362205,
        -0.048616 -0.036989 0.362205,
        -0.064646 -0.043297 0.362205,
        -0.076538 -0.044659 0.362205,
        -0.108494 -0.021552 0.362205,
        -0.103127 -0.027206 0.362205,
        -0.079055 0.044763 0.362205,
        -0.088678 0.043637 0.362205,
        -0.096131 0.040848 0.362205,
        -0.102945 0.036180 0.362205,
        -0.108998 0.029346 0.362205,
        -0.077893 0.055566 0.362205,
        -0.086204 0.054966 0.362205,
        -0.094230 -0.043955 0.362205,
        -0.104050 -0.040566 0.362205,
        -0.123617 0.028599 0.362205,
        -0.116757 0.038790 0.362205,
        -0.113194 -0.034570 0.362205,
        -0.120451 -0.026550 0.362205,
        -0.125526 -0.016955 0.362205,
        -0.108105 0.046630 0.362205,
        -0.098404 0.051885 0.362205,
        -0.087255 0.054890 0.362205,
        -0.128302 -0.006302 0.362205,
        -0.129037 0.003859 0.362205,
        -0.127530 0.017633 0.362205,
        -0.081775 -0.045260 0.362205,
        -0.087502 -0.044659 0.362205,
        0.065413 0.027959 0.362205,
        0.065413 0.039962 0.362205,
        0.081220 0.046345 0.362205,
        0.088219 0.039550 0.362205,
        0.079127 0.033444 0.362205,
        0.088219 -0.044059 0.362205,
        0.067256 0.028462 0.362205,
        0.100222 -0.044059 0.362205,
        0.094619 0.054966 0.362205,
        0.095552 0.055566 0.362205,
        -0.137439 -0.033257 0.362205,
        -0.137439 -0.044059 0.362205,
        -0.187852 -0.044059 0.362205,
        -0.174648 -0.033257 0.362205,
        -0.174648 0.054366 0.362205,
        -0.187852 0.054366 0.362205,
        -0.023410 -0.044059 0.362205,
        -0.037813 -0.044059 0.362205,
        -0.061713 0.042244 0.362205,
        -0.073765 0.044561 0.362205,
        0.012599 0.054366 0.362205,
        0.051009 -0.044059 0.362205,
        0.036606 -0.044059 0.362205,
        0.026647 -0.016452 0.362205,
        -0.014014 -0.016452 0.362205,
        -0.000604 0.054366 0.362205,
        0.201048 -0.021254 0.362205,
        0.186644 -0.021254 0.362205,
        0.186644 -0.044059 0.362205,
        0.201048 -0.010451 0.362205,
        0.174641 -0.044059 0.362205,
        0.174641 -0.021254 0.362205,
        0.173816 0.054366 0.362205,
        0.186644 0.054366 0.362205,
        0.129029 -0.021254 0.362205,
        0.129029 -0.011013 0.362205,
        0.155985 0.024331 0.362205,
        0.186644 -0.010451 0.362205,
        -0.539662 0.406438 0.362205,
        -0.534745 0.418307 0.362205,
        -0.526924 0.428499 0.362205,
        -0.492126 0.442913 0.362205,
        -0.479389 0.441237 0.362205,
        -0.467520 0.436320 0.362205,
        -0.457328 0.428499 0.362205,
        -0.449507 0.418307 0.362205,
        -0.444590 0.406438 0.362205,
        -0.442913 0.393701 0.362205,
        -0.444590 0.380964 0.362205,
        -0.449507 0.369094 0.362205,
        -0.492126 0.344488 0.362205,
        -0.504863 0.346165 0.362205,
        -0.516732 0.351081 0.362205,
        -0.526924 0.358902 0.362205,
        -0.534745 0.369094 0.362205,
        -0.539662 0.380964 0.362205,
        -0.541339 0.393701 0.362205,
        -0.516732 0.436320 0.362205,
        -0.504863 0.441237 0.362205,
        -0.457328 0.358902 0.362205,
        -0.467520 0.351081 0.362205,
        -0.479389 0.346165 0.362205,
        -0.137439 -0.033257 0.358268,
        -0.137439 -0.044059 0.358268,
        -0.187852 -0.044059 0.358268,
        -0.187852 0.054366 0.358268,
        -0.174648 0.054366 0.358268,
        -0.174648 -0.033257 0.358268,
        -0.048616 0.007554 0.358268,
        -0.048616 -0.036989 0.358268,
        -0.064646 -0.043297 0.358268,
        -0.081775 -0.045260 0.358268,
        -0.129037 0.003859 0.358268,
        -0.128302 -0.006302 0.358268,
        -0.125526 -0.016955 0.358268,
        -0.120451 -0.026550 0.358268,
        -0.113194 -0.034570 0.358268,
        -0.104050 -0.040566 0.358268,
        -0.094230 -0.043955 0.358268,
        -0.077893 0.055566 0.358268,
        -0.087255 0.054890 0.358268,
        -0.098404 0.051885 0.358268,
        -0.108105 0.046630 0.358268,
        -0.116757 0.038790 0.358268,
        -0.123617 0.028599 0.358268,
        -0.127530 0.017633 0.358268,
        -0.064170 0.054460 0.358268,
        -0.051017 0.050465 0.358268,
        -0.051017 0.037261 0.358268,
        -0.079055 0.044763 0.358268,
        -0.073765 0.044561 0.358268,
        -0.061713 0.042244 0.358268,
        -0.115833 0.004703 0.358268,
        -0.115305 0.012431 0.358268,
        -0.113130 0.021300 0.358268,
        -0.108998 0.029346 0.358268,
        -0.102945 0.036180 0.358268,
        -0.096131 0.040848 0.358268,
        -0.088678 0.043637 0.358268,
        -0.080724 -0.034457 0.358268,
        -0.090419 -0.033400 0.358268,
        -0.097258 -0.030961 0.358268,
        -0.103127 -0.027206 0.358268,
        -0.108494 -0.021552 0.358268,
        -0.112335 -0.014799 0.358268,
        -0.114872 -0.006241 0.358268,
        -0.061820 -0.030106 0.358268,
        -0.063009 -0.030720 0.358268,
        -0.070985 -0.033492 0.358268,
        -0.061820 -0.003249 0.358268,
        -0.083425 -0.003249 0.358268,
        -0.083425 0.007554 0.358268,
        0.012599 0.054366 0.358268,
        0.051009 -0.044059 0.358268,
        0.036606 -0.044059 0.358268,
        0.026647 -0.016452 0.358268,
        -0.014014 -0.016452 0.358268,
        -0.023410 -0.044059 0.358268,
        -0.037813 -0.044059 0.358268,
        -0.000604 0.054366 0.358268,
        -0.010694 -0.005650 0.358268,
        0.022220 -0.005650 0.358268,
        0.003991 0.035461 0.358268,
        0.004938 0.038874 0.358268,
        0.005567 0.042363 0.358268,
        0.005885 0.042363 0.358268,
        0.006528 0.038885 0.358268,
        0.007404 0.035461 0.358268,
        -0.010694 -0.005650 0.362205,
        0.022220 -0.005650 0.362205,
        0.003991 0.035461 0.362205,
        0.004938 0.038874 0.362205,
        0.005567 0.042363 0.362205,
        0.005885 0.042363 0.362205,
        0.006528 0.038885 0.362205,
        0.007404 0.035461 0.362205,
        0.100222 -0.044059 0.358268,
        0.088219 -0.044059 0.358268,
        0.088219 0.039550 0.358268,
        0.065413 0.027959 0.358268,
        0.067256 0.028462 0.358268,
        0.079127 0.033444 0.358268,
        0.065413 0.039962 0.358268,
        0.081220 0.046345 0.358268,
        0.095552 0.055566 0.358268,
        0.100222 0.055566 0.358268,
        0.173816 0.054366 0.358268,
        0.186644 0.054366 0.358268,
        0.186644 -0.010451 0.358268,
        0.201048 -0.010451 0.358268,
        0.201048 -0.021254 0.358268,
        0.186644 -0.021254 0.358268,
        0.186644 -0.044059 0.358268,
        0.174641 -0.044059 0.358268,
        0.174641 -0.021254 0.358268,
        0.129029 -0.021254 0.358268,
        0.129029 -0.011013 0.358268,
        0.155985 0.024331 0.358268,
        0.174641 0.036305 0.358268,
        0.174641 -0.010451 0.358268,
        0.159843 0.012224 0.358268,
        0.142964 -0.010451 0.358268,
        0.142964 -0.010451 0.362205,
        0.159843 0.012224 0.362205,
        0.174641 0.036305 0.362205,
        0.174641 -0.010451 0.362205,
        -0.442913 0.393701 0.358268,
        -0.444590 0.406438 0.358268,
        -0.449507 0.418307 0.358268,
        -0.457328 0.428499 0.358268,
        -0.467520 0.436320 0.358268,
        -0.479389 0.441237 0.358268,
        -0.492126 0.442913 0.358268,
        -0.504863 0.441237 0.358268,
        -0.516732 0.436320 0.358268,
        -0.526924 0.428499 0.358268,
        -0.534745 0.418307 0.358268,
        -0.539662 0.406438 0.358268,
        -0.541339 0.393701 0.358268,
        -0.539662 0.380964 0.358268,
        -0.534745 0.369094 0.358268,
        -0.526924 0.358902 0.358268,
        -0.516732 0.351081 0.358268,
        -0.504863 0.346165 0.358268,
        -0.492126 0.344488 0.358268,
        -0.479389 0.346165 0.358268,
        -0.467520 0.351081 0.358268,
        -0.457328 0.358902 0.358268,
        -0.449507 0.369094 0.358268,
        -0.444590 0.380964 0.358268,
        -0.492126 0.393701 0.358268,
      ]
    }
    coordIndex [
      110, 111, 58, -1,
      58, 111, 59, -1,
      111, 112, 59, -1,
      59, 112, 60, -1,
      112, 113, 60, -1,
      60, 113, 63, -1,
      113, 114, 63, -1,
      63, 114, 62, -1,
      114, 115, 62, -1,
      62, 115, 61, -1,
      115, 110, 61, -1,
      61, 110, 58, -1,
      114, 113, 115, -1,
      115, 113, 112, -1,
      115, 112, 110, -1,
      110, 112, 111, -1,
      116, 117, 20, -1,
      20, 117, 21, -1,
      21, 117, 118, -1,
      119, 46, 23, -1,
      119, 23, 118, -1,
      118, 23, 22, -1,
      118, 22, 21, -1,
      120, 44, 43, -1,
      120, 43, 121, -1,
      121, 43, 39, -1,
      121, 39, 122, -1,
      122, 39, 38, -1,
      122, 38, 123, -1,
      123, 38, 37, -1,
      123, 37, 124, -1,
      124, 37, 34, -1,
      124, 34, 125, -1,
      125, 34, 33, -1,
      125, 33, 126, -1,
      126, 33, 119, -1,
      119, 33, 47, -1,
      119, 47, 46, -1,
      31, 32, 127, -1,
      127, 32, 128, -1,
      32, 42, 128, -1,
      128, 42, 41, -1,
      128, 41, 129, -1,
      129, 41, 40, -1,
      129, 40, 130, -1,
      130, 40, 36, -1,
      130, 36, 131, -1,
      131, 36, 35, -1,
      131, 35, 132, -1,
      132, 35, 45, -1,
      132, 45, 133, -1,
      133, 45, 44, -1,
      133, 44, 120, -1,
      31, 127, 2, -1,
      2, 127, 134, -1,
      2, 134, 3, -1,
      3, 134, 135, -1,
      3, 135, 4, -1,
      135, 136, 4, -1,
      4, 136, 5, -1,
      137, 26, 67, -1,
      137, 67, 138, -1,
      138, 67, 66, -1,
      138, 66, 139, -1,
      139, 66, 5, -1,
      139, 5, 136, -1,
      140, 17, 15, -1,
      140, 15, 141, -1,
      141, 15, 14, -1,
      141, 14, 142, -1,
      142, 14, 30, -1,
      142, 30, 143, -1,
      143, 30, 29, -1,
      143, 29, 144, -1,
      144, 29, 28, -1,
      144, 28, 145, -1,
      145, 28, 27, -1,
      145, 27, 146, -1,
      146, 27, 26, -1,
      146, 26, 137, -1,
      147, 13, 12, -1,
      147, 12, 148, -1,
      148, 12, 11, -1,
      148, 11, 149, -1,
      149, 11, 25, -1,
      149, 25, 150, -1,
      150, 25, 24, -1,
      150, 24, 151, -1,
      151, 24, 19, -1,
      151, 19, 152, -1,
      152, 19, 18, -1,
      152, 18, 153, -1,
      153, 18, 17, -1,
      153, 17, 140, -1,
      154, 6, 8, -1,
      154, 8, 155, -1,
      155, 8, 10, -1,
      155, 10, 156, -1,
      156, 10, 13, -1,
      156, 13, 147, -1,
      154, 157, 6, -1,
      6, 157, 7, -1,
      157, 158, 7, -1,
      7, 158, 9, -1,
      158, 159, 9, -1,
      9, 159, 16, -1,
      159, 116, 16, -1,
      16, 116, 20, -1,
      159, 158, 116, -1,
      116, 158, 157, -1,
      116, 157, 117, -1,
      117, 157, 154, -1,
      117, 154, 118, -1,
      136, 135, 139, -1,
      139, 135, 134, -1,
      139, 134, 138, -1,
      138, 134, 127, -1,
      154, 155, 118, -1,
      118, 155, 156, -1,
      118, 156, 119, -1,
      119, 156, 147, -1,
      119, 147, 126, -1,
      126, 147, 148, -1,
      126, 148, 125, -1,
      125, 148, 149, -1,
      125, 149, 124, -1,
      124, 149, 150, -1,
      124, 150, 123, -1,
      123, 150, 151, -1,
      123, 151, 122, -1,
      122, 151, 152, -1,
      122, 152, 121, -1,
      121, 152, 153, -1,
      121, 153, 120, -1,
      120, 153, 140, -1,
      120, 140, 133, -1,
      133, 140, 141, -1,
      133, 141, 132, -1,
      132, 141, 142, -1,
      132, 142, 131, -1,
      131, 142, 143, -1,
      131, 143, 130, -1,
      130, 143, 144, -1,
      130, 144, 129, -1,
      129, 144, 145, -1,
      129, 145, 128, -1,
      128, 145, 146, -1,
      128, 146, 127, -1,
      127, 146, 137, -1,
      127, 137, 138, -1,
      160, 161, 68, -1,
      68, 161, 69, -1,
      161, 162, 69, -1,
      69, 162, 70, -1,
      162, 163, 70, -1,
      70, 163, 71, -1,
      163, 164, 71, -1,
      71, 164, 72, -1,
      164, 165, 72, -1,
      72, 165, 64, -1,
      165, 166, 64, -1,
      64, 166, 65, -1,
      166, 167, 65, -1,
      65, 167, 73, -1,
      167, 160, 73, -1,
      73, 160, 68, -1,
      168, 164, 169, -1,
      169, 164, 163, -1,
      170, 167, 168, -1,
      168, 167, 166, -1,
      168, 166, 164, -1,
      164, 166, 165, -1,
      170, 171, 167, -1,
      167, 171, 172, -1,
      167, 172, 160, -1,
      160, 172, 173, -1,
      160, 173, 174, -1,
      174, 175, 160, -1,
      160, 175, 169, -1,
      160, 169, 161, -1,
      161, 169, 163, -1,
      161, 163, 162, -1,
      168, 169, 176, -1,
      176, 169, 177, -1,
      170, 168, 178, -1,
      178, 168, 176, -1,
      170, 178, 179, -1,
      170, 179, 171, -1,
      171, 179, 180, -1,
      171, 180, 172, -1,
      173, 172, 181, -1,
      181, 172, 180, -1,
      173, 181, 182, -1,
      173, 182, 174, -1,
      174, 182, 183, -1,
      174, 183, 175, -1,
      169, 175, 177, -1,
      177, 175, 183, -1,
      184, 185, 55, -1,
      55, 185, 53, -1,
      185, 186, 53, -1,
      53, 186, 51, -1,
      187, 48, 54, -1,
      187, 54, 188, -1,
      188, 54, 52, -1,
      188, 52, 189, -1,
      189, 52, 51, -1,
      189, 51, 186, -1,
      187, 190, 48, -1,
      48, 190, 49, -1,
      49, 190, 191, -1,
      192, 57, 56, -1,
      192, 56, 191, -1,
      191, 56, 50, -1,
      191, 50, 49, -1,
      192, 193, 57, -1,
      57, 193, 0, -1,
      0, 193, 1, -1,
      1, 193, 184, -1,
      1, 184, 55, -1,
      185, 184, 186, -1,
      186, 184, 193, -1,
      193, 192, 186, -1,
      186, 192, 191, -1,
      186, 191, 189, -1,
      189, 191, 190, -1,
      189, 190, 188, -1,
      188, 190, 187, -1,
      194, 195, 80, -1,
      80, 195, 81, -1,
      195, 196, 81, -1,
      81, 196, 85, -1,
      196, 197, 85, -1,
      85, 197, 77, -1,
      197, 198, 77, -1,
      77, 198, 74, -1,
      198, 199, 74, -1,
      74, 199, 75, -1,
      199, 200, 75, -1,
      75, 200, 76, -1,
      200, 201, 76, -1,
      76, 201, 78, -1,
      201, 202, 78, -1,
      78, 202, 79, -1,
      202, 203, 79, -1,
      79, 203, 82, -1,
      203, 204, 82, -1,
      82, 204, 83, -1,
      194, 80, 84, -1,
      194, 84, 205, -1,
      205, 84, 83, -1,
      205, 83, 204, -1,
      206, 207, 196, -1,
      201, 200, 202, -1,
      202, 200, 199, -1,
      196, 195, 206, -1,
      206, 195, 194, -1,
      206, 194, 208, -1,
      208, 194, 205, -1,
      208, 205, 209, -1,
      198, 197, 199, -1,
      199, 197, 196, -1,
      199, 196, 202, -1,
      202, 196, 207, -1,
      202, 207, 203, -1,
      203, 207, 209, -1,
      203, 209, 204, -1,
      204, 209, 205, -1,
      209, 210, 211, -1,
      209, 211, 208, -1,
      208, 211, 212, -1,
      208, 212, 206, -1,
      207, 206, 213, -1,
      213, 206, 212, -1,
      209, 207, 210, -1,
      210, 207, 213, -1,
      214, 95, 215, -1,
      215, 95, 94, -1,
      215, 94, 216, -1,
      216, 94, 93, -1,
      216, 93, 217, -1,
      217, 93, 92, -1,
      217, 92, 218, -1,
      218, 92, 91, -1,
      218, 91, 219, -1,
      219, 91, 90, -1,
      219, 90, 220, -1,
      220, 90, 89, -1,
      220, 89, 221, -1,
      221, 89, 106, -1,
      221, 106, 222, -1,
      222, 106, 105, -1,
      222, 105, 223, -1,
      223, 105, 88, -1,
      223, 88, 224, -1,
      224, 88, 87, -1,
      224, 87, 225, -1,
      225, 87, 86, -1,
      225, 86, 226, -1,
      226, 86, 104, -1,
      226, 104, 227, -1,
      227, 104, 103, -1,
      227, 103, 228, -1,
      228, 103, 102, -1,
      228, 102, 229, -1,
      229, 102, 101, -1,
      229, 101, 230, -1,
      230, 101, 100, -1,
      230, 100, 231, -1,
      231, 100, 99, -1,
      231, 99, 232, -1,
      232, 99, 98, -1,
      232, 98, 233, -1,
      233, 98, 109, -1,
      233, 109, 234, -1,
      234, 109, 108, -1,
      234, 108, 235, -1,
      235, 108, 107, -1,
      235, 107, 236, -1,
      236, 107, 97, -1,
      236, 97, 237, -1,
      237, 97, 96, -1,
      237, 96, 214, -1,
      214, 96, 95, -1,
      236, 237, 238, -1,
      238, 237, 214, -1,
      238, 214, 215, -1,
      233, 234, 238, -1,
      238, 234, 235, -1,
      238, 235, 236, -1,
      230, 231, 238, -1,
      238, 231, 232, -1,
      238, 232, 233, -1,
      227, 228, 238, -1,
      238, 228, 229, -1,
      238, 229, 230, -1,
      224, 225, 238, -1,
      238, 225, 226, -1,
      238, 226, 227, -1,
      221, 222, 238, -1,
      238, 222, 223, -1,
      238, 223, 224, -1,
      218, 219, 238, -1,
      238, 219, 220, -1,
      238, 220, 221, -1,
      215, 216, 238, -1,
      238, 216, 217, -1,
      238, 217, 218, -1,
    ]
  }
}

Shape {
  appearance Appearance {
    material Material {
      diffuseColor 0.2510 0.2510 0.2510
      specularColor 0.1255 0.1255 0.1255
      ambientIntensity 0.2
      transparency 0.0000
      shininess 0.5
    }
  }
  geometry IndexedFaceSet {
    ccw TRUE
    solid FALSE
    coord DEF co Coordinate {
      point [
        -0.010694 -0.005650 0.362205,
        0.022220 -0.005650 0.362205,
        0.003991 0.035461 0.362205,
        0.004938 0.038874 0.362205,
        0.005567 0.042363 0.362205,
        0.005885 0.042363 0.362205,
        0.006528 0.038885 0.362205,
        0.007404 0.035461 0.362205,
        0.142964 -0.010451 0.362205,
        0.159843 0.012224 0.362205,
        0.174641 0.036305 0.362205,
        0.174641 -0.010451 0.362205,
      ]
    }
    coordIndex [
      0, 1, 2, -1,
      2, 1, 7, -1,
      2, 7, 3, -1,
      3, 7, 6, -1,
      3, 6, 4, -1,
      4, 6, 5, -1,
      8, 11, 9, -1,
      9, 11, 10, -1,
    ]
  }
}

Shape {
  appearance Appearance {
    material Material {
      diffuseColor 1.0000 1.0000 1.0000
      specularColor 0.8784 0.8784 0.8784
      ambientIntensity 0.2
      transparency 0.0000
      shininess 0.5
    }
  }
  geometry IndexedFaceSet {
    ccw TRUE
    solid FALSE
    coord DEF co Coordinate {
      point [
        0.064925 0.015454 0.007874,
        0.072679 0.014583 0.007874,
        0.047897 -0.043663 0.007874,
        0.085487 -0.052931 0.007874,
        0.111782 -0.055604 0.007874,
        0.077855 -0.055558 0.007874,
        0.072782 -0.056084 0.007874,
        0.055355 0.014211 0.007874,
        0.046485 -0.042881 0.007874,
        0.046485 0.010413 0.007874,
        0.046485 0.020976 0.007874,
        0.078572 0.012456 0.007874,
        0.084022 0.008810 0.007874,
        0.088777 0.003561 0.007874,
        0.094498 -0.017074 0.007874,
        0.093701 -0.025598 0.007874,
        0.091561 -0.032371 0.007874,
        0.074040 -0.047098 0.007874,
        0.066696 -0.047922 0.007874,
        0.079778 -0.044986 0.007874,
        0.084610 -0.041729 0.007874,
        0.088305 -0.037831 0.007874,
        0.056244 -0.046762 0.007874,
        0.100905 0.002397 0.007874,
        0.096290 0.009759 0.007874,
        0.141550 0.023136 0.007874,
        0.152113 0.023136 0.007874,
        0.152113 -0.055604 0.007874,
        0.092024 -0.002519 0.007874,
        0.094122 -0.010948 0.007874,
        0.091820 -0.048887 0.007874,
        0.097735 -0.042660 0.007874,
        0.111782 -0.046962 0.007874,
        0.101930 -0.035173 0.007874,
        0.141550 -0.046962 0.007874,
        0.089181 0.016595 0.007874,
        0.081702 0.020900 0.007874,
        0.072924 0.023450 0.007874,
        0.104299 -0.026839 0.007874,
        0.105061 -0.017720 0.007874,
        0.103928 -0.006525 0.007874,
        0.065015 0.024096 0.007874,
        0.055589 0.023446 0.007874,
        0.046485 -0.051523 0.007874,
        0.054879 -0.054969 0.007874,
        0.062835 -0.056084 0.007874,
        0.065998 -0.056528 0.007874,
        0.068151 -0.056565 0.007874,
        -0.095631 -0.055604 0.007874,
        -0.085937 -0.034023 0.007874,
        -0.081422 -0.041066 0.007874,
        -0.011129 -0.055604 0.007874,
        0.031122 -0.055604 0.007874,
        0.031122 0.023136 0.007874,
        -0.009209 0.023136 0.007874,
        -0.125398 0.023136 0.007874,
        -0.135961 0.023136 0.007874,
        -0.074941 -0.047272 0.007874,
        -0.066719 -0.052050 0.007874,
        -0.057646 -0.054754 0.007874,
        0.020559 0.014494 0.007874,
        0.020559 -0.011433 0.007874,
        -0.009209 0.014494 0.007874,
        -0.007288 -0.011433 0.007874,
        -0.026493 0.023136 0.007874,
        -0.007288 -0.020075 0.007874,
        0.020559 -0.020075 0.007874,
        0.020559 -0.046962 0.007874,
        -0.011129 -0.046962 0.007874,
        -0.026493 -0.055604 0.007874,
        -0.047904 -0.055604 0.007874,
        -0.166689 -0.055604 0.007874,
        -0.155166 -0.055604 0.007874,
        -0.060089 0.021920 0.007874,
        -0.069302 0.018685 0.007874,
        -0.077872 0.012941 0.007874,
        -0.048714 0.023136 0.007874,
        -0.077955 0.012869 0.007874,
        -0.083523 0.006695 0.007874,
        -0.087182 -0.000077 0.007874,
        -0.089297 -0.007835 0.007874,
        -0.089869 -0.015244 0.007874,
        -0.088764 -0.025781 0.007874,
        -0.147199 -0.033519 0.007874,
        -0.114670 -0.033519 0.007874,
        -0.107154 -0.055604 0.007874,
        -0.135961 0.023136 0.011811,
        -0.166689 -0.055604 0.011811,
        -0.155166 -0.055604 0.011811,
        -0.147199 -0.033519 0.011811,
        -0.114670 -0.033519 0.011811,
        -0.107154 -0.055604 0.011811,
        -0.095631 -0.055604 0.011811,
        -0.125398 0.023136 0.011811,
        -0.117326 -0.024876 0.011811,
        -0.143658 -0.024876 0.011811,
        -0.129074 0.008012 0.011811,
        -0.129832 0.010743 0.011811,
        -0.130335 0.013533 0.011811,
        -0.130590 0.013533 0.011811,
        -0.131104 0.010751 0.011811,
        -0.131805 0.008012 0.011811,
        -0.117326 -0.024876 0.007874,
        -0.143658 -0.024876 0.007874,
        -0.129074 0.008012 0.007874,
        -0.129832 0.010743 0.007874,
        -0.130335 0.013533 0.007874,
        -0.130590 0.013533 0.007874,
        -0.131104 0.010751 0.007874,
        -0.131805 0.008012 0.007874,
        -0.047904 -0.055604 0.011811,
        -0.026493 -0.055604 0.011811,
        -0.026493 0.023136 0.011811,
        -0.048714 0.023136 0.011811,
        -0.089869 -0.015244 0.011811,
        -0.089297 -0.007835 0.011811,
        -0.087182 -0.000077 0.011811,
        -0.083523 0.006695 0.011811,
        -0.077955 0.012869 0.011811,
        -0.077872 0.012941 0.011811,
        -0.069302 0.018685 0.011811,
        -0.060089 0.021920 0.011811,
        -0.057646 -0.054754 0.011811,
        -0.066719 -0.052050 0.011811,
        -0.074941 -0.047272 0.011811,
        -0.081422 -0.041066 0.011811,
        -0.085937 -0.034023 0.011811,
        -0.088764 -0.025781 0.011811,
        -0.074064 0.003452 0.011811,
        -0.070239 0.007513 0.011811,
        -0.064488 0.011229 0.011811,
        -0.057988 0.013503 0.011811,
        -0.048669 0.014494 0.011811,
        -0.037056 0.014494 0.011811,
        -0.037056 -0.046962 0.011811,
        -0.048233 -0.046962 0.011811,
        -0.056541 -0.046189 0.011811,
        -0.063167 -0.044120 0.011811,
        -0.068537 -0.040932 0.011811,
        -0.072953 -0.036570 0.011811,
        -0.076274 -0.031141 0.011811,
        -0.078583 -0.023739 0.011811,
        -0.079307 -0.015469 0.011811,
        -0.078638 -0.007632 0.011811,
        -0.076800 -0.001404 0.011811,
        -0.048669 0.014494 0.007874,
        -0.037056 0.014494 0.007874,
        -0.057988 0.013503 0.007874,
        -0.064488 0.011229 0.007874,
        -0.070239 0.007513 0.007874,
        -0.074064 0.003452 0.007874,
        -0.076800 -0.001404 0.007874,
        -0.078638 -0.007632 0.007874,
        -0.079307 -0.015469 0.007874,
        -0.078583 -0.023739 0.007874,
        -0.076274 -0.031141 0.007874,
        -0.072953 -0.036570 0.007874,
        -0.068537 -0.040932 0.007874,
        -0.063167 -0.044120 0.007874,
        -0.056541 -0.046189 0.007874,
        -0.048233 -0.046962 0.007874,
        -0.037056 -0.046962 0.007874,
        -0.011129 -0.046962 0.011811,
        -0.011129 -0.055604 0.011811,
        0.031122 -0.055604 0.011811,
        0.031122 0.023136 0.011811,
        -0.009209 0.023136 0.011811,
        -0.009209 0.014494 0.011811,
        0.020559 0.014494 0.011811,
        0.020559 -0.011433 0.011811,
        -0.007288 -0.011433 0.011811,
        -0.007288 -0.020075 0.011811,
        0.020559 -0.020075 0.011811,
        0.020559 -0.046962 0.011811,
        0.046485 -0.042881 0.011811,
        0.046485 -0.051523 0.011811,
        0.054879 -0.054969 0.011811,
        0.068151 -0.056565 0.011811,
        0.065998 -0.056528 0.011811,
        0.105061 -0.017720 0.011811,
        0.104299 -0.026839 0.011811,
        0.101930 -0.035173 0.011811,
        0.097735 -0.042660 0.011811,
        0.091820 -0.048887 0.011811,
        0.085487 -0.052931 0.011811,
        0.077855 -0.055558 0.011811,
        0.065015 0.024096 0.011811,
        0.072924 0.023450 0.011811,
        0.081702 0.020900 0.011811,
        0.089181 0.016595 0.011811,
        0.096290 0.009759 0.011811,
        0.100905 0.002397 0.011811,
        0.103928 -0.006525 0.011811,
        0.046485 0.020976 0.011811,
        0.055589 0.023446 0.011811,
        0.046485 0.010413 0.011811,
        0.064925 0.015454 0.011811,
        0.055355 0.014211 0.011811,
        0.094498 -0.017074 0.011811,
        0.094122 -0.010948 0.011811,
        0.092024 -0.002519 0.011811,
        0.088777 0.003561 0.011811,
        0.084022 0.008810 0.011811,
        0.078572 0.012456 0.011811,
        0.072679 0.014583 0.011811,
        0.066696 -0.047922 0.011811,
        0.074040 -0.047098 0.011811,
        0.079778 -0.044986 0.011811,
        0.084610 -0.041729 0.011811,
        0.088305 -0.037831 0.011811,
        0.091561 -0.032371 0.011811,
        0.093701 -0.025598 0.011811,
        0.047897 -0.043663 0.011811,
        0.056244 -0.046762 0.011811,
        0.111782 -0.046962 0.011811,
        0.111782 -0.055604 0.011811,
        0.152113 -0.055604 0.011811,
        0.152113 0.023136 0.011811,
        0.141550 0.023136 0.011811,
        0.141550 -0.046962 0.011811,
      ]
    }
    coordIndex [
      86, 87, 56, -1,
      56, 87, 71, -1,
      87, 88, 71, -1,
      71, 88, 72, -1,
      88, 89, 72, -1,
      72, 89, 83, -1,
      89, 90, 83, -1,
      83, 90, 84, -1,
      90, 91, 84, -1,
      84, 91, 85, -1,
      91, 92, 85, -1,
      85, 92, 48, -1,
      92, 93, 48, -1,
      48, 93, 55, -1,
      93, 86, 55, -1,
      55, 86, 56, -1,
      94, 90, 95, -1,
      95, 90, 89, -1,
      96, 93, 94, -1,
      94, 93, 92, -1,
      94, 92, 90, -1,
      90, 92, 91, -1,
      96, 97, 93, -1,
      93, 97, 98, -1,
      93, 98, 86, -1,
      86, 98, 99, -1,
      86, 99, 100, -1,
      100, 101, 86, -1,
      86, 101, 95, -1,
      86, 95, 87, -1,
      87, 95, 89, -1,
      87, 89, 88, -1,
      94, 95, 102, -1,
      102, 95, 103, -1,
      96, 94, 104, -1,
      104, 94, 102, -1,
      96, 104, 105, -1,
      96, 105, 97, -1,
      97, 105, 106, -1,
      97, 106, 98, -1,
      99, 98, 107, -1,
      107, 98, 106, -1,
      99, 107, 108, -1,
      99, 108, 100, -1,
      100, 108, 109, -1,
      100, 109, 101, -1,
      95, 101, 103, -1,
      103, 101, 109, -1,
      110, 111, 70, -1,
      70, 111, 69, -1,
      111, 112, 69, -1,
      69, 112, 64, -1,
      112, 113, 64, -1,
      64, 113, 76, -1,
      114, 81, 80, -1,
      114, 80, 115, -1,
      115, 80, 79, -1,
      115, 79, 116, -1,
      116, 79, 78, -1,
      116, 78, 117, -1,
      117, 78, 77, -1,
      117, 77, 118, -1,
      118, 77, 75, -1,
      118, 75, 119, -1,
      119, 75, 74, -1,
      119, 74, 120, -1,
      120, 74, 73, -1,
      120, 73, 121, -1,
      121, 73, 76, -1,
      121, 76, 113, -1,
      110, 70, 59, -1,
      110, 59, 122, -1,
      122, 59, 58, -1,
      122, 58, 123, -1,
      123, 58, 57, -1,
      123, 57, 124, -1,
      124, 57, 50, -1,
      124, 50, 125, -1,
      125, 50, 49, -1,
      125, 49, 126, -1,
      126, 49, 82, -1,
      126, 82, 127, -1,
      127, 82, 81, -1,
      127, 81, 114, -1,
      116, 117, 128, -1,
      128, 117, 118, -1,
      128, 118, 129, -1,
      129, 118, 119, -1,
      129, 119, 130, -1,
      130, 119, 120, -1,
      130, 120, 131, -1,
      131, 120, 121, -1,
      131, 121, 132, -1,
      132, 121, 113, -1,
      132, 113, 133, -1,
      133, 113, 112, -1,
      133, 112, 134, -1,
      134, 112, 111, -1,
      134, 111, 135, -1,
      135, 111, 110, -1,
      135, 110, 136, -1,
      136, 110, 122, -1,
      136, 122, 137, -1,
      137, 122, 123, -1,
      137, 123, 138, -1,
      138, 123, 124, -1,
      138, 124, 139, -1,
      139, 124, 125, -1,
      139, 125, 140, -1,
      140, 125, 126, -1,
      140, 126, 141, -1,
      141, 126, 127, -1,
      141, 127, 142, -1,
      142, 127, 114, -1,
      142, 114, 143, -1,
      143, 114, 115, -1,
      143, 115, 144, -1,
      144, 115, 116, -1,
      144, 116, 128, -1,
      132, 133, 145, -1,
      145, 133, 146, -1,
      132, 145, 147, -1,
      132, 147, 131, -1,
      131, 147, 148, -1,
      131, 148, 130, -1,
      130, 148, 149, -1,
      130, 149, 129, -1,
      129, 149, 150, -1,
      129, 150, 128, -1,
      128, 150, 151, -1,
      128, 151, 144, -1,
      144, 151, 152, -1,
      144, 152, 143, -1,
      143, 152, 153, -1,
      143, 153, 142, -1,
      142, 153, 154, -1,
      142, 154, 141, -1,
      141, 154, 155, -1,
      141, 155, 140, -1,
      140, 155, 156, -1,
      140, 156, 139, -1,
      139, 156, 157, -1,
      139, 157, 138, -1,
      138, 157, 158, -1,
      138, 158, 137, -1,
      137, 158, 159, -1,
      137, 159, 136, -1,
      136, 159, 160, -1,
      136, 160, 135, -1,
      134, 135, 161, -1,
      161, 135, 160, -1,
      133, 134, 146, -1,
      146, 134, 161, -1,
      162, 163, 68, -1,
      68, 163, 51, -1,
      163, 164, 51, -1,
      51, 164, 52, -1,
      164, 165, 52, -1,
      52, 165, 53, -1,
      165, 166, 53, -1,
      53, 166, 54, -1,
      166, 167, 54, -1,
      54, 167, 62, -1,
      167, 168, 62, -1,
      62, 168, 60, -1,
      168, 169, 60, -1,
      60, 169, 61, -1,
      169, 170, 61, -1,
      61, 170, 63, -1,
      170, 171, 63, -1,
      63, 171, 65, -1,
      171, 172, 65, -1,
      65, 172, 66, -1,
      172, 173, 66, -1,
      66, 173, 67, -1,
      173, 162, 67, -1,
      67, 162, 68, -1,
      164, 163, 162, -1,
      162, 173, 164, -1,
      164, 173, 172, -1,
      164, 172, 165, -1,
      167, 166, 168, -1,
      168, 166, 165, -1,
      168, 165, 169, -1,
      169, 165, 172, -1,
      169, 172, 170, -1,
      170, 172, 171, -1,
      174, 175, 8, -1,
      8, 175, 43, -1,
      43, 175, 176, -1,
      177, 47, 46, -1,
      177, 46, 178, -1,
      178, 46, 45, -1,
      178, 45, 176, -1,
      176, 45, 44, -1,
      176, 44, 43, -1,
      179, 39, 38, -1,
      179, 38, 180, -1,
      180, 38, 33, -1,
      180, 33, 181, -1,
      181, 33, 31, -1,
      181, 31, 182, -1,
      182, 31, 30, -1,
      182, 30, 183, -1,
      183, 30, 3, -1,
      183, 3, 184, -1,
      184, 3, 5, -1,
      184, 5, 185, -1,
      185, 5, 177, -1,
      177, 5, 6, -1,
      177, 6, 47, -1,
      186, 41, 37, -1,
      186, 37, 187, -1,
      187, 37, 36, -1,
      187, 36, 188, -1,
      188, 36, 35, -1,
      188, 35, 189, -1,
      189, 35, 24, -1,
      189, 24, 190, -1,
      190, 24, 23, -1,
      190, 23, 191, -1,
      191, 23, 40, -1,
      191, 40, 192, -1,
      192, 40, 39, -1,
      192, 39, 179, -1,
      193, 10, 42, -1,
      193, 42, 194, -1,
      194, 42, 41, -1,
      194, 41, 186, -1,
      193, 195, 10, -1,
      10, 195, 9, -1,
      196, 0, 7, -1,
      196, 7, 197, -1,
      197, 7, 9, -1,
      197, 9, 195, -1,
      198, 14, 29, -1,
      198, 29, 199, -1,
      199, 29, 28, -1,
      199, 28, 200, -1,
      200, 28, 13, -1,
      200, 13, 201, -1,
      201, 13, 12, -1,
      201, 12, 202, -1,
      202, 12, 11, -1,
      202, 11, 203, -1,
      203, 11, 1, -1,
      203, 1, 204, -1,
      204, 1, 0, -1,
      204, 0, 196, -1,
      205, 18, 17, -1,
      205, 17, 206, -1,
      206, 17, 19, -1,
      206, 19, 207, -1,
      207, 19, 20, -1,
      207, 20, 208, -1,
      208, 20, 21, -1,
      208, 21, 209, -1,
      209, 21, 16, -1,
      209, 16, 210, -1,
      210, 16, 15, -1,
      210, 15, 211, -1,
      211, 15, 14, -1,
      211, 14, 198, -1,
      174, 8, 2, -1,
      174, 2, 212, -1,
      212, 2, 22, -1,
      212, 22, 213, -1,
      213, 22, 18, -1,
      213, 18, 205, -1,
      206, 177, 205, -1,
      205, 177, 178, -1,
      205, 178, 213, -1,
      213, 178, 176, -1,
      213, 176, 212, -1,
      212, 176, 175, -1,
      212, 175, 174, -1,
      195, 193, 197, -1,
      197, 193, 194, -1,
      197, 194, 196, -1,
      196, 194, 186, -1,
      196, 186, 204, -1,
      204, 186, 187, -1,
      204, 187, 203, -1,
      203, 187, 188, -1,
      203, 188, 202, -1,
      202, 188, 189, -1,
      202, 189, 201, -1,
      201, 189, 190, -1,
      201, 190, 200, -1,
      200, 190, 191, -1,
      200, 191, 199, -1,
      199, 191, 192, -1,
      199, 192, 198, -1,
      198, 192, 179, -1,
      198, 179, 211, -1,
      211, 179, 180, -1,
      211, 180, 210, -1,
      210, 180, 181, -1,
      210, 181, 209, -1,
      209, 181, 182, -1,
      209, 182, 208, -1,
      208, 182, 183, -1,
      208, 183, 207, -1,
      207, 183, 184, -1,
      207, 184, 206, -1,
      206, 184, 185, -1,
      206, 185, 177, -1,
      214, 215, 32, -1,
      32, 215, 4, -1,
      215, 216, 4, -1,
      4, 216, 27, -1,
      216, 217, 27, -1,
      27, 217, 26, -1,
      217, 218, 26, -1,
      26, 218, 25, -1,
      218, 219, 25, -1,
      25, 219, 34, -1,
      219, 214, 34, -1,
      34, 214, 32, -1,
      218, 217, 219, -1,
      219, 217, 216, -1,
      219, 216, 214, -1,
      214, 216, 215, -1,
    ]
  }
}

Shape {
  appearance Appearance {
    material Material {
      diffuseColor 0.2510 0.2510 0.2510
      specularColor 0.1255 0.1255 0.1255
      ambientIntensity 0.2
      transparency 0.0000
      shininess 0.5
    }
  }
  geometry IndexedFaceSet {
    ccw TRUE
    solid FALSE
    coord DEF co Coordinate {
      point [
        -0.117326 -0.024876 0.007874,
        -0.143658 -0.024876 0.007874,
        -0.129074 0.008012 0.007874,
        -0.129832 0.010743 0.007874,
        -0.130335 0.013533 0.007874,
        -0.130590 0.013533 0.007874,
        -0.131104 0.010751 0.007874,
        -0.131805 0.008012 0.007874,
        -0.048669 0.014494 0.007874,
        -0.037056 0.014494 0.007874,
        -0.057988 0.013503 0.007874,
        -0.064488 0.011229 0.007874,
        -0.070239 0.007513 0.007874,
        -0.074064 0.003452 0.007874,
        -0.076800 -0.001404 0.007874,
        -0.078638 -0.007632 0.007874,
        -0.079307 -0.015469 0.007874,
        -0.078583 -0.023739 0.007874,
        -0.076274 -0.031141 0.007874,
        -0.072953 -0.036570 0.007874,
        -0.068537 -0.040932 0.007874,
        -0.063167 -0.044120 0.007874,
        -0.056541 -0.046189 0.007874,
        -0.048233 -0.046962 0.007874,
        -0.037056 -0.046962 0.007874,
      ]
    }
    coordIndex [
      0, 1, 2, -1,
      2, 1, 7, -1,
      2, 7, 3, -1,
      3, 7, 6, -1,
      3, 6, 4, -1,
      4, 6, 5, -1,
      9, 24, 8, -1,
      8, 24, 23, -1,
      8, 23, 22, -1,
      16, 15, 8, -1,
      8, 15, 14, -1,
      8, 14, 10, -1,
      22, 21, 8, -1,
      8, 21, 20, -1,
      8, 20, 19, -1,
      19, 18, 8, -1,
      8, 18, 17, -1,
      8, 17, 16, -1,
      13, 12, 14, -1,
      14, 12, 11, -1,
      14, 11, 10, -1,
    ]
  }
}

Shape {
  appearance Appearance {
    material Material {
      diffuseColor 1.0000 1.0000 0.0000
      specularColor 0.5020 0.5020 0.0000
      ambientIntensity 0.2
      transparency 0.0000
      shininess 0.5
    }
  }
  geometry IndexedFaceSet {
    ccw TRUE
    solid FALSE
    coord DEF co Coordinate {
      point [
        0.551181 0.344488 0.007874,
        0.551181 0.246063 0.007874,
        0.551181 0.344488 0.000000,
        0.551181 0.246063 0.000000,
        0.362205 0.344488 0.007874,
        0.362205 0.344488 0.000000,
        0.362205 0.246063 0.007874,
        0.362205 0.246063 0.000000,
        -0.049213 0.263780 0.007874,
        -0.049213 0.452756 0.007874,
        -0.049213 0.263780 0.000000,
        -0.049213 0.452756 0.000000,
        0.049213 0.263780 0.007874,
        0.049213 0.263780 0.000000,
        0.049213 0.452756 0.007874,
        0.049213 0.452756 0.000000,
        -0.551181 0.246063 0.007874,
        -0.551181 0.344488 0.007874,
        -0.551181 0.246063 0.000000,
        -0.551181 0.344488 0.000000,
        -0.362205 0.246063 0.007874,
        -0.362205 0.246063 0.000000,
        -0.362205 0.284203 0.007874,
        -0.362205 0.284203 0.000000,
        -0.422490 0.344488 0.007874,
        -0.422490 0.344488 0.000000,
        0.551181 0.147638 0.007874,
        0.551181 0.049213 0.007874,
        0.551181 0.147638 0.000000,
        0.551181 0.049213 0.000000,
        0.362205 0.147638 0.007874,
        0.362205 0.147638 0.000000,
        0.362205 0.049213 0.007874,
        0.362205 0.049213 0.000000,
        0.551181 -0.049213 0.007874,
        0.551181 -0.147638 0.007874,
        0.551181 -0.049213 0.000000,
        0.551181 -0.147638 0.000000,
        0.362205 -0.049213 0.007874,
        0.362205 -0.049213 0.000000,
        0.362205 -0.147638 0.007874,
        0.362205 -0.147638 0.000000,
        0.551181 -0.246063 0.007874,
        0.551181 -0.344488 0.007874,
        0.551181 -0.246063 0.000000,
        0.551181 -0.344488 0.000000,
        0.362205 -0.246063 0.007874,
        0.362205 -0.246063 0.000000,
        0.362205 -0.344488 0.007874,
        0.362205 -0.344488 0.000000,
        0.147638 0.263780 0.007874,
        0.147638 0.452756 0.007874,
        0.147638 0.263780 0.000000,
        0.147638 0.452756 0.000000,
        0.246063 0.263780 0.007874,
        0.246063 0.263780 0.000000,
        0.246063 0.452756 0.007874,
        0.246063 0.452756 0.000000,
        -0.362205 -0.246063 0.007874,
        -0.362205 -0.344488 0.007874,
        -0.362205 -0.246063 0.000000,
        -0.362205 -0.344488 0.000000,
        -0.551181 -0.246063 0.007874,
        -0.551181 -0.246063 0.000000,
        -0.551181 -0.344488 0.007874,
        -0.551181 -0.344488 0.000000,
        -0.362205 -0.049213 0.007874,
        -0.362205 -0.147638 0.007874,
        -0.362205 -0.049213 0.000000,
        -0.362205 -0.147638 0.000000,
        -0.551181 -0.049213 0.007874,
        -0.551181 -0.049213 0.000000,
        -0.551181 -0.147638 0.007874,
        -0.551181 -0.147638 0.000000,
        -0.362205 0.147638 0.007874,
        -0.362205 0.049213 0.007874,
        -0.362205 0.147638 0.000000,
        -0.362205 0.049213 0.000000,
        -0.551181 0.147638 0.007874,
        -0.551181 0.147638 0.000000,
        -0.551181 0.049213 0.007874,
        -0.551181 0.049213 0.000000,
        -0.246063 0.263780 0.007874,
        -0.246063 0.452756 0.007874,
        -0.246063 0.263780 0.000000,
        -0.246063 0.452756 0.000000,
        -0.147638 0.263780 0.007874,
        -0.147638 0.263780 0.000000,
        -0.147638 0.452756 0.007874,
        -0.147638 0.452756 0.000000,
        -0.049213 -0.452756 0.007874,
        -0.049213 -0.263780 0.007874,
        -0.049213 -0.452756 0.000000,
        -0.049213 -0.263780 0.000000,
        0.049213 -0.452756 0.007874,
        0.049213 -0.452756 0.000000,
        0.049213 -0.263780 0.007874,
        0.049213 -0.263780 0.000000,
        -0.246063 -0.452756 0.007874,
        -0.246063 -0.263780 0.007874,
        -0.246063 -0.452756 0.000000,
        -0.246063 -0.263780 0.000000,
        -0.147638 -0.452756 0.007874,
        -0.147638 -0.452756 0.000000,
        -0.147638 -0.263780 0.007874,
        -0.147638 -0.263780 0.000000,
        0.147638 -0.452756 0.007874,
        0.147638 -0.263780 0.007874,
        0.147638 -0.452756 0.000000,
        0.147638 -0.263780 0.000000,
        0.246063 -0.452756 0.007874,
        0.246063 -0.452756 0.000000,
        0.246063 -0.263780 0.007874,
        0.246063 -0.263780 0.000000,
      ]
    }
    coordIndex [
      0, 1, 2, -1,
      2, 1, 3, -1,
      4, 0, 5, -1,
      5, 0, 2, -1,
      6, 4, 7, -1,
      7, 4, 5, -1,
      1, 6, 3, -1,
      3, 6, 7, -1,
      4, 6, 0, -1,
      0, 6, 1, -1,
      7, 5, 3, -1,
      3, 5, 2, -1,
      8, 9, 10, -1,
      10, 9, 11, -1,
      12, 8, 13, -1,
      13, 8, 10, -1,
      14, 12, 15, -1,
      15, 12, 13, -1,
      9, 14, 11, -1,
      11, 14, 15, -1,
      12, 14, 8, -1,
      8, 14, 9, -1,
      15, 13, 11, -1,
      11, 13, 10, -1,
      16, 17, 18, -1,
      18, 17, 19, -1,
      20, 16, 21, -1,
      21, 16, 18, -1,
      22, 20, 23, -1,
      23, 20, 21, -1,
      24, 22, 25, -1,
      25, 22, 23, -1,
      17, 24, 19, -1,
      19, 24, 25, -1,
      20, 22, 16, -1,
      16, 22, 24, -1,
      16, 24, 17, -1,
      23, 21, 25, -1,
      25, 21, 18, -1,
      25, 18, 19, -1,
      26, 27, 28, -1,
      28, 27, 29, -1,
      30, 26, 31, -1,
      31, 26, 28, -1,
      32, 30, 33, -1,
      33, 30, 31, -1,
      27, 32, 29, -1,
      29, 32, 33, -1,
      30, 32, 26, -1,
      26, 32, 27, -1,
      33, 31, 29, -1,
      29, 31, 28, -1,
      34, 35, 36, -1,
      36, 35, 37, -1,
      38, 34, 39, -1,
      39, 34, 36, -1,
      40, 38, 41, -1,
      41, 38, 39, -1,
      35, 40, 37, -1,
      37, 40, 41, -1,
      38, 40, 34, -1,
      34, 40, 35, -1,
      41, 39, 37, -1,
      37, 39, 36, -1,
      42, 43, 44, -1,
      44, 43, 45, -1,
      46, 42, 47, -1,
      47, 42, 44, -1,
      48, 46, 49, -1,
      49, 46, 47, -1,
      43, 48, 45, -1,
      45, 48, 49, -1,
      46, 48, 42, -1,
      42, 48, 43, -1,
      49, 47, 45, -1,
      45, 47, 44, -1,
      50, 51, 52, -1,
      52, 51, 53, -1,
      54, 50, 55, -1,
      55, 50, 52, -1,
      56, 54, 57, -1,
      57, 54, 55, -1,
      51, 56, 53, -1,
      53, 56, 57, -1,
      54, 56, 50, -1,
      50, 56, 51, -1,
      57, 55, 53, -1,
      53, 55, 52, -1,
      58, 59, 60, -1,
      60, 59, 61, -1,
      62, 58, 63, -1,
      63, 58, 60, -1,
      64, 62, 65, -1,
      65, 62, 63, -1,
      59, 64, 61, -1,
      61, 64, 65, -1,
      62, 64, 58, -1,
      58, 64, 59, -1,
      65, 63, 61, -1,
      61, 63, 60, -1,
      66, 67, 68, -1,
      68, 67, 69, -1,
      70, 66, 71, -1,
      71, 66, 68, -1,
      72, 70, 73, -1,
      73, 70, 71, -1,
      67, 72, 69, -1,
      69, 72, 73, -1,
      70, 72, 66, -1,
      66, 72, 67, -1,
      73, 71, 69, -1,
      69, 71, 68, -1,
      74, 75, 76, -1,
      76, 75, 77, -1,
      78, 74, 79, -1,
      79, 74, 76, -1,
      80, 78, 81, -1,
      81, 78, 79, -1,
      75, 80, 77, -1,
      77, 80, 81, -1,
      78, 80, 74, -1,
      74, 80, 75, -1,
      81, 79, 77, -1,
      77, 79, 76, -1,
      82, 83, 84, -1,
      84, 83, 85, -1,
      86, 82, 87, -1,
      87, 82, 84, -1,
      88, 86, 89, -1,
      89, 86, 87, -1,
      83, 88, 85, -1,
      85, 88, 89, -1,
      86, 88, 82, -1,
      82, 88, 83, -1,
      89, 87, 85, -1,
      85, 87, 84, -1,
      90, 91, 92, -1,
      92, 91, 93, -1,
      94, 90, 95, -1,
      95, 90, 92, -1,
      96, 94, 97, -1,
      97, 94, 95, -1,
      91, 96, 93, -1,
      93, 96, 97, -1,
      94, 96, 90, -1,
      90, 96, 91, -1,
      97, 95, 93, -1,
      93, 95, 92, -1,
      98, 99, 100, -1,
      100, 99, 101, -1,
      102, 98, 103, -1,
      103, 98, 100, -1,
      104, 102, 105, -1,
      105, 102, 103, -1,
      99, 104, 101, -1,
      101, 104, 105, -1,
      102, 104, 98, -1,
      98, 104, 99, -1,
      105, 103, 101, -1,
      101, 103, 100, -1,
      106, 107, 108, -1,
      108, 107, 109, -1,
      110, 106, 111, -1,
      111, 106, 108, -1,
      112, 110, 113, -1,
      113, 110, 111, -1,
      107, 112, 109, -1,
      109, 112, 113, -1,
      110, 112, 106, -1,
      106, 112, 107, -1,
      113, 111, 109, -1,
      109, 111, 108, -1,
    ]
  }
}
