#VRML V2.0 utf8

Shape {
  appearance Appearance {
    material Material {
      diffuseColor 0.2078 0.2078 0.2078
      specularColor 0.0157 0.0157 0.0157
      ambientIntensity 0.2
      transparency 0.0000
      shininess 0.5
    }
  }
  geometry IndexedFaceSet {
    ccw TRUE
    solid FALSE
    coord DEF co Coordinate {
      point [
        0.041291 -0.114745 0.000000,
        0.041291 0.393701 0.000000,
        0.157024 0.393701 0.000000,
        0.067412 -0.147581 0.000000,
        0.075166 -0.148452 0.000000,
        0.050384 -0.206698 0.000000,
        0.080342 -0.218594 0.000000,
        0.087974 -0.215967 0.000000,
        0.114269 -0.218640 0.000000,
        0.157024 -0.219120 0.000000,
        0.154600 -0.218640 0.000000,
        0.154600 -0.139900 0.000000,
        0.075269 -0.219120 0.000000,
        0.157024 -0.114745 0.000000,
        0.144037 -0.139900 0.000000,
        0.057842 -0.148825 0.000000,
        0.048972 -0.205917 0.000000,
        0.048972 -0.152623 0.000000,
        0.048972 -0.142060 0.000000,
        0.081059 -0.150580 0.000000,
        0.086509 -0.154225 0.000000,
        0.091264 -0.159475 0.000000,
        0.096985 -0.180110 0.000000,
        0.096187 -0.188634 0.000000,
        0.094048 -0.195407 0.000000,
        0.076527 -0.210134 0.000000,
        0.069183 -0.210958 0.000000,
        0.082264 -0.208022 0.000000,
        0.087097 -0.204765 0.000000,
        0.090792 -0.200867 0.000000,
        0.058731 -0.209798 0.000000,
        0.103392 -0.160639 0.000000,
        0.098777 -0.153277 0.000000,
        0.091668 -0.146440 0.000000,
        0.094510 -0.165554 0.000000,
        0.096609 -0.173983 0.000000,
        0.094307 -0.211922 0.000000,
        0.100222 -0.205696 0.000000,
        0.114269 -0.209998 0.000000,
        0.104417 -0.198209 0.000000,
        0.144037 -0.209998 0.000000,
        0.084189 -0.142135 0.000000,
        0.075411 -0.139585 0.000000,
        0.106786 -0.189874 0.000000,
        0.107548 -0.180755 0.000000,
        0.106415 -0.169561 0.000000,
        0.067502 -0.138939 0.000000,
        0.058076 -0.139590 0.000000,
        0.068485 -0.219563 0.000000,
        0.041291 -0.393701 0.000000,
        0.065322 -0.219120 0.000000,
        0.041291 -0.219120 0.000000,
        0.057366 -0.218005 0.000000,
        0.048972 -0.214559 0.000000,
        -3.039370 -0.393701 0.000000,
        -3.460630 -0.393701 0.000000,
        -3.500000 -0.354331 0.000000,
        -3.960630 -0.393701 0.000000,
        -4.000000 -0.354331 0.000000,
        -3.539370 -0.393701 0.000000,
        -4.000000 -0.219120 0.000000,
        -3.000000 -0.219120 0.000000,
        -2.500000 -0.219120 0.000000,
        -2.960630 -0.393701 0.000000,
        -3.000000 -0.354331 0.000000,
        -2.000000 -0.219120 0.000000,
        -2.000000 -0.354331 0.000000,
        -2.039370 -0.393701 0.000000,
        -2.460630 -0.393701 0.000000,
        -2.500000 -0.354331 0.000000,
        -2.539370 -0.393701 0.000000,
        -1.960630 -0.393701 0.000000,
        -1.500000 -0.219120 0.000000,
        -1.539370 -0.393701 0.000000,
        -1.000000 -0.219120 0.000000,
        -1.460630 -0.393701 0.000000,
        -1.500000 -0.354331 0.000000,
        -0.539370 -0.393701 0.000000,
        -0.960630 -0.393701 0.000000,
        -0.500000 -0.219120 0.000000,
        -1.000000 -0.354331 0.000000,
        -1.039370 -0.393701 0.000000,
        0.039370 -0.393701 0.000000,
        -0.000000 -0.354331 0.000000,
        -0.016324 -0.219120 0.000000,
        -0.016324 -0.370655 0.000000,
        -0.090263 -0.219120 0.000000,
        -0.039370 -0.393701 0.000000,
        0.070638 -0.219600 0.000000,
        0.157024 -0.393701 0.000000,
        0.460630 -0.393701 0.000000,
        0.500000 -0.219120 0.000000,
        0.500000 -0.354331 0.000000,
        0.539370 -0.393701 0.000000,
        1.000000 -0.219120 0.000000,
        0.960630 -0.393701 0.000000,
        1.500000 -0.354331 0.000000,
        1.460630 -0.393701 0.000000,
        1.500000 -0.219120 0.000000,
        1.039370 -0.393701 0.000000,
        1.000000 -0.354331 0.000000,
        2.460630 -0.393701 0.000000,
        2.039370 -0.393701 0.000000,
        2.000000 -0.354331 0.000000,
        1.539370 -0.393701 0.000000,
        1.960630 -0.393701 0.000000,
        2.500000 -0.219120 0.000000,
        2.500000 -0.354331 0.000000,
        2.539370 -0.393701 0.000000,
        3.000000 -0.219120 0.000000,
        2.960630 -0.393701 0.000000,
        3.500000 -0.354331 0.000000,
        3.460630 -0.393701 0.000000,
        3.500000 -0.219120 0.000000,
        3.039370 -0.393701 0.000000,
        3.000000 -0.354331 0.000000,
        3.539370 -0.393701 0.000000,
        3.920276 -0.219120 0.000000,
        3.920276 -0.393701 0.000000,
        4.000000 -0.219120 0.000000,
        4.000000 -0.354331 0.000000,
        3.960630 -0.393701 0.000000,
        4.000000 0.354331 0.000000,
        4.000000 -0.114745 0.000000,
        3.960630 0.393701 0.000000,
        3.920276 -0.114745 0.000000,
        3.920276 0.393701 0.000000,
        3.840551 0.090551 0.000000,
        3.539370 0.393701 0.000000,
        3.659449 0.090551 0.000000,
        3.500000 0.354331 0.000000,
        3.500000 -0.114745 0.000000,
        3.659449 -0.090551 0.000000,
        3.840551 -0.090551 0.000000,
        3.000000 0.354331 0.000000,
        3.039370 0.393701 0.000000,
        3.159449 0.090551 0.000000,
        3.460630 0.393701 0.000000,
        3.340551 0.090551 0.000000,
        3.340551 -0.090551 0.000000,
        3.159449 -0.090551 0.000000,
        3.000000 -0.114745 0.000000,
        2.500000 0.354331 0.000000,
        2.539370 0.393701 0.000000,
        2.659449 0.090551 0.000000,
        2.960630 0.393701 0.000000,
        2.840551 0.090551 0.000000,
        2.840551 -0.090551 0.000000,
        2.659449 -0.090551 0.000000,
        2.500000 -0.114745 0.000000,
        1.659449 0.090551 0.000000,
        1.659449 -0.090551 0.000000,
        1.500000 -0.114745 0.000000,
        1.840551 -0.090551 0.000000,
        1.960630 0.393701 0.000000,
        2.000000 0.354331 0.000000,
        2.159449 0.090551 0.000000,
        2.039370 0.393701 0.000000,
        2.340551 0.090551 0.000000,
        2.460630 0.393701 0.000000,
        2.340551 -0.090551 0.000000,
        2.159449 -0.090551 0.000000,
        1.840551 0.090551 0.000000,
        1.539370 0.393701 0.000000,
        1.500000 0.354331 0.000000,
        1.000000 0.354331 0.000000,
        1.039370 0.393701 0.000000,
        1.159449 0.090551 0.000000,
        1.460630 0.393701 0.000000,
        1.340551 0.090551 0.000000,
        1.340551 -0.090551 0.000000,
        1.159449 -0.090551 0.000000,
        1.000000 -0.114745 0.000000,
        0.500000 0.354331 0.000000,
        0.539370 0.393701 0.000000,
        0.659449 0.090551 0.000000,
        0.960630 0.393701 0.000000,
        0.840551 0.090551 0.000000,
        0.840551 -0.090551 0.000000,
        0.659449 -0.090551 0.000000,
        0.500000 -0.114745 0.000000,
        0.159449 0.090551 0.000000,
        0.159449 -0.090551 0.000000,
        0.340551 -0.090551 0.000000,
        0.039370 0.393701 0.000000,
        -0.000000 0.354331 0.000000,
        -0.016324 -0.114745 0.000000,
        -0.340551 -0.090551 0.000000,
        -0.159449 -0.090551 0.000000,
        -0.126296 -0.114745 0.000000,
        -0.159449 0.090551 0.000000,
        -0.659449 -0.090551 0.000000,
        -0.659449 0.090551 0.000000,
        -0.500000 0.354331 0.000000,
        -1.000000 -0.114745 0.000000,
        -1.000000 0.354331 0.000000,
        -0.840551 0.090551 0.000000,
        -0.960630 0.393701 0.000000,
        -0.539370 0.393701 0.000000,
        -1.500000 0.354331 0.000000,
        -1.460630 0.393701 0.000000,
        -1.340551 0.090551 0.000000,
        -1.039370 0.393701 0.000000,
        -1.159449 0.090551 0.000000,
        -1.159449 -0.090551 0.000000,
        -1.340551 -0.090551 0.000000,
        -1.500000 -0.114745 0.000000,
        -2.000000 0.354331 0.000000,
        -1.960630 0.393701 0.000000,
        -1.840551 0.090551 0.000000,
        -1.539370 0.393701 0.000000,
        -1.659449 0.090551 0.000000,
        -1.659449 -0.090551 0.000000,
        -1.840551 -0.090551 0.000000,
        -2.000000 -0.114745 0.000000,
        -2.159449 0.090551 0.000000,
        -2.159449 -0.090551 0.000000,
        -2.340551 -0.090551 0.000000,
        -2.500000 -0.114745 0.000000,
        -2.340551 0.090551 0.000000,
        -2.500000 0.354331 0.000000,
        -2.460630 0.393701 0.000000,
        -2.039370 0.393701 0.000000,
        -3.000000 0.354331 0.000000,
        -2.960630 0.393701 0.000000,
        -2.840551 0.090551 0.000000,
        -2.539370 0.393701 0.000000,
        -2.659449 0.090551 0.000000,
        -2.659449 -0.090551 0.000000,
        -2.840551 -0.090551 0.000000,
        -3.000000 -0.114745 0.000000,
        -3.340551 0.090551 0.000000,
        -3.539370 0.393701 0.000000,
        -3.500000 0.354331 0.000000,
        -3.840551 0.090551 0.000000,
        -3.840551 -0.090551 0.000000,
        -4.000000 -0.114745 0.000000,
        -3.659449 -0.090551 0.000000,
        -3.460630 0.393701 0.000000,
        -3.039370 0.393701 0.000000,
        -3.159449 0.090551 0.000000,
        -3.159449 -0.090551 0.000000,
        -3.340551 -0.090551 0.000000,
        -3.659449 0.090551 0.000000,
        -3.960630 0.393701 0.000000,
        -4.000000 0.354331 0.000000,
        -0.126296 -0.139900 0.000000,
        -0.122911 -0.139900 0.000000,
        -0.090263 -0.114745 0.000000,
        -0.093144 -0.218640 0.000000,
        -0.104667 -0.218640 0.000000,
        -0.126296 -0.219120 0.000000,
        -0.112184 -0.196554 0.000000,
        -0.126296 -0.196554 0.000000,
        -0.133474 -0.139900 0.000000,
        -0.500000 -0.114745 0.000000,
        -0.340551 0.090551 0.000000,
        -0.144712 -0.196554 0.000000,
        -0.152679 -0.218640 0.000000,
        -0.164202 -0.218640 0.000000,
        -0.840551 -0.090551 0.000000,
        -0.460630 0.393701 0.000000,
        -0.126296 0.393701 0.000000,
        -0.090263 0.393701 0.000000,
        -0.039370 0.393701 0.000000,
        -0.016324 0.370655 0.000000,
        0.460630 0.393701 0.000000,
        0.340551 0.090551 0.000000,
        -0.083450 -0.197059 0.000000,
        -0.078935 -0.204102 0.000000,
        -0.072454 -0.210307 0.000000,
        -0.064232 -0.215085 0.000000,
        -0.066815 -0.144351 0.000000,
        -0.075385 -0.150094 0.000000,
        -0.024006 -0.139900 0.000000,
        -0.046227 -0.139900 0.000000,
        -0.057603 -0.141116 0.000000,
        -0.075468 -0.150167 0.000000,
        -0.081036 -0.156341 0.000000,
        -0.084695 -0.163113 0.000000,
        -0.055159 -0.217789 0.000000,
        -0.045417 -0.218640 0.000000,
        -0.024006 -0.218640 0.000000,
        -0.086810 -0.170870 0.000000,
        -0.087382 -0.178280 0.000000,
        -0.086278 -0.188817 0.000000,
        -0.006722 -0.139900 0.000000,
        0.033609 -0.139900 0.000000,
        -0.006722 -0.148542 0.000000,
        -0.008642 -0.209998 0.000000,
        -0.008642 -0.218640 0.000000,
        0.033609 -0.218640 0.000000,
        0.023046 -0.183111 0.000000,
        0.023046 -0.209998 0.000000,
        -0.004801 -0.183111 0.000000,
        -0.004801 -0.174469 0.000000,
        0.023046 -0.174469 0.000000,
        0.023046 -0.148542 0.000000,
        -0.090263 -0.393701 0.000000,
        -0.126296 -0.393701 0.000000,
        -0.460630 -0.393701 0.000000,
        -0.500000 -0.354331 0.000000,
        -3.960630 0.393701 0.393701,
        -3.539370 0.393701 0.393701,
        -4.000000 -0.242126 0.393701,
        -4.000000 0.354331 0.393701,
        -4.000000 -0.354331 0.393701,
        -3.960630 -0.393701 0.393701,
        -3.539370 -0.393701 0.393701,
        -3.039370 -0.393701 0.393701,
        -3.000000 -0.354331 0.393701,
        -3.000000 -0.242126 0.393701,
        -0.539370 -0.393701 0.393701,
        -0.500000 -0.354331 0.393701,
        -0.500000 -0.242126 0.393701,
        1.460630 -0.393701 0.393701,
        1.500000 -0.354331 0.393701,
        1.500000 -0.242126 0.393701,
        2.460630 -0.393701 0.393701,
        2.500000 -0.354331 0.393701,
        2.500000 -0.242126 0.393701,
        -3.500000 0.354331 0.393701,
        -3.659449 0.090551 0.393701,
        -3.840551 0.090551 0.393701,
        -3.840551 -0.090551 0.393701,
        -3.659449 -0.090551 0.393701,
        -3.500000 -0.242126 0.393701,
        -3.000000 0.354331 0.393701,
        -3.159449 0.090551 0.393701,
        -3.039370 0.393701 0.393701,
        -3.460630 0.393701 0.393701,
        -3.340551 0.090551 0.393701,
        -3.340551 -0.090551 0.393701,
        -3.159449 -0.090551 0.393701,
        -2.840551 0.090551 0.393701,
        -2.840551 -0.090551 0.393701,
        -2.659449 -0.090551 0.393701,
        -2.500000 -0.242126 0.393701,
        -2.659449 0.090551 0.393701,
        -2.500000 0.354331 0.393701,
        -2.539370 0.393701 0.393701,
        -2.960630 0.393701 0.393701,
        -2.000000 0.354331 0.393701,
        -2.039370 0.393701 0.393701,
        -2.159449 0.090551 0.393701,
        -2.460630 0.393701 0.393701,
        -2.340551 0.090551 0.393701,
        -2.340551 -0.090551 0.393701,
        -2.159449 -0.090551 0.393701,
        -2.000000 -0.242126 0.393701,
        -1.500000 0.354331 0.393701,
        -1.539370 0.393701 0.393701,
        -1.659449 0.090551 0.393701,
        -1.960630 0.393701 0.393701,
        -1.840551 0.090551 0.393701,
        -1.840551 -0.090551 0.393701,
        -1.659449 -0.090551 0.393701,
        -1.500000 -0.242126 0.393701,
        -1.340551 0.090551 0.393701,
        -1.340551 -0.090551 0.393701,
        -1.159449 -0.090551 0.393701,
        -1.000000 -0.242126 0.393701,
        -1.159449 0.090551 0.393701,
        -1.000000 0.354331 0.393701,
        -1.039370 0.393701 0.393701,
        -1.460630 0.393701 0.393701,
        -0.500000 0.354331 0.393701,
        -0.539370 0.393701 0.393701,
        -0.659449 0.090551 0.393701,
        -0.960630 0.393701 0.393701,
        -0.840551 0.090551 0.393701,
        -0.840551 -0.090551 0.393701,
        -0.659449 -0.090551 0.393701,
        -0.000000 0.354331 0.393701,
        -0.039370 0.393701 0.393701,
        -0.159449 0.090551 0.393701,
        -0.460630 0.393701 0.393701,
        -0.340551 0.090551 0.393701,
        -0.340551 -0.090551 0.393701,
        -0.159449 -0.090551 0.393701,
        -0.000000 -0.242126 0.393701,
        0.840551 0.090551 0.393701,
        1.000000 0.354331 0.393701,
        0.960630 0.393701 0.393701,
        0.659449 0.090551 0.393701,
        1.000000 -0.242126 0.393701,
        0.840551 -0.090551 0.393701,
        0.659449 -0.090551 0.393701,
        0.340551 0.090551 0.393701,
        0.539370 0.393701 0.393701,
        0.500000 0.354331 0.393701,
        0.460630 0.393701 0.393701,
        0.039370 0.393701 0.393701,
        0.159449 0.090551 0.393701,
        0.159449 -0.090551 0.393701,
        0.340551 -0.090551 0.393701,
        1.500000 0.354331 0.393701,
        1.340551 0.090551 0.393701,
        1.460630 0.393701 0.393701,
        1.039370 0.393701 0.393701,
        1.159449 0.090551 0.393701,
        1.159449 -0.090551 0.393701,
        1.340551 -0.090551 0.393701,
        1.659449 0.090551 0.393701,
        1.659449 -0.090551 0.393701,
        1.840551 -0.090551 0.393701,
        2.000000 -0.242126 0.393701,
        1.840551 0.090551 0.393701,
        2.000000 0.354331 0.393701,
        1.960630 0.393701 0.393701,
        1.539370 0.393701 0.393701,
        2.500000 0.354331 0.393701,
        2.460630 0.393701 0.393701,
        2.340551 0.090551 0.393701,
        2.039370 0.393701 0.393701,
        2.159449 0.090551 0.393701,
        2.159449 -0.090551 0.393701,
        2.340551 -0.090551 0.393701,
        3.000000 0.354331 0.393701,
        2.960630 0.393701 0.393701,
        2.840551 0.090551 0.393701,
        2.539370 0.393701 0.393701,
        2.659449 0.090551 0.393701,
        2.659449 -0.090551 0.393701,
        2.840551 -0.090551 0.393701,
        3.000000 -0.242126 0.393701,
        3.500000 -0.242126 0.393701,
        3.500000 0.354331 0.393701,
        3.340551 0.090551 0.393701,
        3.460630 0.393701 0.393701,
        3.039370 0.393701 0.393701,
        3.159449 0.090551 0.393701,
        3.159449 -0.090551 0.393701,
        3.340551 -0.090551 0.393701,
        4.000000 0.354331 0.393701,
        3.960630 0.393701 0.393701,
        3.920276 -0.242126 0.393701,
        3.920276 0.393701 0.393701,
        3.840551 0.090551 0.393701,
        3.539370 0.393701 0.393701,
        3.659449 0.090551 0.393701,
        3.659449 -0.090551 0.393701,
        3.840551 -0.090551 0.393701,
        4.000000 -0.242126 0.393701,
        3.960630 -0.393701 0.393701,
        4.000000 -0.354331 0.393701,
        3.460630 -0.393701 0.393701,
        3.500000 -0.354331 0.393701,
        3.539370 -0.393701 0.393701,
        3.920276 -0.393701 0.393701,
        3.039370 -0.393701 0.393701,
        2.539370 -0.393701 0.393701,
        2.960630 -0.393701 0.393701,
        3.000000 -0.354331 0.393701,
        1.539370 -0.393701 0.393701,
        1.960630 -0.393701 0.393701,
        2.000000 -0.354331 0.393701,
        2.039370 -0.393701 0.393701,
        1.039370 -0.393701 0.393701,
        0.500000 -0.354331 0.393701,
        0.539370 -0.393701 0.393701,
        1.000000 -0.354331 0.393701,
        0.960630 -0.393701 0.393701,
        0.039370 -0.393701 0.393701,
        0.460630 -0.393701 0.393701,
        -0.460630 -0.393701 0.393701,
        -0.039370 -0.393701 0.393701,
        -0.000000 -0.354331 0.393701,
        -1.000000 -0.354331 0.393701,
        -0.960630 -0.393701 0.393701,
        -1.039370 -0.393701 0.393701,
        -1.460630 -0.393701 0.393701,
        -2.000000 -0.354331 0.393701,
        -1.960630 -0.393701 0.393701,
        -1.539370 -0.393701 0.393701,
        -1.500000 -0.354331 0.393701,
        -2.500000 -0.354331 0.393701,
        -2.460630 -0.393701 0.393701,
        -2.039370 -0.393701 0.393701,
        -2.960630 -0.393701 0.393701,
        -2.539370 -0.393701 0.393701,
        -3.460630 -0.393701 0.393701,
        -3.500000 -0.354331 0.393701,
      ]
    }
    coordIndex [
      0, 1, 2, -1,
      3, 4, 5, -1,
      6, 7, 8, -1,
      9, 10, 11, -1,
      10, 9, 8, -1,
      8, 9, 12, -1,
      8, 12, 6, -1,
      13, 11, 14, -1,
      3, 5, 15, -1,
      15, 5, 16, -1,
      15, 16, 17, -1,
      17, 16, 0, -1,
      17, 0, 18, -1,
      4, 19, 5, -1,
      5, 19, 20, -1,
      5, 20, 21, -1,
      22, 23, 5, -1,
      5, 23, 24, -1,
      25, 26, 27, -1,
      27, 26, 28, -1,
      24, 29, 5, -1,
      5, 29, 28, -1,
      5, 28, 30, -1,
      30, 28, 26, -1,
      31, 32, 14, -1,
      14, 32, 33, -1,
      21, 34, 5, -1,
      5, 34, 35, -1,
      5, 35, 22, -1,
      7, 36, 8, -1,
      8, 36, 37, -1,
      8, 37, 38, -1,
      38, 37, 39, -1,
      38, 39, 40, -1,
      41, 42, 0, -1,
      39, 43, 40, -1,
      40, 43, 44, -1,
      40, 44, 14, -1,
      14, 44, 45, -1,
      14, 45, 31, -1,
      42, 46, 0, -1,
      0, 46, 47, -1,
      0, 47, 18, -1,
      48, 49, 50, -1,
      50, 49, 51, -1,
      50, 51, 52, -1,
      52, 51, 53, -1,
      54, 55, 56, -1,
      57, 58, 59, -1,
      59, 58, 60, -1,
      59, 60, 56, -1,
      56, 60, 61, -1,
      56, 61, 54, -1,
      62, 63, 61, -1,
      61, 63, 64, -1,
      61, 64, 54, -1,
      65, 66, 67, -1,
      67, 68, 65, -1,
      65, 68, 69, -1,
      65, 69, 62, -1,
      62, 69, 70, -1,
      62, 70, 63, -1,
      66, 65, 71, -1,
      71, 65, 72, -1,
      71, 72, 73, -1,
      74, 75, 72, -1,
      72, 75, 76, -1,
      72, 76, 73, -1,
      77, 78, 79, -1,
      79, 78, 80, -1,
      79, 80, 74, -1,
      74, 80, 81, -1,
      74, 81, 75, -1,
      49, 82, 51, -1,
      51, 82, 83, -1,
      51, 83, 84, -1,
      84, 83, 85, -1,
      84, 85, 86, -1,
      86, 85, 87, -1,
      48, 88, 49, -1,
      49, 88, 12, -1,
      49, 12, 89, -1,
      89, 12, 9, -1,
      89, 9, 90, -1,
      90, 9, 91, -1,
      90, 91, 92, -1,
      92, 91, 93, -1,
      93, 91, 94, -1,
      93, 94, 95, -1,
      96, 97, 98, -1,
      98, 97, 99, -1,
      98, 99, 94, -1,
      94, 99, 100, -1,
      94, 100, 95, -1,
      101, 102, 103, -1,
      104, 96, 105, -1,
      105, 96, 98, -1,
      105, 98, 103, -1,
      103, 98, 106, -1,
      103, 106, 101, -1,
      101, 106, 107, -1,
      107, 106, 108, -1,
      108, 106, 109, -1,
      108, 109, 110, -1,
      111, 112, 113, -1,
      113, 112, 114, -1,
      113, 114, 109, -1,
      109, 114, 115, -1,
      109, 115, 110, -1,
      111, 113, 116, -1,
      116, 113, 117, -1,
      116, 117, 118, -1,
      119, 120, 117, -1,
      117, 120, 121, -1,
      117, 121, 118, -1,
      122, 123, 124, -1,
      124, 123, 125, -1,
      124, 125, 126, -1,
      126, 125, 127, -1,
      126, 127, 128, -1,
      128, 127, 129, -1,
      128, 129, 130, -1,
      130, 129, 131, -1,
      131, 129, 132, -1,
      131, 132, 125, -1,
      125, 132, 133, -1,
      125, 133, 127, -1,
      134, 135, 136, -1,
      136, 135, 137, -1,
      136, 137, 138, -1,
      138, 137, 130, -1,
      138, 130, 139, -1,
      139, 130, 131, -1,
      139, 131, 140, -1,
      140, 131, 141, -1,
      140, 141, 136, -1,
      136, 141, 134, -1,
      142, 143, 144, -1,
      144, 143, 145, -1,
      144, 145, 146, -1,
      146, 145, 134, -1,
      146, 134, 147, -1,
      147, 134, 141, -1,
      147, 141, 148, -1,
      148, 141, 149, -1,
      148, 149, 144, -1,
      144, 149, 142, -1,
      150, 151, 152, -1,
      152, 151, 153, -1,
      152, 153, 149, -1,
      154, 155, 156, -1,
      156, 155, 157, -1,
      156, 157, 158, -1,
      157, 159, 158, -1,
      158, 159, 142, -1,
      158, 142, 160, -1,
      160, 142, 149, -1,
      160, 149, 161, -1,
      161, 149, 153, -1,
      161, 153, 162, -1,
      156, 161, 154, -1,
      154, 161, 162, -1,
      154, 162, 163, -1,
      163, 162, 150, -1,
      163, 150, 164, -1,
      164, 150, 152, -1,
      165, 166, 167, -1,
      167, 166, 168, -1,
      167, 168, 169, -1,
      169, 168, 164, -1,
      169, 164, 170, -1,
      170, 164, 152, -1,
      170, 152, 171, -1,
      171, 152, 172, -1,
      171, 172, 167, -1,
      167, 172, 165, -1,
      173, 174, 175, -1,
      175, 174, 176, -1,
      175, 176, 177, -1,
      177, 176, 165, -1,
      177, 165, 178, -1,
      178, 165, 172, -1,
      178, 172, 179, -1,
      179, 172, 180, -1,
      179, 180, 175, -1,
      175, 180, 173, -1,
      181, 182, 13, -1,
      13, 182, 183, -1,
      184, 1, 185, -1,
      185, 1, 0, -1,
      185, 0, 186, -1,
      187, 188, 189, -1,
      189, 188, 190, -1,
      191, 192, 193, -1,
      194, 195, 196, -1,
      196, 195, 197, -1,
      196, 197, 192, -1,
      192, 197, 198, -1,
      192, 198, 193, -1,
      199, 200, 201, -1,
      201, 200, 202, -1,
      201, 202, 203, -1,
      203, 202, 195, -1,
      203, 195, 204, -1,
      204, 195, 194, -1,
      204, 194, 205, -1,
      205, 194, 206, -1,
      205, 206, 201, -1,
      201, 206, 199, -1,
      207, 208, 209, -1,
      209, 208, 210, -1,
      209, 210, 211, -1,
      211, 210, 199, -1,
      211, 199, 212, -1,
      212, 199, 206, -1,
      212, 206, 213, -1,
      213, 206, 214, -1,
      213, 214, 209, -1,
      209, 214, 207, -1,
      215, 207, 216, -1,
      216, 207, 214, -1,
      216, 214, 217, -1,
      217, 214, 218, -1,
      217, 218, 219, -1,
      218, 220, 219, -1,
      219, 220, 221, -1,
      219, 221, 215, -1,
      215, 221, 222, -1,
      215, 222, 207, -1,
      223, 224, 225, -1,
      225, 224, 226, -1,
      225, 226, 227, -1,
      227, 226, 220, -1,
      227, 220, 228, -1,
      228, 220, 218, -1,
      228, 218, 229, -1,
      229, 218, 230, -1,
      229, 230, 225, -1,
      225, 230, 223, -1,
      231, 232, 233, -1,
      234, 235, 236, -1,
      236, 235, 237, -1,
      236, 237, 230, -1,
      233, 238, 231, -1,
      231, 238, 239, -1,
      231, 239, 240, -1,
      240, 239, 223, -1,
      240, 223, 241, -1,
      241, 223, 230, -1,
      241, 230, 242, -1,
      242, 230, 237, -1,
      242, 237, 243, -1,
      231, 242, 232, -1,
      232, 242, 243, -1,
      232, 243, 244, -1,
      244, 243, 234, -1,
      244, 234, 245, -1,
      245, 234, 236, -1,
      246, 189, 247, -1,
      247, 189, 248, -1,
      247, 248, 249, -1,
      249, 248, 86, -1,
      249, 86, 250, -1,
      250, 86, 251, -1,
      250, 251, 252, -1,
      252, 251, 253, -1,
      246, 254, 189, -1,
      189, 254, 255, -1,
      189, 255, 187, -1,
      187, 255, 256, -1,
      257, 253, 258, -1,
      258, 253, 251, -1,
      258, 251, 259, -1,
      259, 251, 79, -1,
      259, 79, 254, -1,
      196, 260, 194, -1,
      194, 260, 191, -1,
      194, 191, 255, -1,
      255, 191, 193, -1,
      255, 193, 256, -1,
      256, 193, 261, -1,
      256, 261, 190, -1,
      190, 261, 262, -1,
      190, 262, 189, -1,
      189, 262, 263, -1,
      189, 263, 248, -1,
      248, 263, 264, -1,
      248, 264, 186, -1,
      186, 264, 265, -1,
      186, 265, 185, -1,
      33, 41, 14, -1,
      14, 41, 0, -1,
      14, 0, 13, -1,
      13, 0, 2, -1,
      13, 2, 181, -1,
      181, 2, 266, -1,
      181, 266, 267, -1,
      267, 266, 173, -1,
      267, 173, 183, -1,
      183, 173, 180, -1,
      183, 180, 13, -1,
      254, 79, 255, -1,
      255, 79, 74, -1,
      255, 74, 194, -1,
      194, 74, 72, -1,
      194, 72, 206, -1,
      206, 72, 65, -1,
      206, 65, 214, -1,
      214, 65, 62, -1,
      214, 62, 218, -1,
      218, 62, 61, -1,
      218, 61, 230, -1,
      230, 61, 60, -1,
      230, 60, 236, -1,
      268, 269, 86, -1,
      86, 269, 270, -1,
      86, 270, 271, -1,
      248, 272, 273, -1,
      84, 274, 186, -1,
      186, 274, 275, -1,
      186, 275, 248, -1,
      248, 275, 276, -1,
      248, 276, 272, -1,
      273, 277, 248, -1,
      248, 277, 278, -1,
      248, 278, 279, -1,
      271, 280, 86, -1,
      86, 280, 281, -1,
      86, 281, 84, -1,
      84, 281, 282, -1,
      84, 282, 274, -1,
      279, 283, 248, -1,
      248, 283, 284, -1,
      248, 284, 86, -1,
      86, 284, 285, -1,
      86, 285, 268, -1,
      286, 186, 287, -1,
      287, 186, 0, -1,
      287, 0, 51, -1,
      51, 0, 16, -1,
      51, 16, 53, -1,
      286, 288, 186, -1,
      186, 288, 289, -1,
      186, 289, 84, -1,
      84, 289, 290, -1,
      84, 290, 51, -1,
      51, 290, 291, -1,
      51, 291, 287, -1,
      292, 293, 294, -1,
      294, 293, 289, -1,
      294, 289, 295, -1,
      295, 289, 288, -1,
      295, 288, 296, -1,
      296, 288, 297, -1,
      11, 13, 9, -1,
      9, 13, 180, -1,
      9, 180, 91, -1,
      91, 180, 172, -1,
      91, 172, 94, -1,
      94, 172, 152, -1,
      94, 152, 98, -1,
      98, 152, 149, -1,
      98, 149, 106, -1,
      106, 149, 141, -1,
      106, 141, 109, -1,
      109, 141, 131, -1,
      109, 131, 113, -1,
      113, 131, 125, -1,
      113, 125, 117, -1,
      117, 125, 123, -1,
      117, 123, 119, -1,
      87, 298, 86, -1,
      86, 298, 299, -1,
      86, 299, 251, -1,
      251, 299, 300, -1,
      251, 300, 79, -1,
      79, 300, 301, -1,
      79, 301, 77, -1,
      302, 303, 244, -1,
      244, 303, 232, -1,
      304, 305, 245, -1,
      58, 306, 60, -1,
      60, 306, 304, -1,
      60, 304, 236, -1,
      236, 304, 245, -1,
      57, 59, 307, -1,
      307, 59, 308, -1,
      309, 310, 311, -1,
      312, 313, 314, -1,
      315, 316, 317, -1,
      318, 319, 320, -1,
      321, 303, 322, -1,
      322, 303, 302, -1,
      322, 302, 323, -1,
      323, 302, 305, -1,
      323, 305, 324, -1,
      324, 305, 304, -1,
      324, 304, 325, -1,
      325, 304, 326, -1,
      325, 326, 322, -1,
      322, 326, 321, -1,
      311, 327, 328, -1,
      327, 329, 328, -1,
      328, 329, 330, -1,
      328, 330, 331, -1,
      331, 330, 321, -1,
      331, 321, 332, -1,
      332, 321, 326, -1,
      332, 326, 333, -1,
      334, 327, 335, -1,
      335, 327, 311, -1,
      335, 311, 336, -1,
      336, 311, 337, -1,
      336, 337, 338, -1,
      337, 339, 338, -1,
      338, 339, 340, -1,
      338, 340, 334, -1,
      334, 340, 341, -1,
      334, 341, 327, -1,
      342, 343, 344, -1,
      344, 343, 345, -1,
      344, 345, 346, -1,
      346, 345, 339, -1,
      346, 339, 347, -1,
      347, 339, 337, -1,
      347, 337, 348, -1,
      348, 337, 349, -1,
      348, 349, 344, -1,
      344, 349, 342, -1,
      350, 351, 352, -1,
      352, 351, 353, -1,
      352, 353, 354, -1,
      354, 353, 342, -1,
      354, 342, 355, -1,
      355, 342, 349, -1,
      355, 349, 356, -1,
      356, 349, 357, -1,
      356, 357, 352, -1,
      352, 357, 350, -1,
      358, 350, 359, -1,
      359, 350, 357, -1,
      359, 357, 360, -1,
      360, 357, 361, -1,
      360, 361, 362, -1,
      361, 363, 362, -1,
      362, 363, 364, -1,
      362, 364, 358, -1,
      358, 364, 365, -1,
      358, 365, 350, -1,
      366, 367, 368, -1,
      368, 367, 369, -1,
      368, 369, 370, -1,
      370, 369, 363, -1,
      370, 363, 371, -1,
      371, 363, 361, -1,
      371, 361, 372, -1,
      372, 361, 314, -1,
      372, 314, 368, -1,
      368, 314, 366, -1,
      373, 374, 375, -1,
      375, 374, 376, -1,
      375, 376, 377, -1,
      377, 376, 366, -1,
      377, 366, 378, -1,
      378, 366, 314, -1,
      378, 314, 379, -1,
      379, 314, 380, -1,
      379, 380, 375, -1,
      375, 380, 373, -1,
      381, 382, 383, -1,
      381, 383, 384, -1,
      382, 381, 385, -1,
      385, 381, 386, -1,
      385, 386, 387, -1,
      388, 389, 390, -1,
      390, 391, 388, -1,
      388, 391, 392, -1,
      388, 392, 393, -1,
      393, 392, 373, -1,
      393, 373, 394, -1,
      394, 373, 380, -1,
      394, 380, 395, -1,
      317, 396, 397, -1,
      396, 398, 397, -1,
      397, 398, 399, -1,
      397, 399, 400, -1,
      400, 399, 382, -1,
      400, 382, 401, -1,
      401, 382, 385, -1,
      401, 385, 402, -1,
      403, 396, 404, -1,
      404, 396, 317, -1,
      404, 317, 405, -1,
      405, 317, 406, -1,
      405, 406, 407, -1,
      406, 408, 407, -1,
      407, 408, 409, -1,
      407, 409, 403, -1,
      403, 409, 410, -1,
      403, 410, 396, -1,
      411, 412, 413, -1,
      413, 412, 414, -1,
      413, 414, 415, -1,
      415, 414, 408, -1,
      415, 408, 416, -1,
      416, 408, 406, -1,
      416, 406, 417, -1,
      417, 406, 320, -1,
      417, 320, 413, -1,
      413, 320, 411, -1,
      418, 419, 420, -1,
      420, 419, 421, -1,
      420, 421, 422, -1,
      422, 421, 411, -1,
      422, 411, 423, -1,
      423, 411, 320, -1,
      423, 320, 424, -1,
      424, 320, 425, -1,
      424, 425, 420, -1,
      420, 425, 418, -1,
      426, 427, 428, -1,
      427, 429, 428, -1,
      428, 429, 430, -1,
      428, 430, 431, -1,
      431, 430, 418, -1,
      431, 418, 432, -1,
      432, 418, 425, -1,
      432, 425, 433, -1,
      434, 435, 436, -1,
      436, 435, 437, -1,
      436, 437, 438, -1,
      438, 437, 439, -1,
      438, 439, 440, -1,
      440, 439, 427, -1,
      440, 427, 441, -1,
      441, 427, 426, -1,
      441, 426, 442, -1,
      442, 426, 436, -1,
      442, 436, 438, -1,
      434, 436, 443, -1,
      443, 436, 444, -1,
      443, 444, 445, -1,
      446, 447, 426, -1,
      426, 447, 448, -1,
      426, 448, 436, -1,
      436, 448, 449, -1,
      436, 449, 444, -1,
      450, 446, 425, -1,
      425, 446, 426, -1,
      425, 426, 433, -1,
      433, 426, 428, -1,
      319, 451, 320, -1,
      320, 451, 452, -1,
      320, 452, 425, -1,
      425, 452, 453, -1,
      425, 453, 450, -1,
      316, 454, 317, -1,
      317, 454, 455, -1,
      317, 455, 406, -1,
      406, 455, 456, -1,
      406, 456, 320, -1,
      320, 456, 457, -1,
      320, 457, 318, -1,
      458, 315, 385, -1,
      385, 315, 317, -1,
      385, 317, 402, -1,
      402, 317, 397, -1,
      385, 459, 460, -1,
      458, 385, 461, -1,
      461, 385, 460, -1,
      461, 460, 462, -1,
      383, 389, 384, -1,
      384, 389, 388, -1,
      384, 388, 387, -1,
      387, 388, 395, -1,
      387, 395, 385, -1,
      385, 395, 380, -1,
      385, 380, 459, -1,
      459, 380, 463, -1,
      459, 463, 464, -1,
      313, 465, 314, -1,
      314, 465, 466, -1,
      314, 466, 380, -1,
      380, 466, 467, -1,
      380, 467, 463, -1,
      468, 469, 312, -1,
      312, 314, 468, -1,
      468, 314, 361, -1,
      468, 361, 470, -1,
      470, 361, 357, -1,
      470, 357, 471, -1,
      472, 473, 349, -1,
      349, 473, 474, -1,
      349, 474, 357, -1,
      357, 474, 475, -1,
      357, 475, 471, -1,
      476, 477, 478, -1,
      310, 479, 311, -1,
      311, 479, 480, -1,
      311, 480, 337, -1,
      337, 480, 476, -1,
      337, 476, 349, -1,
      349, 476, 478, -1,
      349, 478, 472, -1,
      481, 309, 326, -1,
      326, 309, 311, -1,
      326, 311, 333, -1,
      333, 311, 328, -1,
      306, 307, 304, -1,
      304, 307, 308, -1,
      304, 308, 326, -1,
      326, 308, 482, -1,
      326, 482, 481, -1,
      58, 57, 306, -1,
      306, 57, 307, -1,
      59, 56, 308, -1,
      308, 56, 482, -1,
      244, 245, 302, -1,
      302, 245, 305, -1,
      233, 232, 321, -1,
      321, 232, 303, -1,
      330, 329, 238, -1,
      238, 329, 239, -1,
      55, 54, 481, -1,
      481, 54, 309, -1,
      56, 55, 482, -1,
      482, 55, 481, -1,
      54, 64, 309, -1,
      309, 64, 310, -1,
      238, 233, 330, -1,
      330, 233, 321, -1,
      223, 239, 327, -1,
      327, 239, 329, -1,
      341, 340, 224, -1,
      224, 340, 226, -1,
      63, 70, 479, -1,
      479, 70, 480, -1,
      64, 63, 310, -1,
      310, 63, 479, -1,
      70, 69, 480, -1,
      480, 69, 476, -1,
      224, 223, 341, -1,
      341, 223, 327, -1,
      220, 226, 339, -1,
      339, 226, 340, -1,
      345, 343, 221, -1,
      221, 343, 222, -1,
      68, 67, 477, -1,
      477, 67, 478, -1,
      69, 68, 476, -1,
      476, 68, 477, -1,
      67, 66, 478, -1,
      478, 66, 472, -1,
      221, 220, 345, -1,
      345, 220, 339, -1,
      207, 222, 342, -1,
      342, 222, 343, -1,
      353, 351, 208, -1,
      208, 351, 210, -1,
      71, 73, 473, -1,
      473, 73, 474, -1,
      66, 71, 472, -1,
      472, 71, 473, -1,
      73, 76, 474, -1,
      474, 76, 475, -1,
      208, 207, 353, -1,
      353, 207, 342, -1,
      199, 210, 350, -1,
      350, 210, 351, -1,
      365, 364, 200, -1,
      200, 364, 202, -1,
      75, 81, 471, -1,
      471, 81, 470, -1,
      76, 75, 475, -1,
      475, 75, 471, -1,
      81, 80, 470, -1,
      470, 80, 468, -1,
      200, 199, 365, -1,
      365, 199, 350, -1,
      195, 202, 363, -1,
      363, 202, 364, -1,
      369, 367, 197, -1,
      197, 367, 198, -1,
      78, 77, 469, -1,
      469, 77, 312, -1,
      80, 78, 468, -1,
      468, 78, 469, -1,
      77, 301, 312, -1,
      312, 301, 313, -1,
      197, 195, 369, -1,
      369, 195, 363, -1,
      193, 198, 366, -1,
      366, 198, 367, -1,
      261, 376, 262, -1,
      262, 376, 374, -1,
      262, 374, 263, -1,
      263, 374, 264, -1,
      466, 465, 300, -1,
      300, 299, 466, -1,
      466, 299, 298, -1,
      466, 298, 87, -1,
      301, 300, 313, -1,
      313, 300, 465, -1,
      83, 467, 85, -1,
      85, 467, 466, -1,
      85, 466, 87, -1,
      261, 193, 376, -1,
      376, 193, 366, -1,
      264, 374, 265, -1,
      265, 374, 373, -1,
      265, 373, 185, -1,
      392, 391, 266, -1,
      266, 2, 392, -1,
      392, 2, 1, -1,
      392, 1, 184, -1,
      464, 463, 82, -1,
      82, 49, 464, -1,
      464, 49, 89, -1,
      464, 89, 90, -1,
      83, 82, 467, -1,
      467, 82, 463, -1,
      90, 92, 464, -1,
      464, 92, 459, -1,
      184, 185, 392, -1,
      392, 185, 373, -1,
      173, 266, 390, -1,
      390, 266, 391, -1,
      389, 383, 174, -1,
      174, 383, 176, -1,
      93, 95, 460, -1,
      460, 95, 462, -1,
      92, 93, 459, -1,
      459, 93, 460, -1,
      95, 100, 462, -1,
      462, 100, 461, -1,
      174, 173, 389, -1,
      389, 173, 390, -1,
      165, 176, 382, -1,
      382, 176, 383, -1,
      399, 398, 166, -1,
      166, 398, 168, -1,
      99, 97, 458, -1,
      458, 97, 315, -1,
      100, 99, 461, -1,
      461, 99, 458, -1,
      97, 96, 315, -1,
      315, 96, 316, -1,
      166, 165, 399, -1,
      399, 165, 382, -1,
      164, 168, 396, -1,
      396, 168, 398, -1,
      410, 409, 163, -1,
      163, 409, 154, -1,
      104, 105, 454, -1,
      454, 105, 455, -1,
      96, 104, 316, -1,
      316, 104, 454, -1,
      105, 103, 455, -1,
      455, 103, 456, -1,
      163, 164, 410, -1,
      410, 164, 396, -1,
      155, 154, 408, -1,
      408, 154, 409, -1,
      414, 412, 157, -1,
      157, 412, 159, -1,
      102, 101, 457, -1,
      457, 101, 318, -1,
      103, 102, 456, -1,
      456, 102, 457, -1,
      101, 107, 318, -1,
      318, 107, 319, -1,
      157, 155, 414, -1,
      414, 155, 408, -1,
      142, 159, 411, -1,
      411, 159, 412, -1,
      421, 419, 143, -1,
      143, 419, 145, -1,
      108, 110, 451, -1,
      451, 110, 452, -1,
      107, 108, 319, -1,
      319, 108, 451, -1,
      110, 115, 452, -1,
      452, 115, 453, -1,
      143, 142, 421, -1,
      421, 142, 411, -1,
      134, 145, 418, -1,
      418, 145, 419, -1,
      430, 429, 135, -1,
      135, 429, 137, -1,
      114, 112, 450, -1,
      450, 112, 446, -1,
      115, 114, 453, -1,
      453, 114, 450, -1,
      112, 111, 446, -1,
      446, 111, 447, -1,
      135, 134, 430, -1,
      430, 134, 418, -1,
      130, 137, 427, -1,
      427, 137, 429, -1,
      443, 445, 120, -1,
      122, 434, 123, -1,
      123, 434, 443, -1,
      123, 443, 119, -1,
      119, 443, 120, -1,
      128, 439, 126, -1,
      126, 439, 437, -1,
      126, 437, 124, -1,
      124, 437, 435, -1,
      448, 116, 449, -1,
      449, 116, 118, -1,
      449, 118, 444, -1,
      444, 118, 121, -1,
      111, 116, 447, -1,
      447, 116, 448, -1,
      121, 120, 444, -1,
      444, 120, 445, -1,
      128, 130, 439, -1,
      439, 130, 427, -1,
      122, 124, 434, -1,
      434, 124, 435, -1,
    ]
  }
}

Shape {
  appearance Appearance {
    material Material {
      diffuseColor 0.8275 0.6667 0.1294
      specularColor 0.8275 0.6667 0.1294
      ambientIntensity 0.2
      transparency 0.0000
      shininess 0.5
    }
  }
  geometry IndexedFaceSet {
    ccw TRUE
    solid FALSE
    coord DEF co Coordinate {
      point [
        3.840551 0.090551 0.000000,
        3.659449 0.090551 0.000000,
        3.659449 -0.090551 0.000000,
        3.840551 -0.090551 0.000000,
        3.159449 0.090551 0.000000,
        3.340551 0.090551 0.000000,
        3.340551 -0.090551 0.000000,
        3.159449 -0.090551 0.000000,
        2.659449 0.090551 0.000000,
        2.840551 0.090551 0.000000,
        2.840551 -0.090551 0.000000,
        2.659449 -0.090551 0.000000,
        1.659449 0.090551 0.000000,
        1.659449 -0.090551 0.000000,
        1.840551 -0.090551 0.000000,
        2.159449 0.090551 0.000000,
        2.340551 0.090551 0.000000,
        2.340551 -0.090551 0.000000,
        2.159449 -0.090551 0.000000,
        1.840551 0.090551 0.000000,
        1.159449 0.090551 0.000000,
        1.340551 0.090551 0.000000,
        1.340551 -0.090551 0.000000,
        1.159449 -0.090551 0.000000,
        0.659449 0.090551 0.000000,
        0.840551 0.090551 0.000000,
        0.840551 -0.090551 0.000000,
        0.659449 -0.090551 0.000000,
        0.159449 0.090551 0.000000,
        0.159449 -0.090551 0.000000,
        0.340551 -0.090551 0.000000,
        -0.340551 -0.090551 0.000000,
        -0.159449 -0.090551 0.000000,
        -0.159449 0.090551 0.000000,
        -0.659449 -0.090551 0.000000,
        -0.659449 0.090551 0.000000,
        -0.840551 0.090551 0.000000,
        -1.340551 0.090551 0.000000,
        -1.159449 0.090551 0.000000,
        -1.159449 -0.090551 0.000000,
        -1.340551 -0.090551 0.000000,
        -1.840551 0.090551 0.000000,
        -1.659449 0.090551 0.000000,
        -1.659449 -0.090551 0.000000,
        -1.840551 -0.090551 0.000000,
        -2.159449 0.090551 0.000000,
        -2.159449 -0.090551 0.000000,
        -2.340551 -0.090551 0.000000,
        -2.340551 0.090551 0.000000,
        -2.840551 0.090551 0.000000,
        -2.659449 0.090551 0.000000,
        -2.659449 -0.090551 0.000000,
        -2.840551 -0.090551 0.000000,
        -3.340551 0.090551 0.000000,
        -3.840551 0.090551 0.000000,
        -3.840551 -0.090551 0.000000,
        -3.659449 -0.090551 0.000000,
        -3.159449 0.090551 0.000000,
        -3.159449 -0.090551 0.000000,
        -3.340551 -0.090551 0.000000,
        -3.659449 0.090551 0.000000,
        -0.340551 0.090551 0.000000,
        -0.840551 -0.090551 0.000000,
        0.340551 0.090551 0.000000,
        -3.659449 0.090551 0.393701,
        -3.840551 0.090551 0.393701,
        -3.840551 -0.090551 0.393701,
        -3.659449 -0.090551 0.393701,
        -3.159449 0.090551 0.393701,
        -3.340551 0.090551 0.393701,
        -3.340551 -0.090551 0.393701,
        -3.159449 -0.090551 0.393701,
        -2.840551 0.090551 0.393701,
        -2.840551 -0.090551 0.393701,
        -2.659449 -0.090551 0.393701,
        -2.659449 0.090551 0.393701,
        -2.159449 0.090551 0.393701,
        -2.340551 0.090551 0.393701,
        -2.340551 -0.090551 0.393701,
        -2.159449 -0.090551 0.393701,
        -1.659449 0.090551 0.393701,
        -1.840551 0.090551 0.393701,
        -1.840551 -0.090551 0.393701,
        -1.659449 -0.090551 0.393701,
        -1.340551 0.090551 0.393701,
        -1.340551 -0.090551 0.393701,
        -1.159449 -0.090551 0.393701,
        -1.159449 0.090551 0.393701,
        -0.659449 0.090551 0.393701,
        -0.840551 0.090551 0.393701,
        -0.840551 -0.090551 0.393701,
        -0.659449 -0.090551 0.393701,
        -0.159449 0.090551 0.393701,
        -0.340551 0.090551 0.393701,
        -0.340551 -0.090551 0.393701,
        -0.159449 -0.090551 0.393701,
        0.840551 0.090551 0.393701,
        0.659449 0.090551 0.393701,
        0.840551 -0.090551 0.393701,
        0.659449 -0.090551 0.393701,
        0.340551 0.090551 0.393701,
        0.159449 0.090551 0.393701,
        0.159449 -0.090551 0.393701,
        0.340551 -0.090551 0.393701,
        1.340551 0.090551 0.393701,
        1.159449 0.090551 0.393701,
        1.159449 -0.090551 0.393701,
        1.340551 -0.090551 0.393701,
        1.659449 0.090551 0.393701,
        1.659449 -0.090551 0.393701,
        1.840551 -0.090551 0.393701,
        1.840551 0.090551 0.393701,
        2.340551 0.090551 0.393701,
        2.159449 0.090551 0.393701,
        2.159449 -0.090551 0.393701,
        2.340551 -0.090551 0.393701,
        2.840551 0.090551 0.393701,
        2.659449 0.090551 0.393701,
        2.659449 -0.090551 0.393701,
        2.840551 -0.090551 0.393701,
        3.340551 0.090551 0.393701,
        3.159449 0.090551 0.393701,
        3.159449 -0.090551 0.393701,
        3.340551 -0.090551 0.393701,
        3.840551 0.090551 0.393701,
        3.659449 0.090551 0.393701,
        3.659449 -0.090551 0.393701,
        3.840551 -0.090551 0.393701,
        -3.690945 0.059055 -0.905512,
        -3.690945 -0.059055 -0.905512,
        -3.809055 0.059055 -0.905512,
        -3.809055 -0.059055 -0.905512,
        -3.840551 0.090551 -0.818977,
        -3.659449 0.090551 -0.818977,
        -3.840551 -0.090551 -0.818977,
        -3.659449 -0.090551 -0.818977,
        -3.659449 -0.090551 1.842599,
        -3.659449 0.090551 1.842599,
        -3.840551 -0.090551 1.842599,
        -3.840551 0.090551 1.842599,
        -3.690945 -0.059055 1.929134,
        -3.690945 0.059055 1.929134,
        -3.809055 -0.059055 1.929134,
        -3.809055 0.059055 1.929134,
        -3.159449 -0.090551 1.842599,
        -3.159449 0.090551 1.842599,
        -3.340551 -0.090551 1.842599,
        -3.340551 0.090551 1.842599,
        -3.190945 -0.059055 1.929134,
        -3.190945 0.059055 1.929134,
        -3.309055 -0.059055 1.929134,
        -3.309055 0.059055 1.929134,
        -2.659449 -0.090551 1.842599,
        -2.659449 0.090551 1.842599,
        -2.840551 -0.090551 1.842599,
        -2.840551 0.090551 1.842599,
        -2.690945 -0.059055 1.929134,
        -2.690945 0.059055 1.929134,
        -2.809055 -0.059055 1.929134,
        -2.809055 0.059055 1.929134,
        -2.159449 -0.090551 1.842599,
        -2.159449 0.090551 1.842599,
        -2.340551 -0.090551 1.842599,
        -2.340551 0.090551 1.842599,
        -2.190945 -0.059055 1.929134,
        -2.190945 0.059055 1.929134,
        -2.309055 -0.059055 1.929134,
        -2.309055 0.059055 1.929134,
        -1.659449 -0.090551 1.842599,
        -1.659449 0.090551 1.842599,
        -1.840551 -0.090551 1.842599,
        -1.840551 0.090551 1.842599,
        -1.690945 -0.059055 1.929134,
        -1.690945 0.059055 1.929134,
        -1.809055 -0.059055 1.929134,
        -1.809055 0.059055 1.929134,
        -1.159449 -0.090551 1.842599,
        -1.159449 0.090551 1.842599,
        -1.340551 -0.090551 1.842599,
        -1.340551 0.090551 1.842599,
        -1.190945 -0.059055 1.929134,
        -1.190945 0.059055 1.929134,
        -1.309055 -0.059055 1.929134,
        -1.309055 0.059055 1.929134,
        -0.659449 -0.090551 1.842599,
        -0.659449 0.090551 1.842599,
        -0.840551 -0.090551 1.842599,
        -0.840551 0.090551 1.842599,
        -0.690945 -0.059055 1.929134,
        -0.690945 0.059055 1.929134,
        -0.809055 -0.059055 1.929134,
        -0.809055 0.059055 1.929134,
        -0.159449 -0.090551 1.842599,
        -0.159449 0.090551 1.842599,
        -0.340551 -0.090551 1.842599,
        -0.340551 0.090551 1.842599,
        -0.190945 -0.059055 1.929134,
        -0.190945 0.059055 1.929134,
        -0.309055 -0.059055 1.929134,
        -0.309055 0.059055 1.929134,
        0.340551 -0.090551 1.842599,
        0.340551 0.090551 1.842599,
        0.159449 -0.090551 1.842599,
        0.159449 0.090551 1.842599,
        0.309055 -0.059055 1.929134,
        0.309055 0.059055 1.929134,
        0.190945 -0.059055 1.929134,
        0.190945 0.059055 1.929134,
        0.840551 -0.090551 1.842599,
        0.840551 0.090551 1.842599,
        0.659449 -0.090551 1.842599,
        0.659449 0.090551 1.842599,
        0.809055 -0.059055 1.929134,
        0.809055 0.059055 1.929134,
        0.690945 -0.059055 1.929134,
        0.690945 0.059055 1.929134,
        1.340551 -0.090551 1.842599,
        1.340551 0.090551 1.842599,
        1.159449 -0.090551 1.842599,
        1.159449 0.090551 1.842599,
        1.309055 -0.059055 1.929134,
        1.309055 0.059055 1.929134,
        1.190945 -0.059055 1.929134,
        1.190945 0.059055 1.929134,
        1.840551 -0.090551 1.842599,
        1.840551 0.090551 1.842599,
        1.659449 -0.090551 1.842599,
        1.659449 0.090551 1.842599,
        1.809055 -0.059055 1.929134,
        1.809055 0.059055 1.929134,
        1.690945 -0.059055 1.929134,
        1.690945 0.059055 1.929134,
        2.340551 -0.090551 1.842599,
        2.340551 0.090551 1.842599,
        2.159449 -0.090551 1.842599,
        2.159449 0.090551 1.842599,
        2.309055 -0.059055 1.929134,
        2.309055 0.059055 1.929134,
        2.190945 -0.059055 1.929134,
        2.190945 0.059055 1.929134,
        2.840551 -0.090551 1.842599,
        2.840551 0.090551 1.842599,
        2.659449 -0.090551 1.842599,
        2.659449 0.090551 1.842599,
        2.809055 -0.059055 1.929134,
        2.809055 0.059055 1.929134,
        2.690945 -0.059055 1.929134,
        2.690945 0.059055 1.929134,
        3.340551 -0.090551 1.842599,
        3.340551 0.090551 1.842599,
        3.159449 -0.090551 1.842599,
        3.159449 0.090551 1.842599,
        3.309055 -0.059055 1.929134,
        3.309055 0.059055 1.929134,
        3.190945 -0.059055 1.929134,
        3.190945 0.059055 1.929134,
        3.840551 -0.090551 1.842599,
        3.840551 0.090551 1.842599,
        3.659449 -0.090551 1.842599,
        3.659449 0.090551 1.842599,
        3.809055 -0.059055 1.929134,
        3.809055 0.059055 1.929134,
        3.690945 -0.059055 1.929134,
        3.690945 0.059055 1.929134,
        -3.190945 0.059055 -0.905512,
        -3.190945 -0.059055 -0.905512,
        -3.309055 0.059055 -0.905512,
        -3.309055 -0.059055 -0.905512,
        -3.340551 0.090551 -0.818977,
        -3.159449 0.090551 -0.818977,
        -3.340551 -0.090551 -0.818977,
        -3.159449 -0.090551 -0.818977,
        -2.690945 0.059055 -0.905512,
        -2.690945 -0.059055 -0.905512,
        -2.809055 0.059055 -0.905512,
        -2.809055 -0.059055 -0.905512,
        -2.840551 0.090551 -0.818977,
        -2.659449 0.090551 -0.818977,
        -2.840551 -0.090551 -0.818977,
        -2.659449 -0.090551 -0.818977,
        -2.190945 0.059055 -0.905512,
        -2.190945 -0.059055 -0.905512,
        -2.309055 0.059055 -0.905512,
        -2.309055 -0.059055 -0.905512,
        -2.340551 0.090551 -0.818977,
        -2.159449 0.090551 -0.818977,
        -2.340551 -0.090551 -0.818977,
        -2.159449 -0.090551 -0.818977,
        -1.690945 0.059055 -0.905512,
        -1.690945 -0.059055 -0.905512,
        -1.809055 0.059055 -0.905512,
        -1.809055 -0.059055 -0.905512,
        -1.840551 0.090551 -0.818977,
        -1.659449 0.090551 -0.818977,
        -1.840551 -0.090551 -0.818977,
        -1.659449 -0.090551 -0.818977,
        -1.190945 0.059055 -0.905512,
        -1.190945 -0.059055 -0.905512,
        -1.309055 0.059055 -0.905512,
        -1.309055 -0.059055 -0.905512,
        -1.340551 0.090551 -0.818977,
        -1.159449 0.090551 -0.818977,
        -1.340551 -0.090551 -0.818977,
        -1.159449 -0.090551 -0.818977,
        -0.690945 0.059055 -0.905512,
        -0.690945 -0.059055 -0.905512,
        -0.809055 0.059055 -0.905512,
        -0.809055 -0.059055 -0.905512,
        -0.840551 0.090551 -0.818977,
        -0.659449 0.090551 -0.818977,
        -0.840551 -0.090551 -0.818977,
        -0.659449 -0.090551 -0.818977,
        -0.190945 0.059055 -0.905512,
        -0.190945 -0.059055 -0.905512,
        -0.309055 0.059055 -0.905512,
        -0.309055 -0.059055 -0.905512,
        -0.340551 0.090551 -0.818977,
        -0.159449 0.090551 -0.818977,
        -0.340551 -0.090551 -0.818977,
        -0.159449 -0.090551 -0.818977,
        0.309055 0.059055 -0.905512,
        0.309055 -0.059055 -0.905512,
        0.190945 0.059055 -0.905512,
        0.190945 -0.059055 -0.905512,
        0.159449 0.090551 -0.818977,
        0.340551 0.090551 -0.818977,
        0.159449 -0.090551 -0.818977,
        0.340551 -0.090551 -0.818977,
        0.809055 0.059055 -0.905512,
        0.809055 -0.059055 -0.905512,
        0.690945 0.059055 -0.905512,
        0.690945 -0.059055 -0.905512,
        0.659449 0.090551 -0.818977,
        0.840551 0.090551 -0.818977,
        0.659449 -0.090551 -0.818977,
        0.840551 -0.090551 -0.818977,
        1.309055 0.059055 -0.905512,
        1.309055 -0.059055 -0.905512,
        1.190945 0.059055 -0.905512,
        1.190945 -0.059055 -0.905512,
        1.159449 0.090551 -0.818977,
        1.340551 0.090551 -0.818977,
        1.159449 -0.090551 -0.818977,
        1.340551 -0.090551 -0.818977,
        1.809055 0.059055 -0.905512,
        1.809055 -0.059055 -0.905512,
        1.690945 0.059055 -0.905512,
        1.690945 -0.059055 -0.905512,
        1.659449 0.090551 -0.818977,
        1.840551 0.090551 -0.818977,
        1.659449 -0.090551 -0.818977,
        1.840551 -0.090551 -0.818977,
        2.309055 0.059055 -0.905512,
        2.309055 -0.059055 -0.905512,
        2.190945 0.059055 -0.905512,
        2.190945 -0.059055 -0.905512,
        2.159449 0.090551 -0.818977,
        2.340551 0.090551 -0.818977,
        2.159449 -0.090551 -0.818977,
        2.340551 -0.090551 -0.818977,
        2.809055 0.059055 -0.905512,
        2.809055 -0.059055 -0.905512,
        2.690945 0.059055 -0.905512,
        2.690945 -0.059055 -0.905512,
        2.659449 0.090551 -0.818977,
        2.840551 0.090551 -0.818977,
        2.659449 -0.090551 -0.818977,
        2.840551 -0.090551 -0.818977,
        3.309055 0.059055 -0.905512,
        3.309055 -0.059055 -0.905512,
        3.190945 0.059055 -0.905512,
        3.190945 -0.059055 -0.905512,
        3.159449 0.090551 -0.818977,
        3.340551 0.090551 -0.818977,
        3.159449 -0.090551 -0.818977,
        3.340551 -0.090551 -0.818977,
        3.809055 0.059055 -0.905512,
        3.809055 -0.059055 -0.905512,
        3.690945 0.059055 -0.905512,
        3.690945 -0.059055 -0.905512,
        3.659449 0.090551 -0.818977,
        3.840551 0.090551 -0.818977,
        3.659449 -0.090551 -0.818977,
        3.840551 -0.090551 -0.818977,
      ]
    }
    coordIndex [
      128, 129, 130, -1,
      130, 129, 131, -1,
      132, 54, 133, -1,
      133, 54, 60, -1,
      134, 55, 132, -1,
      132, 55, 54, -1,
      135, 56, 134, -1,
      134, 56, 55, -1,
      133, 60, 135, -1,
      135, 60, 56, -1,
      136, 67, 137, -1,
      137, 67, 64, -1,
      138, 66, 136, -1,
      136, 66, 67, -1,
      139, 65, 138, -1,
      138, 65, 66, -1,
      137, 64, 139, -1,
      139, 64, 65, -1,
      140, 141, 142, -1,
      142, 141, 143, -1,
      129, 135, 131, -1,
      131, 135, 134, -1,
      128, 133, 129, -1,
      129, 133, 135, -1,
      132, 130, 134, -1,
      134, 130, 131, -1,
      130, 132, 128, -1,
      128, 132, 133, -1,
      139, 143, 137, -1,
      137, 143, 141, -1,
      138, 142, 139, -1,
      139, 142, 143, -1,
      140, 136, 141, -1,
      141, 136, 137, -1,
      136, 140, 138, -1,
      138, 140, 142, -1,
      144, 71, 145, -1,
      145, 71, 68, -1,
      146, 70, 144, -1,
      144, 70, 71, -1,
      147, 69, 146, -1,
      146, 69, 70, -1,
      145, 68, 147, -1,
      147, 68, 69, -1,
      148, 149, 150, -1,
      150, 149, 151, -1,
      146, 150, 147, -1,
      147, 150, 151, -1,
      147, 151, 145, -1,
      145, 151, 149, -1,
      148, 144, 149, -1,
      149, 144, 145, -1,
      144, 148, 146, -1,
      146, 148, 150, -1,
      152, 74, 153, -1,
      153, 74, 75, -1,
      154, 73, 152, -1,
      152, 73, 74, -1,
      155, 72, 154, -1,
      154, 72, 73, -1,
      153, 75, 155, -1,
      155, 75, 72, -1,
      156, 157, 158, -1,
      158, 157, 159, -1,
      154, 158, 155, -1,
      155, 158, 159, -1,
      155, 159, 153, -1,
      153, 159, 157, -1,
      156, 152, 157, -1,
      157, 152, 153, -1,
      152, 156, 154, -1,
      154, 156, 158, -1,
      160, 79, 161, -1,
      161, 79, 76, -1,
      162, 78, 160, -1,
      160, 78, 79, -1,
      163, 77, 162, -1,
      162, 77, 78, -1,
      161, 76, 163, -1,
      163, 76, 77, -1,
      164, 165, 166, -1,
      166, 165, 167, -1,
      162, 166, 163, -1,
      163, 166, 167, -1,
      163, 167, 161, -1,
      161, 167, 165, -1,
      164, 160, 165, -1,
      165, 160, 161, -1,
      160, 164, 162, -1,
      162, 164, 166, -1,
      168, 83, 169, -1,
      169, 83, 80, -1,
      170, 82, 168, -1,
      168, 82, 83, -1,
      171, 81, 170, -1,
      170, 81, 82, -1,
      169, 80, 171, -1,
      171, 80, 81, -1,
      172, 173, 174, -1,
      174, 173, 175, -1,
      170, 174, 171, -1,
      171, 174, 175, -1,
      171, 175, 169, -1,
      169, 175, 173, -1,
      172, 168, 173, -1,
      173, 168, 169, -1,
      168, 172, 170, -1,
      170, 172, 174, -1,
      176, 86, 177, -1,
      177, 86, 87, -1,
      178, 85, 176, -1,
      176, 85, 86, -1,
      179, 84, 178, -1,
      178, 84, 85, -1,
      177, 87, 179, -1,
      179, 87, 84, -1,
      180, 181, 182, -1,
      182, 181, 183, -1,
      178, 182, 179, -1,
      179, 182, 183, -1,
      179, 183, 177, -1,
      177, 183, 181, -1,
      180, 176, 181, -1,
      181, 176, 177, -1,
      176, 180, 178, -1,
      178, 180, 182, -1,
      184, 91, 185, -1,
      185, 91, 88, -1,
      186, 90, 184, -1,
      184, 90, 91, -1,
      187, 89, 186, -1,
      186, 89, 90, -1,
      185, 88, 187, -1,
      187, 88, 89, -1,
      188, 189, 190, -1,
      190, 189, 191, -1,
      186, 190, 187, -1,
      187, 190, 191, -1,
      187, 191, 185, -1,
      185, 191, 189, -1,
      188, 184, 189, -1,
      189, 184, 185, -1,
      184, 188, 186, -1,
      186, 188, 190, -1,
      192, 95, 193, -1,
      193, 95, 92, -1,
      194, 94, 192, -1,
      192, 94, 95, -1,
      195, 93, 194, -1,
      194, 93, 94, -1,
      193, 92, 195, -1,
      195, 92, 93, -1,
      196, 197, 198, -1,
      198, 197, 199, -1,
      194, 198, 195, -1,
      195, 198, 199, -1,
      195, 199, 193, -1,
      193, 199, 197, -1,
      196, 192, 197, -1,
      197, 192, 193, -1,
      192, 196, 194, -1,
      194, 196, 198, -1,
      200, 103, 201, -1,
      201, 103, 100, -1,
      202, 102, 200, -1,
      200, 102, 103, -1,
      203, 101, 202, -1,
      202, 101, 102, -1,
      201, 100, 203, -1,
      203, 100, 101, -1,
      204, 205, 206, -1,
      206, 205, 207, -1,
      202, 206, 203, -1,
      203, 206, 207, -1,
      203, 207, 201, -1,
      201, 207, 205, -1,
      204, 200, 205, -1,
      205, 200, 201, -1,
      200, 204, 202, -1,
      202, 204, 206, -1,
      208, 98, 209, -1,
      209, 98, 96, -1,
      210, 99, 208, -1,
      208, 99, 98, -1,
      211, 97, 210, -1,
      210, 97, 99, -1,
      209, 96, 211, -1,
      211, 96, 97, -1,
      212, 213, 214, -1,
      214, 213, 215, -1,
      210, 214, 211, -1,
      211, 214, 215, -1,
      211, 215, 209, -1,
      209, 215, 213, -1,
      212, 208, 213, -1,
      213, 208, 209, -1,
      208, 212, 210, -1,
      210, 212, 214, -1,
      216, 107, 217, -1,
      217, 107, 104, -1,
      218, 106, 216, -1,
      216, 106, 107, -1,
      219, 105, 218, -1,
      218, 105, 106, -1,
      217, 104, 219, -1,
      219, 104, 105, -1,
      220, 221, 222, -1,
      222, 221, 223, -1,
      218, 222, 219, -1,
      219, 222, 223, -1,
      219, 223, 217, -1,
      217, 223, 221, -1,
      220, 216, 221, -1,
      221, 216, 217, -1,
      216, 220, 218, -1,
      218, 220, 222, -1,
      224, 110, 225, -1,
      225, 110, 111, -1,
      226, 109, 224, -1,
      224, 109, 110, -1,
      227, 108, 226, -1,
      226, 108, 109, -1,
      225, 111, 227, -1,
      227, 111, 108, -1,
      228, 229, 230, -1,
      230, 229, 231, -1,
      226, 230, 227, -1,
      227, 230, 231, -1,
      227, 231, 225, -1,
      225, 231, 229, -1,
      228, 224, 229, -1,
      229, 224, 225, -1,
      224, 228, 226, -1,
      226, 228, 230, -1,
      232, 115, 233, -1,
      233, 115, 112, -1,
      234, 114, 232, -1,
      232, 114, 115, -1,
      235, 113, 234, -1,
      234, 113, 114, -1,
      233, 112, 235, -1,
      235, 112, 113, -1,
      236, 237, 238, -1,
      238, 237, 239, -1,
      234, 238, 235, -1,
      235, 238, 239, -1,
      235, 239, 233, -1,
      233, 239, 237, -1,
      236, 232, 237, -1,
      237, 232, 233, -1,
      232, 236, 234, -1,
      234, 236, 238, -1,
      240, 119, 241, -1,
      241, 119, 116, -1,
      242, 118, 240, -1,
      240, 118, 119, -1,
      243, 117, 242, -1,
      242, 117, 118, -1,
      241, 116, 243, -1,
      243, 116, 117, -1,
      244, 245, 246, -1,
      246, 245, 247, -1,
      242, 246, 243, -1,
      243, 246, 247, -1,
      243, 247, 241, -1,
      241, 247, 245, -1,
      244, 240, 245, -1,
      245, 240, 241, -1,
      240, 244, 242, -1,
      242, 244, 246, -1,
      248, 123, 249, -1,
      249, 123, 120, -1,
      250, 122, 248, -1,
      248, 122, 123, -1,
      251, 121, 250, -1,
      250, 121, 122, -1,
      249, 120, 251, -1,
      251, 120, 121, -1,
      252, 253, 254, -1,
      254, 253, 255, -1,
      250, 254, 251, -1,
      251, 254, 255, -1,
      251, 255, 249, -1,
      249, 255, 253, -1,
      252, 248, 253, -1,
      253, 248, 249, -1,
      248, 252, 250, -1,
      250, 252, 254, -1,
      256, 127, 257, -1,
      257, 127, 124, -1,
      258, 126, 256, -1,
      256, 126, 127, -1,
      259, 125, 258, -1,
      258, 125, 126, -1,
      257, 124, 259, -1,
      259, 124, 125, -1,
      260, 261, 262, -1,
      262, 261, 263, -1,
      258, 262, 259, -1,
      259, 262, 263, -1,
      259, 263, 257, -1,
      257, 263, 261, -1,
      260, 256, 261, -1,
      261, 256, 257, -1,
      256, 260, 258, -1,
      258, 260, 262, -1,
      264, 265, 266, -1,
      266, 265, 267, -1,
      268, 53, 269, -1,
      269, 53, 57, -1,
      270, 59, 268, -1,
      268, 59, 53, -1,
      271, 58, 270, -1,
      270, 58, 59, -1,
      269, 57, 271, -1,
      271, 57, 58, -1,
      264, 269, 265, -1,
      265, 269, 271, -1,
      265, 271, 267, -1,
      267, 271, 270, -1,
      268, 266, 270, -1,
      270, 266, 267, -1,
      266, 268, 264, -1,
      264, 268, 269, -1,
      272, 273, 274, -1,
      274, 273, 275, -1,
      276, 49, 277, -1,
      277, 49, 50, -1,
      278, 52, 276, -1,
      276, 52, 49, -1,
      279, 51, 278, -1,
      278, 51, 52, -1,
      277, 50, 279, -1,
      279, 50, 51, -1,
      272, 277, 273, -1,
      273, 277, 279, -1,
      273, 279, 275, -1,
      275, 279, 278, -1,
      276, 274, 278, -1,
      278, 274, 275, -1,
      274, 276, 272, -1,
      272, 276, 277, -1,
      280, 281, 282, -1,
      282, 281, 283, -1,
      284, 48, 285, -1,
      285, 48, 45, -1,
      286, 47, 284, -1,
      284, 47, 48, -1,
      287, 46, 286, -1,
      286, 46, 47, -1,
      285, 45, 287, -1,
      287, 45, 46, -1,
      280, 285, 281, -1,
      281, 285, 287, -1,
      281, 287, 283, -1,
      283, 287, 286, -1,
      284, 282, 286, -1,
      286, 282, 283, -1,
      282, 284, 280, -1,
      280, 284, 285, -1,
      288, 289, 290, -1,
      290, 289, 291, -1,
      292, 41, 293, -1,
      293, 41, 42, -1,
      294, 44, 292, -1,
      292, 44, 41, -1,
      295, 43, 294, -1,
      294, 43, 44, -1,
      293, 42, 295, -1,
      295, 42, 43, -1,
      288, 293, 289, -1,
      289, 293, 295, -1,
      289, 295, 291, -1,
      291, 295, 294, -1,
      292, 290, 294, -1,
      294, 290, 291, -1,
      290, 292, 288, -1,
      288, 292, 293, -1,
      296, 297, 298, -1,
      298, 297, 299, -1,
      300, 37, 301, -1,
      301, 37, 38, -1,
      302, 40, 300, -1,
      300, 40, 37, -1,
      303, 39, 302, -1,
      302, 39, 40, -1,
      301, 38, 303, -1,
      303, 38, 39, -1,
      296, 301, 297, -1,
      297, 301, 303, -1,
      297, 303, 299, -1,
      299, 303, 302, -1,
      300, 298, 302, -1,
      302, 298, 299, -1,
      298, 300, 296, -1,
      296, 300, 301, -1,
      304, 305, 306, -1,
      306, 305, 307, -1,
      308, 36, 309, -1,
      309, 36, 35, -1,
      310, 62, 308, -1,
      308, 62, 36, -1,
      311, 34, 310, -1,
      310, 34, 62, -1,
      309, 35, 311, -1,
      311, 35, 34, -1,
      304, 309, 305, -1,
      305, 309, 311, -1,
      305, 311, 307, -1,
      307, 311, 310, -1,
      308, 306, 310, -1,
      310, 306, 307, -1,
      306, 308, 304, -1,
      304, 308, 309, -1,
      312, 313, 314, -1,
      314, 313, 315, -1,
      316, 61, 317, -1,
      317, 61, 33, -1,
      318, 31, 316, -1,
      316, 31, 61, -1,
      319, 32, 318, -1,
      318, 32, 31, -1,
      317, 33, 319, -1,
      319, 33, 32, -1,
      312, 317, 313, -1,
      313, 317, 319, -1,
      313, 319, 315, -1,
      315, 319, 318, -1,
      316, 314, 318, -1,
      318, 314, 315, -1,
      314, 316, 312, -1,
      312, 316, 317, -1,
      320, 321, 322, -1,
      322, 321, 323, -1,
      324, 28, 325, -1,
      325, 28, 63, -1,
      326, 29, 324, -1,
      324, 29, 28, -1,
      327, 30, 326, -1,
      326, 30, 29, -1,
      325, 63, 327, -1,
      327, 63, 30, -1,
      320, 325, 321, -1,
      321, 325, 327, -1,
      321, 327, 323, -1,
      323, 327, 326, -1,
      324, 322, 326, -1,
      326, 322, 323, -1,
      322, 324, 320, -1,
      320, 324, 325, -1,
      328, 329, 330, -1,
      330, 329, 331, -1,
      332, 24, 333, -1,
      333, 24, 25, -1,
      334, 27, 332, -1,
      332, 27, 24, -1,
      335, 26, 334, -1,
      334, 26, 27, -1,
      333, 25, 335, -1,
      335, 25, 26, -1,
      328, 333, 329, -1,
      329, 333, 335, -1,
      329, 335, 331, -1,
      331, 335, 334, -1,
      332, 330, 334, -1,
      334, 330, 331, -1,
      330, 332, 328, -1,
      328, 332, 333, -1,
      336, 337, 338, -1,
      338, 337, 339, -1,
      340, 20, 341, -1,
      341, 20, 21, -1,
      342, 23, 340, -1,
      340, 23, 20, -1,
      343, 22, 342, -1,
      342, 22, 23, -1,
      341, 21, 343, -1,
      343, 21, 22, -1,
      336, 341, 337, -1,
      337, 341, 343, -1,
      337, 343, 339, -1,
      339, 343, 342, -1,
      340, 338, 342, -1,
      342, 338, 339, -1,
      338, 340, 336, -1,
      336, 340, 341, -1,
      344, 345, 346, -1,
      346, 345, 347, -1,
      348, 12, 349, -1,
      349, 12, 19, -1,
      350, 13, 348, -1,
      348, 13, 12, -1,
      351, 14, 350, -1,
      350, 14, 13, -1,
      349, 19, 351, -1,
      351, 19, 14, -1,
      344, 349, 345, -1,
      345, 349, 351, -1,
      345, 351, 347, -1,
      347, 351, 350, -1,
      348, 346, 350, -1,
      350, 346, 347, -1,
      346, 348, 344, -1,
      344, 348, 349, -1,
      352, 353, 354, -1,
      354, 353, 355, -1,
      356, 15, 357, -1,
      357, 15, 16, -1,
      358, 18, 356, -1,
      356, 18, 15, -1,
      359, 17, 358, -1,
      358, 17, 18, -1,
      357, 16, 359, -1,
      359, 16, 17, -1,
      352, 357, 353, -1,
      353, 357, 359, -1,
      353, 359, 355, -1,
      355, 359, 358, -1,
      356, 354, 358, -1,
      358, 354, 355, -1,
      354, 356, 352, -1,
      352, 356, 357, -1,
      360, 361, 362, -1,
      362, 361, 363, -1,
      364, 8, 365, -1,
      365, 8, 9, -1,
      366, 11, 364, -1,
      364, 11, 8, -1,
      367, 10, 366, -1,
      366, 10, 11, -1,
      365, 9, 367, -1,
      367, 9, 10, -1,
      360, 365, 361, -1,
      361, 365, 367, -1,
      361, 367, 363, -1,
      363, 367, 366, -1,
      364, 362, 366, -1,
      366, 362, 363, -1,
      362, 364, 360, -1,
      360, 364, 365, -1,
      368, 369, 370, -1,
      370, 369, 371, -1,
      372, 4, 373, -1,
      373, 4, 5, -1,
      374, 7, 372, -1,
      372, 7, 4, -1,
      375, 6, 374, -1,
      374, 6, 7, -1,
      373, 5, 375, -1,
      375, 5, 6, -1,
      368, 373, 369, -1,
      369, 373, 375, -1,
      369, 375, 371, -1,
      371, 375, 374, -1,
      372, 370, 374, -1,
      374, 370, 371, -1,
      370, 372, 368, -1,
      368, 372, 373, -1,
      376, 377, 378, -1,
      378, 377, 379, -1,
      380, 1, 381, -1,
      381, 1, 0, -1,
      382, 2, 380, -1,
      380, 2, 1, -1,
      383, 3, 382, -1,
      382, 3, 2, -1,
      381, 0, 383, -1,
      383, 0, 3, -1,
      376, 381, 377, -1,
      377, 381, 383, -1,
      377, 383, 379, -1,
      379, 383, 382, -1,
      380, 378, 382, -1,
      382, 378, 379, -1,
      378, 380, 376, -1,
      376, 380, 381, -1,
    ]
  }
}

Shape {
  appearance Appearance {
    material Material {
      diffuseColor 1.0000 1.0000 1.0000
      specularColor 0.8784 0.8784 0.8784
      ambientIntensity 0.2
      transparency 0.0000
      shininess 0.5
    }
  }
  geometry IndexedFaceSet {
    ccw TRUE
    solid FALSE
    coord DEF co Coordinate {
      point [
        0.067412 -0.147581 0.000000,
        0.075166 -0.148452 0.000000,
        0.050384 -0.206698 0.000000,
        0.080342 -0.218594 0.000000,
        0.087974 -0.215967 0.000000,
        0.114269 -0.218640 0.000000,
        0.154600 -0.218640 0.000000,
        0.154600 -0.139900 0.000000,
        0.075269 -0.219120 0.000000,
        0.144037 -0.139900 0.000000,
        0.057842 -0.148825 0.000000,
        0.048972 -0.205917 0.000000,
        0.048972 -0.152623 0.000000,
        0.048972 -0.142060 0.000000,
        0.081059 -0.150580 0.000000,
        0.086509 -0.154225 0.000000,
        0.091264 -0.159475 0.000000,
        0.096985 -0.180110 0.000000,
        0.096187 -0.188634 0.000000,
        0.094048 -0.195407 0.000000,
        0.076527 -0.210134 0.000000,
        0.069183 -0.210958 0.000000,
        0.082264 -0.208022 0.000000,
        0.087097 -0.204765 0.000000,
        0.090792 -0.200867 0.000000,
        0.058731 -0.209798 0.000000,
        0.103392 -0.160639 0.000000,
        0.098777 -0.153277 0.000000,
        0.091668 -0.146440 0.000000,
        0.094510 -0.165554 0.000000,
        0.096609 -0.173983 0.000000,
        0.094307 -0.211922 0.000000,
        0.100222 -0.205696 0.000000,
        0.114269 -0.209998 0.000000,
        0.104417 -0.198209 0.000000,
        0.144037 -0.209998 0.000000,
        0.084189 -0.142135 0.000000,
        0.075411 -0.139585 0.000000,
        0.106786 -0.189874 0.000000,
        0.107548 -0.180755 0.000000,
        0.106415 -0.169561 0.000000,
        0.067502 -0.138939 0.000000,
        0.058076 -0.139590 0.000000,
        0.068485 -0.219563 0.000000,
        0.065322 -0.219120 0.000000,
        0.057366 -0.218005 0.000000,
        0.048972 -0.214559 0.000000,
        0.070638 -0.219600 0.000000,
        -0.126296 -0.139900 0.000000,
        -0.122911 -0.139900 0.000000,
        -0.093144 -0.218640 0.000000,
        -0.104667 -0.218640 0.000000,
        -0.112184 -0.196554 0.000000,
        -0.126296 -0.196554 0.000000,
        -0.133474 -0.139900 0.000000,
        -0.144712 -0.196554 0.000000,
        -0.152679 -0.218640 0.000000,
        -0.164202 -0.218640 0.000000,
        -0.083450 -0.197059 0.000000,
        -0.078935 -0.204102 0.000000,
        -0.072454 -0.210307 0.000000,
        -0.064232 -0.215085 0.000000,
        -0.066815 -0.144351 0.000000,
        -0.075385 -0.150094 0.000000,
        -0.024006 -0.139900 0.000000,
        -0.046227 -0.139900 0.000000,
        -0.057603 -0.141116 0.000000,
        -0.075468 -0.150167 0.000000,
        -0.081036 -0.156341 0.000000,
        -0.084695 -0.163113 0.000000,
        -0.055159 -0.217789 0.000000,
        -0.045417 -0.218640 0.000000,
        -0.024006 -0.218640 0.000000,
        -0.086810 -0.170870 0.000000,
        -0.087382 -0.178280 0.000000,
        -0.086278 -0.188817 0.000000,
        -0.006722 -0.139900 0.000000,
        0.033609 -0.139900 0.000000,
        -0.006722 -0.148542 0.000000,
        -0.008642 -0.209998 0.000000,
        -0.008642 -0.218640 0.000000,
        0.033609 -0.218640 0.000000,
        0.023046 -0.183111 0.000000,
        0.023046 -0.209998 0.000000,
        -0.004801 -0.183111 0.000000,
        -0.004801 -0.174469 0.000000,
        0.023046 -0.174469 0.000000,
        0.023046 -0.148542 0.000000,
        -0.133474 -0.139900 0.039370,
        -0.164202 -0.218640 0.039370,
        -0.152679 -0.218640 0.039370,
        -0.144712 -0.196554 0.039370,
        -0.112184 -0.196554 0.039370,
        -0.104667 -0.218640 0.039370,
        -0.093144 -0.218640 0.039370,
        -0.122911 -0.139900 0.039370,
        -0.114839 -0.187912 0.039370,
        -0.141171 -0.187912 0.039370,
        -0.126587 -0.155024 0.039370,
        -0.127345 -0.152293 0.039370,
        -0.127848 -0.149502 0.039370,
        -0.128103 -0.149502 0.039370,
        -0.128617 -0.152284 0.039370,
        -0.129318 -0.155024 0.039370,
        -0.114839 -0.187912 0.000000,
        -0.141171 -0.187912 0.000000,
        -0.126587 -0.155024 -0.000000,
        -0.127345 -0.152293 0.000000,
        -0.127848 -0.149502 0.000000,
        -0.128103 -0.149502 0.000000,
        -0.128617 -0.152284 0.000000,
        -0.129318 -0.155024 0.000000,
        -0.045417 -0.218640 0.039370,
        -0.024006 -0.218640 0.039370,
        -0.024006 -0.139900 0.039370,
        -0.046227 -0.139900 0.039370,
        -0.087382 -0.178280 0.039370,
        -0.086810 -0.170870 0.039370,
        -0.084695 -0.163113 0.039370,
        -0.081036 -0.156341 0.039370,
        -0.075468 -0.150167 0.039370,
        -0.075385 -0.150094 0.039370,
        -0.066815 -0.144351 0.039370,
        -0.057603 -0.141116 0.039370,
        -0.055159 -0.217789 0.039370,
        -0.064232 -0.215085 0.039370,
        -0.072454 -0.210307 0.039370,
        -0.078935 -0.204102 0.039370,
        -0.083450 -0.197059 0.039370,
        -0.086278 -0.188817 0.039370,
        -0.071577 -0.159584 0.039370,
        -0.067752 -0.155523 0.039370,
        -0.062001 -0.151807 0.039370,
        -0.055502 -0.149533 0.039370,
        -0.046182 -0.148542 0.039370,
        -0.034569 -0.148542 0.039370,
        -0.034569 -0.209998 0.039370,
        -0.045747 -0.209998 0.039370,
        -0.054054 -0.209224 0.039370,
        -0.060680 -0.207156 0.039370,
        -0.066050 -0.203967 0.039370,
        -0.070466 -0.199606 0.039370,
        -0.073787 -0.194176 0.039370,
        -0.076097 -0.186775 0.039370,
        -0.076820 -0.178505 0.039370,
        -0.076151 -0.170668 0.039370,
        -0.074313 -0.164440 0.039370,
        -0.046182 -0.148542 0.000000,
        -0.034569 -0.148542 0.000000,
        -0.055502 -0.149533 0.000000,
        -0.062001 -0.151807 -0.000000,
        -0.067752 -0.155523 -0.000000,
        -0.071577 -0.159584 0.000000,
        -0.074313 -0.164440 -0.000000,
        -0.076151 -0.170668 -0.000000,
        -0.076820 -0.178505 -0.000000,
        -0.076097 -0.186775 0.000000,
        -0.073787 -0.194176 0.000000,
        -0.070466 -0.199606 0.000000,
        -0.066050 -0.203967 0.000000,
        -0.060680 -0.207156 0.000000,
        -0.054054 -0.209224 0.000000,
        -0.045747 -0.209998 0.000000,
        -0.034569 -0.209998 0.000000,
        -0.008642 -0.209998 0.039370,
        -0.008642 -0.218640 0.039370,
        0.033609 -0.218640 0.039370,
        0.033609 -0.139900 0.039370,
        -0.006722 -0.139900 0.039370,
        -0.006722 -0.148542 0.039370,
        0.023046 -0.148542 0.039370,
        0.023046 -0.174469 0.039370,
        -0.004801 -0.174469 0.039370,
        -0.004801 -0.183111 0.039370,
        0.023046 -0.183111 0.039370,
        0.023046 -0.209998 0.039370,
        0.048972 -0.205917 0.039370,
        0.048972 -0.214559 0.039370,
        0.057366 -0.218005 0.039370,
        0.070638 -0.219600 0.039370,
        0.068485 -0.219563 0.039370,
        0.080342 -0.218594 0.039370,
        0.087974 -0.215967 0.039370,
        0.094307 -0.211922 0.039370,
        0.100222 -0.205696 0.039370,
        0.104417 -0.198209 0.039370,
        0.106786 -0.189874 0.039370,
        0.107548 -0.180755 0.039370,
        0.067502 -0.138939 0.039370,
        0.075411 -0.139585 0.039370,
        0.084189 -0.142135 0.039370,
        0.091668 -0.146440 0.039370,
        0.098777 -0.153277 0.039370,
        0.103392 -0.160639 0.039370,
        0.106415 -0.169561 0.039370,
        0.048972 -0.142060 0.039370,
        0.058076 -0.139590 0.039370,
        0.048972 -0.152623 0.039370,
        0.067412 -0.147581 0.039370,
        0.057842 -0.148825 0.039370,
        0.096985 -0.180110 0.039370,
        0.096609 -0.173983 0.039370,
        0.094510 -0.165554 0.039370,
        0.091264 -0.159475 0.039370,
        0.086509 -0.154225 0.039370,
        0.081059 -0.150580 0.039370,
        0.075166 -0.148452 0.039370,
        0.069183 -0.210958 0.039370,
        0.076527 -0.210134 0.039370,
        0.082264 -0.208022 0.039370,
        0.087097 -0.204765 0.039370,
        0.090792 -0.200867 0.039370,
        0.094048 -0.195407 0.039370,
        0.096187 -0.188634 0.039370,
        0.050384 -0.206698 0.039370,
        0.058731 -0.209798 0.039370,
        0.114269 -0.209998 0.039370,
        0.114269 -0.218640 0.039370,
        0.154600 -0.218640 0.039370,
        0.154600 -0.139900 0.039370,
        0.144037 -0.139900 0.039370,
        0.144037 -0.209998 0.039370,
      ]
    }
    coordIndex [
      88, 89, 54, -1,
      54, 89, 57, -1,
      89, 90, 57, -1,
      57, 90, 56, -1,
      90, 91, 56, -1,
      56, 91, 55, -1,
      55, 91, 53, -1,
      53, 91, 92, -1,
      53, 92, 52, -1,
      92, 93, 52, -1,
      52, 93, 51, -1,
      93, 94, 51, -1,
      51, 94, 50, -1,
      94, 95, 50, -1,
      50, 95, 49, -1,
      49, 95, 48, -1,
      48, 95, 88, -1,
      48, 88, 54, -1,
      96, 92, 97, -1,
      97, 92, 91, -1,
      98, 95, 96, -1,
      96, 95, 94, -1,
      96, 94, 92, -1,
      92, 94, 93, -1,
      98, 99, 95, -1,
      95, 99, 100, -1,
      95, 100, 88, -1,
      88, 100, 101, -1,
      88, 101, 102, -1,
      102, 103, 88, -1,
      88, 103, 97, -1,
      88, 97, 89, -1,
      89, 97, 91, -1,
      89, 91, 90, -1,
      96, 97, 104, -1,
      104, 97, 105, -1,
      98, 96, 106, -1,
      106, 96, 104, -1,
      98, 106, 107, -1,
      98, 107, 99, -1,
      99, 107, 108, -1,
      99, 108, 100, -1,
      101, 100, 109, -1,
      109, 100, 108, -1,
      101, 109, 110, -1,
      101, 110, 102, -1,
      102, 110, 111, -1,
      102, 111, 103, -1,
      97, 103, 105, -1,
      105, 103, 111, -1,
      112, 113, 71, -1,
      71, 113, 72, -1,
      113, 114, 72, -1,
      72, 114, 64, -1,
      114, 115, 64, -1,
      64, 115, 65, -1,
      116, 74, 73, -1,
      116, 73, 117, -1,
      117, 73, 69, -1,
      117, 69, 118, -1,
      118, 69, 68, -1,
      118, 68, 119, -1,
      119, 68, 67, -1,
      119, 67, 120, -1,
      120, 67, 63, -1,
      120, 63, 121, -1,
      121, 63, 62, -1,
      121, 62, 122, -1,
      122, 62, 66, -1,
      122, 66, 123, -1,
      123, 66, 65, -1,
      123, 65, 115, -1,
      112, 71, 70, -1,
      112, 70, 124, -1,
      124, 70, 61, -1,
      124, 61, 125, -1,
      125, 61, 60, -1,
      125, 60, 126, -1,
      126, 60, 59, -1,
      126, 59, 127, -1,
      127, 59, 58, -1,
      127, 58, 128, -1,
      128, 58, 75, -1,
      128, 75, 129, -1,
      129, 75, 74, -1,
      129, 74, 116, -1,
      118, 119, 130, -1,
      130, 119, 120, -1,
      130, 120, 131, -1,
      131, 120, 121, -1,
      131, 121, 132, -1,
      132, 121, 122, -1,
      132, 122, 133, -1,
      133, 122, 123, -1,
      133, 123, 134, -1,
      134, 123, 115, -1,
      134, 115, 135, -1,
      135, 115, 114, -1,
      135, 114, 136, -1,
      136, 114, 113, -1,
      136, 113, 137, -1,
      137, 113, 112, -1,
      137, 112, 138, -1,
      138, 112, 124, -1,
      138, 124, 139, -1,
      139, 124, 125, -1,
      139, 125, 140, -1,
      140, 125, 126, -1,
      140, 126, 141, -1,
      141, 126, 127, -1,
      141, 127, 142, -1,
      142, 127, 128, -1,
      142, 128, 143, -1,
      143, 128, 129, -1,
      143, 129, 144, -1,
      144, 129, 116, -1,
      144, 116, 145, -1,
      145, 116, 117, -1,
      145, 117, 146, -1,
      146, 117, 118, -1,
      146, 118, 130, -1,
      134, 135, 147, -1,
      147, 135, 148, -1,
      134, 147, 149, -1,
      134, 149, 133, -1,
      133, 149, 150, -1,
      133, 150, 132, -1,
      132, 150, 151, -1,
      132, 151, 131, -1,
      131, 151, 152, -1,
      131, 152, 130, -1,
      130, 152, 153, -1,
      130, 153, 146, -1,
      146, 153, 154, -1,
      146, 154, 145, -1,
      145, 154, 155, -1,
      145, 155, 144, -1,
      144, 155, 156, -1,
      144, 156, 143, -1,
      143, 156, 157, -1,
      143, 157, 142, -1,
      142, 157, 158, -1,
      142, 158, 141, -1,
      141, 158, 159, -1,
      141, 159, 140, -1,
      140, 159, 160, -1,
      140, 160, 139, -1,
      139, 160, 161, -1,
      139, 161, 138, -1,
      138, 161, 162, -1,
      138, 162, 137, -1,
      136, 137, 163, -1,
      163, 137, 162, -1,
      135, 136, 148, -1,
      148, 136, 163, -1,
      164, 165, 79, -1,
      79, 165, 80, -1,
      165, 166, 80, -1,
      80, 166, 81, -1,
      166, 167, 81, -1,
      81, 167, 77, -1,
      167, 168, 77, -1,
      77, 168, 76, -1,
      168, 169, 76, -1,
      76, 169, 78, -1,
      169, 170, 78, -1,
      78, 170, 87, -1,
      170, 171, 87, -1,
      87, 171, 86, -1,
      171, 172, 86, -1,
      86, 172, 85, -1,
      172, 173, 85, -1,
      85, 173, 84, -1,
      173, 174, 84, -1,
      84, 174, 82, -1,
      174, 175, 82, -1,
      82, 175, 83, -1,
      175, 164, 83, -1,
      83, 164, 79, -1,
      166, 165, 164, -1,
      164, 175, 166, -1,
      166, 175, 174, -1,
      166, 174, 167, -1,
      169, 168, 170, -1,
      170, 168, 167, -1,
      170, 167, 171, -1,
      171, 167, 174, -1,
      171, 174, 172, -1,
      172, 174, 173, -1,
      176, 177, 11, -1,
      11, 177, 46, -1,
      46, 177, 178, -1,
      179, 47, 43, -1,
      179, 43, 180, -1,
      180, 43, 44, -1,
      180, 44, 178, -1,
      178, 44, 45, -1,
      178, 45, 46, -1,
      47, 179, 8, -1,
      8, 179, 181, -1,
      8, 181, 3, -1,
      3, 181, 182, -1,
      3, 182, 4, -1,
      4, 182, 183, -1,
      4, 183, 31, -1,
      31, 183, 184, -1,
      31, 184, 32, -1,
      32, 184, 185, -1,
      32, 185, 34, -1,
      34, 185, 186, -1,
      34, 186, 38, -1,
      38, 186, 187, -1,
      38, 187, 39, -1,
      188, 41, 37, -1,
      188, 37, 189, -1,
      189, 37, 36, -1,
      189, 36, 190, -1,
      190, 36, 28, -1,
      190, 28, 191, -1,
      191, 28, 27, -1,
      191, 27, 192, -1,
      192, 27, 26, -1,
      192, 26, 193, -1,
      193, 26, 40, -1,
      193, 40, 194, -1,
      194, 40, 39, -1,
      194, 39, 187, -1,
      195, 13, 42, -1,
      195, 42, 196, -1,
      196, 42, 41, -1,
      196, 41, 188, -1,
      195, 197, 13, -1,
      13, 197, 12, -1,
      198, 0, 10, -1,
      198, 10, 199, -1,
      199, 10, 12, -1,
      199, 12, 197, -1,
      200, 17, 30, -1,
      200, 30, 201, -1,
      201, 30, 29, -1,
      201, 29, 202, -1,
      202, 29, 16, -1,
      202, 16, 203, -1,
      203, 16, 15, -1,
      203, 15, 204, -1,
      204, 15, 14, -1,
      204, 14, 205, -1,
      205, 14, 1, -1,
      205, 1, 206, -1,
      206, 1, 0, -1,
      206, 0, 198, -1,
      207, 21, 20, -1,
      207, 20, 208, -1,
      208, 20, 22, -1,
      208, 22, 209, -1,
      209, 22, 23, -1,
      209, 23, 210, -1,
      210, 23, 24, -1,
      210, 24, 211, -1,
      211, 24, 19, -1,
      211, 19, 212, -1,
      212, 19, 18, -1,
      212, 18, 213, -1,
      213, 18, 17, -1,
      213, 17, 200, -1,
      176, 11, 2, -1,
      176, 2, 214, -1,
      214, 2, 25, -1,
      214, 25, 215, -1,
      215, 25, 21, -1,
      215, 21, 207, -1,
      208, 179, 207, -1,
      207, 179, 180, -1,
      207, 180, 215, -1,
      215, 180, 178, -1,
      215, 178, 214, -1,
      214, 178, 177, -1,
      214, 177, 176, -1,
      197, 195, 199, -1,
      199, 195, 196, -1,
      199, 196, 198, -1,
      198, 196, 188, -1,
      198, 188, 206, -1,
      206, 188, 189, -1,
      206, 189, 205, -1,
      205, 189, 190, -1,
      205, 190, 204, -1,
      204, 190, 191, -1,
      204, 191, 203, -1,
      203, 191, 192, -1,
      203, 192, 202, -1,
      202, 192, 193, -1,
      202, 193, 201, -1,
      201, 193, 194, -1,
      201, 194, 200, -1,
      200, 194, 187, -1,
      200, 187, 213, -1,
      213, 187, 186, -1,
      213, 186, 212, -1,
      212, 186, 185, -1,
      212, 185, 211, -1,
      211, 185, 184, -1,
      211, 184, 210, -1,
      210, 184, 183, -1,
      210, 183, 209, -1,
      209, 183, 182, -1,
      209, 182, 208, -1,
      208, 182, 181, -1,
      208, 181, 179, -1,
      216, 217, 33, -1,
      33, 217, 5, -1,
      217, 218, 5, -1,
      5, 218, 6, -1,
      218, 219, 6, -1,
      6, 219, 7, -1,
      219, 220, 7, -1,
      7, 220, 9, -1,
      220, 221, 9, -1,
      9, 221, 35, -1,
      221, 216, 35, -1,
      35, 216, 33, -1,
      220, 219, 221, -1,
      221, 219, 218, -1,
      221, 218, 216, -1,
      216, 218, 217, -1,
    ]
  }
}

Shape {
  appearance Appearance {
    material Material {
      diffuseColor 0.2078 0.2078 0.2078
      specularColor 0.0157 0.0157 0.0157
      ambientIntensity 0.2
      transparency 0.0000
      shininess 0.5
    }
  }
  geometry IndexedFaceSet {
    ccw TRUE
    solid FALSE
    coord DEF co Coordinate {
      point [
        -0.114839 -0.187912 0.000000,
        -0.141171 -0.187912 0.000000,
        -0.126587 -0.155024 -0.000000,
        -0.127345 -0.152293 0.000000,
        -0.127848 -0.149502 0.000000,
        -0.128103 -0.149502 0.000000,
        -0.128617 -0.152284 0.000000,
        -0.129318 -0.155024 0.000000,
        -0.046182 -0.148542 0.000000,
        -0.034569 -0.148542 0.000000,
        -0.055502 -0.149533 0.000000,
        -0.062001 -0.151807 -0.000000,
        -0.067752 -0.155523 -0.000000,
        -0.071577 -0.159584 0.000000,
        -0.074313 -0.164440 -0.000000,
        -0.076151 -0.170668 -0.000000,
        -0.076820 -0.178505 -0.000000,
        -0.076097 -0.186775 0.000000,
        -0.073787 -0.194176 0.000000,
        -0.070466 -0.199606 0.000000,
        -0.066050 -0.203967 0.000000,
        -0.060680 -0.207156 0.000000,
        -0.054054 -0.209224 0.000000,
        -0.045747 -0.209998 0.000000,
        -0.034569 -0.209998 0.000000,
      ]
    }
    coordIndex [
      0, 1, 2, -1,
      2, 1, 7, -1,
      2, 7, 3, -1,
      3, 7, 6, -1,
      3, 6, 4, -1,
      4, 6, 5, -1,
      9, 24, 8, -1,
      8, 24, 23, -1,
      8, 23, 22, -1,
      16, 15, 8, -1,
      8, 15, 14, -1,
      8, 14, 10, -1,
      22, 21, 8, -1,
      8, 21, 20, -1,
      8, 20, 19, -1,
      19, 18, 8, -1,
      8, 18, 17, -1,
      8, 17, 16, -1,
      13, 12, 14, -1,
      14, 12, 11, -1,
      14, 11, 10, -1,
    ]
  }
}
