#VRML V2.0 utf8

Shape {
  appearance Appearance {
    material Material {
      diffuseColor 0.2078 0.2078 0.2078
      specularColor 0.0157 0.0157 0.0157
      ambientIntensity 0.2
      transparency 0.0000
      shininess 0.5
    }
  }
  geometry IndexedFaceSet {
    ccw TRUE
    solid FALSE
    coord DEF co Coordinate {
      point [
        0.103226 -0.278018 0.000000,
        0.103226 -0.048626 0.000000,
        0.122431 -0.245009 0.000000,
        0.122431 -0.266615 0.000000,
        0.143415 -0.275230 0.000000,
        0.163306 -0.278018 0.000000,
        0.362541 -0.048626 0.000000,
        0.360092 -0.079967 0.000000,
        0.362541 -0.079967 0.000000,
        0.145191 -0.079192 0.000000,
        0.122431 -0.085368 0.000000,
        0.122431 -0.111775 0.000000,
        0.144604 -0.102280 0.000000,
        0.125959 -0.246963 0.000000,
        0.168531 -0.099172 0.000000,
        0.187914 -0.101348 0.000000,
        0.258480 -0.131815 0.000000,
        0.246942 -0.113410 0.000000,
        0.229170 -0.096319 0.000000,
        0.200854 -0.276702 0.000000,
        0.219934 -0.270135 0.000000,
        0.285673 -0.276817 0.000000,
        0.202648 -0.106666 0.000000,
        0.216273 -0.115781 0.000000,
        0.228160 -0.128904 0.000000,
        0.242462 -0.180493 0.000000,
        0.240469 -0.201803 0.000000,
        0.235121 -0.218735 0.000000,
        0.191317 -0.255553 0.000000,
        0.172957 -0.257612 0.000000,
        0.205661 -0.250272 0.000000,
        0.217742 -0.242130 0.000000,
        0.226980 -0.232384 0.000000,
        0.146827 -0.254712 0.000000,
        0.235768 -0.260024 0.000000,
        0.250554 -0.244457 0.000000,
        0.285673 -0.255212 0.000000,
        0.261041 -0.225740 0.000000,
        0.360092 -0.255212 0.000000,
        0.236276 -0.144103 0.000000,
        0.241523 -0.165176 0.000000,
        0.266965 -0.204903 0.000000,
        0.268869 -0.182106 0.000000,
        0.266037 -0.154119 0.000000,
        0.210472 -0.085556 0.000000,
        0.188527 -0.079180 0.000000,
        0.168756 -0.077566 0.000000,
        0.362541 -0.276817 0.000000,
        0.362541 -0.278018 0.000000,
        0.386499 -0.276817 0.000000,
        0.523958 -0.278018 0.000000,
        0.386499 -0.079967 0.000000,
        0.523958 -0.048626 0.000000,
        0.171213 -0.279126 0.000000,
        0.103226 -0.413386 0.000000,
        0.176595 -0.279218 0.000000,
        0.188172 -0.278018 0.000000,
        0.362541 -0.413386 0.000000,
        -0.110717 -0.048626 0.000000,
        -0.110717 -0.079967 0.000000,
        -0.115567 -0.079967 0.000000,
        -0.225658 -0.048626 0.000000,
        -0.144007 -0.083007 0.000000,
        -0.167038 -0.091094 0.000000,
        -0.188464 -0.105453 0.000000,
        -0.181135 -0.255986 0.000000,
        -0.225658 -0.278018 0.000000,
        -0.197337 -0.240472 0.000000,
        -0.208626 -0.222865 0.000000,
        -0.188670 -0.105634 0.000000,
        -0.202590 -0.121069 0.000000,
        -0.211738 -0.137999 0.000000,
        -0.113542 -0.276817 0.000000,
        -0.110717 -0.278018 0.000000,
        -0.137898 -0.274691 0.000000,
        -0.160581 -0.267930 0.000000,
        -0.217025 -0.157394 0.000000,
        -0.218456 -0.175917 0.000000,
        -0.215694 -0.202261 0.000000,
        -0.060015 -0.079967 0.000000,
        -0.040811 -0.048626 0.000000,
        -0.060015 -0.276817 0.000000,
        -0.161417 -0.019685 0.000000,
        -0.161417 0.019685 0.000000,
        -0.361780 -0.221603 0.000000,
        -0.280459 -0.221603 0.000000,
        -0.374544 -0.256986 0.000000,
        -0.261667 -0.276817 0.000000,
        -0.381698 -0.276817 0.000000,
        -0.374544 -0.278018 0.000000,
        -0.232859 -0.276817 0.000000,
        -0.307279 -0.079967 0.000000,
        -0.374544 -0.048626 0.000000,
        -0.333685 -0.079967 0.000000,
        -0.374544 -0.184667 0.000000,
        -0.410505 -0.276817 0.000000,
        -1.000000 -0.278018 0.000000,
        -3.161417 0.019685 0.000000,
        -3.000000 0.413386 0.000000,
        -3.161417 -0.019685 0.000000,
        -3.000000 -0.048626 0.000000,
        -3.338583 -0.019685 0.000000,
        -4.078740 -0.048626 0.000000,
        -3.661417 -0.019685 0.000000,
        -3.338583 0.019685 0.000000,
        -3.661417 0.019685 0.000000,
        -4.078740 0.413386 0.000000,
        -3.838583 0.019685 0.000000,
        -3.838583 -0.019685 0.000000,
        -2.661417 0.019685 0.000000,
        -2.500000 0.413386 0.000000,
        -2.661417 -0.019685 0.000000,
        -2.500000 -0.048626 0.000000,
        -2.838583 -0.019685 0.000000,
        -2.838583 0.019685 0.000000,
        -2.161417 0.019685 0.000000,
        -2.000000 0.413386 0.000000,
        -2.161417 -0.019685 0.000000,
        -2.000000 -0.048626 0.000000,
        -2.338583 -0.019685 0.000000,
        -2.338583 0.019685 0.000000,
        -1.661417 0.019685 0.000000,
        -1.500000 0.413386 0.000000,
        -1.661417 -0.019685 0.000000,
        -1.500000 -0.048626 0.000000,
        -1.838583 -0.019685 0.000000,
        -1.838583 0.019685 0.000000,
        -1.161417 0.019685 0.000000,
        -1.000000 0.413386 0.000000,
        -1.161417 -0.019685 0.000000,
        -1.000000 -0.048626 0.000000,
        -1.338583 -0.019685 0.000000,
        -1.338583 0.019685 0.000000,
        -0.661417 -0.019685 0.000000,
        -0.374544 0.413386 0.000000,
        -0.661417 0.019685 0.000000,
        -0.838583 0.019685 0.000000,
        -0.838583 -0.019685 0.000000,
        -0.225658 -0.019685 0.000000,
        -0.338583 -0.019685 0.000000,
        -0.338583 0.019685 0.000000,
        -0.225658 0.019685 0.000000,
        -0.225658 0.413386 0.000000,
        -0.110717 0.413386 0.000000,
        -0.040811 0.413386 0.000000,
        0.103226 0.413386 0.000000,
        0.338583 -0.019685 0.000000,
        0.338583 0.019685 0.000000,
        0.161417 -0.019685 0.000000,
        0.161417 0.019685 0.000000,
        0.362541 0.413386 0.000000,
        0.523958 0.413386 0.000000,
        0.661417 -0.019685 0.000000,
        0.838583 -0.019685 0.000000,
        0.661417 0.019685 0.000000,
        0.838583 0.019685 0.000000,
        1.000000 0.413386 0.000000,
        1.000000 -0.048626 0.000000,
        1.338583 0.019685 0.000000,
        1.500000 0.413386 0.000000,
        1.338583 -0.019685 0.000000,
        1.500000 -0.048626 0.000000,
        1.161417 -0.019685 0.000000,
        1.161417 0.019685 0.000000,
        1.838583 0.019685 0.000000,
        1.661417 0.019685 0.000000,
        1.838583 -0.019685 0.000000,
        2.500000 -0.048626 0.000000,
        1.661417 -0.019685 0.000000,
        2.161417 0.019685 0.000000,
        2.338583 0.019685 0.000000,
        2.500000 0.413386 0.000000,
        2.338583 -0.019685 0.000000,
        2.161417 -0.019685 0.000000,
        2.838583 0.019685 0.000000,
        3.000000 0.413386 0.000000,
        2.838583 -0.019685 0.000000,
        3.000000 -0.048626 0.000000,
        2.661417 -0.019685 0.000000,
        2.661417 0.019685 0.000000,
        3.161417 -0.019685 0.000000,
        3.338583 -0.019685 0.000000,
        3.161417 0.019685 0.000000,
        3.338583 0.019685 0.000000,
        3.500000 0.413386 0.000000,
        3.500000 -0.048626 0.000000,
        3.958661 -0.048626 0.000000,
        3.838583 -0.019685 0.000000,
        3.838583 0.019685 0.000000,
        3.661417 -0.019685 0.000000,
        3.661417 0.019685 0.000000,
        3.958661 0.413386 0.000000,
        4.078740 0.413386 0.000000,
        4.078740 -0.048626 0.000000,
        -1.500000 -0.278018 0.000000,
        -2.000000 -0.278018 0.000000,
        -2.500000 -0.278018 0.000000,
        -3.000000 -0.278018 0.000000,
        -4.078740 -0.278018 0.000000,
        -0.021606 -0.255212 0.000000,
        -0.021606 -0.276817 0.000000,
        -0.040811 -0.278018 0.000000,
        0.084022 -0.276817 0.000000,
        -0.110717 -0.276817 0.000000,
        -0.016804 -0.101572 0.000000,
        0.084022 -0.079967 0.000000,
        -0.016804 -0.079967 0.000000,
        0.057615 -0.187994 0.000000,
        0.057615 -0.255212 0.000000,
        -0.012003 -0.187994 0.000000,
        -0.012003 -0.166389 0.000000,
        0.057615 -0.166389 0.000000,
        0.057615 -0.101572 0.000000,
        1.000000 -0.278018 0.000000,
        1.500000 -0.278018 0.000000,
        2.500000 -0.278018 0.000000,
        3.000000 -0.278018 0.000000,
        3.500000 -0.278018 0.000000,
        3.958661 -0.278018 0.000000,
        4.078740 -0.278018 0.000000,
        -0.040811 -0.413386 0.000000,
        -0.110717 -0.413386 0.000000,
        -0.225658 -0.413386 0.000000,
        -0.374544 -0.413386 0.000000,
        -1.000000 -0.413386 0.000000,
        -1.500000 -0.413386 0.000000,
        -2.000000 -0.413386 0.000000,
        -2.500000 -0.413386 0.000000,
        -3.000000 -0.413386 0.000000,
        -4.078740 -0.413386 0.000000,
        0.523958 -0.413386 0.000000,
        1.000000 -0.413386 0.000000,
        1.500000 -0.413386 0.000000,
        2.500000 -0.413386 0.000000,
        3.000000 -0.413386 0.000000,
        3.500000 -0.413386 0.000000,
        3.958661 -0.413386 0.000000,
        4.078740 -0.413386 0.000000,
      ]
    }
    coordIndex [
      0, 1, 2, -1,
      2, 3, 0, -1,
      0, 3, 4, -1,
      0, 4, 5, -1,
      1, 6, 7, -1,
      7, 6, 8, -1,
      9, 10, 1, -1,
      1, 10, 11, -1,
      1, 11, 2, -1,
      2, 11, 12, -1,
      2, 12, 13, -1,
      13, 12, 14, -1,
      13, 14, 15, -1,
      16, 17, 7, -1,
      7, 17, 18, -1,
      19, 20, 21, -1,
      15, 22, 13, -1,
      13, 22, 23, -1,
      13, 23, 24, -1,
      25, 26, 13, -1,
      13, 26, 27, -1,
      28, 29, 30, -1,
      30, 29, 31, -1,
      27, 32, 13, -1,
      13, 32, 31, -1,
      13, 31, 33, -1,
      33, 31, 29, -1,
      20, 34, 21, -1,
      21, 34, 35, -1,
      21, 35, 36, -1,
      36, 35, 37, -1,
      36, 37, 38, -1,
      24, 39, 13, -1,
      13, 39, 40, -1,
      13, 40, 25, -1,
      37, 41, 38, -1,
      38, 41, 42, -1,
      38, 42, 7, -1,
      7, 42, 43, -1,
      7, 43, 16, -1,
      18, 44, 7, -1,
      7, 44, 45, -1,
      7, 45, 1, -1,
      1, 45, 46, -1,
      1, 46, 9, -1,
      21, 47, 48, -1,
      48, 47, 49, -1,
      48, 49, 50, -1,
      8, 6, 51, -1,
      51, 6, 52, -1,
      51, 52, 49, -1,
      5, 53, 54, -1,
      53, 55, 54, -1,
      54, 55, 56, -1,
      54, 56, 57, -1,
      58, 59, 60, -1,
      58, 60, 61, -1,
      60, 62, 61, -1,
      61, 62, 63, -1,
      61, 63, 64, -1,
      65, 66, 67, -1,
      67, 66, 68, -1,
      64, 69, 61, -1,
      61, 69, 70, -1,
      61, 70, 71, -1,
      72, 73, 74, -1,
      74, 73, 66, -1,
      74, 66, 75, -1,
      75, 66, 65, -1,
      71, 76, 61, -1,
      61, 76, 77, -1,
      61, 77, 66, -1,
      66, 77, 78, -1,
      66, 78, 68, -1,
      59, 58, 79, -1,
      79, 58, 80, -1,
      79, 80, 81, -1,
      58, 82, 83, -1,
      84, 85, 86, -1,
      86, 85, 87, -1,
      88, 86, 89, -1,
      89, 86, 87, -1,
      89, 87, 66, -1,
      66, 87, 90, -1,
      66, 90, 61, -1,
      61, 90, 91, -1,
      61, 91, 92, -1,
      92, 91, 93, -1,
      92, 93, 94, -1,
      88, 89, 95, -1,
      95, 89, 96, -1,
      95, 96, 94, -1,
      97, 98, 99, -1,
      99, 98, 100, -1,
      99, 100, 101, -1,
      100, 102, 101, -1,
      101, 102, 103, -1,
      101, 103, 104, -1,
      104, 103, 105, -1,
      97, 104, 98, -1,
      98, 104, 105, -1,
      98, 105, 106, -1,
      106, 105, 107, -1,
      106, 107, 102, -1,
      102, 107, 108, -1,
      102, 108, 103, -1,
      109, 110, 111, -1,
      111, 110, 112, -1,
      111, 112, 113, -1,
      113, 112, 100, -1,
      113, 100, 114, -1,
      114, 100, 98, -1,
      114, 98, 109, -1,
      109, 98, 110, -1,
      115, 116, 117, -1,
      117, 116, 118, -1,
      117, 118, 119, -1,
      119, 118, 112, -1,
      119, 112, 120, -1,
      120, 112, 110, -1,
      120, 110, 115, -1,
      115, 110, 116, -1,
      121, 122, 123, -1,
      123, 122, 124, -1,
      123, 124, 125, -1,
      125, 124, 118, -1,
      125, 118, 126, -1,
      126, 118, 116, -1,
      126, 116, 121, -1,
      121, 116, 122, -1,
      127, 128, 129, -1,
      129, 128, 130, -1,
      129, 130, 131, -1,
      131, 130, 124, -1,
      131, 124, 132, -1,
      132, 124, 122, -1,
      132, 122, 127, -1,
      127, 122, 128, -1,
      94, 130, 92, -1,
      92, 130, 133, -1,
      92, 133, 134, -1,
      134, 133, 135, -1,
      134, 135, 128, -1,
      128, 135, 136, -1,
      128, 136, 130, -1,
      130, 136, 137, -1,
      130, 137, 133, -1,
      82, 58, 138, -1,
      138, 58, 61, -1,
      138, 61, 139, -1,
      139, 61, 92, -1,
      139, 92, 140, -1,
      140, 92, 134, -1,
      140, 134, 141, -1,
      141, 134, 142, -1,
      141, 142, 83, -1,
      83, 142, 143, -1,
      83, 143, 58, -1,
      58, 143, 144, -1,
      58, 144, 80, -1,
      80, 144, 145, -1,
      80, 145, 1, -1,
      6, 146, 147, -1,
      146, 6, 148, -1,
      148, 6, 1, -1,
      148, 1, 149, -1,
      149, 1, 145, -1,
      149, 145, 147, -1,
      147, 145, 150, -1,
      147, 150, 6, -1,
      6, 150, 151, -1,
      6, 151, 52, -1,
      52, 152, 153, -1,
      152, 52, 154, -1,
      154, 52, 151, -1,
      154, 151, 155, -1,
      155, 151, 156, -1,
      155, 156, 153, -1,
      153, 156, 157, -1,
      153, 157, 52, -1,
      158, 159, 160, -1,
      160, 159, 161, -1,
      160, 161, 162, -1,
      162, 161, 157, -1,
      162, 157, 163, -1,
      163, 157, 156, -1,
      163, 156, 158, -1,
      158, 156, 159, -1,
      164, 165, 159, -1,
      166, 167, 161, -1,
      159, 165, 161, -1,
      161, 165, 168, -1,
      161, 168, 166, -1,
      166, 164, 169, -1,
      169, 164, 159, -1,
      169, 159, 170, -1,
      170, 159, 171, -1,
      170, 171, 172, -1,
      172, 171, 167, -1,
      172, 167, 173, -1,
      173, 167, 166, -1,
      173, 166, 169, -1,
      174, 175, 176, -1,
      176, 175, 177, -1,
      176, 177, 178, -1,
      178, 177, 167, -1,
      178, 167, 179, -1,
      179, 167, 171, -1,
      179, 171, 174, -1,
      174, 171, 175, -1,
      177, 180, 181, -1,
      180, 177, 182, -1,
      182, 177, 175, -1,
      182, 175, 183, -1,
      183, 175, 184, -1,
      183, 184, 181, -1,
      181, 184, 185, -1,
      181, 185, 177, -1,
      186, 187, 188, -1,
      187, 186, 189, -1,
      189, 186, 185, -1,
      189, 185, 190, -1,
      190, 185, 184, -1,
      190, 184, 188, -1,
      188, 184, 191, -1,
      188, 191, 186, -1,
      186, 191, 192, -1,
      186, 192, 193, -1,
      94, 96, 130, -1,
      130, 96, 194, -1,
      130, 194, 124, -1,
      124, 194, 195, -1,
      124, 195, 118, -1,
      118, 195, 196, -1,
      118, 196, 112, -1,
      112, 196, 197, -1,
      112, 197, 100, -1,
      100, 197, 198, -1,
      100, 198, 102, -1,
      199, 200, 201, -1,
      201, 200, 202, -1,
      201, 202, 0, -1,
      72, 203, 73, -1,
      73, 203, 81, -1,
      73, 81, 201, -1,
      201, 81, 80, -1,
      201, 80, 199, -1,
      199, 80, 204, -1,
      0, 202, 1, -1,
      1, 202, 205, -1,
      1, 205, 80, -1,
      80, 205, 206, -1,
      80, 206, 204, -1,
      207, 208, 209, -1,
      209, 208, 199, -1,
      209, 199, 210, -1,
      210, 199, 204, -1,
      210, 204, 211, -1,
      211, 204, 212, -1,
      49, 52, 50, -1,
      50, 52, 157, -1,
      50, 157, 213, -1,
      213, 157, 161, -1,
      213, 161, 214, -1,
      214, 161, 167, -1,
      214, 167, 215, -1,
      215, 167, 177, -1,
      215, 177, 216, -1,
      216, 177, 185, -1,
      216, 185, 217, -1,
      217, 185, 186, -1,
      217, 186, 218, -1,
      218, 186, 193, -1,
      218, 193, 219, -1,
      5, 54, 0, -1,
      0, 54, 220, -1,
      0, 220, 201, -1,
      201, 220, 221, -1,
      201, 221, 73, -1,
      73, 221, 222, -1,
      73, 222, 66, -1,
      66, 222, 223, -1,
      66, 223, 89, -1,
      89, 223, 224, -1,
      89, 224, 96, -1,
      96, 224, 225, -1,
      96, 225, 194, -1,
      194, 225, 226, -1,
      194, 226, 195, -1,
      195, 226, 227, -1,
      195, 227, 196, -1,
      196, 227, 228, -1,
      196, 228, 197, -1,
      197, 228, 229, -1,
      197, 229, 198, -1,
      19, 21, 56, -1,
      56, 21, 48, -1,
      56, 48, 57, -1,
      57, 48, 50, -1,
      57, 50, 230, -1,
      230, 50, 213, -1,
      230, 213, 231, -1,
      231, 213, 214, -1,
      231, 214, 232, -1,
      232, 214, 215, -1,
      232, 215, 233, -1,
      233, 215, 216, -1,
      233, 216, 234, -1,
      234, 216, 217, -1,
      234, 217, 235, -1,
      235, 217, 218, -1,
      235, 218, 236, -1,
      236, 218, 219, -1,
      236, 219, 237, -1,
    ]
  }
}

Shape {
  appearance Appearance {
    material Material {
      diffuseColor 0.8275 0.6667 0.1294
      specularColor 0.8275 0.6667 0.1294
      ambientIntensity 0.2
      transparency 0.0000
      shininess 0.5
    }
  }
  geometry IndexedFaceSet {
    ccw TRUE
    solid FALSE
    coord DEF co Coordinate {
      point [
        -0.161417 -0.019685 0.000000,
        -0.161417 0.019685 0.000000,
        -2.661417 0.019685 0.000000,
        -2.661417 -0.019685 0.000000,
        -2.838583 -0.019685 0.000000,
        -2.838583 0.019685 0.000000,
        -2.161417 0.019685 0.000000,
        -2.161417 -0.019685 0.000000,
        -2.338583 -0.019685 0.000000,
        -2.338583 0.019685 0.000000,
        -1.661417 0.019685 0.000000,
        -1.661417 -0.019685 0.000000,
        -1.838583 -0.019685 0.000000,
        -1.838583 0.019685 0.000000,
        -1.161417 0.019685 0.000000,
        -1.161417 -0.019685 0.000000,
        -1.338583 -0.019685 0.000000,
        -1.338583 0.019685 0.000000,
        -0.661417 -0.019685 0.000000,
        -0.661417 0.019685 0.000000,
        -0.838583 0.019685 0.000000,
        -0.838583 -0.019685 0.000000,
        -0.225658 -0.019685 0.000000,
        -0.338583 -0.019685 0.000000,
        -0.338583 0.019685 0.000000,
        -0.225658 0.019685 0.000000,
        0.338583 -0.019685 0.000000,
        0.338583 0.019685 0.000000,
        0.161417 -0.019685 0.000000,
        0.161417 0.019685 0.000000,
        0.661417 -0.019685 0.000000,
        0.838583 -0.019685 0.000000,
        0.661417 0.019685 0.000000,
        0.838583 0.019685 0.000000,
        1.338583 0.019685 0.000000,
        1.338583 -0.019685 0.000000,
        1.161417 -0.019685 0.000000,
        1.161417 0.019685 0.000000,
        1.838583 0.019685 0.000000,
        1.661417 0.019685 0.000000,
        1.838583 -0.019685 0.000000,
        1.661417 -0.019685 0.000000,
        2.161417 0.019685 0.000000,
        2.338583 0.019685 0.000000,
        2.338583 -0.019685 0.000000,
        2.161417 -0.019685 0.000000,
        2.838583 0.019685 0.000000,
        2.838583 -0.019685 0.000000,
        2.661417 -0.019685 0.000000,
        2.661417 0.019685 0.000000,
        3.161417 -0.019685 0.000000,
        3.338583 -0.019685 0.000000,
        3.161417 0.019685 0.000000,
        3.338583 0.019685 0.000000,
        3.838583 -0.019685 0.000000,
        3.838583 0.019685 0.000000,
        3.661417 -0.019685 0.000000,
        3.661417 0.019685 0.000000,
        3.750000 -0.019685 -0.944882,
        3.750000 0.019685 -0.944882,
        3.769712 0.019685 -0.942661,
        3.769712 -0.019685 -0.942661,
        3.788435 0.019685 -0.936109,
        3.788435 -0.019685 -0.936109,
        3.805230 0.019685 -0.925556,
        3.805230 -0.019685 -0.925556,
        3.819257 0.019685 -0.911530,
        3.819257 -0.019685 -0.911530,
        3.829810 0.019685 -0.894734,
        3.829810 -0.019685 -0.894734,
        3.836362 0.019685 -0.876011,
        3.836362 -0.019685 -0.876011,
        3.838583 0.019685 -0.856299,
        3.838583 -0.019685 -0.856299,
        3.727073 -0.019685 -0.941863,
        3.727073 0.019685 -0.941863,
        3.705709 -0.019685 -0.933014,
        3.705709 0.019685 -0.933014,
        3.687363 -0.019685 -0.918937,
        3.687363 0.019685 -0.918937,
        3.673285 -0.019685 -0.900591,
        3.673285 0.019685 -0.900591,
        3.664436 -0.019685 -0.879226,
        3.664436 0.019685 -0.879226,
        3.661417 -0.019685 -0.856299,
        3.661417 0.019685 -0.856299,
        3.250000 -0.019685 -0.944882,
        3.250000 0.019685 -0.944882,
        3.269711 0.019685 -0.942661,
        3.269711 -0.019685 -0.942661,
        3.288435 0.019685 -0.936109,
        3.288435 -0.019685 -0.936109,
        3.305231 0.019685 -0.925556,
        3.305231 -0.019685 -0.925556,
        3.319257 0.019685 -0.911530,
        3.319257 -0.019685 -0.911530,
        3.329811 0.019685 -0.894734,
        3.329811 -0.019685 -0.894734,
        3.336362 0.019685 -0.876011,
        3.336362 -0.019685 -0.876011,
        3.338583 0.019685 -0.856299,
        3.338583 -0.019685 -0.856299,
        3.227073 -0.019685 -0.941863,
        3.227073 0.019685 -0.941863,
        3.205709 -0.019685 -0.933014,
        3.205709 0.019685 -0.933014,
        3.187363 -0.019685 -0.918937,
        3.187363 0.019685 -0.918937,
        3.173285 -0.019685 -0.900591,
        3.173285 0.019685 -0.900591,
        3.164435 -0.019685 -0.879226,
        3.164435 0.019685 -0.879226,
        3.161417 -0.019685 -0.856299,
        3.161417 0.019685 -0.856299,
        2.750000 -0.019685 -0.944882,
        2.750000 0.019685 -0.944882,
        2.769711 0.019685 -0.942661,
        2.769711 -0.019685 -0.942661,
        2.788435 0.019685 -0.936109,
        2.788435 -0.019685 -0.936109,
        2.805230 0.019685 -0.925556,
        2.805230 -0.019685 -0.925556,
        2.819257 0.019685 -0.911530,
        2.819257 -0.019685 -0.911530,
        2.829810 0.019685 -0.894734,
        2.829810 -0.019685 -0.894734,
        2.836362 0.019685 -0.876011,
        2.836362 -0.019685 -0.876011,
        2.838583 0.019685 -0.856299,
        2.838583 -0.019685 -0.856299,
        2.727073 -0.019685 -0.941863,
        2.727073 0.019685 -0.941863,
        2.705709 -0.019685 -0.933014,
        2.705709 0.019685 -0.933014,
        2.687363 -0.019685 -0.918937,
        2.687363 0.019685 -0.918937,
        2.673285 -0.019685 -0.900591,
        2.673285 0.019685 -0.900591,
        2.664436 -0.019685 -0.879226,
        2.664436 0.019685 -0.879226,
        2.661417 -0.019685 -0.856299,
        2.661417 0.019685 -0.856299,
        2.250000 -0.019685 -0.944882,
        2.250000 0.019685 -0.944882,
        2.269712 0.019685 -0.942661,
        2.269712 -0.019685 -0.942661,
        2.288435 0.019685 -0.936109,
        2.288435 -0.019685 -0.936109,
        2.305230 0.019685 -0.925556,
        2.305230 -0.019685 -0.925556,
        2.319257 0.019685 -0.911530,
        2.319257 -0.019685 -0.911530,
        2.329810 0.019685 -0.894734,
        2.329810 -0.019685 -0.894734,
        2.336362 0.019685 -0.876011,
        2.336362 -0.019685 -0.876011,
        2.338583 0.019685 -0.856299,
        2.338583 -0.019685 -0.856299,
        2.227073 -0.019685 -0.941863,
        2.227073 0.019685 -0.941863,
        2.205709 -0.019685 -0.933014,
        2.205709 0.019685 -0.933014,
        2.187363 -0.019685 -0.918937,
        2.187363 0.019685 -0.918937,
        2.173285 -0.019685 -0.900591,
        2.173285 0.019685 -0.900591,
        2.164435 -0.019685 -0.879226,
        2.164435 0.019685 -0.879226,
        2.161417 -0.019685 -0.856299,
        2.161417 0.019685 -0.856299,
        1.750000 -0.019685 -0.944882,
        1.750000 0.019685 -0.944882,
        1.769711 0.019685 -0.942661,
        1.769711 -0.019685 -0.942661,
        1.788435 0.019685 -0.936109,
        1.788435 -0.019685 -0.936109,
        1.805230 0.019685 -0.925556,
        1.805230 -0.019685 -0.925556,
        1.819257 0.019685 -0.911530,
        1.819257 -0.019685 -0.911530,
        1.829810 0.019685 -0.894734,
        1.829810 -0.019685 -0.894734,
        1.836362 0.019685 -0.876011,
        1.836362 -0.019685 -0.876011,
        1.838583 0.019685 -0.856299,
        1.838583 -0.019685 -0.856299,
        1.727073 -0.019685 -0.941863,
        1.727073 0.019685 -0.941863,
        1.705709 -0.019685 -0.933014,
        1.705709 0.019685 -0.933014,
        1.687363 -0.019685 -0.918937,
        1.687363 0.019685 -0.918937,
        1.673285 -0.019685 -0.900591,
        1.673285 0.019685 -0.900591,
        1.664436 -0.019685 -0.879226,
        1.664436 0.019685 -0.879226,
        1.661417 -0.019685 -0.856299,
        1.661417 0.019685 -0.856299,
        1.250000 -0.019685 -0.944882,
        1.250000 0.019685 -0.944882,
        1.269711 0.019685 -0.942661,
        1.269711 -0.019685 -0.942661,
        1.288435 0.019685 -0.936109,
        1.288435 -0.019685 -0.936109,
        1.305230 0.019685 -0.925556,
        1.305230 -0.019685 -0.925556,
        1.319257 0.019685 -0.911530,
        1.319257 -0.019685 -0.911530,
        1.329810 0.019685 -0.894734,
        1.329810 -0.019685 -0.894734,
        1.336362 0.019685 -0.876011,
        1.336362 -0.019685 -0.876011,
        1.338583 0.019685 -0.856299,
        1.338583 -0.019685 -0.856299,
        1.227073 -0.019685 -0.941863,
        1.227073 0.019685 -0.941863,
        1.205709 -0.019685 -0.933014,
        1.205709 0.019685 -0.933014,
        1.187363 -0.019685 -0.918937,
        1.187363 0.019685 -0.918937,
        1.173285 -0.019685 -0.900591,
        1.173285 0.019685 -0.900591,
        1.164436 -0.019685 -0.879226,
        1.164436 0.019685 -0.879226,
        1.161417 -0.019685 -0.856299,
        1.161417 0.019685 -0.856299,
        0.750000 -0.019685 -0.944882,
        0.750000 0.019685 -0.944882,
        0.769711 0.019685 -0.942661,
        0.769711 -0.019685 -0.942661,
        0.788435 0.019685 -0.936109,
        0.788435 -0.019685 -0.936109,
        0.805230 0.019685 -0.925556,
        0.805230 -0.019685 -0.925556,
        0.819257 0.019685 -0.911530,
        0.819257 -0.019685 -0.911530,
        0.829810 0.019685 -0.894734,
        0.829810 -0.019685 -0.894734,
        0.836362 0.019685 -0.876011,
        0.836362 -0.019685 -0.876011,
        0.838583 0.019685 -0.856299,
        0.838583 -0.019685 -0.856299,
        0.727073 -0.019685 -0.941863,
        0.727073 0.019685 -0.941863,
        0.705709 -0.019685 -0.933014,
        0.705709 0.019685 -0.933014,
        0.687363 -0.019685 -0.918937,
        0.687363 0.019685 -0.918937,
        0.673285 -0.019685 -0.900591,
        0.673285 0.019685 -0.900591,
        0.664436 -0.019685 -0.879226,
        0.664436 0.019685 -0.879226,
        0.661417 -0.019685 -0.856299,
        0.661417 0.019685 -0.856299,
        0.250000 -0.019685 -0.944882,
        0.250000 0.019685 -0.944882,
        0.269711 0.019685 -0.942661,
        0.269711 -0.019685 -0.942661,
        0.288435 0.019685 -0.936109,
        0.288435 -0.019685 -0.936109,
        0.305230 0.019685 -0.925556,
        0.305230 -0.019685 -0.925556,
        0.319257 0.019685 -0.911530,
        0.319257 -0.019685 -0.911530,
        0.329810 0.019685 -0.894734,
        0.329810 -0.019685 -0.894734,
        0.336362 0.019685 -0.876011,
        0.336362 -0.019685 -0.876011,
        0.338583 0.019685 -0.856299,
        0.338583 -0.019685 -0.856299,
        0.227073 -0.019685 -0.941863,
        0.227073 0.019685 -0.941863,
        0.205709 -0.019685 -0.933014,
        0.205709 0.019685 -0.933014,
        0.187363 -0.019685 -0.918937,
        0.187363 0.019685 -0.918937,
        0.173285 -0.019685 -0.900591,
        0.173285 0.019685 -0.900591,
        0.164436 -0.019685 -0.879226,
        0.164436 0.019685 -0.879226,
        0.161417 -0.019685 -0.856299,
        0.161417 0.019685 -0.856299,
        -0.250000 -0.019685 -0.944882,
        -0.250000 0.019685 -0.944882,
        -0.230289 0.019685 -0.942661,
        -0.230289 -0.019685 -0.942661,
        -0.211565 0.019685 -0.936109,
        -0.211565 -0.019685 -0.936109,
        -0.194770 0.019685 -0.925556,
        -0.194770 -0.019685 -0.925556,
        -0.180743 0.019685 -0.911530,
        -0.180743 -0.019685 -0.911530,
        -0.170190 0.019685 -0.894734,
        -0.170190 -0.019685 -0.894734,
        -0.163638 0.019685 -0.876011,
        -0.163638 -0.019685 -0.876011,
        -0.161417 0.019685 -0.856299,
        -0.161417 -0.019685 -0.856299,
        -0.272927 -0.019685 -0.941863,
        -0.272927 0.019685 -0.941863,
        -0.294291 -0.019685 -0.933014,
        -0.294291 0.019685 -0.933014,
        -0.312637 -0.019685 -0.918937,
        -0.312637 0.019685 -0.918937,
        -0.326715 -0.019685 -0.900591,
        -0.326715 0.019685 -0.900591,
        -0.335564 -0.019685 -0.879226,
        -0.335564 0.019685 -0.879226,
        -0.338583 -0.019685 -0.856299,
        -0.338583 0.019685 -0.856299,
        -0.750000 -0.019685 -0.944882,
        -0.750000 0.019685 -0.944882,
        -0.730289 0.019685 -0.942661,
        -0.730289 -0.019685 -0.942661,
        -0.711565 0.019685 -0.936109,
        -0.711565 -0.019685 -0.936109,
        -0.694770 0.019685 -0.925556,
        -0.694770 -0.019685 -0.925556,
        -0.680743 0.019685 -0.911530,
        -0.680743 -0.019685 -0.911530,
        -0.670190 0.019685 -0.894734,
        -0.670190 -0.019685 -0.894734,
        -0.663638 0.019685 -0.876011,
        -0.663638 -0.019685 -0.876011,
        -0.661417 0.019685 -0.856299,
        -0.661417 -0.019685 -0.856299,
        -0.772927 -0.019685 -0.941863,
        -0.772927 0.019685 -0.941863,
        -0.794291 -0.019685 -0.933014,
        -0.794291 0.019685 -0.933014,
        -0.812637 -0.019685 -0.918937,
        -0.812637 0.019685 -0.918937,
        -0.826715 -0.019685 -0.900591,
        -0.826715 0.019685 -0.900591,
        -0.835564 -0.019685 -0.879226,
        -0.835564 0.019685 -0.879226,
        -0.838583 -0.019685 -0.856299,
        -0.838583 0.019685 -0.856299,
        -1.250000 -0.019685 -0.944882,
        -1.250000 0.019685 -0.944882,
        -1.230289 0.019685 -0.942661,
        -1.230289 -0.019685 -0.942661,
        -1.211565 0.019685 -0.936109,
        -1.211565 -0.019685 -0.936109,
        -1.194770 0.019685 -0.925556,
        -1.194770 -0.019685 -0.925556,
        -1.180743 0.019685 -0.911530,
        -1.180743 -0.019685 -0.911530,
        -1.170190 0.019685 -0.894734,
        -1.170190 -0.019685 -0.894734,
        -1.163638 0.019685 -0.876011,
        -1.163638 -0.019685 -0.876011,
        -1.161417 0.019685 -0.856299,
        -1.161417 -0.019685 -0.856299,
        -1.272927 -0.019685 -0.941863,
        -1.272927 0.019685 -0.941863,
        -1.294291 -0.019685 -0.933014,
        -1.294291 0.019685 -0.933014,
        -1.312637 -0.019685 -0.918937,
        -1.312637 0.019685 -0.918937,
        -1.326715 -0.019685 -0.900591,
        -1.326715 0.019685 -0.900591,
        -1.335565 -0.019685 -0.879226,
        -1.335565 0.019685 -0.879226,
        -1.338583 -0.019685 -0.856299,
        -1.338583 0.019685 -0.856299,
        -1.750000 -0.019685 -0.944882,
        -1.750000 0.019685 -0.944882,
        -1.730289 0.019685 -0.942661,
        -1.730289 -0.019685 -0.942661,
        -1.711565 0.019685 -0.936109,
        -1.711565 -0.019685 -0.936109,
        -1.694770 0.019685 -0.925556,
        -1.694770 -0.019685 -0.925556,
        -1.680743 0.019685 -0.911530,
        -1.680743 -0.019685 -0.911530,
        -1.670190 0.019685 -0.894734,
        -1.670190 -0.019685 -0.894734,
        -1.663638 0.019685 -0.876011,
        -1.663638 -0.019685 -0.876011,
        -1.661417 0.019685 -0.856299,
        -1.661417 -0.019685 -0.856299,
        -1.772927 -0.019685 -0.941863,
        -1.772927 0.019685 -0.941863,
        -1.794291 -0.019685 -0.933014,
        -1.794291 0.019685 -0.933014,
        -1.812637 -0.019685 -0.918937,
        -1.812637 0.019685 -0.918937,
        -1.826715 -0.019685 -0.900591,
        -1.826715 0.019685 -0.900591,
        -1.835564 -0.019685 -0.879226,
        -1.835564 0.019685 -0.879226,
        -1.838583 -0.019685 -0.856299,
        -1.838583 0.019685 -0.856299,
        -2.250000 -0.019685 -0.944882,
        -2.250000 0.019685 -0.944882,
        -2.230289 0.019685 -0.942661,
        -2.230289 -0.019685 -0.942661,
        -2.211565 0.019685 -0.936109,
        -2.211565 -0.019685 -0.936109,
        -2.194770 0.019685 -0.925556,
        -2.194770 -0.019685 -0.925556,
        -2.180743 0.019685 -0.911530,
        -2.180743 -0.019685 -0.911530,
        -2.170190 0.019685 -0.894734,
        -2.170190 -0.019685 -0.894734,
        -2.163638 0.019685 -0.876011,
        -2.163638 -0.019685 -0.876011,
        -2.161417 0.019685 -0.856299,
        -2.161417 -0.019685 -0.856299,
        -2.272927 -0.019685 -0.941863,
        -2.272927 0.019685 -0.941863,
        -2.294291 -0.019685 -0.933014,
        -2.294291 0.019685 -0.933014,
        -2.312637 -0.019685 -0.918937,
        -2.312637 0.019685 -0.918937,
        -2.326715 -0.019685 -0.900591,
        -2.326715 0.019685 -0.900591,
        -2.335564 -0.019685 -0.879226,
        -2.335564 0.019685 -0.879226,
        -2.338583 -0.019685 -0.856299,
        -2.338583 0.019685 -0.856299,
        -2.750000 -0.019685 -0.944882,
        -2.750000 0.019685 -0.944882,
        -2.730289 0.019685 -0.942661,
        -2.730289 -0.019685 -0.942661,
        -2.711565 0.019685 -0.936109,
        -2.711565 -0.019685 -0.936109,
        -2.694770 0.019685 -0.925556,
        -2.694770 -0.019685 -0.925556,
        -2.680743 0.019685 -0.911530,
        -2.680743 -0.019685 -0.911530,
        -2.670190 0.019685 -0.894734,
        -2.670190 -0.019685 -0.894734,
        -2.663638 0.019685 -0.876011,
        -2.663638 -0.019685 -0.876011,
        -2.661417 0.019685 -0.856299,
        -2.661417 -0.019685 -0.856299,
        -2.772927 -0.019685 -0.941863,
        -2.772927 0.019685 -0.941863,
        -2.794291 -0.019685 -0.933014,
        -2.794291 0.019685 -0.933014,
        -2.812637 -0.019685 -0.918937,
        -2.812637 0.019685 -0.918937,
        -2.826715 -0.019685 -0.900591,
        -2.826715 0.019685 -0.900591,
        -2.835564 -0.019685 -0.879226,
        -2.835564 0.019685 -0.879226,
        -2.838583 -0.019685 -0.856299,
        -2.838583 0.019685 -0.856299,
      ]
    }
    coordIndex [
      58, 59, 60, -1,
      58, 60, 61, -1,
      61, 60, 62, -1,
      61, 62, 63, -1,
      63, 62, 64, -1,
      63, 64, 65, -1,
      65, 64, 66, -1,
      65, 66, 67, -1,
      67, 66, 68, -1,
      67, 68, 69, -1,
      69, 68, 70, -1,
      69, 70, 71, -1,
      71, 70, 72, -1,
      71, 72, 73, -1,
      59, 58, 74, -1,
      59, 74, 75, -1,
      75, 74, 76, -1,
      75, 76, 77, -1,
      77, 76, 78, -1,
      77, 78, 79, -1,
      79, 78, 80, -1,
      79, 80, 81, -1,
      81, 80, 82, -1,
      81, 82, 83, -1,
      83, 82, 84, -1,
      83, 84, 85, -1,
      57, 55, 85, -1,
      85, 55, 72, -1,
      72, 70, 85, -1,
      85, 70, 68, -1,
      85, 68, 66, -1,
      66, 64, 85, -1,
      85, 64, 62, -1,
      85, 62, 60, -1,
      60, 59, 85, -1,
      85, 59, 75, -1,
      85, 75, 77, -1,
      77, 79, 85, -1,
      85, 79, 81, -1,
      85, 81, 83, -1,
      84, 56, 85, -1,
      85, 56, 57, -1,
      54, 56, 73, -1,
      73, 56, 84, -1,
      73, 84, 71, -1,
      65, 84, 63, -1,
      63, 84, 61, -1,
      65, 67, 84, -1,
      84, 67, 69, -1,
      84, 69, 71, -1,
      76, 74, 84, -1,
      84, 74, 58, -1,
      84, 58, 61, -1,
      82, 80, 84, -1,
      84, 80, 78, -1,
      84, 78, 76, -1,
      72, 55, 73, -1,
      73, 55, 54, -1,
      86, 87, 88, -1,
      86, 88, 89, -1,
      89, 88, 90, -1,
      89, 90, 91, -1,
      91, 90, 92, -1,
      91, 92, 93, -1,
      93, 92, 94, -1,
      93, 94, 95, -1,
      95, 94, 96, -1,
      95, 96, 97, -1,
      97, 96, 98, -1,
      97, 98, 99, -1,
      99, 98, 100, -1,
      99, 100, 101, -1,
      87, 86, 102, -1,
      87, 102, 103, -1,
      103, 102, 104, -1,
      103, 104, 105, -1,
      105, 104, 106, -1,
      105, 106, 107, -1,
      107, 106, 108, -1,
      107, 108, 109, -1,
      109, 108, 110, -1,
      109, 110, 111, -1,
      111, 110, 112, -1,
      111, 112, 113, -1,
      52, 53, 113, -1,
      113, 53, 100, -1,
      100, 98, 113, -1,
      113, 98, 96, -1,
      113, 96, 94, -1,
      94, 92, 113, -1,
      113, 92, 90, -1,
      113, 90, 88, -1,
      88, 87, 113, -1,
      113, 87, 103, -1,
      113, 103, 105, -1,
      105, 107, 113, -1,
      113, 107, 109, -1,
      113, 109, 111, -1,
      112, 50, 113, -1,
      113, 50, 52, -1,
      51, 50, 101, -1,
      101, 50, 112, -1,
      101, 112, 99, -1,
      93, 112, 91, -1,
      91, 112, 89, -1,
      93, 95, 112, -1,
      112, 95, 97, -1,
      112, 97, 99, -1,
      104, 102, 112, -1,
      112, 102, 86, -1,
      112, 86, 89, -1,
      110, 108, 112, -1,
      112, 108, 106, -1,
      112, 106, 104, -1,
      100, 53, 101, -1,
      101, 53, 51, -1,
      114, 115, 116, -1,
      114, 116, 117, -1,
      117, 116, 118, -1,
      117, 118, 119, -1,
      119, 118, 120, -1,
      119, 120, 121, -1,
      121, 120, 122, -1,
      121, 122, 123, -1,
      123, 122, 124, -1,
      123, 124, 125, -1,
      125, 124, 126, -1,
      125, 126, 127, -1,
      127, 126, 128, -1,
      127, 128, 129, -1,
      115, 114, 130, -1,
      115, 130, 131, -1,
      131, 130, 132, -1,
      131, 132, 133, -1,
      133, 132, 134, -1,
      133, 134, 135, -1,
      135, 134, 136, -1,
      135, 136, 137, -1,
      137, 136, 138, -1,
      137, 138, 139, -1,
      139, 138, 140, -1,
      139, 140, 141, -1,
      141, 49, 46, -1,
      46, 128, 141, -1,
      141, 128, 126, -1,
      141, 126, 124, -1,
      141, 118, 116, -1,
      124, 122, 141, -1,
      141, 122, 120, -1,
      141, 120, 118, -1,
      116, 115, 141, -1,
      141, 115, 131, -1,
      141, 131, 133, -1,
      133, 135, 141, -1,
      141, 135, 137, -1,
      141, 137, 139, -1,
      140, 48, 141, -1,
      141, 48, 49, -1,
      47, 48, 129, -1,
      129, 48, 140, -1,
      129, 140, 127, -1,
      117, 119, 140, -1,
      140, 119, 121, -1,
      121, 123, 140, -1,
      140, 123, 125, -1,
      140, 125, 127, -1,
      132, 130, 140, -1,
      140, 130, 114, -1,
      140, 114, 117, -1,
      138, 136, 140, -1,
      140, 136, 134, -1,
      140, 134, 132, -1,
      128, 46, 129, -1,
      129, 46, 47, -1,
      142, 143, 144, -1,
      142, 144, 145, -1,
      145, 144, 146, -1,
      145, 146, 147, -1,
      147, 146, 148, -1,
      147, 148, 149, -1,
      149, 148, 150, -1,
      149, 150, 151, -1,
      151, 150, 152, -1,
      151, 152, 153, -1,
      153, 152, 154, -1,
      153, 154, 155, -1,
      155, 154, 156, -1,
      155, 156, 157, -1,
      143, 142, 158, -1,
      143, 158, 159, -1,
      159, 158, 160, -1,
      159, 160, 161, -1,
      161, 160, 162, -1,
      161, 162, 163, -1,
      163, 162, 164, -1,
      163, 164, 165, -1,
      165, 164, 166, -1,
      165, 166, 167, -1,
      167, 166, 168, -1,
      167, 168, 169, -1,
      169, 42, 43, -1,
      43, 156, 169, -1,
      169, 156, 154, -1,
      169, 154, 152, -1,
      169, 146, 144, -1,
      152, 150, 169, -1,
      169, 150, 148, -1,
      169, 148, 146, -1,
      144, 143, 169, -1,
      169, 143, 159, -1,
      169, 159, 161, -1,
      161, 163, 169, -1,
      169, 163, 165, -1,
      169, 165, 167, -1,
      168, 45, 169, -1,
      169, 45, 42, -1,
      44, 45, 157, -1,
      157, 45, 168, -1,
      157, 168, 155, -1,
      145, 147, 168, -1,
      168, 147, 149, -1,
      149, 151, 168, -1,
      168, 151, 153, -1,
      168, 153, 155, -1,
      160, 158, 168, -1,
      168, 158, 142, -1,
      168, 142, 145, -1,
      166, 164, 168, -1,
      168, 164, 162, -1,
      168, 162, 160, -1,
      156, 43, 157, -1,
      157, 43, 44, -1,
      170, 171, 172, -1,
      170, 172, 173, -1,
      173, 172, 174, -1,
      173, 174, 175, -1,
      175, 174, 176, -1,
      175, 176, 177, -1,
      177, 176, 178, -1,
      177, 178, 179, -1,
      179, 178, 180, -1,
      179, 180, 181, -1,
      181, 180, 182, -1,
      181, 182, 183, -1,
      183, 182, 184, -1,
      183, 184, 185, -1,
      171, 170, 186, -1,
      171, 186, 187, -1,
      187, 186, 188, -1,
      187, 188, 189, -1,
      189, 188, 190, -1,
      189, 190, 191, -1,
      191, 190, 192, -1,
      191, 192, 193, -1,
      193, 192, 194, -1,
      193, 194, 195, -1,
      195, 194, 196, -1,
      195, 196, 197, -1,
      197, 39, 38, -1,
      38, 184, 197, -1,
      197, 184, 182, -1,
      197, 182, 180, -1,
      197, 174, 172, -1,
      180, 178, 197, -1,
      197, 178, 176, -1,
      197, 176, 174, -1,
      172, 171, 197, -1,
      197, 171, 187, -1,
      197, 187, 189, -1,
      189, 191, 197, -1,
      197, 191, 193, -1,
      197, 193, 195, -1,
      196, 41, 197, -1,
      197, 41, 39, -1,
      40, 41, 185, -1,
      185, 41, 196, -1,
      185, 196, 183, -1,
      173, 175, 196, -1,
      196, 175, 177, -1,
      177, 179, 196, -1,
      196, 179, 181, -1,
      196, 181, 183, -1,
      188, 186, 196, -1,
      196, 186, 170, -1,
      196, 170, 173, -1,
      194, 192, 196, -1,
      196, 192, 190, -1,
      196, 190, 188, -1,
      184, 38, 185, -1,
      185, 38, 40, -1,
      198, 199, 200, -1,
      198, 200, 201, -1,
      201, 200, 202, -1,
      201, 202, 203, -1,
      203, 202, 204, -1,
      203, 204, 205, -1,
      205, 204, 206, -1,
      205, 206, 207, -1,
      207, 206, 208, -1,
      207, 208, 209, -1,
      209, 208, 210, -1,
      209, 210, 211, -1,
      211, 210, 212, -1,
      211, 212, 213, -1,
      199, 198, 214, -1,
      199, 214, 215, -1,
      215, 214, 216, -1,
      215, 216, 217, -1,
      217, 216, 218, -1,
      217, 218, 219, -1,
      219, 218, 220, -1,
      219, 220, 221, -1,
      221, 220, 222, -1,
      221, 222, 223, -1,
      223, 222, 224, -1,
      223, 224, 225, -1,
      37, 34, 225, -1,
      225, 34, 212, -1,
      223, 225, 199, -1,
      199, 225, 200, -1,
      212, 210, 225, -1,
      225, 210, 208, -1,
      225, 208, 206, -1,
      206, 204, 225, -1,
      225, 204, 202, -1,
      225, 202, 200, -1,
      199, 215, 217, -1,
      217, 219, 199, -1,
      199, 219, 221, -1,
      199, 221, 223, -1,
      224, 36, 225, -1,
      225, 36, 37, -1,
      201, 203, 224, -1,
      203, 205, 224, -1,
      224, 205, 207, -1,
      224, 207, 209, -1,
      35, 36, 213, -1,
      213, 36, 224, -1,
      213, 224, 211, -1,
      211, 224, 209, -1,
      201, 224, 198, -1,
      198, 224, 222, -1,
      198, 222, 220, -1,
      220, 218, 198, -1,
      198, 218, 216, -1,
      198, 216, 214, -1,
      212, 34, 213, -1,
      213, 34, 35, -1,
      226, 227, 228, -1,
      226, 228, 229, -1,
      229, 228, 230, -1,
      229, 230, 231, -1,
      231, 230, 232, -1,
      231, 232, 233, -1,
      233, 232, 234, -1,
      233, 234, 235, -1,
      235, 234, 236, -1,
      235, 236, 237, -1,
      237, 236, 238, -1,
      237, 238, 239, -1,
      239, 238, 240, -1,
      239, 240, 241, -1,
      227, 226, 242, -1,
      227, 242, 243, -1,
      243, 242, 244, -1,
      243, 244, 245, -1,
      245, 244, 246, -1,
      245, 246, 247, -1,
      247, 246, 248, -1,
      247, 248, 249, -1,
      249, 248, 250, -1,
      249, 250, 251, -1,
      251, 250, 252, -1,
      251, 252, 253, -1,
      32, 33, 253, -1,
      253, 33, 240, -1,
      253, 228, 227, -1,
      240, 238, 253, -1,
      253, 238, 236, -1,
      253, 236, 234, -1,
      234, 232, 253, -1,
      253, 232, 230, -1,
      253, 230, 228, -1,
      245, 247, 243, -1,
      243, 247, 249, -1,
      243, 249, 227, -1,
      227, 249, 251, -1,
      227, 251, 253, -1,
      252, 30, 253, -1,
      253, 30, 32, -1,
      231, 233, 252, -1,
      252, 233, 235, -1,
      252, 235, 237, -1,
      31, 30, 241, -1,
      241, 30, 252, -1,
      241, 252, 239, -1,
      239, 252, 237, -1,
      250, 226, 252, -1,
      252, 226, 229, -1,
      252, 229, 231, -1,
      250, 248, 226, -1,
      226, 248, 246, -1,
      226, 246, 242, -1,
      242, 246, 244, -1,
      240, 33, 241, -1,
      241, 33, 31, -1,
      254, 255, 256, -1,
      254, 256, 257, -1,
      257, 256, 258, -1,
      257, 258, 259, -1,
      259, 258, 260, -1,
      259, 260, 261, -1,
      261, 260, 262, -1,
      261, 262, 263, -1,
      263, 262, 264, -1,
      263, 264, 265, -1,
      265, 264, 266, -1,
      265, 266, 267, -1,
      267, 266, 268, -1,
      267, 268, 269, -1,
      255, 254, 270, -1,
      255, 270, 271, -1,
      271, 270, 272, -1,
      271, 272, 273, -1,
      273, 272, 274, -1,
      273, 274, 275, -1,
      275, 274, 276, -1,
      275, 276, 277, -1,
      277, 276, 278, -1,
      277, 278, 279, -1,
      279, 278, 280, -1,
      279, 280, 281, -1,
      281, 29, 27, -1,
      27, 268, 281, -1,
      281, 268, 266, -1,
      281, 266, 264, -1,
      264, 262, 281, -1,
      281, 262, 260, -1,
      281, 260, 258, -1,
      258, 256, 281, -1,
      281, 256, 255, -1,
      281, 255, 279, -1,
      279, 255, 277, -1,
      277, 255, 275, -1,
      275, 255, 271, -1,
      275, 271, 273, -1,
      280, 28, 281, -1,
      281, 28, 29, -1,
      257, 259, 280, -1,
      259, 261, 280, -1,
      280, 261, 263, -1,
      280, 263, 265, -1,
      26, 28, 269, -1,
      269, 28, 280, -1,
      269, 280, 267, -1,
      267, 280, 265, -1,
      257, 280, 254, -1,
      254, 280, 278, -1,
      254, 278, 276, -1,
      276, 274, 254, -1,
      254, 274, 272, -1,
      254, 272, 270, -1,
      268, 27, 269, -1,
      269, 27, 26, -1,
      282, 283, 284, -1,
      282, 284, 285, -1,
      285, 284, 286, -1,
      285, 286, 287, -1,
      287, 286, 288, -1,
      287, 288, 289, -1,
      289, 288, 290, -1,
      289, 290, 291, -1,
      291, 290, 292, -1,
      291, 292, 293, -1,
      293, 292, 294, -1,
      293, 294, 295, -1,
      295, 294, 296, -1,
      295, 296, 297, -1,
      283, 282, 298, -1,
      283, 298, 299, -1,
      299, 298, 300, -1,
      299, 300, 301, -1,
      301, 300, 302, -1,
      301, 302, 303, -1,
      303, 302, 304, -1,
      303, 304, 305, -1,
      305, 304, 306, -1,
      305, 306, 307, -1,
      307, 306, 308, -1,
      307, 308, 309, -1,
      286, 284, 296, -1,
      309, 24, 25, -1,
      296, 284, 1, -1,
      294, 292, 290, -1,
      305, 307, 283, -1,
      283, 307, 309, -1,
      283, 309, 284, -1,
      284, 309, 25, -1,
      284, 25, 1, -1,
      294, 290, 296, -1,
      296, 290, 288, -1,
      296, 288, 286, -1,
      305, 283, 303, -1,
      303, 283, 299, -1,
      303, 299, 301, -1,
      308, 23, 309, -1,
      309, 23, 24, -1,
      297, 0, 22, -1,
      22, 285, 297, -1,
      297, 285, 287, -1,
      297, 287, 289, -1,
      289, 291, 297, -1,
      297, 291, 293, -1,
      297, 293, 295, -1,
      22, 23, 285, -1,
      285, 23, 308, -1,
      285, 308, 282, -1,
      282, 308, 306, -1,
      282, 306, 304, -1,
      304, 302, 282, -1,
      282, 302, 300, -1,
      282, 300, 298, -1,
      296, 1, 297, -1,
      297, 1, 0, -1,
      310, 311, 312, -1,
      310, 312, 313, -1,
      313, 312, 314, -1,
      313, 314, 315, -1,
      315, 314, 316, -1,
      315, 316, 317, -1,
      317, 316, 318, -1,
      317, 318, 319, -1,
      319, 318, 320, -1,
      319, 320, 321, -1,
      321, 320, 322, -1,
      321, 322, 323, -1,
      323, 322, 324, -1,
      323, 324, 325, -1,
      311, 310, 326, -1,
      311, 326, 327, -1,
      327, 326, 328, -1,
      327, 328, 329, -1,
      329, 328, 330, -1,
      329, 330, 331, -1,
      331, 330, 332, -1,
      331, 332, 333, -1,
      333, 332, 334, -1,
      333, 334, 335, -1,
      335, 334, 336, -1,
      335, 336, 337, -1,
      337, 20, 19, -1,
      19, 324, 337, -1,
      337, 324, 322, -1,
      337, 322, 320, -1,
      314, 312, 337, -1,
      337, 312, 311, -1,
      337, 311, 335, -1,
      320, 318, 337, -1,
      337, 318, 316, -1,
      337, 316, 314, -1,
      311, 327, 329, -1,
      329, 331, 311, -1,
      311, 331, 333, -1,
      311, 333, 335, -1,
      336, 21, 337, -1,
      337, 21, 20, -1,
      18, 21, 325, -1,
      325, 21, 336, -1,
      325, 336, 323, -1,
      313, 315, 336, -1,
      336, 315, 317, -1,
      317, 319, 336, -1,
      336, 319, 321, -1,
      336, 321, 323, -1,
      313, 336, 310, -1,
      310, 336, 334, -1,
      310, 334, 332, -1,
      332, 330, 310, -1,
      310, 330, 328, -1,
      310, 328, 326, -1,
      324, 19, 325, -1,
      325, 19, 18, -1,
      338, 339, 340, -1,
      338, 340, 341, -1,
      341, 340, 342, -1,
      341, 342, 343, -1,
      343, 342, 344, -1,
      343, 344, 345, -1,
      345, 344, 346, -1,
      345, 346, 347, -1,
      347, 346, 348, -1,
      347, 348, 349, -1,
      349, 348, 350, -1,
      349, 350, 351, -1,
      351, 350, 352, -1,
      351, 352, 353, -1,
      339, 338, 354, -1,
      339, 354, 355, -1,
      355, 354, 356, -1,
      355, 356, 357, -1,
      357, 356, 358, -1,
      357, 358, 359, -1,
      359, 358, 360, -1,
      359, 360, 361, -1,
      361, 360, 362, -1,
      361, 362, 363, -1,
      363, 362, 364, -1,
      363, 364, 365, -1,
      17, 14, 365, -1,
      365, 14, 352, -1,
      363, 365, 339, -1,
      339, 365, 340, -1,
      352, 350, 365, -1,
      365, 350, 348, -1,
      365, 348, 346, -1,
      346, 344, 365, -1,
      365, 344, 342, -1,
      365, 342, 340, -1,
      339, 355, 357, -1,
      357, 359, 339, -1,
      339, 359, 361, -1,
      339, 361, 363, -1,
      364, 16, 365, -1,
      365, 16, 17, -1,
      341, 343, 364, -1,
      343, 345, 364, -1,
      364, 345, 347, -1,
      364, 347, 349, -1,
      15, 16, 353, -1,
      353, 16, 364, -1,
      353, 364, 351, -1,
      351, 364, 349, -1,
      341, 364, 338, -1,
      338, 364, 362, -1,
      338, 362, 360, -1,
      360, 358, 338, -1,
      338, 358, 356, -1,
      338, 356, 354, -1,
      352, 14, 353, -1,
      353, 14, 15, -1,
      366, 367, 368, -1,
      366, 368, 369, -1,
      369, 368, 370, -1,
      369, 370, 371, -1,
      371, 370, 372, -1,
      371, 372, 373, -1,
      373, 372, 374, -1,
      373, 374, 375, -1,
      375, 374, 376, -1,
      375, 376, 377, -1,
      377, 376, 378, -1,
      377, 378, 379, -1,
      379, 378, 380, -1,
      379, 380, 381, -1,
      367, 366, 382, -1,
      367, 382, 383, -1,
      383, 382, 384, -1,
      383, 384, 385, -1,
      385, 384, 386, -1,
      385, 386, 387, -1,
      387, 386, 388, -1,
      387, 388, 389, -1,
      389, 388, 390, -1,
      389, 390, 391, -1,
      391, 390, 392, -1,
      391, 392, 393, -1,
      393, 13, 10, -1,
      10, 380, 393, -1,
      393, 380, 378, -1,
      393, 378, 376, -1,
      393, 370, 368, -1,
      376, 374, 393, -1,
      393, 374, 372, -1,
      393, 372, 370, -1,
      368, 367, 393, -1,
      393, 367, 383, -1,
      393, 383, 385, -1,
      385, 387, 393, -1,
      393, 387, 389, -1,
      393, 389, 391, -1,
      392, 12, 393, -1,
      393, 12, 13, -1,
      11, 12, 381, -1,
      381, 12, 392, -1,
      381, 392, 379, -1,
      369, 371, 392, -1,
      392, 371, 373, -1,
      373, 375, 392, -1,
      392, 375, 377, -1,
      392, 377, 379, -1,
      384, 382, 392, -1,
      392, 382, 366, -1,
      392, 366, 369, -1,
      390, 388, 392, -1,
      392, 388, 386, -1,
      392, 386, 384, -1,
      380, 10, 381, -1,
      381, 10, 11, -1,
      394, 395, 396, -1,
      394, 396, 397, -1,
      397, 396, 398, -1,
      397, 398, 399, -1,
      399, 398, 400, -1,
      399, 400, 401, -1,
      401, 400, 402, -1,
      401, 402, 403, -1,
      403, 402, 404, -1,
      403, 404, 405, -1,
      405, 404, 406, -1,
      405, 406, 407, -1,
      407, 406, 408, -1,
      407, 408, 409, -1,
      395, 394, 410, -1,
      395, 410, 411, -1,
      411, 410, 412, -1,
      411, 412, 413, -1,
      413, 412, 414, -1,
      413, 414, 415, -1,
      415, 414, 416, -1,
      415, 416, 417, -1,
      417, 416, 418, -1,
      417, 418, 419, -1,
      419, 418, 420, -1,
      419, 420, 421, -1,
      421, 9, 6, -1,
      6, 408, 421, -1,
      421, 408, 406, -1,
      421, 406, 404, -1,
      421, 398, 396, -1,
      404, 402, 421, -1,
      421, 402, 400, -1,
      421, 400, 398, -1,
      396, 395, 421, -1,
      421, 395, 411, -1,
      421, 411, 413, -1,
      413, 415, 421, -1,
      421, 415, 417, -1,
      421, 417, 419, -1,
      420, 8, 421, -1,
      421, 8, 9, -1,
      7, 8, 409, -1,
      409, 8, 420, -1,
      409, 420, 407, -1,
      397, 399, 420, -1,
      420, 399, 401, -1,
      401, 403, 420, -1,
      420, 403, 405, -1,
      420, 405, 407, -1,
      412, 410, 420, -1,
      420, 410, 394, -1,
      420, 394, 397, -1,
      418, 416, 420, -1,
      420, 416, 414, -1,
      420, 414, 412, -1,
      408, 6, 409, -1,
      409, 6, 7, -1,
      422, 423, 424, -1,
      422, 424, 425, -1,
      425, 424, 426, -1,
      425, 426, 427, -1,
      427, 426, 428, -1,
      427, 428, 429, -1,
      429, 428, 430, -1,
      429, 430, 431, -1,
      431, 430, 432, -1,
      431, 432, 433, -1,
      433, 432, 434, -1,
      433, 434, 435, -1,
      435, 434, 436, -1,
      435, 436, 437, -1,
      423, 422, 438, -1,
      423, 438, 439, -1,
      439, 438, 440, -1,
      439, 440, 441, -1,
      441, 440, 442, -1,
      441, 442, 443, -1,
      443, 442, 444, -1,
      443, 444, 445, -1,
      445, 444, 446, -1,
      445, 446, 447, -1,
      447, 446, 448, -1,
      447, 448, 449, -1,
      449, 5, 2, -1,
      2, 436, 449, -1,
      449, 436, 434, -1,
      449, 434, 432, -1,
      449, 426, 424, -1,
      432, 430, 449, -1,
      449, 430, 428, -1,
      449, 428, 426, -1,
      424, 423, 449, -1,
      449, 423, 439, -1,
      449, 439, 441, -1,
      441, 443, 449, -1,
      449, 443, 445, -1,
      449, 445, 447, -1,
      448, 4, 449, -1,
      449, 4, 5, -1,
      3, 4, 437, -1,
      437, 4, 448, -1,
      437, 448, 435, -1,
      425, 427, 448, -1,
      448, 427, 429, -1,
      429, 431, 448, -1,
      448, 431, 433, -1,
      448, 433, 435, -1,
      440, 438, 448, -1,
      448, 438, 422, -1,
      448, 422, 425, -1,
      446, 444, 448, -1,
      448, 444, 442, -1,
      448, 442, 440, -1,
      436, 2, 437, -1,
      437, 2, 3, -1,
    ]
  }
}

Shape {
  appearance Appearance {
    material Material {
      diffuseColor 0.2078 0.2078 0.2078
      specularColor 0.0157 0.0157 0.0157
      ambientIntensity 0.2
      transparency 0.0000
      shininess 0.5
    }
  }
  geometry IndexedFaceSet {
    ccw TRUE
    solid FALSE
    coord DEF co Coordinate {
      point [
        -4.078740 0.413386 0.000000,
        4.078740 0.413386 0.000000,
        -4.078740 -0.413386 0.000000,
        4.078740 -0.413386 0.000000,
        3.572835 -0.177165 1.692913,
        3.651575 -0.098425 1.614173,
        3.572835 0.177165 1.692913,
        3.651575 0.098425 1.614173,
        3.848425 -0.098425 1.614173,
        3.927165 -0.177165 1.692913,
        3.927165 0.177165 1.692913,
        3.848425 0.098425 1.614173,
        3.651575 0.098425 0.511811,
        3.848425 0.098425 0.511811,
        3.651575 -0.098425 0.511811,
        3.848425 -0.098425 0.511811,
        3.072835 -0.177165 1.692913,
        3.151575 -0.098425 1.614173,
        3.072835 0.177165 1.692913,
        3.151575 0.098425 1.614173,
        3.348425 -0.098425 1.614173,
        3.427165 -0.177165 1.692913,
        3.427165 0.177165 1.692913,
        3.348425 0.098425 1.614173,
        3.151575 0.098425 0.511811,
        3.348425 0.098425 0.511811,
        3.151575 -0.098425 0.511811,
        3.348425 -0.098425 0.511811,
        2.572835 -0.177165 1.692913,
        2.651575 -0.098425 1.614173,
        2.572835 0.177165 1.692913,
        2.651575 0.098425 1.614173,
        2.848425 -0.098425 1.614173,
        2.927165 -0.177165 1.692913,
        2.927165 0.177165 1.692913,
        2.848425 0.098425 1.614173,
        2.651575 0.098425 0.511811,
        2.848425 0.098425 0.511811,
        2.651575 -0.098425 0.511811,
        2.848425 -0.098425 0.511811,
        2.072835 -0.177165 1.692913,
        2.151575 -0.098425 1.614173,
        2.072835 0.177165 1.692913,
        2.151575 0.098425 1.614173,
        2.348425 -0.098425 1.614173,
        2.427165 -0.177165 1.692913,
        2.427165 0.177165 1.692913,
        2.348425 0.098425 1.614173,
        2.151575 0.098425 0.511811,
        2.348425 0.098425 0.511811,
        2.151575 -0.098425 0.511811,
        2.348425 -0.098425 0.511811,
        1.572835 -0.177165 1.692913,
        1.651575 -0.098425 1.614173,
        1.572835 0.177165 1.692913,
        1.651575 0.098425 1.614173,
        1.848425 -0.098425 1.614173,
        1.927165 -0.177165 1.692913,
        1.927165 0.177165 1.692913,
        1.848425 0.098425 1.614173,
        1.651575 0.098425 0.511811,
        1.848425 0.098425 0.511811,
        1.651575 -0.098425 0.511811,
        1.848425 -0.098425 0.511811,
        1.072835 -0.177165 1.692913,
        1.151575 -0.098425 1.614173,
        1.072835 0.177165 1.692913,
        1.151575 0.098425 1.614173,
        1.348425 -0.098425 1.614173,
        1.427165 -0.177165 1.692913,
        1.427165 0.177165 1.692913,
        1.348425 0.098425 1.614173,
        1.151575 0.098425 0.511811,
        1.348425 0.098425 0.511811,
        1.151575 -0.098425 0.511811,
        1.348425 -0.098425 0.511811,
        0.572835 -0.177165 1.692913,
        0.651575 -0.098425 1.614173,
        0.572835 0.177165 1.692913,
        0.651575 0.098425 1.614173,
        0.848425 -0.098425 1.614173,
        0.927165 -0.177165 1.692913,
        0.927165 0.177165 1.692913,
        0.848425 0.098425 1.614173,
        0.651575 0.098425 0.511811,
        0.848425 0.098425 0.511811,
        0.651575 -0.098425 0.511811,
        0.848425 -0.098425 0.511811,
        0.072835 -0.177165 1.692913,
        0.151575 -0.098425 1.614173,
        0.072835 0.177165 1.692913,
        0.151575 0.098425 1.614173,
        0.348425 -0.098425 1.614173,
        0.427165 -0.177165 1.692913,
        0.427165 0.177165 1.692913,
        0.348425 0.098425 1.614173,
        0.151575 0.098425 0.511811,
        0.348425 0.098425 0.511811,
        0.151575 -0.098425 0.511811,
        0.348425 -0.098425 0.511811,
        -0.427165 -0.177165 1.692913,
        -0.348425 -0.098425 1.614173,
        -0.427165 0.177165 1.692913,
        -0.348425 0.098425 1.614173,
        -0.151575 -0.098425 1.614173,
        -0.072835 -0.177165 1.692913,
        -0.072835 0.177165 1.692913,
        -0.151575 0.098425 1.614173,
        -0.348425 0.098425 0.511811,
        -0.151575 0.098425 0.511811,
        -0.348425 -0.098425 0.511811,
        -0.151575 -0.098425 0.511811,
        -0.927165 -0.177165 1.692913,
        -0.848425 -0.098425 1.614173,
        -0.927165 0.177165 1.692913,
        -0.848425 0.098425 1.614173,
        -0.651575 -0.098425 1.614173,
        -0.572835 -0.177165 1.692913,
        -0.572835 0.177165 1.692913,
        -0.651575 0.098425 1.614173,
        -0.848425 0.098425 0.511811,
        -0.651575 0.098425 0.511811,
        -0.848425 -0.098425 0.511811,
        -0.651575 -0.098425 0.511811,
        -1.427165 -0.177165 1.692913,
        -1.348425 -0.098425 1.614173,
        -1.427165 0.177165 1.692913,
        -1.348425 0.098425 1.614173,
        -1.151575 -0.098425 1.614173,
        -1.072835 -0.177165 1.692913,
        -1.072835 0.177165 1.692913,
        -1.151575 0.098425 1.614173,
        -1.348425 0.098425 0.511811,
        -1.151575 0.098425 0.511811,
        -1.348425 -0.098425 0.511811,
        -1.151575 -0.098425 0.511811,
        -1.927165 -0.177165 1.692913,
        -1.848425 -0.098425 1.614173,
        -1.927165 0.177165 1.692913,
        -1.848425 0.098425 1.614173,
        -1.651575 -0.098425 1.614173,
        -1.572835 -0.177165 1.692913,
        -1.572835 0.177165 1.692913,
        -1.651575 0.098425 1.614173,
        -1.848425 0.098425 0.511811,
        -1.651575 0.098425 0.511811,
        -1.848425 -0.098425 0.511811,
        -1.651575 -0.098425 0.511811,
        -2.427165 -0.177165 1.692913,
        -2.348425 -0.098425 1.614173,
        -2.427165 0.177165 1.692913,
        -2.348425 0.098425 1.614173,
        -2.151575 -0.098425 1.614173,
        -2.072835 -0.177165 1.692913,
        -2.072835 0.177165 1.692913,
        -2.151575 0.098425 1.614173,
        -2.348425 0.098425 0.511811,
        -2.151575 0.098425 0.511811,
        -2.348425 -0.098425 0.511811,
        -2.151575 -0.098425 0.511811,
        -2.927165 -0.177165 1.692913,
        -2.848425 -0.098425 1.614173,
        -2.927165 0.177165 1.692913,
        -2.848425 0.098425 1.614173,
        -2.651575 -0.098425 1.614173,
        -2.572835 -0.177165 1.692913,
        -2.572835 0.177165 1.692913,
        -2.651575 0.098425 1.614173,
        -2.848425 0.098425 0.511811,
        -2.651575 0.098425 0.511811,
        -2.848425 -0.098425 0.511811,
        -2.651575 -0.098425 0.511811,
        -3.572835 0.177165 1.692913,
        -3.572835 -0.177165 1.692913,
        -3.500000 -0.295276 1.692913,
        3.000000 -0.413386 1.692913,
        3.500000 -0.413386 1.692913,
        3.500000 -0.295276 1.692913,
        2.500000 -0.413386 1.692913,
        3.000000 -0.295276 1.692913,
        2.000000 -0.413386 1.692913,
        2.500000 -0.295276 1.692913,
        1.500000 -0.413386 1.692913,
        2.000000 -0.295276 1.692913,
        1.000000 -0.413386 1.692913,
        1.500000 -0.295276 1.692913,
        0.000000 -0.413386 1.692913,
        1.000000 -0.295276 1.692913,
        -1.000000 -0.413386 1.692913,
        -0.500000 -0.413386 1.692913,
        -0.500000 -0.295276 1.692913,
        -1.500000 -0.413386 1.692913,
        -1.000000 -0.295276 1.692913,
        -2.000000 -0.413386 1.692913,
        -1.500000 -0.295276 1.692913,
        -2.500000 -0.413386 1.692913,
        -2.000000 -0.295276 1.692913,
        -3.000000 -0.413386 1.692913,
        -2.500000 -0.295276 1.692913,
        -3.500000 -0.413386 1.692913,
        -3.000000 -0.295276 1.692913,
        -4.078740 -0.413386 1.692913,
        -4.078740 -0.295276 1.692913,
        0.000000 -0.295276 1.692913,
        4.078740 -0.413386 1.692913,
        4.078740 -0.295276 1.692913,
        4.002953 -0.413386 1.692913,
        4.002953 -0.295276 1.692913,
        -3.927165 -0.177165 1.692913,
        -4.078740 0.413386 1.692913,
        -3.927165 0.177165 1.692913,
        -3.500000 0.413386 1.692913,
        -3.072835 0.177165 1.692913,
        -3.072835 -0.177165 1.692913,
        -3.000000 0.413386 1.692913,
        -3.427165 0.177165 1.692913,
        -3.427165 -0.177165 1.692913,
        -2.500000 0.413386 1.692913,
        -2.000000 0.413386 1.692913,
        -1.500000 0.413386 1.692913,
        -1.000000 0.413386 1.692913,
        -0.500000 0.413386 1.692913,
        0.000000 0.413386 1.692913,
        1.000000 0.413386 1.692913,
        1.500000 0.413386 1.692913,
        2.000000 0.413386 1.692913,
        2.500000 0.413386 1.692913,
        3.000000 0.413386 1.692913,
        3.500000 0.413386 1.692913,
        4.002953 0.413386 1.692913,
        4.078740 0.413386 1.692913,
        -3.651575 0.098425 1.614173,
        -3.651575 0.098425 0.511811,
        -3.651575 -0.098425 1.614173,
        -3.651575 -0.098425 0.511811,
        -3.848425 -0.098425 1.614173,
        -3.848425 -0.098425 0.511811,
        -3.848425 0.098425 1.614173,
        -3.848425 0.098425 0.511811,
        -3.151575 0.098425 1.614173,
        -3.151575 0.098425 0.511811,
        -3.151575 -0.098425 1.614173,
        -3.151575 -0.098425 0.511811,
        -3.348425 -0.098425 1.614173,
        -3.348425 -0.098425 0.511811,
        -3.348425 0.098425 1.614173,
        -3.348425 0.098425 0.511811,
      ]
    }
    coordIndex [
      4, 5, 6, -1,
      6, 5, 7, -1,
      5, 4, 8, -1,
      8, 4, 9, -1,
      10, 11, 9, -1,
      9, 11, 8, -1,
      6, 7, 10, -1,
      10, 7, 11, -1,
      7, 12, 11, -1,
      11, 12, 13, -1,
      12, 14, 13, -1,
      13, 14, 15, -1,
      5, 14, 7, -1,
      7, 14, 12, -1,
      8, 15, 5, -1,
      5, 15, 14, -1,
      11, 13, 8, -1,
      8, 13, 15, -1,
      16, 17, 18, -1,
      18, 17, 19, -1,
      17, 16, 20, -1,
      20, 16, 21, -1,
      22, 23, 21, -1,
      21, 23, 20, -1,
      18, 19, 22, -1,
      22, 19, 23, -1,
      19, 24, 23, -1,
      23, 24, 25, -1,
      24, 26, 25, -1,
      25, 26, 27, -1,
      17, 26, 19, -1,
      19, 26, 24, -1,
      20, 27, 17, -1,
      17, 27, 26, -1,
      23, 25, 20, -1,
      20, 25, 27, -1,
      28, 29, 30, -1,
      30, 29, 31, -1,
      29, 28, 32, -1,
      32, 28, 33, -1,
      34, 35, 33, -1,
      33, 35, 32, -1,
      30, 31, 34, -1,
      34, 31, 35, -1,
      31, 36, 35, -1,
      35, 36, 37, -1,
      36, 38, 37, -1,
      37, 38, 39, -1,
      29, 38, 31, -1,
      31, 38, 36, -1,
      32, 39, 29, -1,
      29, 39, 38, -1,
      35, 37, 32, -1,
      32, 37, 39, -1,
      40, 41, 42, -1,
      42, 41, 43, -1,
      41, 40, 44, -1,
      44, 40, 45, -1,
      46, 47, 45, -1,
      45, 47, 44, -1,
      42, 43, 46, -1,
      46, 43, 47, -1,
      43, 48, 47, -1,
      47, 48, 49, -1,
      48, 50, 49, -1,
      49, 50, 51, -1,
      41, 50, 43, -1,
      43, 50, 48, -1,
      44, 51, 41, -1,
      41, 51, 50, -1,
      47, 49, 44, -1,
      44, 49, 51, -1,
      52, 53, 54, -1,
      54, 53, 55, -1,
      53, 52, 56, -1,
      56, 52, 57, -1,
      58, 59, 57, -1,
      57, 59, 56, -1,
      54, 55, 58, -1,
      58, 55, 59, -1,
      55, 60, 59, -1,
      59, 60, 61, -1,
      60, 62, 61, -1,
      61, 62, 63, -1,
      53, 62, 55, -1,
      55, 62, 60, -1,
      56, 63, 53, -1,
      53, 63, 62, -1,
      59, 61, 56, -1,
      56, 61, 63, -1,
      64, 65, 66, -1,
      66, 65, 67, -1,
      65, 64, 68, -1,
      68, 64, 69, -1,
      70, 71, 69, -1,
      69, 71, 68, -1,
      66, 67, 70, -1,
      70, 67, 71, -1,
      67, 72, 71, -1,
      71, 72, 73, -1,
      72, 74, 73, -1,
      73, 74, 75, -1,
      65, 74, 67, -1,
      67, 74, 72, -1,
      68, 75, 65, -1,
      65, 75, 74, -1,
      71, 73, 68, -1,
      68, 73, 75, -1,
      76, 77, 78, -1,
      78, 77, 79, -1,
      77, 76, 80, -1,
      80, 76, 81, -1,
      82, 83, 81, -1,
      81, 83, 80, -1,
      78, 79, 82, -1,
      82, 79, 83, -1,
      79, 84, 83, -1,
      83, 84, 85, -1,
      84, 86, 85, -1,
      85, 86, 87, -1,
      77, 86, 79, -1,
      79, 86, 84, -1,
      80, 87, 77, -1,
      77, 87, 86, -1,
      83, 85, 80, -1,
      80, 85, 87, -1,
      88, 89, 90, -1,
      90, 89, 91, -1,
      89, 88, 92, -1,
      92, 88, 93, -1,
      94, 95, 93, -1,
      93, 95, 92, -1,
      90, 91, 94, -1,
      94, 91, 95, -1,
      91, 96, 95, -1,
      95, 96, 97, -1,
      96, 98, 97, -1,
      97, 98, 99, -1,
      89, 98, 91, -1,
      91, 98, 96, -1,
      92, 99, 89, -1,
      89, 99, 98, -1,
      95, 97, 92, -1,
      92, 97, 99, -1,
      100, 101, 102, -1,
      102, 101, 103, -1,
      101, 100, 104, -1,
      104, 100, 105, -1,
      106, 107, 105, -1,
      105, 107, 104, -1,
      102, 103, 106, -1,
      106, 103, 107, -1,
      103, 108, 107, -1,
      107, 108, 109, -1,
      108, 110, 109, -1,
      109, 110, 111, -1,
      101, 110, 103, -1,
      103, 110, 108, -1,
      104, 111, 101, -1,
      101, 111, 110, -1,
      107, 109, 104, -1,
      104, 109, 111, -1,
      112, 113, 114, -1,
      114, 113, 115, -1,
      113, 112, 116, -1,
      116, 112, 117, -1,
      118, 119, 117, -1,
      117, 119, 116, -1,
      114, 115, 118, -1,
      118, 115, 119, -1,
      115, 120, 119, -1,
      119, 120, 121, -1,
      120, 122, 121, -1,
      121, 122, 123, -1,
      113, 122, 115, -1,
      115, 122, 120, -1,
      116, 123, 113, -1,
      113, 123, 122, -1,
      119, 121, 116, -1,
      116, 121, 123, -1,
      124, 125, 126, -1,
      126, 125, 127, -1,
      125, 124, 128, -1,
      128, 124, 129, -1,
      130, 131, 129, -1,
      129, 131, 128, -1,
      126, 127, 130, -1,
      130, 127, 131, -1,
      127, 132, 131, -1,
      131, 132, 133, -1,
      132, 134, 133, -1,
      133, 134, 135, -1,
      125, 134, 127, -1,
      127, 134, 132, -1,
      128, 135, 125, -1,
      125, 135, 134, -1,
      131, 133, 128, -1,
      128, 133, 135, -1,
      136, 137, 138, -1,
      138, 137, 139, -1,
      137, 136, 140, -1,
      140, 136, 141, -1,
      142, 143, 141, -1,
      141, 143, 140, -1,
      138, 139, 142, -1,
      142, 139, 143, -1,
      139, 144, 143, -1,
      143, 144, 145, -1,
      144, 146, 145, -1,
      145, 146, 147, -1,
      137, 146, 139, -1,
      139, 146, 144, -1,
      140, 147, 137, -1,
      137, 147, 146, -1,
      143, 145, 140, -1,
      140, 145, 147, -1,
      148, 149, 150, -1,
      150, 149, 151, -1,
      149, 148, 152, -1,
      152, 148, 153, -1,
      154, 155, 153, -1,
      153, 155, 152, -1,
      150, 151, 154, -1,
      154, 151, 155, -1,
      151, 156, 155, -1,
      155, 156, 157, -1,
      156, 158, 157, -1,
      157, 158, 159, -1,
      149, 158, 151, -1,
      151, 158, 156, -1,
      152, 159, 149, -1,
      149, 159, 158, -1,
      155, 157, 152, -1,
      152, 157, 159, -1,
      160, 161, 162, -1,
      162, 161, 163, -1,
      161, 160, 164, -1,
      164, 160, 165, -1,
      166, 167, 165, -1,
      165, 167, 164, -1,
      162, 163, 166, -1,
      166, 163, 167, -1,
      163, 168, 167, -1,
      167, 168, 169, -1,
      168, 170, 169, -1,
      169, 170, 171, -1,
      161, 170, 163, -1,
      163, 170, 168, -1,
      164, 171, 161, -1,
      161, 171, 170, -1,
      167, 169, 164, -1,
      164, 169, 171, -1,
      172, 173, 174, -1,
      175, 176, 177, -1,
      178, 175, 179, -1,
      180, 178, 181, -1,
      182, 180, 183, -1,
      184, 182, 185, -1,
      186, 184, 187, -1,
      188, 189, 190, -1,
      191, 188, 192, -1,
      193, 191, 194, -1,
      195, 193, 196, -1,
      197, 195, 198, -1,
      199, 197, 200, -1,
      199, 174, 201, -1,
      201, 174, 202, -1,
      190, 189, 203, -1,
      204, 205, 206, -1,
      206, 205, 207, -1,
      206, 207, 176, -1,
      174, 173, 202, -1,
      202, 173, 208, -1,
      202, 208, 209, -1,
      209, 208, 210, -1,
      209, 210, 211, -1,
      212, 213, 200, -1,
      214, 211, 215, -1,
      199, 200, 174, -1,
      174, 200, 213, -1,
      174, 213, 216, -1,
      210, 172, 211, -1,
      211, 172, 174, -1,
      211, 174, 215, -1,
      215, 174, 216, -1,
      166, 165, 198, -1,
      217, 214, 162, -1,
      197, 198, 200, -1,
      200, 198, 165, -1,
      200, 165, 160, -1,
      215, 212, 214, -1,
      214, 212, 200, -1,
      214, 200, 162, -1,
      162, 200, 160, -1,
      154, 153, 196, -1,
      218, 217, 150, -1,
      195, 196, 198, -1,
      198, 196, 153, -1,
      198, 153, 148, -1,
      162, 166, 217, -1,
      217, 166, 198, -1,
      217, 198, 150, -1,
      150, 198, 148, -1,
      142, 141, 194, -1,
      219, 218, 138, -1,
      193, 194, 196, -1,
      196, 194, 141, -1,
      196, 141, 136, -1,
      150, 154, 218, -1,
      218, 154, 196, -1,
      218, 196, 138, -1,
      138, 196, 136, -1,
      130, 129, 192, -1,
      220, 219, 126, -1,
      191, 192, 194, -1,
      194, 192, 129, -1,
      194, 129, 124, -1,
      138, 142, 219, -1,
      219, 142, 194, -1,
      219, 194, 126, -1,
      126, 194, 124, -1,
      118, 117, 190, -1,
      118, 221, 114, -1,
      114, 221, 220, -1,
      188, 190, 192, -1,
      192, 190, 117, -1,
      192, 117, 112, -1,
      126, 130, 220, -1,
      220, 130, 192, -1,
      220, 192, 114, -1,
      114, 192, 112, -1,
      118, 190, 221, -1,
      221, 190, 102, -1,
      221, 102, 222, -1,
      222, 102, 106, -1,
      222, 106, 203, -1,
      203, 106, 105, -1,
      203, 105, 190, -1,
      190, 105, 100, -1,
      190, 100, 102, -1,
      223, 222, 78, -1,
      82, 81, 187, -1,
      187, 81, 76, -1,
      189, 186, 203, -1,
      203, 186, 187, -1,
      203, 187, 93, -1,
      93, 187, 76, -1,
      93, 76, 94, -1,
      93, 88, 203, -1,
      203, 88, 90, -1,
      203, 90, 222, -1,
      222, 90, 94, -1,
      222, 94, 78, -1,
      78, 94, 76, -1,
      70, 69, 185, -1,
      224, 223, 66, -1,
      184, 185, 187, -1,
      187, 185, 69, -1,
      187, 69, 64, -1,
      78, 82, 223, -1,
      223, 82, 187, -1,
      223, 187, 66, -1,
      66, 187, 64, -1,
      58, 57, 183, -1,
      225, 224, 54, -1,
      182, 183, 185, -1,
      185, 183, 57, -1,
      185, 57, 52, -1,
      66, 70, 224, -1,
      224, 70, 185, -1,
      224, 185, 54, -1,
      54, 185, 52, -1,
      46, 45, 181, -1,
      226, 225, 42, -1,
      180, 181, 183, -1,
      183, 181, 45, -1,
      183, 45, 40, -1,
      54, 58, 225, -1,
      225, 58, 183, -1,
      225, 183, 42, -1,
      42, 183, 40, -1,
      34, 33, 179, -1,
      227, 226, 30, -1,
      178, 179, 181, -1,
      181, 179, 33, -1,
      181, 33, 28, -1,
      42, 46, 226, -1,
      226, 46, 181, -1,
      226, 181, 30, -1,
      30, 181, 28, -1,
      22, 21, 177, -1,
      228, 227, 18, -1,
      175, 177, 179, -1,
      179, 177, 21, -1,
      179, 21, 16, -1,
      30, 34, 227, -1,
      227, 34, 179, -1,
      227, 179, 18, -1,
      18, 179, 16, -1,
      10, 9, 207, -1,
      229, 228, 6, -1,
      176, 207, 177, -1,
      177, 207, 9, -1,
      177, 9, 4, -1,
      18, 22, 228, -1,
      228, 22, 177, -1,
      228, 177, 6, -1,
      6, 177, 4, -1,
      205, 230, 207, -1,
      207, 230, 229, -1,
      207, 229, 10, -1,
      10, 229, 6, -1,
      204, 3, 205, -1,
      205, 3, 1, -1,
      205, 1, 230, -1,
      209, 211, 0, -1,
      0, 211, 214, -1,
      214, 217, 0, -1,
      0, 217, 218, -1,
      0, 218, 219, -1,
      219, 220, 0, -1,
      0, 220, 221, -1,
      0, 221, 1, -1,
      221, 222, 1, -1,
      1, 222, 223, -1,
      1, 223, 224, -1,
      224, 225, 1, -1,
      1, 225, 226, -1,
      1, 226, 227, -1,
      227, 228, 1, -1,
      1, 228, 229, -1,
      1, 229, 230, -1,
      209, 0, 202, -1,
      202, 0, 2, -1,
      202, 2, 201, -1,
      204, 206, 3, -1,
      3, 206, 176, -1,
      176, 175, 3, -1,
      3, 175, 178, -1,
      3, 178, 180, -1,
      180, 182, 3, -1,
      3, 182, 184, -1,
      3, 184, 2, -1,
      184, 186, 2, -1,
      2, 186, 189, -1,
      2, 189, 188, -1,
      188, 191, 2, -1,
      2, 191, 193, -1,
      2, 193, 195, -1,
      195, 197, 2, -1,
      2, 197, 199, -1,
      2, 199, 201, -1,
      231, 232, 233, -1,
      233, 232, 234, -1,
      233, 234, 235, -1,
      235, 234, 236, -1,
      235, 236, 237, -1,
      237, 236, 238, -1,
      237, 238, 231, -1,
      231, 238, 232, -1,
      238, 236, 232, -1,
      232, 236, 234, -1,
      172, 231, 173, -1,
      173, 231, 233, -1,
      210, 237, 172, -1,
      172, 237, 231, -1,
      235, 208, 233, -1,
      233, 208, 173, -1,
      208, 235, 210, -1,
      210, 235, 237, -1,
      239, 240, 241, -1,
      241, 240, 242, -1,
      241, 242, 243, -1,
      243, 242, 244, -1,
      243, 244, 245, -1,
      245, 244, 246, -1,
      246, 244, 240, -1,
      240, 244, 242, -1,
      245, 246, 239, -1,
      239, 246, 240, -1,
      215, 245, 212, -1,
      212, 245, 239, -1,
      212, 239, 213, -1,
      213, 239, 241, -1,
      243, 216, 241, -1,
      241, 216, 213, -1,
      216, 243, 215, -1,
      215, 243, 245, -1,
    ]
  }
}

Shape {
  appearance Appearance {
    material Material {
      diffuseColor 0.8275 0.6667 0.1294
      specularColor 0.8275 0.6667 0.1294
      ambientIntensity 0.2
      transparency 0.0000
      shininess 0.5
    }
  }
  geometry IndexedFaceSet {
    ccw TRUE
    solid FALSE
    coord DEF co Coordinate {
      point [
        -3.161417 0.019685 0.000000,
        -3.161417 -0.019685 0.000000,
        -3.338583 -0.019685 0.000000,
        -3.661417 -0.019685 0.000000,
        -3.338583 0.019685 0.000000,
        -3.661417 0.019685 0.000000,
        -3.838583 0.019685 0.000000,
        -3.838583 -0.019685 0.000000,
        -3.661417 0.019685 -0.856299,
        -3.661417 -0.019685 -0.856299,
        -3.838583 -0.019685 -0.856299,
        -3.663638 -0.019685 -0.876011,
        -3.694770 -0.019685 -0.925556,
        -3.711565 -0.019685 -0.936109,
        -3.730289 -0.019685 -0.942661,
        -3.680743 -0.019685 -0.911530,
        -3.670190 -0.019685 -0.894734,
        -3.794291 -0.019685 -0.933014,
        -3.772927 -0.019685 -0.941863,
        -3.750000 -0.019685 -0.944882,
        -3.835564 -0.019685 -0.879226,
        -3.826715 -0.019685 -0.900591,
        -3.812637 -0.019685 -0.918937,
        -3.838583 0.019685 -0.856299,
        -3.663638 0.019685 -0.876011,
        -3.670190 0.019685 -0.894734,
        -3.680743 0.019685 -0.911530,
        -3.694770 0.019685 -0.925556,
        -3.711565 0.019685 -0.936109,
        -3.730289 0.019685 -0.942661,
        -3.750000 0.019685 -0.944882,
        -3.772927 0.019685 -0.941863,
        -3.794291 0.019685 -0.933014,
        -3.812637 0.019685 -0.918937,
        -3.826715 0.019685 -0.900591,
        -3.835564 0.019685 -0.879226,
        -3.161417 0.019685 -0.856299,
        -3.161417 -0.019685 -0.856299,
        -3.338583 -0.019685 -0.856299,
        -3.163638 -0.019685 -0.876011,
        -3.194770 -0.019685 -0.925556,
        -3.211565 -0.019685 -0.936109,
        -3.230288 -0.019685 -0.942661,
        -3.180743 -0.019685 -0.911530,
        -3.170190 -0.019685 -0.894734,
        -3.294291 -0.019685 -0.933014,
        -3.272927 -0.019685 -0.941863,
        -3.250000 -0.019685 -0.944882,
        -3.335565 -0.019685 -0.879226,
        -3.326715 -0.019685 -0.900591,
        -3.312637 -0.019685 -0.918937,
        -3.338583 0.019685 -0.856299,
        -3.163638 0.019685 -0.876011,
        -3.170190 0.019685 -0.894734,
        -3.180743 0.019685 -0.911530,
        -3.194770 0.019685 -0.925556,
        -3.211565 0.019685 -0.936109,
        -3.230288 0.019685 -0.942661,
        -3.250000 0.019685 -0.944882,
        -3.272927 0.019685 -0.941863,
        -3.294291 0.019685 -0.933014,
        -3.312637 0.019685 -0.918937,
        -3.326715 0.019685 -0.900591,
        -3.335565 0.019685 -0.879226,
      ]
    }
    coordIndex [
      8, 5, 9, -1,
      9, 5, 3, -1,
      3, 7, 9, -1,
      9, 7, 10, -1,
      9, 10, 11, -1,
      12, 10, 13, -1,
      13, 10, 14, -1,
      12, 15, 10, -1,
      10, 15, 16, -1,
      10, 16, 11, -1,
      17, 18, 10, -1,
      10, 18, 19, -1,
      10, 19, 14, -1,
      20, 21, 10, -1,
      10, 21, 22, -1,
      10, 22, 17, -1,
      10, 7, 23, -1,
      23, 7, 6, -1,
      6, 5, 23, -1,
      23, 5, 8, -1,
      8, 24, 23, -1,
      23, 24, 25, -1,
      23, 25, 26, -1,
      26, 27, 23, -1,
      23, 27, 28, -1,
      23, 28, 29, -1,
      29, 30, 23, -1,
      23, 30, 31, -1,
      23, 31, 32, -1,
      32, 33, 23, -1,
      23, 33, 34, -1,
      23, 34, 35, -1,
      30, 19, 18, -1,
      30, 18, 31, -1,
      31, 18, 17, -1,
      31, 17, 32, -1,
      32, 17, 22, -1,
      32, 22, 33, -1,
      33, 22, 21, -1,
      33, 21, 34, -1,
      34, 21, 20, -1,
      34, 20, 35, -1,
      35, 20, 10, -1,
      35, 10, 23, -1,
      19, 30, 29, -1,
      19, 29, 14, -1,
      14, 29, 28, -1,
      14, 28, 13, -1,
      13, 28, 27, -1,
      13, 27, 12, -1,
      12, 27, 26, -1,
      12, 26, 15, -1,
      15, 26, 25, -1,
      15, 25, 16, -1,
      16, 25, 24, -1,
      16, 24, 11, -1,
      11, 24, 8, -1,
      11, 8, 9, -1,
      36, 0, 37, -1,
      37, 0, 1, -1,
      1, 2, 37, -1,
      37, 2, 38, -1,
      37, 38, 39, -1,
      40, 38, 41, -1,
      41, 38, 42, -1,
      40, 43, 38, -1,
      38, 43, 44, -1,
      38, 44, 39, -1,
      45, 46, 38, -1,
      38, 46, 47, -1,
      38, 47, 42, -1,
      48, 49, 38, -1,
      38, 49, 50, -1,
      38, 50, 45, -1,
      38, 2, 51, -1,
      51, 2, 4, -1,
      4, 0, 51, -1,
      51, 0, 36, -1,
      36, 52, 51, -1,
      51, 52, 53, -1,
      51, 53, 54, -1,
      54, 55, 51, -1,
      51, 55, 56, -1,
      51, 56, 57, -1,
      57, 58, 51, -1,
      51, 58, 59, -1,
      51, 59, 60, -1,
      60, 61, 51, -1,
      51, 61, 62, -1,
      51, 62, 63, -1,
      58, 47, 46, -1,
      58, 46, 59, -1,
      59, 46, 45, -1,
      59, 45, 60, -1,
      60, 45, 50, -1,
      60, 50, 61, -1,
      61, 50, 49, -1,
      61, 49, 62, -1,
      62, 49, 48, -1,
      62, 48, 63, -1,
      63, 48, 38, -1,
      63, 38, 51, -1,
      47, 58, 57, -1,
      47, 57, 42, -1,
      42, 57, 56, -1,
      42, 56, 41, -1,
      41, 56, 55, -1,
      41, 55, 40, -1,
      40, 55, 54, -1,
      40, 54, 43, -1,
      43, 54, 53, -1,
      43, 53, 44, -1,
      44, 53, 52, -1,
      44, 52, 39, -1,
      39, 52, 36, -1,
      39, 36, 37, -1,
    ]
  }
}

Shape {
  appearance Appearance {
    material Material {
      diffuseColor 1.0000 1.0000 1.0000
      specularColor 0.8784 0.8784 0.8784
      ambientIntensity 0.2
      transparency 0.0000
      shininess 0.5
    }
  }
  geometry IndexedFaceSet {
    ccw TRUE
    solid FALSE
    coord DEF co Coordinate {
      point [
        0.122431 -0.245009 0.000000,
        0.122431 -0.266615 0.000000,
        0.143415 -0.275230 0.000000,
        0.163306 -0.278018 0.000000,
        0.360092 -0.079967 0.000000,
        0.362541 -0.079967 0.000000,
        0.145191 -0.079192 0.000000,
        0.122431 -0.085368 0.000000,
        0.122431 -0.111775 0.000000,
        0.144604 -0.102280 0.000000,
        0.125959 -0.246963 0.000000,
        0.168531 -0.099172 0.000000,
        0.187914 -0.101348 0.000000,
        0.258480 -0.131815 0.000000,
        0.246942 -0.113410 0.000000,
        0.229170 -0.096319 0.000000,
        0.200854 -0.276702 0.000000,
        0.219934 -0.270135 0.000000,
        0.285673 -0.276817 0.000000,
        0.202648 -0.106666 0.000000,
        0.216273 -0.115781 0.000000,
        0.228160 -0.128904 0.000000,
        0.242462 -0.180493 0.000000,
        0.240469 -0.201803 0.000000,
        0.235121 -0.218735 0.000000,
        0.191317 -0.255553 0.000000,
        0.172957 -0.257612 0.000000,
        0.205661 -0.250272 0.000000,
        0.217742 -0.242130 0.000000,
        0.226980 -0.232384 0.000000,
        0.146827 -0.254712 0.000000,
        0.235768 -0.260024 0.000000,
        0.250554 -0.244457 0.000000,
        0.285673 -0.255212 0.000000,
        0.261041 -0.225740 0.000000,
        0.360092 -0.255212 0.000000,
        0.236276 -0.144103 0.000000,
        0.241523 -0.165176 0.000000,
        0.266965 -0.204903 0.000000,
        0.268869 -0.182106 0.000000,
        0.266037 -0.154119 0.000000,
        0.210472 -0.085556 0.000000,
        0.188527 -0.079180 0.000000,
        0.168756 -0.077566 0.000000,
        0.362541 -0.276817 0.000000,
        0.386499 -0.276817 0.000000,
        0.386499 -0.079967 0.000000,
        0.171213 -0.279126 0.000000,
        0.176595 -0.279218 0.000000,
        0.188172 -0.278018 0.000000,
        -0.110717 -0.079967 0.000000,
        -0.115567 -0.079967 0.000000,
        -0.144007 -0.083007 0.000000,
        -0.167038 -0.091094 0.000000,
        -0.188464 -0.105453 0.000000,
        -0.181135 -0.255986 0.000000,
        -0.197337 -0.240472 0.000000,
        -0.208626 -0.222865 0.000000,
        -0.188670 -0.105634 0.000000,
        -0.202590 -0.121069 0.000000,
        -0.211738 -0.137999 0.000000,
        -0.113542 -0.276817 0.000000,
        -0.137898 -0.274691 0.000000,
        -0.160581 -0.267930 0.000000,
        -0.217025 -0.157394 0.000000,
        -0.218456 -0.175917 0.000000,
        -0.215694 -0.202261 0.000000,
        -0.060015 -0.079967 0.000000,
        -0.060015 -0.276817 0.000000,
        -0.361780 -0.221603 0.000000,
        -0.280459 -0.221603 0.000000,
        -0.374544 -0.256986 0.000000,
        -0.261667 -0.276817 0.000000,
        -0.381698 -0.276817 0.000000,
        -0.232859 -0.276817 0.000000,
        -0.307279 -0.079967 0.000000,
        -0.333685 -0.079967 0.000000,
        -0.374544 -0.184667 0.000000,
        -0.410505 -0.276817 0.000000,
        -0.021606 -0.255212 0.000000,
        -0.021606 -0.276817 0.000000,
        0.084022 -0.276817 0.000000,
        -0.110717 -0.276817 0.000000,
        -0.016804 -0.101572 0.000000,
        0.084022 -0.079967 0.000000,
        -0.016804 -0.079967 0.000000,
        0.057615 -0.187994 0.000000,
        0.057615 -0.255212 0.000000,
        -0.012003 -0.187994 0.000000,
        -0.012003 -0.166389 0.000000,
        0.057615 -0.166389 0.000000,
        0.057615 -0.101572 0.000000,
        -0.333685 -0.079967 0.007874,
        -0.410505 -0.276817 0.007874,
        -0.381698 -0.276817 0.007874,
        -0.361780 -0.221603 0.007874,
        -0.280459 -0.221603 0.007874,
        -0.261667 -0.276817 0.007874,
        -0.232859 -0.276817 0.007874,
        -0.307279 -0.079967 0.007874,
        -0.287098 -0.199998 0.007874,
        -0.352928 -0.199998 0.007874,
        -0.316469 -0.117776 0.007874,
        -0.318363 -0.110949 0.007874,
        -0.319619 -0.103973 0.007874,
        -0.320257 -0.103973 0.007874,
        -0.321541 -0.110928 0.007874,
        -0.323295 -0.117776 0.007874,
        -0.287098 -0.199998 0.000000,
        -0.352928 -0.199998 0.000000,
        -0.316469 -0.117776 0.000000,
        -0.318363 -0.110949 0.000000,
        -0.319619 -0.103973 0.000000,
        -0.320257 -0.103973 0.000000,
        -0.321541 -0.110928 0.000000,
        -0.323295 -0.117776 0.000000,
        -0.113542 -0.276817 0.007874,
        -0.060015 -0.276817 0.007874,
        -0.060015 -0.079967 0.007874,
        -0.115567 -0.079967 0.007874,
        -0.218456 -0.175917 0.007874,
        -0.217025 -0.157394 0.007874,
        -0.211738 -0.137999 0.007874,
        -0.202590 -0.121069 0.007874,
        -0.188670 -0.105634 0.007874,
        -0.188464 -0.105453 0.007874,
        -0.167038 -0.091094 0.007874,
        -0.144007 -0.083007 0.007874,
        -0.137898 -0.274691 0.007874,
        -0.160581 -0.267930 0.007874,
        -0.181135 -0.255986 0.007874,
        -0.197337 -0.240472 0.007874,
        -0.208626 -0.222865 0.007874,
        -0.215694 -0.202261 0.007874,
        -0.178943 -0.129177 0.007874,
        -0.169381 -0.119024 0.007874,
        -0.155002 -0.109735 0.007874,
        -0.138754 -0.104049 0.007874,
        -0.115455 -0.101572 0.007874,
        -0.086422 -0.101572 0.007874,
        -0.086422 -0.255212 0.007874,
        -0.114367 -0.255212 0.007874,
        -0.135135 -0.253279 0.007874,
        -0.151700 -0.248108 0.007874,
        -0.165125 -0.240136 0.007874,
        -0.176166 -0.229231 0.007874,
        -0.184468 -0.215659 0.007874,
        -0.190242 -0.197155 0.007874,
        -0.192049 -0.176479 0.007874,
        -0.190377 -0.156887 0.007874,
        -0.185781 -0.141318 0.007874,
        -0.115455 -0.101572 0.000000,
        -0.086422 -0.101572 0.000000,
        -0.138754 -0.104049 0.000000,
        -0.155002 -0.109735 0.000000,
        -0.169381 -0.119024 0.000000,
        -0.178943 -0.129177 0.000000,
        -0.185781 -0.141318 0.000000,
        -0.190377 -0.156887 0.000000,
        -0.192049 -0.176479 0.000000,
        -0.190242 -0.197155 0.000000,
        -0.184468 -0.215659 0.000000,
        -0.176166 -0.229231 0.000000,
        -0.165125 -0.240136 0.000000,
        -0.151700 -0.248108 0.000000,
        -0.135135 -0.253279 0.000000,
        -0.114367 -0.255212 0.000000,
        -0.086422 -0.255212 0.000000,
        -0.021606 -0.255212 0.007874,
        -0.021606 -0.276817 0.007874,
        0.084022 -0.276817 0.007874,
        0.084022 -0.079967 0.007874,
        -0.016804 -0.079967 0.007874,
        -0.016804 -0.101572 0.007874,
        0.057615 -0.101572 0.007874,
        0.057615 -0.166389 0.007874,
        -0.012003 -0.166389 0.007874,
        -0.012003 -0.187994 0.007874,
        0.057615 -0.187994 0.007874,
        0.057615 -0.255212 0.007874,
        0.122431 -0.245009 0.007874,
        0.122431 -0.266615 0.007874,
        0.143415 -0.275230 0.007874,
        0.176595 -0.279218 0.007874,
        0.171213 -0.279126 0.007874,
        0.268869 -0.182106 0.007874,
        0.266965 -0.204903 0.007874,
        0.261041 -0.225740 0.007874,
        0.250554 -0.244457 0.007874,
        0.235768 -0.260024 0.007874,
        0.219934 -0.270135 0.007874,
        0.200854 -0.276702 0.007874,
        0.168756 -0.077566 0.007874,
        0.188527 -0.079180 0.007874,
        0.210472 -0.085556 0.007874,
        0.229170 -0.096319 0.007874,
        0.246942 -0.113410 0.007874,
        0.258480 -0.131815 0.007874,
        0.266037 -0.154119 0.007874,
        0.122431 -0.085368 0.007874,
        0.145191 -0.079192 0.007874,
        0.122431 -0.111775 0.007874,
        0.168531 -0.099172 0.007874,
        0.144604 -0.102280 0.007874,
        0.242462 -0.180493 0.007874,
        0.241523 -0.165176 0.007874,
        0.236276 -0.144103 0.007874,
        0.228160 -0.128904 0.007874,
        0.216273 -0.115781 0.007874,
        0.202648 -0.106666 0.007874,
        0.187914 -0.101348 0.007874,
        0.172957 -0.257612 0.007874,
        0.191317 -0.255553 0.007874,
        0.205661 -0.250272 0.007874,
        0.217742 -0.242130 0.007874,
        0.226980 -0.232384 0.007874,
        0.235121 -0.218735 0.007874,
        0.240469 -0.201803 0.007874,
        0.125959 -0.246963 0.007874,
        0.146827 -0.254712 0.007874,
        0.285673 -0.255212 0.007874,
        0.285673 -0.276817 0.007874,
        0.386499 -0.276817 0.007874,
        0.386499 -0.079967 0.007874,
        0.360092 -0.079967 0.007874,
        0.360092 -0.255212 0.007874,
      ]
    }
    coordIndex [
      76, 92, 77, -1,
      77, 92, 93, -1,
      77, 93, 78, -1,
      93, 94, 78, -1,
      78, 94, 73, -1,
      95, 69, 94, -1,
      94, 69, 71, -1,
      94, 71, 73, -1,
      95, 96, 69, -1,
      69, 96, 70, -1,
      96, 97, 70, -1,
      70, 97, 72, -1,
      97, 98, 72, -1,
      72, 98, 74, -1,
      98, 99, 74, -1,
      74, 99, 75, -1,
      99, 92, 75, -1,
      75, 92, 76, -1,
      100, 96, 101, -1,
      101, 96, 95, -1,
      102, 99, 100, -1,
      100, 99, 98, -1,
      100, 98, 96, -1,
      96, 98, 97, -1,
      102, 103, 99, -1,
      99, 103, 104, -1,
      99, 104, 92, -1,
      92, 104, 105, -1,
      92, 105, 106, -1,
      106, 107, 92, -1,
      92, 107, 101, -1,
      92, 101, 93, -1,
      93, 101, 95, -1,
      93, 95, 94, -1,
      100, 101, 108, -1,
      108, 101, 109, -1,
      102, 100, 110, -1,
      110, 100, 108, -1,
      102, 110, 111, -1,
      102, 111, 103, -1,
      103, 111, 112, -1,
      103, 112, 104, -1,
      105, 104, 113, -1,
      113, 104, 112, -1,
      105, 113, 114, -1,
      105, 114, 106, -1,
      106, 114, 115, -1,
      106, 115, 107, -1,
      101, 107, 109, -1,
      109, 107, 115, -1,
      61, 116, 82, -1,
      82, 116, 117, -1,
      82, 117, 68, -1,
      117, 118, 68, -1,
      68, 118, 67, -1,
      67, 118, 50, -1,
      50, 118, 119, -1,
      50, 119, 51, -1,
      120, 65, 64, -1,
      120, 64, 121, -1,
      121, 64, 60, -1,
      121, 60, 122, -1,
      122, 60, 59, -1,
      122, 59, 123, -1,
      123, 59, 58, -1,
      123, 58, 124, -1,
      124, 58, 54, -1,
      124, 54, 125, -1,
      125, 54, 53, -1,
      125, 53, 126, -1,
      126, 53, 52, -1,
      126, 52, 127, -1,
      127, 52, 51, -1,
      127, 51, 119, -1,
      116, 61, 62, -1,
      116, 62, 128, -1,
      128, 62, 63, -1,
      128, 63, 129, -1,
      129, 63, 55, -1,
      129, 55, 130, -1,
      130, 55, 56, -1,
      130, 56, 131, -1,
      131, 56, 57, -1,
      131, 57, 132, -1,
      132, 57, 66, -1,
      132, 66, 133, -1,
      133, 66, 65, -1,
      133, 65, 120, -1,
      122, 123, 134, -1,
      134, 123, 124, -1,
      134, 124, 135, -1,
      135, 124, 125, -1,
      135, 125, 136, -1,
      136, 125, 126, -1,
      136, 126, 137, -1,
      137, 126, 127, -1,
      137, 127, 138, -1,
      138, 127, 119, -1,
      138, 119, 139, -1,
      139, 119, 118, -1,
      139, 118, 140, -1,
      140, 118, 117, -1,
      140, 117, 141, -1,
      141, 117, 116, -1,
      141, 116, 142, -1,
      142, 116, 128, -1,
      142, 128, 143, -1,
      143, 128, 129, -1,
      143, 129, 144, -1,
      144, 129, 130, -1,
      144, 130, 145, -1,
      145, 130, 131, -1,
      145, 131, 146, -1,
      146, 131, 132, -1,
      146, 132, 147, -1,
      147, 132, 133, -1,
      147, 133, 148, -1,
      148, 133, 120, -1,
      148, 120, 149, -1,
      149, 120, 121, -1,
      149, 121, 150, -1,
      150, 121, 122, -1,
      150, 122, 134, -1,
      138, 139, 151, -1,
      151, 139, 152, -1,
      138, 151, 153, -1,
      138, 153, 137, -1,
      137, 153, 154, -1,
      137, 154, 136, -1,
      136, 154, 155, -1,
      136, 155, 135, -1,
      135, 155, 156, -1,
      135, 156, 134, -1,
      134, 156, 157, -1,
      134, 157, 150, -1,
      150, 157, 158, -1,
      150, 158, 149, -1,
      149, 158, 159, -1,
      149, 159, 148, -1,
      148, 159, 160, -1,
      148, 160, 147, -1,
      147, 160, 161, -1,
      147, 161, 146, -1,
      146, 161, 162, -1,
      146, 162, 145, -1,
      145, 162, 163, -1,
      145, 163, 144, -1,
      144, 163, 164, -1,
      144, 164, 143, -1,
      143, 164, 165, -1,
      143, 165, 142, -1,
      142, 165, 166, -1,
      142, 166, 141, -1,
      140, 141, 167, -1,
      167, 141, 166, -1,
      139, 140, 152, -1,
      152, 140, 167, -1,
      168, 169, 79, -1,
      79, 169, 80, -1,
      169, 170, 80, -1,
      80, 170, 81, -1,
      170, 171, 81, -1,
      81, 171, 84, -1,
      171, 172, 84, -1,
      84, 172, 85, -1,
      172, 173, 85, -1,
      85, 173, 83, -1,
      173, 174, 83, -1,
      83, 174, 91, -1,
      174, 175, 91, -1,
      91, 175, 90, -1,
      175, 176, 90, -1,
      90, 176, 89, -1,
      176, 177, 89, -1,
      89, 177, 88, -1,
      177, 178, 88, -1,
      88, 178, 86, -1,
      178, 179, 86, -1,
      86, 179, 87, -1,
      179, 168, 87, -1,
      87, 168, 79, -1,
      170, 169, 168, -1,
      168, 179, 170, -1,
      170, 179, 178, -1,
      170, 178, 171, -1,
      173, 172, 174, -1,
      174, 172, 171, -1,
      174, 171, 175, -1,
      175, 171, 178, -1,
      175, 178, 176, -1,
      176, 178, 177, -1,
      180, 181, 0, -1,
      0, 181, 1, -1,
      1, 181, 182, -1,
      183, 48, 47, -1,
      183, 47, 184, -1,
      184, 47, 3, -1,
      184, 3, 182, -1,
      182, 3, 2, -1,
      182, 2, 1, -1,
      185, 39, 38, -1,
      185, 38, 186, -1,
      186, 38, 34, -1,
      186, 34, 187, -1,
      187, 34, 32, -1,
      187, 32, 188, -1,
      188, 32, 31, -1,
      188, 31, 189, -1,
      189, 31, 17, -1,
      189, 17, 190, -1,
      190, 17, 16, -1,
      190, 16, 191, -1,
      191, 16, 183, -1,
      183, 16, 49, -1,
      183, 49, 48, -1,
      192, 43, 42, -1,
      192, 42, 193, -1,
      193, 42, 41, -1,
      193, 41, 194, -1,
      194, 41, 15, -1,
      194, 15, 195, -1,
      195, 15, 14, -1,
      195, 14, 196, -1,
      196, 14, 13, -1,
      196, 13, 197, -1,
      197, 13, 40, -1,
      197, 40, 198, -1,
      198, 40, 39, -1,
      198, 39, 185, -1,
      199, 7, 6, -1,
      199, 6, 200, -1,
      200, 6, 43, -1,
      200, 43, 192, -1,
      199, 201, 7, -1,
      7, 201, 8, -1,
      202, 11, 9, -1,
      202, 9, 203, -1,
      203, 9, 8, -1,
      203, 8, 201, -1,
      204, 22, 37, -1,
      204, 37, 205, -1,
      205, 37, 36, -1,
      205, 36, 206, -1,
      206, 36, 21, -1,
      206, 21, 207, -1,
      207, 21, 20, -1,
      207, 20, 208, -1,
      208, 20, 19, -1,
      208, 19, 209, -1,
      209, 19, 12, -1,
      209, 12, 210, -1,
      210, 12, 11, -1,
      210, 11, 202, -1,
      211, 26, 25, -1,
      211, 25, 212, -1,
      212, 25, 27, -1,
      212, 27, 213, -1,
      213, 27, 28, -1,
      213, 28, 214, -1,
      214, 28, 29, -1,
      214, 29, 215, -1,
      215, 29, 24, -1,
      215, 24, 216, -1,
      216, 24, 23, -1,
      216, 23, 217, -1,
      217, 23, 22, -1,
      217, 22, 204, -1,
      180, 0, 10, -1,
      180, 10, 218, -1,
      218, 10, 30, -1,
      218, 30, 219, -1,
      219, 30, 26, -1,
      219, 26, 211, -1,
      212, 183, 211, -1,
      211, 183, 184, -1,
      211, 184, 219, -1,
      219, 184, 182, -1,
      219, 182, 218, -1,
      218, 182, 181, -1,
      218, 181, 180, -1,
      201, 199, 203, -1,
      203, 199, 200, -1,
      203, 200, 202, -1,
      202, 200, 192, -1,
      202, 192, 210, -1,
      210, 192, 193, -1,
      210, 193, 209, -1,
      209, 193, 194, -1,
      209, 194, 208, -1,
      208, 194, 195, -1,
      208, 195, 207, -1,
      207, 195, 196, -1,
      207, 196, 206, -1,
      206, 196, 197, -1,
      206, 197, 205, -1,
      205, 197, 198, -1,
      205, 198, 204, -1,
      204, 198, 185, -1,
      204, 185, 217, -1,
      217, 185, 186, -1,
      217, 186, 216, -1,
      216, 186, 187, -1,
      216, 187, 215, -1,
      215, 187, 188, -1,
      215, 188, 214, -1,
      214, 188, 189, -1,
      214, 189, 213, -1,
      213, 189, 190, -1,
      213, 190, 212, -1,
      212, 190, 191, -1,
      212, 191, 183, -1,
      220, 221, 33, -1,
      33, 221, 18, -1,
      18, 221, 44, -1,
      44, 221, 222, -1,
      44, 222, 45, -1,
      222, 223, 45, -1,
      45, 223, 46, -1,
      46, 223, 5, -1,
      5, 223, 224, -1,
      5, 224, 4, -1,
      224, 225, 4, -1,
      4, 225, 35, -1,
      225, 220, 35, -1,
      35, 220, 33, -1,
      224, 223, 225, -1,
      225, 223, 222, -1,
      225, 222, 220, -1,
      220, 222, 221, -1,
    ]
  }
}

Shape {
  appearance Appearance {
    material Material {
      diffuseColor 0.2078 0.2078 0.2078
      specularColor 0.0157 0.0157 0.0157
      ambientIntensity 0.2
      transparency 0.0000
      shininess 0.5
    }
  }
  geometry IndexedFaceSet {
    ccw TRUE
    solid FALSE
    coord DEF co Coordinate {
      point [
        -0.287098 -0.199998 0.000000,
        -0.352928 -0.199998 0.000000,
        -0.316469 -0.117776 0.000000,
        -0.318363 -0.110949 0.000000,
        -0.319619 -0.103973 0.000000,
        -0.320257 -0.103973 0.000000,
        -0.321541 -0.110928 0.000000,
        -0.323295 -0.117776 0.000000,
        -0.115455 -0.101572 0.000000,
        -0.086422 -0.101572 0.000000,
        -0.138754 -0.104049 0.000000,
        -0.155002 -0.109735 0.000000,
        -0.169381 -0.119024 0.000000,
        -0.178943 -0.129177 0.000000,
        -0.185781 -0.141318 0.000000,
        -0.190377 -0.156887 0.000000,
        -0.192049 -0.176479 0.000000,
        -0.190242 -0.197155 0.000000,
        -0.184468 -0.215659 0.000000,
        -0.176166 -0.229231 0.000000,
        -0.165125 -0.240136 0.000000,
        -0.151700 -0.248108 0.000000,
        -0.135135 -0.253279 0.000000,
        -0.114367 -0.255212 0.000000,
        -0.086422 -0.255212 0.000000,
      ]
    }
    coordIndex [
      0, 1, 2, -1,
      2, 1, 7, -1,
      2, 7, 3, -1,
      3, 7, 6, -1,
      3, 6, 4, -1,
      4, 6, 5, -1,
      9, 24, 8, -1,
      8, 24, 23, -1,
      8, 23, 22, -1,
      16, 15, 8, -1,
      8, 15, 14, -1,
      8, 14, 10, -1,
      22, 21, 8, -1,
      8, 21, 20, -1,
      8, 20, 19, -1,
      19, 18, 8, -1,
      8, 18, 17, -1,
      8, 17, 16, -1,
      13, 12, 14, -1,
      14, 12, 11, -1,
      14, 11, 10, -1,
    ]
  }
}
