ISO-10303-21;
HEADER;
FILE_DESCRIPTION (( 'STEP AP214' ),
    '1' );
FILE_NAME ('6807 Bearing Clamp.STEP',
    '2026-07-11T16:03:16',
    ( '' ),
    ( '' ),
    'SwSTEP 2.0',
    'SolidWorks 2025',
    '' );
FILE_SCHEMA (( 'AUTOMOTIVE_DESIGN' ));
ENDSEC;

DATA;
#1 = VECTOR ( 'NONE', #649, 1000.000000000000000 ) ;
#2 = VERTEX_POINT ( 'NONE', #761 ) ;
#3 = DIRECTION ( 'NONE',  ( 0.000000000000000000, 0.000000000000000000, 1.000000000000000000 ) ) ;
#4 = EDGE_CURVE ( 'NONE', #890, #979, #463, .T. ) ;
#5 = FACE_BOUND ( 'NONE', #803, .T. ) ;
#6 = CIRCLE ( 'NONE', #821, 1.250000000000001776 ) ;
#7 = LINE ( 'NONE', #545, #317 ) ;
#8 = ORIENTED_EDGE ( 'NONE', *, *, #111, .T. ) ;
#9 = SURFACE_STYLE_FILL_AREA ( #87 ) ;
#10 = CARTESIAN_POINT ( 'NONE',  ( 26.30000000000000071, 0.000000000000000000, 1.750000000000003109 ) ) ;
#11 = EDGE_LOOP ( 'NONE', ( #154, #530, #563, #174 ) ) ;
#12 = CARTESIAN_POINT ( 'NONE',  ( 1.249999999999726441, -26.30000000000000071, 1.750000000000003109 ) ) ;
#13 = CIRCLE ( 'NONE', #409, 22.05000000000001492 ) ;
#14 = VERTEX_POINT ( 'NONE', #84 ) ;
#15 = CIRCLE ( 'NONE', #240, 1.499999999999994449 ) ;
#16 = CARTESIAN_POINT ( 'NONE',  ( 9.182595921157440093E-14, 26.30000000000000071, 0.000000000000000000 ) ) ;
#17 = DIRECTION ( 'NONE',  ( 1.000000000000000000, 0.000000000000000000, 0.000000000000000000 ) ) ;
#18 = DIRECTION ( 'NONE',  ( -0.000000000000000000, -0.000000000000000000, -1.000000000000000000 ) ) ;
#19 = ADVANCED_FACE ( 'NONE', ( #74, #532, #395, #5, #383, #312 ), #375, .F. ) ;
#20 = ORIENTED_EDGE ( 'NONE', *, *, #577, .F. ) ;
#21 = AXIS2_PLACEMENT_3D ( 'NONE', #10, #897, #280 ) ;
#22 = AXIS2_PLACEMENT_3D ( 'NONE', #404, #857, #27 ) ;
#23 = LINE ( 'NONE', #865, #103 ) ;
#24 = FACE_OUTER_BOUND ( 'NONE', #221, .T. ) ;
#25 = EDGE_CURVE ( 'NONE', #425, #539, #929, .T. ) ;
#26 = EDGE_LOOP ( 'NONE', ( #513, #623, #783, #203 ) ) ;
#27 = DIRECTION ( 'NONE',  ( 1.000000000000000000, 0.000000000000000000, 0.000000000000000000 ) ) ;
#28 = DIRECTION ( 'NONE',  ( -0.000000000000000000, -0.000000000000000000, -1.000000000000000000 ) ) ;
#29 = ORIENTED_EDGE ( 'NONE', *, *, #566, .F. ) ;
#30 = CIRCLE ( 'NONE', #927, 1.499999999999994449 ) ;
#31 = APPLICATION_CONTEXT ( 'automotive_design' ) ;
#32 = AXIS2_PLACEMENT_3D ( 'NONE', #132, #692, #232 ) ;
#33 = DIRECTION ( 'NONE',  ( -0.7071067811865549002, 8.659560562355022838E-17, 0.7071067811865401342 ) ) ;
#34 = EDGE_CURVE ( 'NONE', #860, #683, #611, .T. ) ;
#35 = DIRECTION ( 'NONE',  ( 1.000000000000000000, 0.000000000000000000, 0.000000000000000000 ) ) ;
#36 = DIRECTION ( 'NONE',  ( 1.000000000000000000, 0.000000000000000000, 0.000000000000000000 ) ) ;
#37 = AXIS2_PLACEMENT_3D ( 'NONE', #455, #829, #968 ) ;
#38 = ADVANCED_FACE ( 'NONE', ( #920 ), #143, .F. ) ;
#39 = CARTESIAN_POINT ( 'NONE',  ( -1.500000000000269784, -26.30000000000000071, 0.000000000000000000 ) ) ;
#40 = AXIS2_PLACEMENT_3D ( 'NONE', #496, #884, #960 ) ;
#41 = ADVANCED_BREP_SHAPE_REPRESENTATION ( '6807 Bearing Clamp', ( #955, #155 ), #310 ) ;
#42 = DIRECTION ( 'NONE',  ( -1.000000000000000000, 0.000000000000000000, 0.000000000000000000 ) ) ;
#43 = DIRECTION ( 'NONE',  ( -0.000000000000000000, -0.000000000000000000, -1.000000000000000000 ) ) ;
#44 = DIRECTION ( 'NONE',  ( 1.000000000000000000, 0.000000000000000000, 0.000000000000000000 ) ) ;
#45 = AXIS2_PLACEMENT_3D ( 'NONE', #939, #85, #558 ) ;
#46 = ORIENTED_EDGE ( 'NONE', *, *, #544, .F. ) ;
#47 = FACE_OUTER_BOUND ( 'NONE', #26, .T. ) ;
#48 = EDGE_CURVE ( 'NONE', #224, #83, #206, .T. ) ;
#49 = CARTESIAN_POINT ( 'NONE',  ( 27.55000000000000071, 1.530808498934194282E-16, 0.2499999999999969746 ) ) ;
#50 = AXIS2_PLACEMENT_3D ( 'NONE', #948, #978, #653 ) ;
#51 = ORIENTED_EDGE ( 'NONE', *, *, #25, .T. ) ;
#52 = CARTESIAN_POINT ( 'NONE',  ( 26.30000000000000071, 0.000000000000000000, 2.000000000000000000 ) ) ;
#53 = VERTEX_POINT ( 'NONE', #244 ) ;
#54 = CARTESIAN_POINT ( 'NONE',  ( 9.182595921157440093E-14, 26.30000000000000071, 1.750000000000003109 ) ) ;
#55 = ORIENTED_EDGE ( 'NONE', *, *, #478, .F. ) ;
#56 = LINE ( 'NONE', #243, #676 ) ;
#57 = CARTESIAN_POINT ( 'NONE',  ( -21.55000000000000071, 0.000000000000000000, 1.499999999999996225 ) ) ;
#58 = DIRECTION ( 'NONE',  ( 1.000000000000000000, 0.000000000000000000, 0.000000000000000000 ) ) ;
#59 = AXIS2_PLACEMENT_3D ( 'NONE', #757, #442, #297 ) ;
#60 = VERTEX_POINT ( 'NONE', #931 ) ;
#61 = VECTOR ( 'NONE', #905, 1000.000000000000000 ) ;
#62 = DIRECTION ( 'NONE',  ( -0.000000000000000000, 0.000000000000000000, -1.000000000000000000 ) ) ;
#63 = CARTESIAN_POINT ( 'NONE',  ( -1.250000000000277112, -26.30000000000000071, 1.750000000000003109 ) ) ;
#64 = ORIENTED_EDGE ( 'NONE', *, *, #325, .F. ) ;
#65 = CARTESIAN_POINT ( 'NONE',  ( 0.000000000000000000, 0.000000000000000000, 0.000000000000000000 ) ) ;
#66 = ADVANCED_FACE ( 'NONE', ( #90 ), #319, .F. ) ;
#67 = VECTOR ( 'NONE', #743, 1000.000000000000000 ) ;
#68 = VERTEX_POINT ( 'NONE', #171 ) ;
#69 = CARTESIAN_POINT ( 'NONE',  ( 0.000000000000000000, 0.000000000000000000, 2.000000000000000000 ) ) ;
#70 = AXIS2_PLACEMENT_3D ( 'NONE', #210, #597, #727 ) ;
#71 = CARTESIAN_POINT ( 'NONE',  ( -22.05000000000000071, 0.000000000000000000, 0.000000000000000000 ) ) ;
#72 = ORIENTED_EDGE ( 'NONE', *, *, #517, .F. ) ;
#73 = CARTESIAN_POINT ( 'NONE',  ( -1.499999999999902744, 26.30000000000000071, 2.000000000000000000 ) ) ;
#74 = FACE_BOUND ( 'NONE', #747, .T. ) ;
#75 = CARTESIAN_POINT ( 'NONE',  ( -1.499999999999902744, 26.30000000000000071, 0.000000000000000000 ) ) ;
#76 = ADVANCED_FACE ( 'NONE', ( #915 ), #459, .F. ) ;
#77 = ORIENTED_EDGE ( 'NONE', *, *, #856, .F. ) ;
#78 = ORIENTED_EDGE ( 'NONE', *, *, #359, .T. ) ;
#79 = VECTOR ( 'NONE', #398, 1000.000000000000000 ) ;
#80 = AXIS2_PLACEMENT_3D ( 'NONE', #989, #839, #379 ) ;
#81 = CARTESIAN_POINT ( 'NONE',  ( 9.182595921157440093E-14, 26.30000000000000071, 0.000000000000000000 ) ) ;
#82 = EDGE_CURVE ( 'NONE', #146, #354, #411, .T. ) ;
#83 = VERTEX_POINT ( 'NONE', #982 ) ;
#84 = CARTESIAN_POINT ( 'NONE',  ( 1.250000000000093481, 26.30000000000000071, 1.750000000000003109 ) ) ;
#85 = DIRECTION ( 'NONE',  ( 0.000000000000000000, 0.000000000000000000, -1.000000000000000000 ) ) ;
#86 = ORIENTED_EDGE ( 'NONE', *, *, #906, .F. ) ;
#87 = FILL_AREA_STYLE ('',( #358 ) ) ;
#88 = CARTESIAN_POINT ( 'NONE',  ( -24.80000000000000782, 0.000000000000000000, 2.000000000000000000 ) ) ;
#89 = EDGE_CURVE ( 'NONE', #60, #83, #986, .T. ) ;
#90 = FACE_OUTER_BOUND ( 'NONE', #695, .T. ) ;
#91 = DIRECTION ( 'NONE',  ( -0.000000000000000000, -0.000000000000000000, -1.000000000000000000 ) ) ;
#92 = VERTEX_POINT ( 'NONE', #991 ) ;
#93 = CARTESIAN_POINT ( 'NONE',  ( -2.754778776347232154E-13, -26.30000000000000071, 1.750000000000003109 ) ) ;
#94 = EDGE_CURVE ( 'NONE', #92, #534, #462, .T. ) ;
#95 = ORIENTED_EDGE ( 'NONE', *, *, #762, .T. ) ;
#96 = CARTESIAN_POINT ( 'NONE',  ( -27.79999999999999361, 0.000000000000000000, 0.000000000000000000 ) ) ;
#97 = AXIS2_PLACEMENT_3D ( 'NONE', #953, #794, #121 ) ;
#98 = ORIENTED_EDGE ( 'NONE', *, *, #359, .F. ) ;
#99 = DIRECTION ( 'NONE',  ( -0.7071067811865414665, 0.000000000000000000, -0.7071067811865536790 ) ) ;
#100 = DIRECTION ( 'NONE',  ( 1.000000000000000000, 0.000000000000000000, 0.000000000000000000 ) ) ;
#101 = ORIENTED_EDGE ( 'NONE', *, *, #773, .F. ) ;
#102 = CIRCLE ( 'NONE', #631, 1.499999999999994449 ) ;
#103 = VECTOR ( 'NONE', #33, 1000.000000000000000 ) ;
#104 = CARTESIAN_POINT ( 'NONE',  ( -26.30000000000000071, 0.000000000000000000, 2.000000000000000000 ) ) ;
#105 = DIRECTION ( 'NONE',  ( -0.7071067811865414665, 0.000000000000000000, -0.7071067811865536790 ) ) ;
#106 = ORIENTED_EDGE ( 'NONE', *, *, #388, .T. ) ;
#107 = EDGE_CURVE ( 'NONE', #834, #536, #112, .T. ) ;
#108 = DIRECTION ( 'NONE',  ( 0.000000000000000000, 0.000000000000000000, 1.000000000000000000 ) ) ;
#109 = CARTESIAN_POINT ( 'NONE',  ( -25.05000000000000071, 1.530808498934193543E-16, 2.000000000000000000 ) ) ;
#110 = EDGE_LOOP ( 'NONE', ( #370, #886, #304, #454 ) ) ;
#111 = EDGE_CURVE ( 'NONE', #281, #323, #669, .T. ) ;
#112 = CIRCLE ( 'NONE', #32, 28.35000000000000142 ) ;
#113 = CARTESIAN_POINT ( 'NONE',  ( 1.499999999999719114, -26.30000000000000071, 0.000000000000000000 ) ) ;
#114 = CARTESIAN_POINT ( 'NONE',  ( -1.500000000000269784, -26.30000000000000071, 2.000000000000000000 ) ) ;
#115 = DIRECTION ( 'NONE',  ( 1.000000000000000000, 0.000000000000000000, 0.000000000000000000 ) ) ;
#116 = CIRCLE ( 'NONE', #531, 1.250000000000001110 ) ;
#117 = LINE ( 'NONE', #654, #866 ) ;
#118 = VERTEX_POINT ( 'NONE', #686 ) ;
#119 = CARTESIAN_POINT ( 'NONE',  ( 0.000000000000000000, 0.000000000000000000, 0.000000000000000000 ) ) ;
#120 = EDGE_CURVE ( 'NONE', #979, #218, #445, .T. ) ;
#121 = DIRECTION ( 'NONE',  ( 1.000000000000000000, 0.000000000000000000, 0.000000000000000000 ) ) ;
#122 = ORIENTED_EDGE ( 'NONE', *, *, #833, .T. ) ;
#123 = CYLINDRICAL_SURFACE ( 'NONE', #488, 1.250000000000001776 ) ;
#124 = CIRCLE ( 'NONE', #733, 1.250000000000001110 ) ;
#125 = VERTEX_POINT ( 'NONE', #995 ) ;
#126 = CYLINDRICAL_SURFACE ( 'NONE', #177, 1.250000000000001776 ) ;
#127 = EDGE_LOOP ( 'NONE', ( #605, #251, #392, #427 ) ) ;
#128 = DIRECTION ( 'NONE',  ( 0.000000000000000000, 0.000000000000000000, -1.000000000000000000 ) ) ;
#129 = VECTOR ( 'NONE', #189, 1000.000000000000000 ) ;
#130 = EDGE_LOOP ( 'NONE', ( #419, #201, #227, #697 ) ) ;
#131 = CARTESIAN_POINT ( 'NONE',  ( 24.80000000000000782, 1.836970198721022785E-16, 2.000000000000000000 ) ) ;
#132 = CARTESIAN_POINT ( 'NONE',  ( 0.000000000000000000, 0.000000000000000000, 2.000000000000000000 ) ) ;
#133 = CARTESIAN_POINT ( 'NONE',  ( 9.182595921157440093E-14, 26.30000000000000071, 2.000000000000000000 ) ) ;
#134 = AXIS2_PLACEMENT_3D ( 'NONE', #283, #661, #671 ) ;
#135 = ORIENTED_EDGE ( 'NONE', *, *, #801, .T. ) ;
#136 = CARTESIAN_POINT ( 'NONE',  ( 22.05000000000000071, 2.700346192119913882E-15, 0.000000000000000000 ) ) ;
#137 = FACE_OUTER_BOUND ( 'NONE', #11, .T. ) ;
#138 = VERTEX_POINT ( 'NONE', #589 ) ;
#139 = APPLICATION_PROTOCOL_DEFINITION ( 'draft international standard', 'automotive_design', 1998, #31 ) ;
#140 = EDGE_CURVE ( 'NONE', #118, #92, #682, .T. ) ;
#141 = AXIS2_PLACEMENT_3D ( 'NONE', #787, #475, #713 ) ;
#142 = EDGE_LOOP ( 'NONE', ( #520, #633, #279, #828 ) ) ;
#143 = CONICAL_SURFACE ( 'NONE', #705, 1.250000000000001110, 0.7853981633974396193 ) ;
#144 = DIRECTION ( 'NONE',  ( -0.000000000000000000, -0.000000000000000000, -1.000000000000000000 ) ) ;
#145 = DIRECTION ( 'NONE',  ( 1.000000000000000000, 0.000000000000000000, 0.000000000000000000 ) ) ;
#146 = VERTEX_POINT ( 'NONE', #63 ) ;
#147 =( NAMED_UNIT ( * ) PLANE_ANGLE_UNIT ( ) SI_UNIT ( $, .RADIAN. ) );
#148 = EDGE_CURVE ( 'NONE', #486, #683, #15, .T. ) ;
#149 = CONICAL_SURFACE ( 'NONE', #195, 21.55000000000000071, 0.7853981633974587151 ) ;
#150 = EDGE_LOOP ( 'NONE', ( #294, #275, #842, #559 ) ) ;
#151 = DIRECTION ( 'NONE',  ( -0.000000000000000000, -0.000000000000000000, -1.000000000000000000 ) ) ;
#152 = VECTOR ( 'NONE', #780, 1000.000000000000000 ) ;
#153 = DIRECTION ( 'NONE',  ( -0.000000000000000000, -0.000000000000000000, -1.000000000000000000 ) ) ;
#154 = ORIENTED_EDGE ( 'NONE', *, *, #801, .F. ) ;
#155 = AXIS2_PLACEMENT_3D ( 'NONE', #65, #3, #540 ) ;
#156 = DIRECTION ( 'NONE',  ( -0.000000000000000000, -0.000000000000000000, -1.000000000000000000 ) ) ;
#157 = VECTOR ( 'NONE', #300, 1000.000000000000000 ) ;
#158 = ADVANCED_FACE ( 'NONE', ( #366 ), #303, .F. ) ;
#159 = DIRECTION ( 'NONE',  ( 0.7071067811865549002, 0.000000000000000000, 0.7071067811865401342 ) ) ;
#160 = ORIENTED_EDGE ( 'NONE', *, *, #885, .T. ) ;
#161 = VERTEX_POINT ( 'NONE', #437 ) ;
#162 = VECTOR ( 'NONE', #869, 1000.000000000000000 ) ;
#163 = DIRECTION ( 'NONE',  ( 0.000000000000000000, 0.000000000000000000, -1.000000000000000000 ) ) ;
#164 = VERTEX_POINT ( 'NONE', #449 ) ;
#165 = DIRECTION ( 'NONE',  ( 1.000000000000000000, 0.000000000000000000, 0.000000000000000000 ) ) ;
#166 = DIRECTION ( 'NONE',  ( 0.000000000000000000, 0.000000000000000000, 1.000000000000000000 ) ) ;
#167 = AXIS2_PLACEMENT_3D ( 'NONE', #448, #980, #510 ) ;
#168 = VERTEX_POINT ( 'NONE', #601 ) ;
#169 = ADVANCED_FACE ( 'NONE', ( #220 ), #570, .F. ) ;
#170 = DIRECTION ( 'NONE',  ( 1.000000000000000000, 0.000000000000000000, 0.000000000000000000 ) ) ;
#171 = CARTESIAN_POINT ( 'NONE',  ( -22.05000000000001492, 2.700346192119915460E-15, 2.000000000000000000 ) ) ;
#172 = CIRCLE ( 'NONE', #871, 1.250000000000001776 ) ;
#173 = CARTESIAN_POINT ( 'NONE',  ( 0.000000000000000000, 0.000000000000000000, 1.499999999999996225 ) ) ;
#174 = ORIENTED_EDGE ( 'NONE', *, *, #417, .F. ) ;
#175 = DIRECTION ( 'NONE',  ( -0.000000000000000000, -0.000000000000000000, -1.000000000000000000 ) ) ;
#176 = LINE ( 'NONE', #326, #749 ) ;
#177 = AXIS2_PLACEMENT_3D ( 'NONE', #729, #643, #658 ) ;
#178 = ORIENTED_EDGE ( 'NONE', *, *, #258, .T. ) ;
#179 = LINE ( 'NONE', #952, #575 ) ;
#180 = EDGE_CURVE ( 'NONE', #354, #677, #824, .T. ) ;
#181 = CARTESIAN_POINT ( 'NONE',  ( -26.30000000000000071, 0.000000000000000000, 1.750000000000003109 ) ) ;
#182 = VERTEX_POINT ( 'NONE', #57 ) ;
#183 = CIRCLE ( 'NONE', #694, 1.250000000000001776 ) ;
#184 = FACE_OUTER_BOUND ( 'NONE', #130, .T. ) ;
#185 = FACE_OUTER_BOUND ( 'NONE', #693, .T. ) ;
#186 = ADVANCED_FACE ( 'NONE', ( #976 ), #378, .F. ) ;
#187 = ORIENTED_EDGE ( 'NONE', *, *, #672, .T. ) ;
#188 = COLOUR_RGB ( '',0.7921568627450980005, 0.8196078431372548767, 0.9333333333333333481 ) ;
#189 = DIRECTION ( 'NONE',  ( 0.7071067811865414665, 0.000000000000000000, 0.7071067811865536790 ) ) ;
#190 = CARTESIAN_POINT ( 'NONE',  ( -26.30000000000000071, 0.000000000000000000, 0.2499999999999969746 ) ) ;
#191 = AXIS2_PLACEMENT_3D ( 'NONE', #480, #18, #549 ) ;
#192 = AXIS2_PLACEMENT_3D ( 'NONE', #362, #836, #675 ) ;
#193 = DIRECTION ( 'NONE',  ( -0.000000000000000000, -0.000000000000000000, -1.000000000000000000 ) ) ;
#194 = CARTESIAN_POINT ( 'NONE',  ( -1.249999999999910072, 26.30000000000000071, 0.2499999999999969746 ) ) ;
#195 = AXIS2_PLACEMENT_3D ( 'NONE', #774, #593, #435 ) ;
#196 = LINE ( 'NONE', #745, #650 ) ;
#197 = CIRCLE ( 'NONE', #50, 1.499999999999994449 ) ;
#198 = ADVANCED_FACE ( 'NONE', ( #137 ), #492, .F. ) ;
#199 = CARTESIAN_POINT ( 'NONE',  ( -26.30000000000000071, 0.000000000000000000, 1.750000000000003109 ) ) ;
#200 = CARTESIAN_POINT ( 'NONE',  ( 9.182595921157440093E-14, 26.30000000000000071, 0.2499999999999969746 ) ) ;
#201 = ORIENTED_EDGE ( 'NONE', *, *, #446, .F. ) ;
#202 = DIRECTION ( 'NONE',  ( -0.7071067811865414665, 0.000000000000000000, -0.7071067811865536790 ) ) ;
#203 = ORIENTED_EDGE ( 'NONE', *, *, #382, .F. ) ;
#204 = AXIS2_PLACEMENT_3D ( 'NONE', #561, #418, #958 ) ;
#205 = CARTESIAN_POINT ( 'NONE',  ( 0.000000000000000000, 0.000000000000000000, 0.000000000000000000 ) ) ;
#206 = CIRCLE ( 'NONE', #269, 1.250000000000001110 ) ;
#207 = VERTEX_POINT ( 'NONE', #607 ) ;
#208 = DIRECTION ( 'NONE',  ( 0.000000000000000000, 0.000000000000000000, 1.000000000000000000 ) ) ;
#209 = CARTESIAN_POINT ( 'NONE',  ( -27.55000000000000071, 0.000000000000000000, 2.000000000000000000 ) ) ;
#210 = CARTESIAN_POINT ( 'NONE',  ( 0.000000000000000000, 0.000000000000000000, 0.5000000000000143219 ) ) ;
#211 = AXIS2_PLACEMENT_3D ( 'NONE', #599, #208, #170 ) ;
#212 = ORIENTED_EDGE ( 'NONE', *, *, #885, .F. ) ;
#213 = DIRECTION ( 'NONE',  ( -1.000000000000000000, 0.000000000000000000, 0.000000000000000000 ) ) ;
#214 = EDGE_CURVE ( 'NONE', #677, #476, #30, .T. ) ;
#215 = DIRECTION ( 'NONE',  ( 0.000000000000000000, 0.000000000000000000, 1.000000000000000000 ) ) ;
#216 = ORIENTED_EDGE ( 'NONE', *, *, #889, .F. ) ;
#217 = CIRCLE ( 'NONE', #602, 1.250000000000001776 ) ;
#218 = VERTEX_POINT ( 'NONE', #75 ) ;
#219 = DIRECTION ( 'NONE',  ( 0.000000000000000000, 0.000000000000000000, 1.000000000000000000 ) ) ;
#220 = FACE_OUTER_BOUND ( 'NONE', #509, .T. ) ;
#221 = EDGE_LOOP ( 'NONE', ( #55, #381, #249, #77 ) ) ;
#222 = CARTESIAN_POINT ( 'NONE',  ( -24.80000000000000782, 1.836970198721022785E-16, 0.000000000000000000 ) ) ;
#223 = VECTOR ( 'NONE', #410, 1000.000000000000000 ) ;
#224 = VERTEX_POINT ( 'NONE', #790 ) ;
#225 = LINE ( 'NONE', #814, #898 ) ;
#226 = CARTESIAN_POINT ( 'NONE',  ( 0.000000000000000000, 0.000000000000000000, 0.000000000000000000 ) ) ;
#227 = ORIENTED_EDGE ( 'NONE', *, *, #382, .T. ) ;
#228 = EDGE_CURVE ( 'NONE', #207, #555, #689, .T. ) ;
#229 = VECTOR ( 'NONE', #930, 1000.000000000000000 ) ;
#230 = ORIENTED_EDGE ( 'NONE', *, *, #762, .F. ) ;
#231 = CIRCLE ( 'NONE', #882, 1.499999999999994449 ) ;
#232 = DIRECTION ( 'NONE',  ( 1.000000000000000000, 0.000000000000000000, 0.000000000000000000 ) ) ;
#233 = ORIENTED_EDGE ( 'NONE', *, *, #754, .F. ) ;
#234 = ORIENTED_EDGE ( 'NONE', *, *, #148, .T. ) ;
#235 = DIRECTION ( 'NONE',  ( -0.7071067811865414665, 8.659560562354860135E-17, 0.7071067811865536790 ) ) ;
#236 = ORIENTED_EDGE ( 'NONE', *, *, #89, .T. ) ;
#237 = DIRECTION ( 'NONE',  ( 1.000000000000000000, 0.000000000000000000, 0.000000000000000000 ) ) ;
#238 = DIRECTION ( 'NONE',  ( 0.000000000000000000, 0.000000000000000000, 1.000000000000000000 ) ) ;
#239 = AXIS2_PLACEMENT_3D ( 'NONE', #181, #554, #717 ) ;
#240 = AXIS2_PLACEMENT_3D ( 'NONE', #529, #819, #145 ) ;
#241 = DIRECTION ( 'NONE',  ( -0.000000000000000000, -0.000000000000000000, -1.000000000000000000 ) ) ;
#242 = ORIENTED_EDGE ( 'NONE', *, *, #544, .T. ) ;
#243 = CARTESIAN_POINT ( 'NONE',  ( 21.55000000000000071, 2.639113852162546308E-15, 2.000000000000000000 ) ) ;
#244 = CARTESIAN_POINT ( 'NONE',  ( 24.80000000000000782, 0.000000000000000000, 0.000000000000000000 ) ) ;
#245 = DIRECTION ( 'NONE',  ( 0.000000000000000000, 0.000000000000000000, 1.000000000000000000 ) ) ;
#246 = EDGE_CURVE ( 'NONE', #182, #281, #588, .T. ) ;
#247 = ORIENTED_EDGE ( 'NONE', *, *, #616, .T. ) ;
#248 = DIRECTION ( 'NONE',  ( -0.000000000000000000, -0.000000000000000000, -1.000000000000000000 ) ) ;
#249 = ORIENTED_EDGE ( 'NONE', *, *, #753, .F. ) ;
#250 = CARTESIAN_POINT ( 'NONE',  ( 26.30000000000000071, 0.000000000000000000, 1.750000000000003109 ) ) ;
#251 = ORIENTED_EDGE ( 'NONE', *, *, #879, .F. ) ;
#252 = CARTESIAN_POINT ( 'NONE',  ( 0.000000000000000000, 0.000000000000000000, 2.000000000000000000 ) ) ;
#253 = ADVANCED_FACE ( 'NONE', ( #24 ), #830, .F. ) ;
#254 = DIRECTION ( 'NONE',  ( 1.000000000000000000, 0.000000000000000000, 0.000000000000000000 ) ) ;
#255 = AXIS2_PLACEMENT_3D ( 'NONE', #696, #241, #849 ) ;
#256 = ORIENTED_EDGE ( 'NONE', *, *, #89, .F. ) ;
#257 = FACE_BOUND ( 'NONE', #518, .T. ) ;
#258 = EDGE_CURVE ( 'NONE', #68, #323, #624, .T. ) ;
#259 = CARTESIAN_POINT ( 'NONE',  ( -28.35000000000000142, 0.000000000000000000, 2.000000000000000000 ) ) ;
#260 = EDGE_LOOP ( 'NONE', ( #807, #306 ) ) ;
#261 = AXIS2_PLACEMENT_3D ( 'NONE', #104, #248, #329 ) ;
#262 = DIRECTION ( 'NONE',  ( -0.000000000000000000, -0.000000000000000000, -1.000000000000000000 ) ) ;
#263 = CARTESIAN_POINT ( 'NONE',  ( -26.30000000000000071, 0.000000000000000000, 1.750000000000003109 ) ) ;
#264 = AXIS2_PLACEMENT_3D ( 'NONE', #512, #193, #42 ) ;
#265 = FACE_BOUND ( 'NONE', #709, .T. ) ;
#266 = DIRECTION ( 'NONE',  ( -0.000000000000000000, -0.000000000000000000, -1.000000000000000000 ) ) ;
#267 = EDGE_CURVE ( 'NONE', #125, #53, #176, .T. ) ;
#268 = CIRCLE ( 'NONE', #396, 1.250000000000001110 ) ;
#269 = AXIS2_PLACEMENT_3D ( 'NONE', #468, #775, #17 ) ;
#270 = CYLINDRICAL_SURFACE ( 'NONE', #40, 21.55000000000000071 ) ;
#271 = CARTESIAN_POINT ( 'NONE',  ( 27.79999999999999361, 0.000000000000000000, 2.000000000000000000 ) ) ;
#272 = ADVANCED_FACE ( 'NONE', ( #708 ), #424, .F. ) ;
#273 = LINE ( 'NONE', #808, #438 ) ;
#274 = CIRCLE ( 'NONE', #659, 1.499999999999994449 ) ;
#275 = ORIENTED_EDGE ( 'NONE', *, *, #298, .T. ) ;
#276 = DIRECTION ( 'NONE',  ( -0.000000000000000000, -0.000000000000000000, -1.000000000000000000 ) ) ;
#277 = VERTEX_POINT ( 'NONE', #308 ) ;
#278 = FACE_OUTER_BOUND ( 'NONE', #360, .T. ) ;
#279 = ORIENTED_EDGE ( 'NONE', *, *, #868, .T. ) ;
#280 = DIRECTION ( 'NONE',  ( 1.000000000000000000, 0.000000000000000000, 0.000000000000000000 ) ) ;
#281 = VERTEX_POINT ( 'NONE', #313 ) ;
#282 = AXIS2_PLACEMENT_3D ( 'NONE', #538, #943, #100 ) ;
#283 = CARTESIAN_POINT ( 'NONE',  ( 26.30000000000000071, 0.000000000000000000, 0.2499999999999969746 ) ) ;
#284 = VECTOR ( 'NONE', #766, 1000.000000000000000 ) ;
#285 = ADVANCED_FACE ( 'NONE', ( #921 ), #330, .F. ) ;
#286 = ORIENTED_EDGE ( 'NONE', *, *, #965, .T. ) ;
#287 = FACE_OUTER_BOUND ( 'NONE', #592, .T. ) ;
#288 = CARTESIAN_POINT ( 'NONE',  ( 21.55000000000000071, 0.000000000000000000, 1.499999999999996225 ) ) ;
#289 = EDGE_LOOP ( 'NONE', ( #667, #106 ) ) ;
#290 = CARTESIAN_POINT ( 'NONE',  ( 0.000000000000000000, 0.000000000000000000, 0.5000000000000143219 ) ) ;
#291 = ORIENTED_EDGE ( 'NONE', *, *, #786, .F. ) ;
#292 = DIRECTION ( 'NONE',  ( -0.000000000000000000, -0.000000000000000000, -1.000000000000000000 ) ) ;
#293 = DIRECTION ( 'NONE',  ( 1.000000000000000000, 0.000000000000000000, 0.000000000000000000 ) ) ;
#294 = ORIENTED_EDGE ( 'NONE', *, *, #107, .F. ) ;
#295 = ORIENTED_EDGE ( 'NONE', *, *, #495, .F. ) ;
#296 = LINE ( 'NONE', #625, #725 ) ;
#297 = DIRECTION ( 'NONE',  ( -1.000000000000000000, 0.000000000000000000, 0.000000000000000000 ) ) ;
#298 = EDGE_CURVE ( 'NONE', #834, #386, #7, .T. ) ;
#299 = EDGE_LOOP ( 'NONE', ( #349, #967, #135, #933 ) ) ;
#300 = DIRECTION ( 'NONE',  ( 0.000000000000000000, 0.000000000000000000, -1.000000000000000000 ) ) ;
#301 = AXIS2_PLACEMENT_3D ( 'NONE', #250, #406, #843 ) ;
#302 = DIRECTION ( 'NONE',  ( 0.7071067811865414665, 8.659560562354860135E-17, -0.7071067811865536790 ) ) ;
#303 = CYLINDRICAL_SURFACE ( 'NONE', #192, 1.250000000000001110 ) ;
#304 = ORIENTED_EDGE ( 'NONE', *, *, #641, .T. ) ;
#305 =( NAMED_UNIT ( * ) SI_UNIT ( $, .STERADIAN. ) SOLID_ANGLE_UNIT ( ) );
#306 = ORIENTED_EDGE ( 'NONE', *, *, #107, .T. ) ;
#307 = CIRCLE ( 'NONE', #22, 1.250000000000001776 ) ;
#308 = CARTESIAN_POINT ( 'NONE',  ( 27.79999999999999361, 1.836970198721022785E-16, 0.000000000000000000 ) ) ;
#309 = ORIENTED_EDGE ( 'NONE', *, *, #551, .T. ) ;
#310 =( GEOMETRIC_REPRESENTATION_CONTEXT ( 3 ) GLOBAL_UNCERTAINTY_ASSIGNED_CONTEXT ( ( #969 ) ) GLOBAL_UNIT_ASSIGNED_CONTEXT ( ( #604, #913, #535 ) ) REPRESENTATION_CONTEXT ( 'NONE', 'WORKASPACE' ) );
#311 = CIRCLE ( 'NONE', #951, 21.55000000000000071 ) ;
#312 = FACE_OUTER_BOUND ( 'NONE', #992, .T. ) ;
#313 = CARTESIAN_POINT ( 'NONE',  ( 21.55000000000000071, 2.639113852162546308E-15, 1.499999999999996225 ) ) ;
#314 = ORIENTED_EDGE ( 'NONE', *, *, #779, .T. ) ;
#315 = FACE_BOUND ( 'NONE', #289, .T. ) ;
#316 = ORIENTED_EDGE ( 'NONE', *, *, #856, .T. ) ;
#317 = VECTOR ( 'NONE', #91, 1000.000000000000000 ) ;
#318 = EDGE_CURVE ( 'NONE', #60, #161, #484, .T. ) ;
#319 = CONICAL_SURFACE ( 'NONE', #846, 1.250000000000001776, 0.7853981633974396193 ) ;
#320 = CARTESIAN_POINT ( 'NONE',  ( 0.000000000000000000, 0.000000000000000000, 2.000000000000000000 ) ) ;
#321 = ORIENTED_EDGE ( 'NONE', *, *, #825, .T. ) ;
#322 = CARTESIAN_POINT ( 'NONE',  ( 0.000000000000000000, 0.000000000000000000, 2.000000000000000000 ) ) ;
#323 = VERTEX_POINT ( 'NONE', #622 ) ;
#324 = CIRCLE ( 'NONE', #21, 1.250000000000001110 ) ;
#325 = EDGE_CURVE ( 'NONE', #536, #834, #768, .T. ) ;
#326 = CARTESIAN_POINT ( 'NONE',  ( 24.80000000000000782, 0.000000000000000000, 0.000000000000000000 ) ) ;
#327 = AXIS2_PLACEMENT_3D ( 'NONE', #666, #880, #656 ) ;
#328 = ORIENTED_EDGE ( 'NONE', *, *, #258, .F. ) ;
#329 = DIRECTION ( 'NONE',  ( 1.000000000000000000, 0.000000000000000000, 0.000000000000000000 ) ) ;
#330 = CYLINDRICAL_SURFACE ( 'NONE', #990, 1.250000000000001110 ) ;
#331 = ORIENTED_EDGE ( 'NONE', *, *, #652, .F. ) ;
#332 = EDGE_CURVE ( 'NONE', #940, #125, #124, .T. ) ;
#333 = CARTESIAN_POINT ( 'NONE',  ( 9.182595921157440093E-14, 26.30000000000000071, 1.750000000000003109 ) ) ;
#334 = AXIS2_PLACEMENT_3D ( 'NONE', #899, #215, #515 ) ;
#335 = LINE ( 'NONE', #259, #703 ) ;
#336 = VERTEX_POINT ( 'NONE', #859 ) ;
#337 = ADVANCED_FACE ( 'NONE', ( #863 ), #771, .F. ) ;
#338 = CARTESIAN_POINT ( 'NONE',  ( -21.55000000000000071, 0.000000000000000000, 2.000000000000000000 ) ) ;
#339 = CYLINDRICAL_SURFACE ( 'NONE', #610, 1.250000000000001776 ) ;
#340 = CIRCLE ( 'NONE', #574, 1.499999999999994449 ) ;
#341 = CARTESIAN_POINT ( 'NONE',  ( -26.30000000000000071, 0.000000000000000000, 0.000000000000000000 ) ) ;
#342 = ADVANCED_FACE ( 'NONE', ( #385 ), #506, .F. ) ;
#343 = CARTESIAN_POINT ( 'NONE',  ( 9.182595921157440093E-14, 26.30000000000000071, 2.000000000000000000 ) ) ;
#344 = CIRCLE ( 'NONE', #516, 28.35000000000000142 ) ;
#345 = DIRECTION ( 'NONE',  ( 1.000000000000000000, 0.000000000000000000, 0.000000000000000000 ) ) ;
#346 = DIRECTION ( 'NONE',  ( 0.000000000000000000, 0.000000000000000000, 1.000000000000000000 ) ) ;
#347 = EDGE_CURVE ( 'NONE', #809, #164, #844, .T. ) ;
#348 = CARTESIAN_POINT ( 'NONE',  ( 1.249999999999726441, -26.30000000000000071, 0.2499999999999969746 ) ) ;
#349 = ORIENTED_EDGE ( 'NONE', *, *, #82, .T. ) ;
#350 = CARTESIAN_POINT ( 'NONE',  ( -26.30000000000000071, 0.000000000000000000, 1.750000000000003109 ) ) ;
#351 = CIRCLE ( 'NONE', #483, 1.250000000000001776 ) ;
#352 = FACE_OUTER_BOUND ( 'NONE', #596, .T. ) ;
#353 = CIRCLE ( 'NONE', #452, 1.499999999999994449 ) ;
#354 = VERTEX_POINT ( 'NONE', #12 ) ;
#355 = DIRECTION ( 'NONE',  ( -0.000000000000000000, -0.000000000000000000, -1.000000000000000000 ) ) ;
#356 = ORIENTED_EDGE ( 'NONE', *, *, #48, .T. ) ;
#357 = PRESENTATION_LAYER_ASSIGNMENT (  '', '', ( #637 ) ) ;
#358 = FILL_AREA_STYLE_COLOUR ( '', #188 ) ;
#359 = EDGE_CURVE ( 'NONE', #323, #68, #13, .T. ) ;
#360 = EDGE_LOOP ( 'NONE', ( #499, #543, #813, #944 ) ) ;
#361 = FACE_OUTER_BOUND ( 'NONE', #523, .T. ) ;
#362 = CARTESIAN_POINT ( 'NONE',  ( 26.30000000000000071, 0.000000000000000000, 2.000000000000000000 ) ) ;
#363 = CARTESIAN_POINT ( 'NONE',  ( 9.182595921157440093E-14, 26.30000000000000071, 0.2499999999999969746 ) ) ;
#364 = ORIENTED_EDGE ( 'NONE', *, *, #818, .T. ) ;
#365 = CARTESIAN_POINT ( 'NONE',  ( 25.05000000000000071, 0.000000000000000000, 2.000000000000000000 ) ) ;
#366 = FACE_OUTER_BOUND ( 'NONE', #609, .T. ) ;
#367 = ORIENTED_EDGE ( 'NONE', *, *, #746, .T. ) ;
#368 = APPLICATION_PROTOCOL_DEFINITION ( 'draft international standard', 'automotive_design', 1998, #848 ) ;
#369 = AXIS2_PLACEMENT_3D ( 'NONE', #199, #806, #422 ) ;
#370 = ORIENTED_EDGE ( 'NONE', *, *, #965, .F. ) ;
#371 = DIRECTION ( 'NONE',  ( -0.000000000000000000, -0.000000000000000000, -1.000000000000000000 ) ) ;
#372 = EDGE_CURVE ( 'NONE', #281, #182, #541, .T. ) ;
#373 = DIRECTION ( 'NONE',  ( 0.000000000000000000, 0.000000000000000000, 1.000000000000000000 ) ) ;
#374 = ORIENTED_EDGE ( 'NONE', *, *, #754, .T. ) ;
#375 = PLANE ( 'NONE',  #80 ) ;
#376 = CARTESIAN_POINT ( 'NONE',  ( 9.182595921157440093E-14, 26.30000000000000071, 2.000000000000000000 ) ) ;
#377 = ORIENTED_EDGE ( 'NONE', *, *, #214, .F. ) ;
#378 = CONICAL_SURFACE ( 'NONE', #334, 1.250000000000001776, 0.7853981633974396193 ) ;
#379 = DIRECTION ( 'NONE',  ( 1.000000000000000000, 0.000000000000000000, -0.000000000000000000 ) ) ;
#380 = CARTESIAN_POINT ( 'NONE',  ( -2.754778776347232154E-13, -26.30000000000000071, 1.750000000000003109 ) ) ;
#381 = ORIENTED_EDGE ( 'NONE', *, *, #318, .T. ) ;
#382 = EDGE_CURVE ( 'NONE', #83, #809, #782, .T. ) ;
#383 = FACE_BOUND ( 'NONE', #907, .T. ) ;
#384 = CIRCLE ( 'NONE', #327, 22.05000000000000071 ) ;
#385 = FACE_OUTER_BOUND ( 'NONE', #434, .T. ) ;
#386 = VERTEX_POINT ( 'NONE', #811 ) ;
#387 = SURFACE_STYLE_USAGE ( .BOTH. , #760 ) ;
#388 = EDGE_CURVE ( 'NONE', #476, #677, #642, .T. ) ;
#389 = DIRECTION ( 'NONE',  ( -1.000000000000000000, 0.000000000000000000, 0.000000000000000000 ) ) ;
#390 = CARTESIAN_POINT ( 'NONE',  ( -2.754778776347232154E-13, -26.30000000000000071, 1.750000000000003109 ) ) ;
#391 = DIRECTION ( 'NONE',  ( -0.000000000000000000, -0.000000000000000000, -1.000000000000000000 ) ) ;
#392 = ORIENTED_EDGE ( 'NONE', *, *, #140, .T. ) ;
#393 = DIRECTION ( 'NONE',  ( 1.000000000000000000, 0.000000000000000000, -0.000000000000000000 ) ) ;
#394 = EDGE_CURVE ( 'NONE', #336, #450, #414, .T. ) ;
#395 = FACE_BOUND ( 'NONE', #603, .T. ) ;
#396 = AXIS2_PLACEMENT_3D ( 'NONE', #190, #28, #501 ) ;
#397 = EDGE_CURVE ( 'NONE', #207, #539, #878, .T. ) ;
#398 = DIRECTION ( 'NONE',  ( -0.7071067811865414665, 0.000000000000000000, -0.7071067811865536790 ) ) ;
#399 = ORIENTED_EDGE ( 'NONE', *, *, #94, .T. ) ;
#400 = CARTESIAN_POINT ( 'NONE',  ( 1.250000000000093481, 26.30000000000000071, 2.000000000000000000 ) ) ;
#401 = CARTESIAN_POINT ( 'NONE',  ( 0.000000000000000000, 0.000000000000000000, 1.499999999999996225 ) ) ;
#402 = ADVANCED_FACE ( 'NONE', ( #723 ), #479, .F. ) ;
#403 = ORIENTED_EDGE ( 'NONE', *, *, #925, .F. ) ;
#404 = CARTESIAN_POINT ( 'NONE',  ( -2.754778776347232154E-13, -26.30000000000000071, 0.2499999999999969746 ) ) ;
#405 = CONICAL_SURFACE ( 'NONE', #620, 22.05000000000000071, 0.7853981633974346233 ) ;
#406 = DIRECTION ( 'NONE',  ( 0.000000000000000000, 0.000000000000000000, 1.000000000000000000 ) ) ;
#407 = EDGE_LOOP ( 'NONE', ( #46, #504, #374, #832 ) ) ;
#408 = DIRECTION ( 'NONE',  ( 0.000000000000000000, 0.000000000000000000, 1.000000000000000000 ) ) ;
#409 = AXIS2_PLACEMENT_3D ( 'NONE', #320, #627, #932 ) ;
#410 = DIRECTION ( 'NONE',  ( 0.000000000000000000, 0.000000000000000000, -1.000000000000000000 ) ) ;
#411 = CIRCLE ( 'NONE', #974, 1.250000000000001776 ) ;
#412 = ORIENTED_EDGE ( 'NONE', *, *, #681, .T. ) ;
#413 = LINE ( 'NONE', #338, #1 ) ;
#414 = LINE ( 'NONE', #505, #162 ) ;
#415 = CONICAL_SURFACE ( 'NONE', #934, 1.499999999999994449, 0.7853981633974396193 ) ;
#416 = CARTESIAN_POINT ( 'NONE',  ( 28.35000000000000142, 3.471873675582746420E-15, 2.000000000000000000 ) ) ;
#417 = EDGE_CURVE ( 'NONE', #458, #486, #493, .T. ) ;
#418 = DIRECTION ( 'NONE',  ( -0.000000000000000000, -0.000000000000000000, -1.000000000000000000 ) ) ;
#419 = ORIENTED_EDGE ( 'NONE', *, *, #993, .F. ) ;
#420 = DIRECTION ( 'NONE',  ( 1.000000000000000000, 0.000000000000000000, 0.000000000000000000 ) ) ;
#421 = EDGE_CURVE ( 'NONE', #536, #138, #335, .T. ) ;
#422 = DIRECTION ( 'NONE',  ( 1.000000000000000000, 0.000000000000000000, 0.000000000000000000 ) ) ;
#423 = ADVANCED_FACE ( 'NONE', ( #185 ), #339, .F. ) ;
#424 = CONICAL_SURFACE ( 'NONE', #141, 22.05000000000000071, 0.7853981633974346233 ) ;
#425 = VERTEX_POINT ( 'NONE', #271 ) ;
#426 = DIRECTION ( 'NONE',  ( 0.000000000000000000, 0.000000000000000000, -1.000000000000000000 ) ) ;
#427 = ORIENTED_EDGE ( 'NONE', *, *, #825, .F. ) ;
#428 = DIRECTION ( 'NONE',  ( -0.7071067811865414665, 8.659560562354860135E-17, 0.7071067811865536790 ) ) ;
#429 = ADVANCED_FACE ( 'NONE', ( #573 ), #126, .F. ) ;
#430 = CIRCLE ( 'NONE', #211, 1.499999999999994449 ) ;
#431 = ORIENTED_EDGE ( 'NONE', *, *, #372, .F. ) ;
#432 = DIRECTION ( 'NONE',  ( -1.000000000000000000, 0.000000000000000000, 0.000000000000000000 ) ) ;
#433 = AXIS2_PLACEMENT_3D ( 'NONE', #69, #371, #680 ) ;
#434 = EDGE_LOOP ( 'NONE', ( #644, #928, #291, #665 ) ) ;
#435 = DIRECTION ( 'NONE',  ( 1.000000000000000000, 0.000000000000000000, 0.000000000000000000 ) ) ;
#436 = PRODUCT_DEFINITION_FORMATION_WITH_SPECIFIED_SOURCE ( 'ANY', '', #858, .NOT_KNOWN. ) ;
#437 = CARTESIAN_POINT ( 'NONE',  ( -27.79999999999999361, 1.836970198721022785E-16, 2.000000000000000000 ) ) ;
#438 = VECTOR ( 'NONE', #971, 1000.000000000000000 ) ;
#439 = CYLINDRICAL_SURFACE ( 'NONE', #716, 1.250000000000001110 ) ;
#440 = ORIENTED_EDGE ( 'NONE', *, *, #919, .F. ) ;
#441 = CARTESIAN_POINT ( 'NONE',  ( -2.754778776347232154E-13, -26.30000000000000071, 0.2499999999999969746 ) ) ;
#442 = DIRECTION ( 'NONE',  ( -0.000000000000000000, -0.000000000000000000, -1.000000000000000000 ) ) ;
#443 = EDGE_LOOP ( 'NONE', ( #847, #598 ) ) ;
#444 = PRODUCT_CONTEXT ( 'NONE', #31, 'mechanical' ) ;
#445 = CIRCLE ( 'NONE', #670, 1.499999999999994449 ) ;
#446 = EDGE_CURVE ( 'NONE', #83, #224, #268, .T. ) ;
#447 = ORIENTED_EDGE ( 'NONE', *, *, #397, .T. ) ;
#448 = CARTESIAN_POINT ( 'NONE',  ( 0.000000000000000000, 0.000000000000000000, 2.000000000000000000 ) ) ;
#449 = CARTESIAN_POINT ( 'NONE',  ( -24.80000000000000782, 1.836970198721022785E-16, 0.000000000000000000 ) ) ;
#450 = VERTEX_POINT ( 'NONE', #194 ) ;
#451 = AXIS2_PLACEMENT_3D ( 'NONE', #975, #586, #389 ) ;
#452 = AXIS2_PLACEMENT_3D ( 'NONE', #16, #788, #715 ) ;
#453 = EDGE_CURVE ( 'NONE', #14, #2, #946, .T. ) ;
#454 = ORIENTED_EDGE ( 'NONE', *, *, #850, .T. ) ;
#455 = CARTESIAN_POINT ( 'NONE',  ( 9.182595921157440093E-14, 26.30000000000000071, 1.750000000000003109 ) ) ;
#456 = DIRECTION ( 'NONE',  ( -0.000000000000000000, -0.000000000000000000, -1.000000000000000000 ) ) ;
#457 = ORIENTED_EDGE ( 'NONE', *, *, #460, .T. ) ;
#458 = VERTEX_POINT ( 'NONE', #489 ) ;
#459 = CYLINDRICAL_SURFACE ( 'NONE', #891, 1.250000000000001776 ) ;
#460 = EDGE_CURVE ( 'NONE', #138, #386, #524, .T. ) ;
#461 = EDGE_LOOP ( 'NONE', ( #546, #527, #295, #626 ) ) ;
#462 = CIRCLE ( 'NONE', #542, 22.05000000000000071 ) ;
#463 = LINE ( 'NONE', #770, #722 ) ;
#464 = DIRECTION ( 'NONE',  ( 1.000000000000000000, 0.000000000000000000, 0.000000000000000000 ) ) ;
#465 = EDGE_CURVE ( 'NONE', #629, #224, #950, .T. ) ;
#466 = ORIENTED_EDGE ( 'NONE', *, *, #641, .F. ) ;
#467 = DIRECTION ( 'NONE',  ( 0.7071067811865414665, 8.659560562354860135E-17, -0.7071067811865536790 ) ) ;
#468 = CARTESIAN_POINT ( 'NONE',  ( -26.30000000000000071, 0.000000000000000000, 0.2499999999999969746 ) ) ;
#469 = DIRECTION ( 'NONE',  ( 0.000000000000000000, 0.000000000000000000, 1.000000000000000000 ) ) ;
#470 = EDGE_LOOP ( 'NONE', ( #639, #440, #752, #230 ) ) ;
#471 = ADVANCED_FACE ( 'NONE', ( #47 ), #415, .F. ) ;
#472 = DIRECTION ( 'NONE',  ( 1.000000000000000000, 0.000000000000000000, 0.000000000000000000 ) ) ;
#473 = AXIS2_PLACEMENT_3D ( 'NONE', #502, #572, #345 ) ;
#474 = ORIENTED_EDGE ( 'NONE', *, *, #707, .T. ) ;
#475 = DIRECTION ( 'NONE',  ( -0.000000000000000000, -0.000000000000000000, -1.000000000000000000 ) ) ;
#476 = VERTEX_POINT ( 'NONE', #114 ) ;
#477 = FACE_OUTER_BOUND ( 'NONE', #260, .T. ) ;
#478 = EDGE_CURVE ( 'NONE', #60, #629, #116, .T. ) ;
#479 = CONICAL_SURFACE ( 'NONE', #797, 1.250000000000001110, 0.7853981633974396193 ) ;
#480 = CARTESIAN_POINT ( 'NONE',  ( 0.000000000000000000, 0.000000000000000000, 2.000000000000000000 ) ) ;
#481 = ORIENTED_EDGE ( 'NONE', *, *, #397, .F. ) ;
#482 = CARTESIAN_POINT ( 'NONE',  ( 9.182595921157440093E-14, 26.30000000000000071, 2.000000000000000000 ) ) ;
#483 = AXIS2_PLACEMENT_3D ( 'NONE', #441, #355, #904 ) ;
#484 = LINE ( 'NONE', #638, #876 ) ;
#485 = CIRCLE ( 'NONE', #867, 1.250000000000001776 ) ;
#486 = VERTEX_POINT ( 'NONE', #39 ) ;
#487 = CARTESIAN_POINT ( 'NONE',  ( -1.499999999999902744, 26.30000000000000071, 0.000000000000000000 ) ) ;
#488 = AXIS2_PLACEMENT_3D ( 'NONE', #133, #426, #735 ) ;
#489 = CARTESIAN_POINT ( 'NONE',  ( -1.250000000000277112, -26.30000000000000071, 0.2499999999999969746 ) ) ;
#490 = ORIENTED_EDGE ( 'NONE', *, *, #140, .F. ) ;
#491 = DIRECTION ( 'NONE',  ( -1.000000000000000000, 0.000000000000000000, 0.000000000000000000 ) ) ;
#492 = CONICAL_SURFACE ( 'NONE', #59, 1.499999999999994449, 0.7853981633974396193 ) ;
#493 = LINE ( 'NONE', #734, #568 ) ;
#494 = CLOSED_SHELL ( 'NONE', ( #253, #959, #38, #186, #198, #526, #342, #471, #76, #158, #429, #337, #941, #981, #728, #655, #660, #19, #537, #874, #628, #272, #954, #423, #285, #935, #719, #169, #862, #646, #66, #571, #608, #402 ) ) ;
#495 = EDGE_CURVE ( 'NONE', #2, #961, #102, .T. ) ;
#496 = CARTESIAN_POINT ( 'NONE',  ( 0.000000000000000000, 0.000000000000000000, 2.000000000000000000 ) ) ;
#497 = DIRECTION ( 'NONE',  ( 0.7071067811865414665, 0.000000000000000000, 0.7071067811865536790 ) ) ;
#498 = CONICAL_SURFACE ( 'NONE', #37, 1.250000000000001776, 0.7853981633974396193 ) ;
#499 = ORIENTED_EDGE ( 'NONE', *, *, #687, .F. ) ;
#500 = DIRECTION ( 'NONE',  ( -0.000000000000000000, -0.000000000000000000, -1.000000000000000000 ) ) ;
#501 = DIRECTION ( 'NONE',  ( 1.000000000000000000, 0.000000000000000000, 0.000000000000000000 ) ) ;
#502 = CARTESIAN_POINT ( 'NONE',  ( -2.754778776347232154E-13, -26.30000000000000071, 0.000000000000000000 ) ) ;
#503 = EDGE_CURVE ( 'NONE', #336, #961, #117, .T. ) ;
#504 = ORIENTED_EDGE ( 'NONE', *, *, #372, .T. ) ;
#505 = CARTESIAN_POINT ( 'NONE',  ( -1.249999999999910072, 26.30000000000000071, 2.000000000000000000 ) ) ;
#506 = CONICAL_SURFACE ( 'NONE', #255, 1.499999999999994449, 0.7853981633974396193 ) ;
#507 = ORIENTED_EDGE ( 'NONE', *, *, #228, .T. ) ;
#508 = DIRECTION ( 'NONE',  ( -1.000000000000000000, 0.000000000000000000, 0.000000000000000000 ) ) ;
#509 = EDGE_LOOP ( 'NONE', ( #837, #212, #367, #896 ) ) ;
#510 = DIRECTION ( 'NONE',  ( -1.000000000000000000, 0.000000000000000000, 0.000000000000000000 ) ) ;
#511 = DIRECTION ( 'NONE',  ( -0.7071067811865378028, 0.000000000000000000, -0.7071067811865573427 ) ) ;
#512 = CARTESIAN_POINT ( 'NONE',  ( 26.30000000000000071, 0.000000000000000000, 0.000000000000000000 ) ) ;
#513 = ORIENTED_EDGE ( 'NONE', *, *, #48, .F. ) ;
#514 = CARTESIAN_POINT ( 'NONE',  ( 22.05000000000000071, 2.700346192119913882E-15, 0.000000000000000000 ) ) ;
#515 = DIRECTION ( 'NONE',  ( 1.000000000000000000, 0.000000000000000000, 0.000000000000000000 ) ) ;
#516 = AXIS2_PLACEMENT_3D ( 'NONE', #119, #820, #420 ) ;
#517 = EDGE_CURVE ( 'NONE', #629, #60, #815, .T. ) ;
#518 = EDGE_LOOP ( 'NONE', ( #78, #178 ) ) ;
#519 = CARTESIAN_POINT ( 'NONE',  ( 27.55000000000000071, 1.530808498934193543E-16, 2.000000000000000000 ) ) ;
#520 = ORIENTED_EDGE ( 'NONE', *, *, #805, .T. ) ;
#521 = DIRECTION ( 'NONE',  ( 1.000000000000000000, 0.000000000000000000, 0.000000000000000000 ) ) ;
#522 = DIRECTION ( 'NONE',  ( -1.000000000000000000, 0.000000000000000000, 0.000000000000000000 ) ) ;
#523 = EDGE_LOOP ( 'NONE', ( #970, #29, #912, #216 ) ) ;
#524 = CIRCLE ( 'NONE', #97, 28.35000000000000142 ) ;
#525 = CARTESIAN_POINT ( 'NONE',  ( 0.000000000000000000, 0.000000000000000000, 1.499999999999996225 ) ) ;
#526 = ADVANCED_FACE ( 'NONE', ( #580 ), #647, .F. ) ;
#527 = ORIENTED_EDGE ( 'NONE', *, *, #503, .T. ) ;
#528 = CARTESIAN_POINT ( 'NONE',  ( -25.05000000000000071, 1.530808498934194282E-16, 1.750000000000003109 ) ) ;
#529 = CARTESIAN_POINT ( 'NONE',  ( -2.754778776347232154E-13, -26.30000000000000071, 0.000000000000000000 ) ) ;
#530 = ORIENTED_EDGE ( 'NONE', *, *, #34, .T. ) ;
#531 = AXIS2_PLACEMENT_3D ( 'NONE', #263, #726, #565 ) ;
#532 = FACE_BOUND ( 'NONE', #443, .T. ) ;
#533 = DIRECTION ( 'NONE',  ( 1.000000000000000000, 0.000000000000000000, 0.000000000000000000 ) ) ;
#534 = VERTEX_POINT ( 'NONE', #136 ) ;
#535 =( NAMED_UNIT ( * ) SI_UNIT ( $, .STERADIAN. ) SOLID_ANGLE_UNIT ( ) );
#536 = VERTEX_POINT ( 'NONE', #892 ) ;
#537 = ADVANCED_FACE ( 'NONE', ( #287 ), #910, .T. ) ;
#538 = CARTESIAN_POINT ( 'NONE',  ( 0.000000000000000000, 0.000000000000000000, 2.000000000000000000 ) ) ;
#539 = VERTEX_POINT ( 'NONE', #131 ) ;
#540 = DIRECTION ( 'NONE',  ( 1.000000000000000000, 0.000000000000000000, 0.000000000000000000 ) ) ;
#541 = CIRCLE ( 'NONE', #810, 21.55000000000000071 ) ;
#542 = AXIS2_PLACEMENT_3D ( 'NONE', #226, #840, #293 ) ;
#543 = ORIENTED_EDGE ( 'NONE', *, *, #850, .F. ) ;
#544 = EDGE_CURVE ( 'NONE', #281, #168, #56, .T. ) ;
#545 = CARTESIAN_POINT ( 'NONE',  ( 28.35000000000000142, 3.471873675582746420E-15, 2.000000000000000000 ) ) ;
#546 = ORIENTED_EDGE ( 'NONE', *, *, #805, .F. ) ;
#547 = FACE_OUTER_BOUND ( 'NONE', #795, .T. ) ;
#548 = DIRECTION ( 'NONE',  ( 1.000000000000000000, 0.000000000000000000, 0.000000000000000000 ) ) ;
#549 = DIRECTION ( 'NONE',  ( 1.000000000000000000, 0.000000000000000000, 0.000000000000000000 ) ) ;
#550 = VERTEX_POINT ( 'NONE', #88 ) ;
#551 = EDGE_CURVE ( 'NONE', #168, #534, #823, .T. ) ;
#552 = DIRECTION ( 'NONE',  ( 0.000000000000000000, 0.000000000000000000, 1.000000000000000000 ) ) ;
#553 = ORIENTED_EDGE ( 'NONE', *, *, #332, .T. ) ;
#554 = DIRECTION ( 'NONE',  ( 0.000000000000000000, 0.000000000000000000, 1.000000000000000000 ) ) ;
#555 = VERTEX_POINT ( 'NONE', #852 ) ;
#556 = DIRECTION ( 'NONE',  ( 0.7071067811865414665, 8.659560562354860135E-17, -0.7071067811865536790 ) ) ;
#557 = AXIS2_PLACEMENT_3D ( 'NONE', #744, #153, #522 ) ;
#558 = DIRECTION ( 'NONE',  ( -1.000000000000000000, 0.000000000000000000, 0.000000000000000000 ) ) ;
#559 = ORIENTED_EDGE ( 'NONE', *, *, #421, .F. ) ;
#560 = DIRECTION ( 'NONE',  ( 1.000000000000000000, 0.000000000000000000, 0.000000000000000000 ) ) ;
#561 = CARTESIAN_POINT ( 'NONE',  ( -2.754778776347232154E-13, -26.30000000000000071, 2.000000000000000000 ) ) ;
#562 = CONICAL_SURFACE ( 'NONE', #615, 1.499999999999994449, 0.7853981633974396193 ) ;
#563 = ORIENTED_EDGE ( 'NONE', *, *, #148, .F. ) ;
#564 = DIRECTION ( 'NONE',  ( 0.000000000000000000, 0.000000000000000000, 1.000000000000000000 ) ) ;
#565 = DIRECTION ( 'NONE',  ( 1.000000000000000000, 0.000000000000000000, 0.000000000000000000 ) ) ;
#566 = EDGE_CURVE ( 'NONE', #458, #860, #351, .T. ) ;
#567 = PLANE ( 'NONE',  #632 ) ;
#568 = VECTOR ( 'NONE', #202, 1000.000000000000000 ) ;
#569 = DIRECTION ( 'NONE',  ( -1.000000000000000000, 0.000000000000000000, 0.000000000000000000 ) ) ;
#570 = CONICAL_SURFACE ( 'NONE', #557, 1.499999999999994449, 0.7853981633974396193 ) ;
#571 = ADVANCED_FACE ( 'NONE', ( #547 ), #738, .F. ) ;
#572 = DIRECTION ( 'NONE',  ( 0.000000000000000000, 0.000000000000000000, 1.000000000000000000 ) ) ;
#573 = FACE_OUTER_BOUND ( 'NONE', #299, .T. ) ;
#574 = AXIS2_PLACEMENT_3D ( 'NONE', #52, #151, #521 ) ;
#575 = VECTOR ( 'NONE', #556, 1000.000000000000000 ) ;
#576 = FACE_OUTER_BOUND ( 'NONE', #407, .T. ) ;
#577 = EDGE_CURVE ( 'NONE', #53, #277, #430, .T. ) ;
#578 = VECTOR ( 'NONE', #467, 1000.000000000000000 ) ;
#579 = ORIENTED_EDGE ( 'NONE', *, *, #347, .T. ) ;
#580 = FACE_OUTER_BOUND ( 'NONE', #585, .T. ) ;
#581 = AXIS2_PLACEMENT_3D ( 'NONE', #54, #908, #614 ) ;
#582 = EDGE_LOOP ( 'NONE', ( #977, #447, #864, #759 ) ) ;
#583 = DIRECTION ( 'NONE',  ( -0.000000000000000000, -0.000000000000000000, -1.000000000000000000 ) ) ;
#584 = PRODUCT_RELATED_PRODUCT_CATEGORY ( 'part', '', ( #858 ) ) ;
#585 = EDGE_LOOP ( 'NONE', ( #987, #621, #20, #903 ) ) ;
#586 = DIRECTION ( 'NONE',  ( -0.000000000000000000, -0.000000000000000000, -1.000000000000000000 ) ) ;
#587 = PRODUCT_DEFINITION_CONTEXT ( 'detailed design', #848, 'design' ) ;
#588 = CIRCLE ( 'NONE', #721, 21.55000000000000071 ) ;
#589 = CARTESIAN_POINT ( 'NONE',  ( -28.35000000000000142, 0.000000000000000000, 0.000000000000000000 ) ) ;
#590 = VECTOR ( 'NONE', #511, 1000.000000000000000 ) ;
#591 = DIRECTION ( 'NONE',  ( -0.000000000000000000, -0.000000000000000000, -1.000000000000000000 ) ) ;
#592 = EDGE_LOOP ( 'NONE', ( #845, #64, #851, #457 ) ) ;
#593 = DIRECTION ( 'NONE',  ( 0.000000000000000000, 0.000000000000000000, 1.000000000000000000 ) ) ;
#594 = EDGE_CURVE ( 'NONE', #539, #425, #340, .T. ) ;
#595 = DIRECTION ( 'NONE',  ( 0.7071067811865414665, 0.000000000000000000, 0.7071067811865536790 ) ) ;
#596 = EDGE_LOOP ( 'NONE', ( #909, #309, #679, #490 ) ) ;
#597 = DIRECTION ( 'NONE',  ( -0.000000000000000000, -0.000000000000000000, -1.000000000000000000 ) ) ;
#598 = ORIENTED_EDGE ( 'NONE', *, *, #120, .T. ) ;
#599 = CARTESIAN_POINT ( 'NONE',  ( 26.30000000000000071, 0.000000000000000000, 0.000000000000000000 ) ) ;
#600 = EDGE_CURVE ( 'NONE', #146, #458, #225, .T. ) ;
#601 = CARTESIAN_POINT ( 'NONE',  ( 21.55000000000000071, 2.639113852162546308E-15, 0.5000000000000143219 ) ) ;
#602 = AXIS2_PLACEMENT_3D ( 'NONE', #200, #804, #115 ) ;
#603 = EDGE_LOOP ( 'NONE', ( #914, #364 ) ) ;
#604 =( LENGTH_UNIT ( ) NAMED_UNIT ( * ) SI_UNIT ( .MILLI., .METRE. ) );
#605 = ORIENTED_EDGE ( 'NONE', *, *, #551, .F. ) ;
#606 = FACE_OUTER_BOUND ( 'NONE', #792, .T. ) ;
#607 = CARTESIAN_POINT ( 'NONE',  ( 25.05000000000000071, 0.000000000000000000, 1.750000000000003109 ) ) ;
#608 = ADVANCED_FACE ( 'NONE', ( #663 ), #498, .F. ) ;
#609 = EDGE_LOOP ( 'NONE', ( #507, #286, #553, #466 ) ) ;
#610 = AXIS2_PLACEMENT_3D ( 'NONE', #648, #887, #651 ) ;
#611 = LINE ( 'NONE', #706, #284 ) ;
#612 = DIRECTION ( 'NONE',  ( -1.000000000000000000, 0.000000000000000000, 0.000000000000000000 ) ) ;
#613 = ORIENTED_EDGE ( 'NONE', *, *, #753, .T. ) ;
#614 = DIRECTION ( 'NONE',  ( 1.000000000000000000, 0.000000000000000000, 0.000000000000000000 ) ) ;
#615 = AXIS2_PLACEMENT_3D ( 'NONE', #341, #262, #636 ) ;
#616 = EDGE_CURVE ( 'NONE', #146, #476, #296, .T. ) ;
#617 = ORIENTED_EDGE ( 'NONE', *, *, #318, .F. ) ;
#618 = CARTESIAN_POINT ( 'NONE',  ( 26.30000000000000071, 0.000000000000000000, 2.000000000000000000 ) ) ;
#619 = EDGE_LOOP ( 'NONE', ( #101, #973, #742, #160 ) ) ;
#620 = AXIS2_PLACEMENT_3D ( 'NONE', #205, #591, #508 ) ;
#621 = ORIENTED_EDGE ( 'NONE', *, *, #687, .T. ) ;
#622 = CARTESIAN_POINT ( 'NONE',  ( 22.05000000000001492, 0.000000000000000000, 2.000000000000000000 ) ) ;
#623 = ORIENTED_EDGE ( 'NONE', *, *, #993, .T. ) ;
#624 = CIRCLE ( 'NONE', #191, 22.05000000000001492 ) ;
#625 = CARTESIAN_POINT ( 'NONE',  ( -1.250000000000277112, -26.30000000000000071, 1.750000000000003109 ) ) ;
#626 = ORIENTED_EDGE ( 'NONE', *, *, #453, .F. ) ;
#627 = DIRECTION ( 'NONE',  ( -0.000000000000000000, -0.000000000000000000, -1.000000000000000000 ) ) ;
#628 = ADVANCED_FACE ( 'NONE', ( #606 ), #149, .F. ) ;
#629 = VERTEX_POINT ( 'NONE', #528 ) ;
#630 = DIRECTION ( 'NONE',  ( -0.000000000000000000, -0.000000000000000000, -1.000000000000000000 ) ) ;
#631 = AXIS2_PLACEMENT_3D ( 'NONE', #343, #276, #802 ) ;
#632 = AXIS2_PLACEMENT_3D ( 'NONE', #322, #552, #393 ) ;
#633 = ORIENTED_EDGE ( 'NONE', *, *, #773, .T. ) ;
#634 = DIRECTION ( 'NONE',  ( -1.000000000000000000, 0.000000000000000000, 0.000000000000000000 ) ) ;
#635 = ORIENTED_EDGE ( 'NONE', *, *, #791, .F. ) ;
#636 = DIRECTION ( 'NONE',  ( -1.000000000000000000, 0.000000000000000000, 0.000000000000000000 ) ) ;
#637 = STYLED_ITEM ( 'NONE', ( #698 ), #955 ) ;
#638 = CARTESIAN_POINT ( 'NONE',  ( -27.55000000000000071, 1.530808498934193543E-16, 1.750000000000003109 ) ) ;
#639 = ORIENTED_EDGE ( 'NONE', *, *, #503, .F. ) ;
#640 = FACE_OUTER_BOUND ( 'NONE', #900, .T. ) ;
#641 = EDGE_CURVE ( 'NONE', #207, #125, #668, .T. ) ;
#642 = CIRCLE ( 'NONE', #204, 1.499999999999994449 ) ;
#643 = DIRECTION ( 'NONE',  ( -0.000000000000000000, 0.000000000000000000, -1.000000000000000000 ) ) ;
#644 = ORIENTED_EDGE ( 'NONE', *, *, #868, .F. ) ;
#645 = CARTESIAN_POINT ( 'NONE',  ( -27.79999999999999361, 0.000000000000000000, 0.000000000000000000 ) ) ;
#646 = ADVANCED_FACE ( 'NONE', ( #361 ), #881, .F. ) ;
#647 = CONICAL_SURFACE ( 'NONE', #949, 1.499999999999994449, 0.7853981633974396193 ) ;
#648 = CARTESIAN_POINT ( 'NONE',  ( -2.754778776347232154E-13, -26.30000000000000071, 2.000000000000000000 ) ) ;
#649 = DIRECTION ( 'NONE',  ( -0.000000000000000000, -0.000000000000000000, -1.000000000000000000 ) ) ;
#650 = VECTOR ( 'NONE', #956, 1000.000000000000000 ) ;
#651 = DIRECTION ( 'NONE',  ( -1.000000000000000000, 0.000000000000000000, 0.000000000000000000 ) ) ;
#652 = EDGE_CURVE ( 'NONE', #555, #207, #324, .T. ) ;
#653 = DIRECTION ( 'NONE',  ( 1.000000000000000000, 0.000000000000000000, 0.000000000000000000 ) ) ;
#654 = CARTESIAN_POINT ( 'NONE',  ( -1.249999999999910072, 26.30000000000000071, 1.750000000000003109 ) ) ;
#655 = ADVANCED_FACE ( 'NONE', ( #674 ), #699, .T. ) ;
#656 = DIRECTION ( 'NONE',  ( 1.000000000000000000, 0.000000000000000000, 0.000000000000000000 ) ) ;
#657 = ORIENTED_EDGE ( 'NONE', *, *, #594, .T. ) ;
#658 = DIRECTION ( 'NONE',  ( -1.000000000000000000, 0.000000000000000000, 0.000000000000000000 ) ) ;
#659 = AXIS2_PLACEMENT_3D ( 'NONE', #793, #630, #36 ) ;
#660 = ADVANCED_FACE ( 'NONE', ( #315, #945, #265, #711, #257, #477 ), #567, .T. ) ;
#661 = DIRECTION ( 'NONE',  ( -0.000000000000000000, -0.000000000000000000, -1.000000000000000000 ) ) ;
#662 = ORIENTED_EDGE ( 'NONE', *, *, #889, .T. ) ;
#663 = FACE_OUTER_BOUND ( 'NONE', #470, .T. ) ;
#664 = MECHANICAL_DESIGN_GEOMETRIC_PRESENTATION_REPRESENTATION (  '', ( #637 ), #764 ) ;
#665 = ORIENTED_EDGE ( 'NONE', *, *, #746, .F. ) ;
#666 = CARTESIAN_POINT ( 'NONE',  ( 0.000000000000000000, 0.000000000000000000, 0.000000000000000000 ) ) ;
#667 = ORIENTED_EDGE ( 'NONE', *, *, #214, .T. ) ;
#668 = LINE ( 'NONE', #365, #67 ) ;
#669 = LINE ( 'NONE', #288, #798 ) ;
#670 = AXIS2_PLACEMENT_3D ( 'NONE', #81, #767, #893 ) ;
#671 = DIRECTION ( 'NONE',  ( 1.000000000000000000, 0.000000000000000000, 0.000000000000000000 ) ) ;
#672 = EDGE_CURVE ( 'NONE', #164, #809, #739, .T. ) ;
#673 = ORIENTED_EDGE ( 'NONE', *, *, #465, .F. ) ;
#674 = FACE_OUTER_BOUND ( 'NONE', #150, .T. ) ;
#675 = DIRECTION ( 'NONE',  ( -1.000000000000000000, 0.000000000000000000, 0.000000000000000000 ) ) ;
#676 = VECTOR ( 'NONE', #144, 1000.000000000000000 ) ;
#677 = VERTEX_POINT ( 'NONE', #724 ) ;
#678 =( LENGTH_UNIT ( ) NAMED_UNIT ( * ) SI_UNIT ( .MILLI., .METRE. ) );
#679 = ORIENTED_EDGE ( 'NONE', *, *, #94, .F. ) ;
#680 = DIRECTION ( 'NONE',  ( -1.000000000000000000, 0.000000000000000000, 0.000000000000000000 ) ) ;
#681 = EDGE_CURVE ( 'NONE', #555, #425, #796, .T. ) ;
#682 = LINE ( 'NONE', #71, #590 ) ;
#683 = VERTEX_POINT ( 'NONE', #113 ) ;
#684 = LINE ( 'NONE', #519, #157 ) ;
#685 = ORIENTED_EDGE ( 'NONE', *, *, #478, .T. ) ;
#686 = CARTESIAN_POINT ( 'NONE',  ( -21.55000000000000071, 0.000000000000000000, 0.5000000000000143219 ) ) ;
#687 = EDGE_CURVE ( 'NONE', #940, #277, #179, .T. ) ;
#688 = ORIENTED_EDGE ( 'NONE', *, *, #791, .T. ) ;
#689 = CIRCLE ( 'NONE', #301, 1.250000000000001110 ) ;
#690 = DIRECTION ( 'NONE',  ( 0.000000000000000000, 0.000000000000000000, 1.000000000000000000 ) ) ;
#691 = DIRECTION ( 'NONE',  ( 1.000000000000000000, 0.000000000000000000, 0.000000000000000000 ) ) ;
#692 = DIRECTION ( 'NONE',  ( 0.000000000000000000, 0.000000000000000000, 1.000000000000000000 ) ) ;
#693 = EDGE_LOOP ( 'NONE', ( #403, #314, #702, #736 ) ) ;
#694 = AXIS2_PLACEMENT_3D ( 'NONE', #93, #108, #704 ) ;
#695 = EDGE_LOOP ( 'NONE', ( #730, #984, #917, #718 ) ) ;
#696 = CARTESIAN_POINT ( 'NONE',  ( 9.182595921157440093E-14, 26.30000000000000071, 0.000000000000000000 ) ) ;
#697 = ORIENTED_EDGE ( 'NONE', *, *, #672, .F. ) ;
#698 = PRESENTATION_STYLE_ASSIGNMENT (( #387 ) ) ;
#699 = CYLINDRICAL_SURFACE ( 'NONE', #433, 28.35000000000000142 ) ;
#700 = DIRECTION ( 'NONE',  ( 0.000000000000000000, 0.000000000000000000, 1.000000000000000000 ) ) ;
#701 = CARTESIAN_POINT ( 'NONE',  ( -26.30000000000000071, 0.000000000000000000, 0.000000000000000000 ) ) ;
#702 = ORIENTED_EDGE ( 'NONE', *, *, #600, .T. ) ;
#703 = VECTOR ( 'NONE', #266, 1000.000000000000000 ) ;
#704 = DIRECTION ( 'NONE',  ( 1.000000000000000000, 0.000000000000000000, 0.000000000000000000 ) ) ;
#705 = AXIS2_PLACEMENT_3D ( 'NONE', #994, #238, #165 ) ;
#706 = CARTESIAN_POINT ( 'NONE',  ( 1.499999999999719114, -26.30000000000000071, 0.000000000000000000 ) ) ;
#707 = EDGE_CURVE ( 'NONE', #182, #68, #23, .T. ) ;
#708 = FACE_OUTER_BOUND ( 'NONE', #127, .T. ) ;
#709 = EDGE_LOOP ( 'NONE', ( #853, #95 ) ) ;
#710 = PRODUCT_DEFINITION_SHAPE ( 'NONE', 'NONE',  #985 ) ;
#711 = FACE_BOUND ( 'NONE', #781, .T. ) ;
#712 = AXIS2_PLACEMENT_3D ( 'NONE', #252, #175, #491 ) ;
#713 = DIRECTION ( 'NONE',  ( -1.000000000000000000, 0.000000000000000000, 0.000000000000000000 ) ) ;
#714 = EDGE_LOOP ( 'NONE', ( #51, #657 ) ) ;
#715 = DIRECTION ( 'NONE',  ( 1.000000000000000000, 0.000000000000000000, 0.000000000000000000 ) ) ;
#716 = AXIS2_PLACEMENT_3D ( 'NONE', #812, #128, #432 ) ;
#717 = DIRECTION ( 'NONE',  ( 1.000000000000000000, 0.000000000000000000, 0.000000000000000000 ) ) ;
#718 = ORIENTED_EDGE ( 'NONE', *, *, #388, .F. ) ;
#719 = ADVANCED_FACE ( 'NONE', ( #184 ), #562, .F. ) ;
#720 = DIRECTION ( 'NONE',  ( 1.000000000000000000, 0.000000000000000000, 0.000000000000000000 ) ) ;
#721 = AXIS2_PLACEMENT_3D ( 'NONE', #401, #166, #464 ) ;
#722 = VECTOR ( 'NONE', #302, 1000.000000000000000 ) ;
#723 = FACE_OUTER_BOUND ( 'NONE', #777, .T. ) ;
#724 = CARTESIAN_POINT ( 'NONE',  ( 1.499999999999719114, -26.30000000000000071, 2.000000000000000000 ) ) ;
#725 = VECTOR ( 'NONE', #756, 1000.000000000000000 ) ;
#726 = DIRECTION ( 'NONE',  ( 0.000000000000000000, 0.000000000000000000, 1.000000000000000000 ) ) ;
#727 = DIRECTION ( 'NONE',  ( 1.000000000000000000, 0.000000000000000000, 0.000000000000000000 ) ) ;
#728 = ADVANCED_FACE ( 'NONE', ( #640 ), #861, .F. ) ;
#729 = CARTESIAN_POINT ( 'NONE',  ( -2.754778776347232154E-13, -26.30000000000000071, 2.000000000000000000 ) ) ;
#730 = ORIENTED_EDGE ( 'NONE', *, *, #616, .F. ) ;
#731 = CARTESIAN_POINT ( 'NONE',  ( 9.182595921157440093E-14, 26.30000000000000071, 1.750000000000003109 ) ) ;
#732 = ORIENTED_EDGE ( 'NONE', *, *, #82, .F. ) ;
#733 = AXIS2_PLACEMENT_3D ( 'NONE', #926, #391, #254 ) ;
#734 = CARTESIAN_POINT ( 'NONE',  ( -1.500000000000269784, -26.30000000000000071, 0.000000000000000000 ) ) ;
#735 = DIRECTION ( 'NONE',  ( -1.000000000000000000, 0.000000000000000000, 0.000000000000000000 ) ) ;
#736 = ORIENTED_EDGE ( 'NONE', *, *, #566, .T. ) ;
#737 = CARTESIAN_POINT ( 'NONE',  ( 26.30000000000000071, 0.000000000000000000, 0.000000000000000000 ) ) ;
#738 = CONICAL_SURFACE ( 'NONE', #936, 1.250000000000001110, 0.7853981633974396193 ) ;
#739 = CIRCLE ( 'NONE', #758, 1.499999999999994449 ) ;
#740 = FACE_OUTER_BOUND ( 'NONE', #619, .T. ) ;
#741 = CIRCLE ( 'NONE', #134, 1.250000000000001110 ) ;
#742 = ORIENTED_EDGE ( 'NONE', *, *, #394, .T. ) ;
#743 = DIRECTION ( 'NONE',  ( 0.000000000000000000, 0.000000000000000000, -1.000000000000000000 ) ) ;
#744 = CARTESIAN_POINT ( 'NONE',  ( 9.182595921157440093E-14, 26.30000000000000071, 0.000000000000000000 ) ) ;
#745 = CARTESIAN_POINT ( 'NONE',  ( -25.05000000000000071, 0.000000000000000000, 1.750000000000003109 ) ) ;
#746 = EDGE_CURVE ( 'NONE', #450, #218, #872, .T. ) ;
#747 = EDGE_LOOP ( 'NONE', ( #579, #187 ) ) ;
#748 = DIRECTION ( 'NONE',  ( 1.000000000000000000, 0.000000000000000000, 0.000000000000000000 ) ) ;
#749 = VECTOR ( 'NONE', #105, 1000.000000000000000 ) ;
#750 = DIRECTION ( 'NONE',  ( 0.000000000000000000, 0.000000000000000000, -1.000000000000000000 ) ) ;
#751 = VECTOR ( 'NONE', #595, 1000.000000000000000 ) ;
#752 = ORIENTED_EDGE ( 'NONE', *, *, #453, .T. ) ;
#753 = EDGE_CURVE ( 'NONE', #550, #161, #274, .T. ) ;
#754 = EDGE_CURVE ( 'NONE', #182, #118, #413, .T. ) ;
#755 = EDGE_LOOP ( 'NONE', ( #983, #474, #98, #841 ) ) ;
#756 = DIRECTION ( 'NONE',  ( -0.7071067811865414665, 8.659560562354860135E-17, 0.7071067811865536790 ) ) ;
#757 = CARTESIAN_POINT ( 'NONE',  ( -2.754778776347232154E-13, -26.30000000000000071, 0.000000000000000000 ) ) ;
#758 = AXIS2_PLACEMENT_3D ( 'NONE', #785, #564, #560 ) ;
#759 = ORIENTED_EDGE ( 'NONE', *, *, #681, .F. ) ;
#760 = SURFACE_SIDE_STYLE ('',( #9 ) ) ;
#761 = CARTESIAN_POINT ( 'NONE',  ( 1.500000000000086153, 26.30000000000000071, 2.000000000000000000 ) ) ;
#762 = EDGE_CURVE ( 'NONE', #961, #2, #231, .T. ) ;
#763 = DIRECTION ( 'NONE',  ( 1.000000000000000000, 0.000000000000000000, 0.000000000000000000 ) ) ;
#764 =( GEOMETRIC_REPRESENTATION_CONTEXT ( 3 ) GLOBAL_UNCERTAINTY_ASSIGNED_CONTEXT ( ( #816 ) ) GLOBAL_UNIT_ASSIGNED_CONTEXT ( ( #678, #147, #305 ) ) REPRESENTATION_CONTEXT ( 'NONE', 'WORKASPACE' ) );
#765 = ORIENTED_EDGE ( 'NONE', *, *, #446, .T. ) ;
#766 = DIRECTION ( 'NONE',  ( 0.7071067811865414665, 8.659560562354860135E-17, -0.7071067811865536790 ) ) ;
#767 = DIRECTION ( 'NONE',  ( 0.000000000000000000, 0.000000000000000000, 1.000000000000000000 ) ) ;
#768 = CIRCLE ( 'NONE', #282, 28.35000000000000142 ) ;
#769 = ORIENTED_EDGE ( 'NONE', *, *, #594, .F. ) ;
#770 = CARTESIAN_POINT ( 'NONE',  ( 1.500000000000086153, 26.30000000000000071, 0.000000000000000000 ) ) ;
#771 = CYLINDRICAL_SURFACE ( 'NONE', #45, 1.250000000000001110 ) ;
#772 = EDGE_LOOP ( 'NONE', ( #673, #938, #236, #765 ) ) ;
#773 = EDGE_CURVE ( 'NONE', #14, #890, #937, .T. ) ;
#774 = CARTESIAN_POINT ( 'NONE',  ( 0.000000000000000000, 0.000000000000000000, 1.499999999999996225 ) ) ;
#775 = DIRECTION ( 'NONE',  ( -0.000000000000000000, -0.000000000000000000, -1.000000000000000000 ) ) ;
#776 = DIRECTION ( 'NONE',  ( 1.000000000000000000, 0.000000000000000000, 0.000000000000000000 ) ) ;
#777 = EDGE_LOOP ( 'NONE', ( #617, #72, #316, #635 ) ) ;
#778 = CIRCLE ( 'NONE', #473, 1.499999999999994449 ) ;
#779 = EDGE_CURVE ( 'NONE', #354, #146, #183, .T. ) ;
#780 = DIRECTION ( 'NONE',  ( 0.000000000000000000, 0.000000000000000000, -1.000000000000000000 ) ) ;
#781 = EDGE_LOOP ( 'NONE', ( #613, #688 ) ) ;
#782 = LINE ( 'NONE', #96, #79 ) ;
#783 = ORIENTED_EDGE ( 'NONE', *, *, #347, .F. ) ;
#784 = AXIS2_PLACEMENT_3D ( 'NONE', #701, #469, #776 ) ;
#785 = CARTESIAN_POINT ( 'NONE',  ( -26.30000000000000071, 0.000000000000000000, 0.000000000000000000 ) ) ;
#786 = EDGE_CURVE ( 'NONE', #218, #979, #353, .T. ) ;
#787 = CARTESIAN_POINT ( 'NONE',  ( 0.000000000000000000, 0.000000000000000000, 0.000000000000000000 ) ) ;
#788 = DIRECTION ( 'NONE',  ( 0.000000000000000000, 0.000000000000000000, 1.000000000000000000 ) ) ;
#789 = VECTOR ( 'NONE', #99, 1000.000000000000000 ) ;
#790 = CARTESIAN_POINT ( 'NONE',  ( -25.05000000000000071, 1.530808498934194282E-16, 0.2499999999999969746 ) ) ;
#791 = EDGE_CURVE ( 'NONE', #161, #550, #916, .T. ) ;
#792 = EDGE_LOOP ( 'NONE', ( #894, #431, #8, #328 ) ) ;
#793 = CARTESIAN_POINT ( 'NONE',  ( -26.30000000000000071, 0.000000000000000000, 2.000000000000000000 ) ) ;
#794 = DIRECTION ( 'NONE',  ( 0.000000000000000000, 0.000000000000000000, 1.000000000000000000 ) ) ;
#795 = EDGE_LOOP ( 'NONE', ( #481, #331, #412, #769 ) ) ;
#796 = LINE ( 'NONE', #942, #129 ) ;
#797 = AXIS2_PLACEMENT_3D ( 'NONE', #350, #346, #35 ) ;
#798 = VECTOR ( 'NONE', #159, 1000.000000000000000 ) ;
#799 = CARTESIAN_POINT ( 'NONE',  ( 1.250000000000093481, 26.30000000000000071, 1.750000000000003109 ) ) ;
#800 = DIRECTION ( 'NONE',  ( 1.000000000000000000, 0.000000000000000000, 0.000000000000000000 ) ) ;
#801 = EDGE_CURVE ( 'NONE', #860, #458, #307, .T. ) ;
#802 = DIRECTION ( 'NONE',  ( 1.000000000000000000, 0.000000000000000000, 0.000000000000000000 ) ) ;
#803 = EDGE_LOOP ( 'NONE', ( #234, #662 ) ) ;
#804 = DIRECTION ( 'NONE',  ( -0.000000000000000000, -0.000000000000000000, -1.000000000000000000 ) ) ;
#805 = EDGE_CURVE ( 'NONE', #336, #14, #485, .T. ) ;
#806 = DIRECTION ( 'NONE',  ( 0.000000000000000000, 0.000000000000000000, 1.000000000000000000 ) ) ;
#807 = ORIENTED_EDGE ( 'NONE', *, *, #325, .T. ) ;
#808 = CARTESIAN_POINT ( 'NONE',  ( 1.249999999999726441, -26.30000000000000071, 2.000000000000000000 ) ) ;
#809 = VERTEX_POINT ( 'NONE', #645 ) ;
#810 = AXIS2_PLACEMENT_3D ( 'NONE', #173, #245, #854 ) ;
#811 = CARTESIAN_POINT ( 'NONE',  ( 28.35000000000000142, 3.471873675582746420E-15, 0.000000000000000000 ) ) ;
#812 = CARTESIAN_POINT ( 'NONE',  ( -26.30000000000000071, 0.000000000000000000, 2.000000000000000000 ) ) ;
#813 = ORIENTED_EDGE ( 'NONE', *, *, #267, .T. ) ;
#814 = CARTESIAN_POINT ( 'NONE',  ( -1.250000000000277112, -26.30000000000000071, 2.000000000000000000 ) ) ;
#815 = CIRCLE ( 'NONE', #369, 1.250000000000001110 ) ;
#816 = UNCERTAINTY_MEASURE_WITH_UNIT (LENGTH_MEASURE( 1.000000000000000082E-05 ), #678, 'distance_accuracy_value', 'NONE');
#817 = CIRCLE ( 'NONE', #70, 21.55000000000000071 ) ;
#818 = EDGE_CURVE ( 'NONE', #277, #53, #197, .T. ) ;
#819 = DIRECTION ( 'NONE',  ( 0.000000000000000000, 0.000000000000000000, 1.000000000000000000 ) ) ;
#820 = DIRECTION ( 'NONE',  ( 0.000000000000000000, 0.000000000000000000, 1.000000000000000000 ) ) ;
#821 = AXIS2_PLACEMENT_3D ( 'NONE', #363, #583, #800 ) ;
#822 = ORIENTED_EDGE ( 'NONE', *, *, #460, .F. ) ;
#823 = LINE ( 'NONE', #514, #229 ) ;
#824 = LINE ( 'NONE', #831, #751 ) ;
#825 = EDGE_CURVE ( 'NONE', #534, #92, #384, .T. ) ;
#826 = ORIENTED_EDGE ( 'NONE', *, *, #180, .F. ) ;
#827 = FACE_OUTER_BOUND ( 'NONE', #755, .T. ) ;
#828 = ORIENTED_EDGE ( 'NONE', *, *, #394, .F. ) ;
#829 = DIRECTION ( 'NONE',  ( 0.000000000000000000, 0.000000000000000000, 1.000000000000000000 ) ) ;
#830 = CONICAL_SURFACE ( 'NONE', #239, 1.250000000000001110, 0.7853981633974396193 ) ;
#831 = CARTESIAN_POINT ( 'NONE',  ( 1.249999999999726441, -26.30000000000000071, 1.750000000000003109 ) ) ;
#832 = ORIENTED_EDGE ( 'NONE', *, *, #879, .T. ) ;
#833 = EDGE_CURVE ( 'NONE', #168, #118, #817, .T. ) ;
#834 = VERTEX_POINT ( 'NONE', #416 ) ;
#835 = CARTESIAN_POINT ( 'NONE',  ( 26.30000000000000071, 0.000000000000000000, 1.750000000000003109 ) ) ;
#836 = DIRECTION ( 'NONE',  ( 0.000000000000000000, 0.000000000000000000, -1.000000000000000000 ) ) ;
#837 = ORIENTED_EDGE ( 'NONE', *, *, #4, .F. ) ;
#838 = SHAPE_DEFINITION_REPRESENTATION ( #710, #41 ) ;
#839 = DIRECTION ( 'NONE',  ( 0.000000000000000000, 0.000000000000000000, 1.000000000000000000 ) ) ;
#840 = DIRECTION ( 'NONE',  ( 0.000000000000000000, 0.000000000000000000, 1.000000000000000000 ) ) ;
#841 = ORIENTED_EDGE ( 'NONE', *, *, #111, .F. ) ;
#842 = ORIENTED_EDGE ( 'NONE', *, *, #906, .T. ) ;
#843 = DIRECTION ( 'NONE',  ( 1.000000000000000000, 0.000000000000000000, 0.000000000000000000 ) ) ;
#844 = CIRCLE ( 'NONE', #784, 1.499999999999994449 ) ;
#845 = ORIENTED_EDGE ( 'NONE', *, *, #298, .F. ) ;
#846 = AXIS2_PLACEMENT_3D ( 'NONE', #390, #700, #548 ) ;
#847 = ORIENTED_EDGE ( 'NONE', *, *, #786, .T. ) ;
#848 = APPLICATION_CONTEXT ( 'automotive_design' ) ;
#849 = DIRECTION ( 'NONE',  ( -1.000000000000000000, 0.000000000000000000, 0.000000000000000000 ) ) ;
#850 = EDGE_CURVE ( 'NONE', #125, #940, #741, .T. ) ;
#851 = ORIENTED_EDGE ( 'NONE', *, *, #421, .T. ) ;
#852 = CARTESIAN_POINT ( 'NONE',  ( 27.55000000000000071, 1.530808498934194282E-16, 1.750000000000003109 ) ) ;
#853 = ORIENTED_EDGE ( 'NONE', *, *, #495, .T. ) ;
#854 = DIRECTION ( 'NONE',  ( 1.000000000000000000, 0.000000000000000000, 0.000000000000000000 ) ) ;
#855 = EDGE_LOOP ( 'NONE', ( #685, #923, #356, #256 ) ) ;
#856 = EDGE_CURVE ( 'NONE', #629, #550, #196, .T. ) ;
#857 = DIRECTION ( 'NONE',  ( -0.000000000000000000, -0.000000000000000000, -1.000000000000000000 ) ) ;
#858 = PRODUCT ( '6807 Bearing Clamp', '6807 Bearing Clamp', '', ( #444 ) ) ;
#859 = CARTESIAN_POINT ( 'NONE',  ( -1.249999999999910072, 26.30000000000000071, 1.750000000000003109 ) ) ;
#860 = VERTEX_POINT ( 'NONE', #348 ) ;
#861 = CYLINDRICAL_SURFACE ( 'NONE', #712, 21.55000000000000071 ) ;
#862 = ADVANCED_FACE ( 'NONE', ( #278 ), #902, .F. ) ;
#863 = FACE_OUTER_BOUND ( 'NONE', #855, .T. ) ;
#864 = ORIENTED_EDGE ( 'NONE', *, *, #25, .F. ) ;
#865 = CARTESIAN_POINT ( 'NONE',  ( -21.55000000000000071, 2.639113852162546308E-15, 1.499999999999996225 ) ) ;
#866 = VECTOR ( 'NONE', #883, 1000.000000000000000 ) ;
#867 = AXIS2_PLACEMENT_3D ( 'NONE', #333, #408, #720 ) ;
#868 = EDGE_CURVE ( 'NONE', #890, #450, #6, .T. ) ;
#869 = DIRECTION ( 'NONE',  ( 0.000000000000000000, 0.000000000000000000, -1.000000000000000000 ) ) ;
#870 = EDGE_LOOP ( 'NONE', ( #732, #247, #377, #826 ) ) ;
#871 = AXIS2_PLACEMENT_3D ( 'NONE', #731, #888, #44 ) ;
#872 = LINE ( 'NONE', #487, #789 ) ;
#873 = CARTESIAN_POINT ( 'NONE',  ( 25.05000000000000071, 1.530808498934193543E-16, 1.750000000000003109 ) ) ;
#874 = ADVANCED_FACE ( 'NONE', ( #576 ), #270, .F. ) ;
#875 = DIRECTION ( 'NONE',  ( -0.000000000000000000, -0.000000000000000000, -1.000000000000000000 ) ) ;
#876 = VECTOR ( 'NONE', #235, 1000.000000000000000 ) ;
#877 = AXIS2_PLACEMENT_3D ( 'NONE', #924, #156, #691 ) ;
#878 = LINE ( 'NONE', #873, #972 ) ;
#879 = EDGE_CURVE ( 'NONE', #118, #168, #311, .T. ) ;
#880 = DIRECTION ( 'NONE',  ( 0.000000000000000000, 0.000000000000000000, 1.000000000000000000 ) ) ;
#881 = CONICAL_SURFACE ( 'NONE', #451, 1.499999999999994449, 0.7853981633974396193 ) ;
#882 = AXIS2_PLACEMENT_3D ( 'NONE', #482, #875, #472 ) ;
#883 = DIRECTION ( 'NONE',  ( -0.7071067811865414665, 8.659560562354860135E-17, 0.7071067811865536790 ) ) ;
#884 = DIRECTION ( 'NONE',  ( -0.000000000000000000, -0.000000000000000000, -1.000000000000000000 ) ) ;
#885 = EDGE_CURVE ( 'NONE', #450, #890, #217, .T. ) ;
#886 = ORIENTED_EDGE ( 'NONE', *, *, #652, .T. ) ;
#887 = DIRECTION ( 'NONE',  ( -0.000000000000000000, 0.000000000000000000, -1.000000000000000000 ) ) ;
#888 = DIRECTION ( 'NONE',  ( 0.000000000000000000, 0.000000000000000000, 1.000000000000000000 ) ) ;
#889 = EDGE_CURVE ( 'NONE', #683, #486, #778, .T. ) ;
#890 = VERTEX_POINT ( 'NONE', #963 ) ;
#891 = AXIS2_PLACEMENT_3D ( 'NONE', #376, #750, #612 ) ;
#892 = CARTESIAN_POINT ( 'NONE',  ( -28.35000000000000142, 0.000000000000000000, 2.000000000000000000 ) ) ;
#893 = DIRECTION ( 'NONE',  ( 1.000000000000000000, 0.000000000000000000, 0.000000000000000000 ) ) ;
#894 = ORIENTED_EDGE ( 'NONE', *, *, #707, .F. ) ;
#895 = FACE_OUTER_BOUND ( 'NONE', #772, .T. ) ;
#896 = ORIENTED_EDGE ( 'NONE', *, *, #120, .F. ) ;
#897 = DIRECTION ( 'NONE',  ( 0.000000000000000000, 0.000000000000000000, 1.000000000000000000 ) ) ;
#898 = VECTOR ( 'NONE', #62, 1000.000000000000000 ) ;
#899 = CARTESIAN_POINT ( 'NONE',  ( -2.754778776347232154E-13, -26.30000000000000071, 1.750000000000003109 ) ) ;
#900 = EDGE_LOOP ( 'NONE', ( #947, #242, #122, #233 ) ) ;
#901 = FACE_OUTER_BOUND ( 'NONE', #461, .T. ) ;
#902 = CONICAL_SURFACE ( 'NONE', #264, 1.499999999999994449, 0.7853981633974396193 ) ;
#903 = ORIENTED_EDGE ( 'NONE', *, *, #267, .F. ) ;
#904 = DIRECTION ( 'NONE',  ( 1.000000000000000000, 0.000000000000000000, 0.000000000000000000 ) ) ;
#905 = DIRECTION ( 'NONE',  ( 0.000000000000000000, 0.000000000000000000, -1.000000000000000000 ) ) ;
#906 = EDGE_CURVE ( 'NONE', #386, #138, #344, .T. ) ;
#907 = EDGE_LOOP ( 'NONE', ( #399, #321 ) ) ;
#908 = DIRECTION ( 'NONE',  ( 0.000000000000000000, 0.000000000000000000, 1.000000000000000000 ) ) ;
#909 = ORIENTED_EDGE ( 'NONE', *, *, #833, .F. ) ;
#910 = CYLINDRICAL_SURFACE ( 'NONE', #167, 28.35000000000000142 ) ;
#911 = CARTESIAN_POINT ( 'NONE',  ( -2.754778776347232154E-13, -26.30000000000000071, 2.000000000000000000 ) ) ;
#912 = ORIENTED_EDGE ( 'NONE', *, *, #417, .T. ) ;
#913 =( NAMED_UNIT ( * ) PLANE_ANGLE_UNIT ( ) SI_UNIT ( $, .RADIAN. ) );
#914 = ORIENTED_EDGE ( 'NONE', *, *, #577, .T. ) ;
#915 = FACE_OUTER_BOUND ( 'NONE', #142, .T. ) ;
#916 = CIRCLE ( 'NONE', #261, 1.499999999999994449 ) ;
#917 = ORIENTED_EDGE ( 'NONE', *, *, #180, .T. ) ;
#918 = CARTESIAN_POINT ( 'NONE',  ( 1.500000000000086153, 26.30000000000000071, 0.000000000000000000 ) ) ;
#919 = EDGE_CURVE ( 'NONE', #14, #336, #172, .T. ) ;
#920 = FACE_OUTER_BOUND ( 'NONE', #582, .T. ) ;
#921 = FACE_OUTER_BOUND ( 'NONE', #110, .T. ) ;
#922 = CONICAL_SURFACE ( 'NONE', #581, 1.250000000000001776, 0.7853981633974396193 ) ;
#923 = ORIENTED_EDGE ( 'NONE', *, *, #465, .T. ) ;
#924 = CARTESIAN_POINT ( 'NONE',  ( 26.30000000000000071, 0.000000000000000000, 2.000000000000000000 ) ) ;
#925 = EDGE_CURVE ( 'NONE', #354, #860, #273, .T. ) ;
#926 = CARTESIAN_POINT ( 'NONE',  ( 26.30000000000000071, 0.000000000000000000, 0.2499999999999969746 ) ) ;
#927 = AXIS2_PLACEMENT_3D ( 'NONE', #911, #456, #763 ) ;
#928 = ORIENTED_EDGE ( 'NONE', *, *, #4, .T. ) ;
#929 = CIRCLE ( 'NONE', #877, 1.499999999999994449 ) ;
#930 = DIRECTION ( 'NONE',  ( 0.7071067811865378028, 8.659560562354814529E-17, -0.7071067811865573427 ) ) ;
#931 = CARTESIAN_POINT ( 'NONE',  ( -27.55000000000000071, 0.000000000000000000, 1.750000000000003109 ) ) ;
#932 = DIRECTION ( 'NONE',  ( 1.000000000000000000, 0.000000000000000000, 0.000000000000000000 ) ) ;
#933 = ORIENTED_EDGE ( 'NONE', *, *, #600, .F. ) ;
#934 = AXIS2_PLACEMENT_3D ( 'NONE', #962, #43, #569 ) ;
#935 = ADVANCED_FACE ( 'NONE', ( #740 ), #123, .F. ) ;
#936 = AXIS2_PLACEMENT_3D ( 'NONE', #835, #219, #748 ) ;
#937 = LINE ( 'NONE', #400, #152 ) ;
#938 = ORIENTED_EDGE ( 'NONE', *, *, #517, .T. ) ;
#939 = CARTESIAN_POINT ( 'NONE',  ( -26.30000000000000071, 0.000000000000000000, 2.000000000000000000 ) ) ;
#940 = VERTEX_POINT ( 'NONE', #49 ) ;
#941 = ADVANCED_FACE ( 'NONE', ( #352 ), #405, .F. ) ;
#942 = CARTESIAN_POINT ( 'NONE',  ( 27.55000000000000071, 0.000000000000000000, 1.750000000000003109 ) ) ;
#943 = DIRECTION ( 'NONE',  ( 0.000000000000000000, 0.000000000000000000, 1.000000000000000000 ) ) ;
#944 = ORIENTED_EDGE ( 'NONE', *, *, #818, .F. ) ;
#945 = FACE_BOUND ( 'NONE', #714, .T. ) ;
#946 = LINE ( 'NONE', #799, #957 ) ;
#947 = ORIENTED_EDGE ( 'NONE', *, *, #246, .T. ) ;
#948 = CARTESIAN_POINT ( 'NONE',  ( 26.30000000000000071, 0.000000000000000000, 0.000000000000000000 ) ) ;
#949 = AXIS2_PLACEMENT_3D ( 'NONE', #737, #292, #213 ) ;
#950 = LINE ( 'NONE', #109, #223 ) ;
#951 = AXIS2_PLACEMENT_3D ( 'NONE', #290, #500, #58 ) ;
#952 = CARTESIAN_POINT ( 'NONE',  ( 27.79999999999999361, 1.836970198721022785E-16, 0.000000000000000000 ) ) ;
#953 = CARTESIAN_POINT ( 'NONE',  ( 0.000000000000000000, 0.000000000000000000, 0.000000000000000000 ) ) ;
#954 = ADVANCED_FACE ( 'NONE', ( #895 ), #439, .F. ) ;
#955 = MANIFOLD_SOLID_BREP ( 'Chamfer2', #494 ) ;
#956 = DIRECTION ( 'NONE',  ( 0.7071067811865414665, 0.000000000000000000, 0.7071067811865536790 ) ) ;
#957 = VECTOR ( 'NONE', #497, 1000.000000000000000 ) ;
#958 = DIRECTION ( 'NONE',  ( 1.000000000000000000, 0.000000000000000000, 0.000000000000000000 ) ) ;
#959 = ADVANCED_FACE ( 'NONE', ( #901 ), #922, .F. ) ;
#960 = DIRECTION ( 'NONE',  ( -1.000000000000000000, 0.000000000000000000, 0.000000000000000000 ) ) ;
#961 = VERTEX_POINT ( 'NONE', #73 ) ;
#962 = CARTESIAN_POINT ( 'NONE',  ( -26.30000000000000071, 0.000000000000000000, 0.000000000000000000 ) ) ;
#963 = CARTESIAN_POINT ( 'NONE',  ( 1.250000000000093481, 26.30000000000000071, 0.2499999999999969746 ) ) ;
#964 = AXIS2_PLACEMENT_3D ( 'NONE', #525, #690, #237 ) ;
#965 = EDGE_CURVE ( 'NONE', #555, #940, #684, .T. ) ;
#966 = CONICAL_SURFACE ( 'NONE', #964, 21.55000000000000071, 0.7853981633974587151 ) ;
#967 = ORIENTED_EDGE ( 'NONE', *, *, #925, .T. ) ;
#968 = DIRECTION ( 'NONE',  ( 1.000000000000000000, 0.000000000000000000, 0.000000000000000000 ) ) ;
#969 = UNCERTAINTY_MEASURE_WITH_UNIT (LENGTH_MEASURE( 1.000000000000000082E-05 ), #604, 'distance_accuracy_value', 'NONE');
#970 = ORIENTED_EDGE ( 'NONE', *, *, #34, .F. ) ;
#971 = DIRECTION ( 'NONE',  ( -0.000000000000000000, 0.000000000000000000, -1.000000000000000000 ) ) ;
#972 = VECTOR ( 'NONE', #428, 1000.000000000000000 ) ;
#973 = ORIENTED_EDGE ( 'NONE', *, *, #919, .T. ) ;
#974 = AXIS2_PLACEMENT_3D ( 'NONE', #380, #373, #533 ) ;
#975 = CARTESIAN_POINT ( 'NONE',  ( -2.754778776347232154E-13, -26.30000000000000071, 0.000000000000000000 ) ) ;
#976 = FACE_OUTER_BOUND ( 'NONE', #870, .T. ) ;
#977 = ORIENTED_EDGE ( 'NONE', *, *, #228, .F. ) ;
#978 = DIRECTION ( 'NONE',  ( 0.000000000000000000, 0.000000000000000000, 1.000000000000000000 ) ) ;
#979 = VERTEX_POINT ( 'NONE', #918 ) ;
#980 = DIRECTION ( 'NONE',  ( -0.000000000000000000, -0.000000000000000000, -1.000000000000000000 ) ) ;
#981 = ADVANCED_FACE ( 'NONE', ( #827 ), #966, .F. ) ;
#982 = CARTESIAN_POINT ( 'NONE',  ( -27.55000000000000071, 0.000000000000000000, 0.2499999999999969746 ) ) ;
#983 = ORIENTED_EDGE ( 'NONE', *, *, #246, .F. ) ;
#984 = ORIENTED_EDGE ( 'NONE', *, *, #779, .F. ) ;
#985 = PRODUCT_DEFINITION ( 'UNKNOWN', '', #436, #587 ) ;
#986 = LINE ( 'NONE', #209, #61 ) ;
#987 = ORIENTED_EDGE ( 'NONE', *, *, #332, .F. ) ;
#988 = LINE ( 'NONE', #222, #578 ) ;
#989 = CARTESIAN_POINT ( 'NONE',  ( 0.000000000000000000, 0.000000000000000000, 0.000000000000000000 ) ) ;
#990 = AXIS2_PLACEMENT_3D ( 'NONE', #618, #163, #634 ) ;
#991 = CARTESIAN_POINT ( 'NONE',  ( -22.05000000000000071, 0.000000000000000000, 0.000000000000000000 ) ) ;
#992 = EDGE_LOOP ( 'NONE', ( #822, #86 ) ) ;
#993 = EDGE_CURVE ( 'NONE', #224, #164, #988, .T. ) ;
#994 = CARTESIAN_POINT ( 'NONE',  ( 26.30000000000000071, 0.000000000000000000, 1.750000000000003109 ) ) ;
#995 = CARTESIAN_POINT ( 'NONE',  ( 25.05000000000000071, 0.000000000000000000, 0.2499999999999969746 ) ) ;
ENDSEC;
END-ISO-10303-21;
